<svg width="121" height="121" viewBox="0 0 121 121" fill="none" xmlns="http://www.w3.org/2000/svg">
<path opacity="0.85" d="M60.1875 120.844C93.3246 120.844 120.188 93.9808 120.188 60.8438C120.188 27.7067 93.3246 0.84375 60.1875 0.84375C27.0504 0.84375 0.1875 27.7067 0.1875 60.8438C0.1875 93.9808 27.0504 120.844 60.1875 120.844Z" fill="#232323"/>
<path d="M49.93 82.9976L51.3756 37.6277L58.0297 29.1148L57.4591 92.7181L56.0905 90.9183L49.93 82.9976Z" stroke="white"/>
<path d="M70.0081 82.9976L69.3767 37.6078L62.8765 28.9692L62.3059 92.5725L63.7066 90.7992L70.0081 82.9976Z" stroke="white"/>
<path d="M45.2573 59.1161L45.4344 41.9584L44.7049 43.0299C38.72 53.3359 37.3212 54.0373 33.7822 57.577C32.2568 59.4683 29.9376 62.5431 29.2118 65.0377C28.2669 68.2851 27.3722 76.4554 32.5267 81.1502L32.5363 80.0783C32.6229 70.4306 39.6374 64.6609 45.2573 59.1161Z" stroke="white"/>
<path d="M75.1074 59.9598L75.2581 43.1656L76.2855 44.2475C82.0511 54.6658 83.4292 55.3937 86.8842 59.0003C89.3185 60.8103 90.6618 63.298 91.3326 66.1898C91.6648 67.6224 92.919 77.9977 87.7106 82.5935L87.7202 81.5215C87.8068 71.8738 80.5953 65.6107 75.1074 59.9598Z" stroke="white"/>
<path d="M52.7106 48.6758C54.6038 50.9698 77.7331 72.2956 87.8047 83.1918L42.9508 41.3213C44.5629 41.6156 44.8551 41.6051 45.7966 41.3213L48.8115 44.5855L52.7106 48.6758Z" stroke="white"/>
</svg>
