<svg width="121" height="121" viewBox="0 0 121 121" fill="none" xmlns="http://www.w3.org/2000/svg">
<path opacity="0.85" d="M60.1875 120.844C93.3246 120.844 120.188 93.9808 120.188 60.8438C120.188 27.7067 93.3246 0.84375 60.1875 0.84375C27.0504 0.84375 0.1875 27.7067 0.1875 60.8438C0.1875 93.9808 27.0504 120.844 60.1875 120.844Z" fill="#232323"/>
<path d="M38.5898 52.5352C38.5898 52.6055 38.5859 52.6758 38.5781 52.7461C38.5781 52.8164 38.5742 52.8828 38.5664 52.9453C38.543 52.9844 38.4961 53 38.4258 52.9922C38.3633 52.9844 38.3125 52.9805 38.2734 52.9805C38.2344 52.9805 38.1992 52.9883 38.168 53.0039C38.1445 53.0117 38.1328 53.0352 38.1328 53.0742C38.1328 53.1211 38.1367 53.1523 38.1445 53.168C38.082 53.1602 38.0156 53.1523 37.9453 53.1445C37.875 53.1367 37.8125 53.1133 37.7578 53.0742C37.6484 53.0977 37.543 53.1289 37.4414 53.168C37.3477 53.207 37.2539 53.25 37.1602 53.2969C37.0664 53.3438 36.9688 53.3867 36.8672 53.4258C36.7656 53.4648 36.6602 53.4883 36.5508 53.4961C36.4805 53.5742 36.3906 53.6328 36.2812 53.6719C36.1719 53.7109 36.0586 53.7461 35.9414 53.7773C35.8242 53.8086 35.7148 53.8477 35.6133 53.8945C35.5117 53.9336 35.4297 53.9961 35.3672 54.082C35.1953 54.0977 35.0312 54.1406 34.875 54.2109C34.7188 54.2812 34.5625 54.3555 34.4062 54.4336C34.2578 54.5117 34.1055 54.5859 33.9492 54.6562C33.793 54.7266 33.625 54.7734 33.4453 54.7969C33.3984 54.8438 33.3398 54.8828 33.2695 54.9141C33.207 54.9453 33.1406 54.9766 33.0703 55.0078C33 55.0312 32.9336 55.0586 32.8711 55.0898C32.8086 55.1211 32.7578 55.1641 32.7188 55.2188H32.6953C32.6641 55.2188 32.6406 55.2109 32.625 55.1953C32.6094 55.1797 32.5859 55.1719 32.5547 55.1719C32.5312 55.1719 32.5156 55.1758 32.5078 55.1836C32.3203 55.2695 32.1328 55.3594 31.9453 55.4531C31.7578 55.5469 31.5625 55.6367 31.3594 55.7227C30.9609 55.8867 30.5586 56.0469 30.1523 56.2031C29.7461 56.3594 29.3555 56.5508 28.9805 56.7773C28.8945 57.0898 28.8242 57.4102 28.7695 57.7383C28.7148 58.0586 28.6172 58.3672 28.4766 58.6641V59.2148C28.3984 59.3633 28.3477 59.5273 28.3242 59.707C28.3008 59.8867 28.2891 60.0586 28.2891 60.2227C28.2891 60.2852 28.2891 60.3438 28.2891 60.3984C28.2969 60.4453 28.3008 60.4961 28.3008 60.5508C28.5273 60.4883 28.7461 60.418 28.957 60.3398C29.1758 60.2617 29.3945 60.1914 29.6133 60.1289C29.7227 60.0898 29.832 60.0625 29.9414 60.0469C30.0586 60.0312 30.1719 60.0039 30.2812 59.9648C30.3672 59.9414 30.457 59.9102 30.5508 59.8711C30.6445 59.8242 30.7344 59.7812 30.8203 59.7422C31.0547 59.6406 31.293 59.5508 31.5352 59.4727C31.7852 59.3945 32.0391 59.3359 32.2969 59.2969C32.375 59.2344 32.4609 59.1758 32.5547 59.1211C32.6484 59.0664 32.7422 59.0391 32.8359 59.0391C32.9062 59.0391 32.9648 59.0508 33.0117 59.0742C33.1445 58.9961 33.3008 58.9258 33.4805 58.8633C33.6602 58.8008 33.8281 58.7773 33.9844 58.793C34.0234 58.7383 34.0703 58.7031 34.125 58.6875C34.1797 58.6641 34.2383 58.6523 34.3008 58.6523C34.332 58.6523 34.3594 58.6562 34.3828 58.6641C34.4141 58.6641 34.4492 58.6641 34.4883 58.6641C34.5664 58.6094 34.6523 58.5703 34.7461 58.5469C34.8398 58.5234 34.9336 58.5039 35.0273 58.4883C35.1211 58.4727 35.2109 58.4531 35.2969 58.4297C35.3906 58.3984 35.4727 58.3516 35.543 58.2891C35.6523 58.2969 35.7383 58.3281 35.8008 58.3828C35.8711 58.4375 35.9297 58.5039 35.9766 58.582C36.0234 58.6602 36.0625 58.7422 36.0938 58.8281C36.125 58.9141 36.1641 58.9961 36.2109 59.0742C36.1953 59.1367 36.1719 59.1875 36.1406 59.2266C36.1094 59.2578 36.0742 59.2891 36.0352 59.3203C35.9961 59.3516 35.9609 59.3828 35.9297 59.4141C35.8984 59.4453 35.8789 59.4883 35.8711 59.543C35.5977 59.543 35.332 59.582 35.0742 59.6602C34.8242 59.7383 34.5742 59.8281 34.3242 59.9297C34.082 60.0312 33.832 60.1289 33.5742 60.2227C33.3242 60.3086 33.0664 60.3633 32.8008 60.3867C32.7617 60.4258 32.7109 60.457 32.6484 60.4805L32.4727 60.5391C32.418 60.5547 32.3672 60.5781 32.3203 60.6094C32.2734 60.6328 32.2383 60.6719 32.2148 60.7266C32.168 60.7031 32.1172 60.6914 32.0625 60.6914C31.9297 60.6914 31.8008 60.7266 31.6758 60.7969C31.5508 60.8672 31.4102 60.9023 31.2539 60.9023C31.1914 60.9023 31.1484 60.8984 31.125 60.8906C31.0859 60.9609 31.0273 61.0117 30.9492 61.043C30.8789 61.0742 30.8008 61.1016 30.7148 61.125C30.6367 61.1406 30.5586 61.1641 30.4805 61.1953C30.4102 61.2266 30.3555 61.2812 30.3164 61.3594C30.293 61.3516 30.2656 61.3477 30.2344 61.3477H30.1641C30.0391 61.3477 29.8945 61.3711 29.7305 61.418C29.5742 61.457 29.4609 61.5352 29.3906 61.6523C29.3281 61.6367 29.2734 61.6289 29.2266 61.6289C29.1172 61.6289 29.0195 61.6523 28.9336 61.6992C28.8477 61.7383 28.7617 61.7852 28.6758 61.8398L28.418 62.0039C28.332 62.0586 28.2383 62.0977 28.1367 62.1211C27.9336 62.4102 27.793 62.7422 27.7148 63.1172C27.6367 63.4922 27.5781 63.8828 27.5391 64.2891C27.5078 64.6953 27.4766 65.0977 27.4453 65.4961C27.4141 65.9023 27.3516 66.2734 27.2578 66.6094C27.3047 66.7344 27.3398 66.8672 27.3633 67.0078C27.3867 67.1484 27.4062 67.2891 27.4219 67.4297C27.4375 67.5781 27.4531 67.7266 27.4688 67.875C27.4844 68.0234 27.5117 68.1641 27.5508 68.2969C27.5898 68.4609 27.6641 68.6055 27.7734 68.7305C27.8906 68.8633 27.9727 69.0117 28.0195 69.1758C28.0586 69.1836 28.0977 69.1875 28.1367 69.1875C28.1836 69.1953 28.2305 69.1992 28.2773 69.1992C28.5586 69.1992 28.8047 69.1445 29.0156 69.0352C29.2344 68.9258 29.4375 68.7891 29.625 68.625C29.8125 68.4688 29.9922 68.2969 30.1641 68.1094C30.3438 67.9297 30.5352 67.7695 30.7383 67.6289H30.9609C31.0156 67.5664 31.0625 67.5 31.1016 67.4297C31.1406 67.3594 31.1836 67.293 31.2305 67.2305C31.2773 67.168 31.332 67.1133 31.3945 67.0664C31.457 67.0273 31.5352 67 31.6289 66.9844C31.6523 66.8672 31.707 66.7773 31.793 66.7148C31.8789 66.6523 31.9375 66.5586 31.9688 66.4336C31.9844 66.4414 32.0039 66.4453 32.0273 66.4453C32.0898 66.4453 32.1367 66.4297 32.168 66.3984L32.3438 66.2344C32.4062 66.1719 32.4727 66.1094 32.543 66.0469C32.6211 65.9922 32.6953 65.9375 32.7656 65.8828C32.9922 65.7188 33.2188 65.5547 33.4453 65.3906C33.6719 65.2344 33.8789 65.0508 34.0664 64.8398C34.0742 64.8477 34.0859 64.8516 34.1016 64.8516C34.1641 64.8516 34.207 64.832 34.2305 64.793C34.2539 64.7539 34.3086 64.7422 34.3945 64.7578C34.4414 64.6875 34.4844 64.6172 34.5234 64.5469C34.5625 64.4688 34.5938 64.3867 34.6172 64.3008L34.9922 64.3477C35.1172 64.3633 35.2422 64.3711 35.3672 64.3711C35.4062 64.3711 35.4414 64.3711 35.4727 64.3711C35.5117 64.3633 35.5469 64.3516 35.5781 64.3359C35.6719 64.4844 35.7227 64.6445 35.7305 64.8164C35.7383 64.9805 35.7578 65.1445 35.7891 65.3086C35.7734 65.3086 35.7617 65.3086 35.7539 65.3086C35.7539 65.3008 35.7461 65.2969 35.7305 65.2969C35.6914 65.2969 35.6523 65.3125 35.6133 65.3438C35.582 65.3672 35.5469 65.3984 35.5078 65.4375L35.3906 65.5547C35.3516 65.5938 35.3164 65.625 35.2852 65.6484C35.1992 65.7031 35.1094 65.75 35.0156 65.7891C34.9219 65.8359 34.832 65.8828 34.7461 65.9297C34.6602 65.9766 34.5781 66.0312 34.5 66.0938C34.4219 66.1641 34.3594 66.25 34.3125 66.3516C34.1562 66.4141 34.0039 66.4805 33.8555 66.5508C33.7148 66.6211 33.5781 66.6953 33.4453 66.7734C33.4062 66.8125 33.3711 66.8516 33.3398 66.8906C33.3086 66.9297 33.2852 66.9727 33.2695 67.0195C33.0586 67.0898 32.8828 67.1953 32.7422 67.3359C32.6094 67.4766 32.4727 67.6289 32.332 67.793L32.3203 67.7812C32.2656 67.7812 32.2305 67.8008 32.2148 67.8398C32.207 67.8789 32.1641 67.8906 32.0859 67.875C31.9375 68.0391 31.7812 68.1914 31.6172 68.332C31.4531 68.4727 31.2852 68.6133 31.1133 68.7539C30.9414 68.8945 30.7695 69.0352 30.5977 69.1758C30.4258 69.3242 30.2656 69.4805 30.1172 69.6445C30.0156 69.6758 29.918 69.7148 29.8242 69.7617C29.7305 69.8086 29.6602 69.8789 29.6133 69.9727H29.5781C29.4922 69.9727 29.4297 69.9922 29.3906 70.0312C29.3594 70.0703 29.3203 70.1211 29.2734 70.1836C29.1094 70.2227 28.9414 70.2656 28.7695 70.3125C28.5977 70.3594 28.4219 70.3828 28.2422 70.3828C28.1172 70.3828 27.9961 70.3594 27.8789 70.3125C27.7695 70.2656 27.6602 70.2031 27.5508 70.125C27.4492 70.0547 27.3516 69.9766 27.2578 69.8906C27.1719 69.8047 27.0898 69.7227 27.0117 69.6445C26.9648 69.4883 26.9023 69.3242 26.8242 69.1523C26.7539 68.9883 26.7188 68.8281 26.7188 68.6719C26.7188 68.6328 26.7227 68.5938 26.7305 68.5547C26.7461 68.5234 26.7539 68.4922 26.7539 68.4609C26.7539 68.4062 26.7344 68.3828 26.6953 68.3906C26.6641 68.3984 26.6406 68.3789 26.625 68.332C26.6094 68.2539 26.5977 68.1641 26.5898 68.0625C26.5898 67.9688 26.582 67.8789 26.5664 67.793C26.543 67.6133 26.5117 67.4297 26.4727 67.2422C26.4414 67.0547 26.4062 66.8711 26.3672 66.6914C26.3984 66.6758 26.4219 66.6484 26.4375 66.6094C26.4609 66.5781 26.4844 66.5469 26.5078 66.5156C26.4844 66.4531 26.4609 66.3828 26.4375 66.3047C26.4219 66.2344 26.4141 66.1602 26.4141 66.082C26.4141 65.9258 26.4727 65.8086 26.5898 65.7305C26.5898 65.6758 26.5742 65.6328 26.543 65.6016C26.5195 65.5781 26.5078 65.5352 26.5078 65.4727C26.5078 65.457 26.5117 65.4141 26.5195 65.3438C26.5352 65.2656 26.5508 65.1797 26.5664 65.0859C26.5898 64.9922 26.6094 64.9023 26.625 64.8164C26.6406 64.7305 26.6523 64.6719 26.6602 64.6406C26.7148 64.2812 26.7617 63.9297 26.8008 63.5859C26.8398 63.2344 26.8945 62.8828 26.9648 62.5312C26.8867 62.4688 26.7852 62.4219 26.6602 62.3906C26.543 62.3516 26.4609 62.3008 26.4141 62.2383C26.375 62.1836 26.3438 62.1133 26.3203 62.0273C26.2969 61.9414 26.2852 61.8672 26.2852 61.8047C26.2852 61.5781 26.375 61.3984 26.5547 61.2656C26.7344 61.125 26.9258 61.043 27.1289 61.0195C27.2305 60.7461 27.3047 60.4688 27.3516 60.1875C27.4062 59.8984 27.4492 59.6094 27.4805 59.3203L27.5742 58.4414C27.6055 58.1445 27.6523 57.8516 27.7148 57.5625H27.6445C27.4883 57.5625 27.3359 57.5859 27.1875 57.6328C27.0391 57.6797 26.8867 57.7031 26.7305 57.7031H26.707C26.4805 57.5234 26.3672 57.3086 26.3672 57.0586C26.3672 56.9102 26.3984 56.7617 26.4609 56.6133C26.5859 56.5664 26.6992 56.5039 26.8008 56.4258C26.9023 56.3477 27.0039 56.2695 27.1055 56.1914C27.2148 56.1055 27.3242 56.0312 27.4336 55.9688C27.543 55.9062 27.6641 55.8672 27.7969 55.8516C27.8125 55.625 27.8516 55.3984 27.9141 55.1719C27.9766 54.9453 28.0078 54.7188 28.0078 54.4922C28.0078 54.4453 28.0039 54.3984 27.9961 54.3516C27.9961 54.3047 27.9883 54.2578 27.9727 54.2109C28.0273 54.1406 28.0625 54.0664 28.0781 53.9883C28.1016 53.9102 28.1133 53.8281 28.1133 53.7422C28.1133 53.6484 28.1055 53.5586 28.0898 53.4727C28.082 53.3789 28.0703 53.2891 28.0547 53.2031C28.125 53.1719 28.1797 53.1406 28.2188 53.1094C28.2578 53.0703 28.293 53.0352 28.3242 53.0039C28.3633 52.9727 28.4102 52.9453 28.4648 52.9219C28.5195 52.8984 28.5977 52.8867 28.6992 52.8867C28.8477 52.8867 28.9727 52.918 29.0742 52.9805C29.1836 53.0352 29.2773 53.1094 29.3555 53.2031C29.4336 53.2969 29.5 53.4023 29.5547 53.5195C29.6172 53.6367 29.6758 53.7539 29.7305 53.8711C29.7148 53.957 29.6797 54.0195 29.625 54.0586C29.5703 54.0977 29.5234 54.1484 29.4844 54.2109C29.5 54.3359 29.5156 54.457 29.5312 54.5742C29.5469 54.6836 29.5469 54.8008 29.5312 54.9258C29.6094 54.9648 29.6836 54.9844 29.7539 54.9844C29.8711 54.9844 29.9766 54.9531 30.0703 54.8906C30.1719 54.8281 30.2422 54.7422 30.2812 54.6328H30.3047C30.3281 54.6328 30.3477 54.6406 30.3633 54.6562C30.3867 54.6719 30.4141 54.6797 30.4453 54.6797H30.4922C30.5781 54.6016 30.6719 54.543 30.7734 54.5039C30.875 54.457 30.9805 54.4141 31.0898 54.375C31.1992 54.3359 31.3047 54.2969 31.4062 54.2578C31.5156 54.2109 31.6172 54.1523 31.7109 54.082C31.7578 54.1055 31.8086 54.1172 31.8633 54.1172C31.9414 54.1172 32.0156 54.1016 32.0859 54.0703C32.1641 54.0391 32.2383 54.0078 32.3086 53.9766C32.3789 53.9375 32.4531 53.9023 32.5312 53.8711C32.6172 53.8398 32.707 53.8242 32.8008 53.8242C32.8164 53.8242 32.8359 53.8281 32.8594 53.8359C32.8828 53.8359 32.9023 53.8359 32.918 53.8359C32.9727 53.8359 33.0039 53.8164 33.0117 53.7773C33.0195 53.7383 33.0195 53.7031 33.0117 53.6719C33.2617 53.6094 33.4766 53.5391 33.6562 53.4609C33.8438 53.375 34.0508 53.2773 34.2773 53.168C34.2773 53.1602 34.2852 53.1562 34.3008 53.1562C34.3242 53.1562 34.3398 53.168 34.3477 53.1914C34.3555 53.2148 34.3594 53.2344 34.3594 53.25C34.4062 53.2266 34.4297 53.1875 34.4297 53.1328C34.4375 53.0781 34.457 53.0312 34.4883 52.9922C34.5195 53 34.5625 53.0039 34.6172 53.0039C34.6875 53.0039 34.7578 52.9883 34.8281 52.957C34.9062 52.9258 34.9805 52.8906 35.0508 52.8516C35.1211 52.8125 35.1914 52.7773 35.2617 52.7461C35.332 52.7148 35.4023 52.6992 35.4727 52.6992C35.5352 52.6992 35.5859 52.7148 35.625 52.7461C35.6719 52.7227 35.7188 52.6914 35.7656 52.6523C35.8125 52.6055 35.8633 52.582 35.918 52.582C35.9336 52.582 35.9453 52.5859 35.9531 52.5938C35.9688 52.6016 35.9844 52.6094 36 52.6172C36.0391 52.5781 36.0742 52.5469 36.1055 52.5234C36.1445 52.5 36.1641 52.4609 36.1641 52.4062C36.4531 52.375 36.7188 52.3125 36.9609 52.2188C37.2109 52.1172 37.4492 51.9844 37.6758 51.8203C37.7617 51.8359 37.8438 51.8555 37.9219 51.8789C38.0078 51.8945 38.0938 51.9023 38.1797 51.9023C38.2266 51.9883 38.2695 52.0742 38.3086 52.1602C38.3477 52.2461 38.4336 52.2852 38.5664 52.2773C38.5742 52.3164 38.5781 52.3594 38.5781 52.4062C38.5859 52.4531 38.5898 52.4961 38.5898 52.5352ZM48.5742 63.8672C48.5352 63.9922 48.5234 64.1172 48.5391 64.2422C48.5156 64.2734 48.4883 64.293 48.457 64.3008C48.4258 64.3086 48.3945 64.3203 48.3633 64.3359C48.332 64.3438 48.3047 64.3594 48.2812 64.3828C48.2656 64.3984 48.2656 64.4336 48.2812 64.4883C48.0234 64.5039 47.7773 64.5586 47.543 64.6523C47.3086 64.7461 47.0781 64.8477 46.8516 64.957C46.7344 64.918 46.6328 64.8711 46.5469 64.8164C46.4609 64.7617 46.3516 64.7266 46.2188 64.7109C46.0859 64.4453 45.9609 64.168 45.8438 63.8789C45.7344 63.582 45.6797 63.2852 45.6797 62.9883C45.6797 62.7695 45.7188 62.5703 45.7969 62.3906C45.7969 62.1562 45.8164 61.9258 45.8555 61.6992C45.8945 61.4727 45.9375 61.25 45.9844 61.0312C46.0391 60.8047 46.0859 60.5781 46.125 60.3516C46.1641 60.125 46.1836 59.8945 46.1836 59.6602V59.4023C46.168 59.4023 46.1484 59.4219 46.125 59.4609C46.1016 59.4922 46.0781 59.5312 46.0547 59.5781C46.0391 59.6172 46.0234 59.6562 46.0078 59.6953C45.9922 59.7344 45.9805 59.7578 45.9727 59.7656C45.8398 59.8672 45.7344 59.9961 45.6562 60.1523C45.5859 60.3008 45.5078 60.4414 45.4219 60.5742C45.3125 60.7383 45.1953 60.8984 45.0703 61.0547C44.9531 61.2109 44.8047 61.332 44.625 61.418V61.4414C44.625 61.4805 44.6133 61.5078 44.5898 61.5234C44.5664 61.5391 44.5625 61.5781 44.5781 61.6406C44.3828 61.7031 44.1992 61.793 44.0273 61.9102C43.8633 62.0273 43.7266 62.1758 43.6172 62.3555C43.4609 62.3945 43.3125 62.4492 43.1719 62.5195C43.0391 62.582 42.9023 62.6523 42.7617 62.7305C42.6992 62.7617 42.6328 62.8008 42.5625 62.8477C42.4922 62.8945 42.4219 62.9258 42.3516 62.9414C42.2891 62.9648 42.2031 62.9805 42.0938 62.9883C41.9922 62.9961 41.8828 63.0039 41.7656 63.0117C41.6562 63.0195 41.5469 63.0234 41.4375 63.0234H41.1797C41.1406 63.0234 41.0898 63.0039 41.0273 62.9648C40.9648 62.9258 40.8945 62.8828 40.8164 62.8359C40.7461 62.7891 40.6719 62.7461 40.5938 62.707C40.5156 62.6602 40.4414 62.6289 40.3711 62.6133C40.3086 62.4102 40.2188 62.2305 40.1016 62.0742C39.9922 61.9102 39.875 61.7461 39.75 61.582C39.7109 61.3945 39.6562 61.1992 39.5859 60.9961C39.5234 60.793 39.4102 60.625 39.2461 60.4922C39.2852 60.4375 39.3047 60.375 39.3047 60.3047C39.3047 60.2188 39.2852 60.1367 39.2461 60.0586C39.207 59.9805 39.1875 59.8945 39.1875 59.8008C39.1875 59.7383 39.1914 59.6914 39.1992 59.6602C39.1133 59.7539 39.0508 59.875 39.0117 60.0234C38.9805 60.1641 38.9648 60.293 38.9648 60.4102C38.9648 60.5039 38.9766 60.5898 39 60.668C38.9219 60.7773 38.8711 60.9141 38.8477 61.0781C38.832 61.2422 38.8242 61.3867 38.8242 61.5117C38.8242 61.668 38.8359 61.8203 38.8594 61.9688C38.7344 62.0938 38.6719 62.2461 38.6719 62.4258C38.6719 62.5273 38.6953 62.6172 38.7422 62.6953C38.7422 62.7266 38.7344 62.75 38.7188 62.7656C38.7031 62.7812 38.6836 62.793 38.6602 62.8008C38.6445 62.8086 38.625 62.8203 38.6016 62.8359C38.5859 62.8438 38.5781 62.8633 38.5781 62.8945C38.5781 62.9336 38.5781 62.9766 38.5781 63.0234C38.5859 63.0703 38.5898 63.1172 38.5898 63.1641C38.5898 63.2734 38.5859 63.3867 38.5781 63.5039C38.5703 63.6211 38.5664 63.7344 38.5664 63.8438C38.5664 64.0703 38.5859 64.2344 38.625 64.3359C38.6719 64.4297 38.7266 64.5 38.7891 64.5469C38.8594 64.5938 38.9336 64.6406 39.0117 64.6875C39.0898 64.7344 39.168 64.8242 39.2461 64.957C39.2227 65.0273 39.1797 65.0859 39.1172 65.1328C39.0625 65.1719 39.0078 65.2148 38.9531 65.2617C38.9062 65.3008 38.8633 65.3477 38.8242 65.4023C38.7852 65.457 38.7695 65.5352 38.7773 65.6367H38.7188C38.6172 65.6367 38.5195 65.6523 38.4258 65.6836C38.332 65.7148 38.2344 65.7305 38.1328 65.7305C38.1094 65.7305 38.0859 65.7266 38.0625 65.7188C38.0391 65.7188 38.0156 65.7188 37.9922 65.7188L37.875 65.6484C37.8359 65.625 37.7969 65.6133 37.7578 65.6133C37.7188 65.6133 37.668 65.6211 37.6055 65.6367C37.4961 65.2852 37.4102 64.9219 37.3477 64.5469C37.293 64.1719 37.2656 63.8047 37.2656 63.4453C37.2656 63.4062 37.2734 63.3672 37.2891 63.3281C37.3125 63.2812 37.3438 63.2656 37.3828 63.2812V63.0586C37.3828 62.8164 37.4023 62.582 37.4414 62.3555C37.4883 62.1211 37.5117 61.8789 37.5117 61.6289C37.5117 61.5586 37.5078 61.4883 37.5 61.418C37.5 61.3477 37.4961 61.2812 37.4883 61.2188C37.5273 61.0859 37.5664 60.9531 37.6055 60.8203C37.6523 60.6797 37.6758 60.5352 37.6758 60.3867C37.6758 60.3242 37.6641 60.25 37.6406 60.1641C37.7031 60.1172 37.75 60.0586 37.7812 59.9883C37.8125 59.9102 37.8359 59.8281 37.8516 59.7422C37.8672 59.6484 37.8789 59.5586 37.8867 59.4727C37.8945 59.3867 37.9023 59.3086 37.9102 59.2383C37.9883 59.082 38.0312 58.9141 38.0391 58.7344C38.0469 58.5547 38.0859 58.3867 38.1562 58.2305C38.1484 58.1992 38.1445 58.1445 38.1445 58.0664C38.1445 57.9102 38.168 57.7539 38.2148 57.5977C38.2695 57.4336 38.375 57.3086 38.5312 57.2227C38.6719 57.2773 38.8359 57.3047 39.0234 57.3047C39.2031 57.3047 39.375 57.2773 39.5391 57.2227C39.5859 57.2383 39.6289 57.2578 39.668 57.2812C39.707 57.2969 39.7461 57.3164 39.7852 57.3398C39.832 57.3555 39.8789 57.3711 39.9258 57.3867C39.9727 57.3945 40.0273 57.3945 40.0898 57.3867C40.168 57.6133 40.2344 57.8438 40.2891 58.0781C40.3516 58.3125 40.3984 58.5508 40.4297 58.793C40.4453 58.8945 40.4492 59.0039 40.4414 59.1211C40.4414 59.2383 40.4492 59.3477 40.4648 59.4492C40.4727 59.5117 40.4922 59.5703 40.5234 59.625C40.5547 59.6719 40.5859 59.7266 40.6172 59.7891C40.6484 59.8516 40.6719 59.9219 40.6875 60C40.7109 60.0781 40.7188 60.1758 40.7109 60.293C40.7969 60.4961 40.8906 60.6914 40.9922 60.8789C41.1016 61.0586 41.2188 61.2383 41.3438 61.418C41.4141 61.4414 41.4766 61.4727 41.5312 61.5117C41.5859 61.543 41.6211 61.5977 41.6367 61.6758C41.707 61.6758 41.7695 61.6875 41.8242 61.7109L42.0234 61.7695C42.3203 61.6758 42.5938 61.5508 42.8438 61.3945C43.1016 61.2383 43.3711 61.1055 43.6523 60.9961C43.9961 60.6602 44.293 60.2891 44.543 59.8828C44.793 59.4688 45.043 59.0586 45.293 58.6523V58.3945C45.3398 58.3711 45.3789 58.3438 45.4102 58.3125C45.4492 58.2734 45.4961 58.2461 45.5508 58.2305C45.5586 58.1367 45.5781 58.0469 45.6094 57.9609C45.6484 57.8672 45.6875 57.7812 45.7266 57.7031C45.7734 57.6172 45.8125 57.5352 45.8438 57.457C45.875 57.3711 45.8906 57.2812 45.8906 57.1875C45.8906 57.1328 45.8867 57.0859 45.8789 57.0469C45.9961 56.9297 46.1367 56.8711 46.3008 56.8711C46.457 56.8711 46.6133 56.9102 46.7695 56.9883C46.9336 57.0586 47.0859 57.125 47.2266 57.1875C47.3125 57.375 47.375 57.5742 47.4141 57.7852C47.4609 57.9883 47.4922 58.1992 47.5078 58.418C47.5234 58.6367 47.5312 58.8555 47.5312 59.0742V59.9062C47.5234 59.9688 47.5 60.0156 47.4609 60.0469C47.4297 60.0703 47.4062 60.1094 47.3906 60.1641V60.2812C47.3906 60.3203 47.3867 60.3594 47.3789 60.3984C47.3789 60.5625 47.3594 60.7344 47.3203 60.9141C47.2812 61.1406 47.2305 61.3711 47.168 61.6055C47.1133 61.832 47.0859 62.0625 47.0859 62.2969C47.0859 62.3828 47.0898 62.4688 47.0977 62.5547C47.1055 62.6406 47.1211 62.7266 47.1445 62.8125C47.1055 62.8828 47.0859 62.9727 47.0859 63.082C47.0859 63.207 47.1055 63.3242 47.1445 63.4336C47.1914 63.5352 47.2461 63.6367 47.3086 63.7383C47.418 63.7383 47.5273 63.7344 47.6367 63.7266C47.7461 63.7188 47.8594 63.7148 47.9766 63.7148C48.0859 63.7148 48.1875 63.7266 48.2812 63.75C48.375 63.7656 48.4727 63.8047 48.5742 63.8672ZM62.6719 57.082C62.6719 57.1523 62.6562 57.2188 62.625 57.2812L62.543 57.457C62.5195 57.5117 62.4961 57.5703 62.4727 57.6328C62.4492 57.6953 62.4414 57.7695 62.4492 57.8555C62.3398 57.9805 62.2305 58.1016 62.1211 58.2188C62.0117 58.3359 61.9141 58.4688 61.8281 58.6172C61.7422 58.6094 61.6758 58.6289 61.6289 58.6758C61.5898 58.7227 61.5586 58.7852 61.5352 58.8633C61.3711 58.918 61.2266 59.0039 61.1016 59.1211C60.9766 59.2305 60.8672 59.3516 60.7734 59.4844C60.3594 59.6562 59.9727 59.8672 59.6133 60.1172C59.2539 60.3672 58.9258 60.6602 58.6289 60.9961C58.7695 60.9961 58.9062 61.0117 59.0391 61.043C59.1797 61.0742 59.3164 61.1094 59.4492 61.1484C59.5898 61.1797 59.7266 61.2109 59.8594 61.2422C59.9922 61.2656 60.1289 61.2695 60.2695 61.2539C60.3711 61.3477 60.4844 61.4258 60.6094 61.4883C60.7422 61.5508 60.8711 61.6094 60.9961 61.6641C61.1289 61.7188 61.2539 61.7812 61.3711 61.8516C61.4961 61.9219 61.6055 62.0078 61.6992 62.1094C61.6992 62.125 61.6953 62.1406 61.6875 62.1562C61.6875 62.1641 61.6875 62.1758 61.6875 62.1914C61.6875 62.2539 61.7031 62.3164 61.7344 62.3789C61.7656 62.4336 61.7812 62.4922 61.7812 62.5547C61.7422 62.6172 61.707 62.6836 61.6758 62.7539C61.6445 62.8242 61.6055 62.8867 61.5586 62.9414C61.5195 62.9961 61.4727 63.043 61.418 63.082C61.3633 63.1211 61.2891 63.1445 61.1953 63.1523C61.1562 63.2852 61.0938 63.3906 61.0078 63.4688C60.9219 63.5391 60.8242 63.6055 60.7148 63.668C60.6133 63.7227 60.5117 63.7812 60.4102 63.8438C60.3086 63.8984 60.2227 63.9727 60.1523 64.0664C59.918 64.1211 59.6875 64.1992 59.4609 64.3008C59.2422 64.3945 59.0469 64.5312 58.875 64.7109C58.7578 64.7266 58.6367 64.7461 58.5117 64.7695C58.3945 64.7852 58.2773 64.793 58.1602 64.793C57.9961 64.793 57.8633 64.7617 57.7617 64.6992C57.6602 64.6289 57.6016 64.5039 57.5859 64.3242C57.6094 64.2695 57.6445 64.2227 57.6914 64.1836L57.8438 64.0664C57.8984 64.0273 57.9453 63.9883 57.9844 63.9492C58.0312 63.9023 58.0664 63.8477 58.0898 63.7852C58.1055 63.7852 58.125 63.7891 58.1484 63.7969C58.1719 63.7969 58.1953 63.7969 58.2188 63.7969C58.3125 63.7969 58.3867 63.7773 58.4414 63.7383C58.4961 63.6992 58.5469 63.6602 58.5938 63.6211C58.6484 63.582 58.707 63.5469 58.7695 63.5156C58.832 63.4844 58.9141 63.4727 59.0156 63.4805C59.0703 63.3789 59.1523 63.3047 59.2617 63.2578C59.3711 63.2031 59.4844 63.1562 59.6016 63.1172C59.7188 63.0703 59.8281 63.0195 59.9297 62.9648C60.0391 62.9023 60.1133 62.8125 60.1523 62.6953C60.1133 62.6328 60.0625 62.5859 60 62.5547C59.9375 62.5156 59.8672 62.4844 59.7891 62.4609L59.5664 62.3906C59.4961 62.3672 59.4336 62.3398 59.3789 62.3086C59.293 62.332 59.2109 62.3438 59.1328 62.3438C58.9688 62.3438 58.8086 62.3281 58.6523 62.2969C58.4961 62.2656 58.3359 62.25 58.1719 62.25C58.0234 62.25 57.8945 62.2695 57.7852 62.3086C57.7461 62.3008 57.7031 62.2891 57.6562 62.2734C57.6172 62.2578 57.5781 62.2422 57.5391 62.2266C57.3594 62.2969 57.1719 62.332 56.9766 62.332H56.2148C56.1523 62.332 56.0898 62.3398 56.0273 62.3555C55.9414 62.5117 55.8984 62.6797 55.8984 62.8594C55.8984 62.9922 55.918 63.1211 55.957 63.2461C55.9961 63.3633 56.0352 63.4883 56.0742 63.6211C56.2305 63.7617 56.375 63.9297 56.5078 64.125C56.6406 64.3125 56.707 64.5195 56.707 64.7461C56.707 64.8008 56.7031 64.8438 56.6953 64.875C56.6172 64.8203 56.5156 64.793 56.3906 64.793C56.2812 64.793 56.1758 64.8086 56.0742 64.8398C55.9805 64.8711 55.8789 64.8945 55.7695 64.9102C55.6836 64.8711 55.5938 64.832 55.5 64.793C55.4062 64.7461 55.3164 64.6914 55.2305 64.6289C55.168 64.4961 55.1055 64.3711 55.043 64.2539C54.9805 64.1289 54.9023 64.0117 54.8086 63.9023V63.8555C54.8086 63.582 54.7852 63.3125 54.7383 63.0469C54.6992 62.7812 54.6797 62.5117 54.6797 62.2383C54.6797 62.1133 54.6836 61.9883 54.6914 61.8633C54.707 61.7305 54.7461 61.6094 54.8086 61.5C54.7852 61.3125 54.7734 61.1172 54.7734 60.9141C54.7734 60.5078 54.7969 60.1016 54.8438 59.6953C54.8906 59.2891 54.9141 58.875 54.9141 58.4531C54.9141 58.3672 54.9102 58.2812 54.9023 58.1953C54.9023 58.1094 54.8984 58.0234 54.8906 57.9375H54.8438C54.7422 57.9375 54.6445 57.9531 54.5508 57.9844C54.457 58.0078 54.3633 58.0352 54.2695 58.0664C54.1758 58.0977 54.0781 58.1289 53.9766 58.1602C53.875 58.1836 53.7734 58.1953 53.6719 58.1953C53.6094 58.2266 53.5586 58.2578 53.5195 58.2891C53.4805 58.3203 53.4414 58.3477 53.4023 58.3711C53.3633 58.3945 53.3203 58.4141 53.2734 58.4297C53.2188 58.4453 53.1562 58.4492 53.0859 58.4414C53 58.4961 52.9336 58.5391 52.8867 58.5703C52.832 58.5938 52.7578 58.6211 52.6641 58.6523C52.6172 58.668 52.5781 58.6914 52.5469 58.7227L52.4531 58.8047C52.4219 58.8281 52.3867 58.8516 52.3477 58.875C52.3086 58.8984 52.2578 58.9102 52.1953 58.9102C52.1406 58.9102 52.1016 58.9062 52.0781 58.8984C52.0312 58.8594 51.9922 58.8125 51.9609 58.7578C51.9219 58.7031 51.8867 58.6523 51.8555 58.6055C51.8164 58.5508 51.7773 58.5039 51.7383 58.4648C51.6914 58.418 51.6367 58.3828 51.5742 58.3594C51.6055 58.3203 51.6211 58.2891 51.6211 58.2656C51.6133 58.2344 51.6094 58.1992 51.6094 58.1602C51.6094 58.1367 51.6133 58.1211 51.6211 58.1133C51.6602 57.9727 51.7305 57.8633 51.832 57.7852C51.9336 57.6992 52.0469 57.6328 52.1719 57.5859C52.2969 57.5312 52.4258 57.4844 52.5586 57.4453C52.6836 57.4062 52.8008 57.3594 52.9102 57.3047C53.2148 57.3125 53.4922 57.2852 53.7422 57.2227C53.9922 57.1523 54.25 57.0547 54.5156 56.9297C54.5625 56.9531 54.6094 56.9648 54.6562 56.9648C54.6953 56.9648 54.7344 56.9609 54.7734 56.9531L54.8906 56.9297C54.9844 56.8516 55.0859 56.8008 55.1953 56.7773C55.3047 56.7539 55.4141 56.7344 55.5234 56.7188C55.6328 56.7031 55.7383 56.6875 55.8398 56.6719C55.9414 56.6484 56.0312 56.6055 56.1094 56.543H56.1562C56.3438 56.543 56.5312 56.5117 56.7188 56.4492C56.9141 56.3867 57.1016 56.3633 57.2812 56.3789C57.4375 56.293 57.582 56.2383 57.7148 56.2148C57.8477 56.1914 58 56.1797 58.1719 56.1797C58.2109 56.1797 58.2578 56.1641 58.3125 56.1328C58.3672 56.0938 58.4336 56.0742 58.5117 56.0742C58.5273 56.0742 58.5391 56.0781 58.5469 56.0859C58.5625 56.0859 58.5781 56.0859 58.5938 56.0859C58.6641 56.0859 58.7109 56.0625 58.7344 56.0156C58.7656 55.9688 58.8398 55.9453 58.957 55.9453C59.0117 55.9453 59.0625 55.9492 59.1094 55.957C59.1562 55.957 59.2031 55.957 59.25 55.957C59.3047 55.957 59.3398 55.9375 59.3555 55.8984C59.3711 55.8516 59.4062 55.832 59.4609 55.8398C59.4844 55.8711 59.5234 55.8867 59.5781 55.8867C59.6328 55.8789 59.6758 55.875 59.707 55.875C59.7617 55.875 59.793 55.8906 59.8008 55.9219C59.9258 55.8438 60.0625 55.793 60.2109 55.7695C60.3672 55.7461 60.5156 55.7344 60.6562 55.7344C60.7109 55.7344 60.7656 55.7383 60.8203 55.7461C60.875 55.7461 60.9336 55.75 60.9961 55.7578C61.0664 55.7109 61.1484 55.6875 61.2422 55.6875C61.2969 55.6875 61.3828 55.7109 61.5 55.7578C61.625 55.8047 61.7539 55.8594 61.8867 55.9219C62.0195 55.9844 62.1406 56.0508 62.25 56.1211C62.3594 56.1914 62.4258 56.25 62.4492 56.2969C62.4648 56.3125 62.4727 56.3477 62.4727 56.4023C62.4805 56.457 62.4922 56.5039 62.5078 56.543C62.5469 56.6367 62.582 56.7266 62.6133 56.8125C62.6523 56.8906 62.6719 56.9805 62.6719 57.082ZM61.3711 57.2109C61.3711 57.1953 61.3672 57.1797 61.3594 57.1641C61.3594 57.1406 61.3594 57.1211 61.3594 57.1055C61.3203 57.0586 61.2656 57.0234 61.1953 57C61.1328 56.9766 61.0625 56.957 60.9844 56.9414C60.9141 56.9258 60.8398 56.9141 60.7617 56.9062C60.6914 56.8906 60.6289 56.8711 60.5742 56.8477C60.4102 56.9023 60.2305 56.9297 60.0352 56.9297C59.8555 56.9297 59.6953 56.9023 59.5547 56.8477C59.4844 56.918 59.3945 56.9727 59.2852 57.0117C59.1758 57.0508 59.0586 57.082 58.9336 57.1055C58.8164 57.1211 58.6953 57.1328 58.5703 57.1406C58.4531 57.1406 58.3477 57.1406 58.2539 57.1406C58.2227 57.1406 58.168 57.1641 58.0898 57.2109C58.0117 57.2578 57.9414 57.2812 57.8789 57.2812C57.832 57.2812 57.7891 57.2617 57.75 57.2227C57.6797 57.2773 57.582 57.3242 57.457 57.3633C57.332 57.4023 57.2031 57.4375 57.0703 57.4688C56.9375 57.4922 56.8008 57.5195 56.6602 57.5508C56.5273 57.582 56.4141 57.6133 56.3203 57.6445C56.2266 57.8477 56.1758 58.0703 56.168 58.3125C56.1602 58.5469 56.1562 58.7773 56.1562 59.0039C56.1562 59.1367 56.1484 59.2656 56.1328 59.3906C56.1172 59.5156 56.1094 59.6445 56.1094 59.7773C56.1094 59.8398 56.1133 59.9062 56.1211 59.9766C56.1289 60.0391 56.1523 60.1016 56.1914 60.1641C56.1289 60.2109 56.0859 60.2734 56.0625 60.3516C56.0469 60.4219 56.0391 60.4922 56.0391 60.5625C56.0391 60.6484 56.0469 60.7266 56.0625 60.7969C56.0781 60.8672 56.0938 60.9336 56.1094 60.9961C56.3594 60.9727 56.5859 60.9258 56.7891 60.8555C57 60.7852 57.1953 60.6992 57.375 60.5977C57.5625 60.4961 57.7422 60.3789 57.9141 60.2461C58.0859 60.1133 58.2656 59.9727 58.4531 59.8242C58.5312 59.8086 58.5938 59.7852 58.6406 59.7539C58.6953 59.7227 58.7617 59.707 58.8398 59.707C58.8711 59.5977 58.9297 59.5234 59.0156 59.4844C59.1016 59.4375 59.168 59.3711 59.2148 59.2852C59.3086 59.2617 59.3867 59.2305 59.4492 59.1914C59.5195 59.1445 59.5859 59.1016 59.6484 59.0625C59.7109 59.0156 59.7773 58.9727 59.8477 58.9336C59.9258 58.8945 60.0117 58.8711 60.1055 58.8633C60.2383 58.707 60.375 58.5508 60.5156 58.3945C60.6641 58.2383 60.8359 58.1133 61.0312 58.0195C61.0625 57.9414 61.0977 57.875 61.1367 57.8203C61.1758 57.7578 61.2109 57.6992 61.2422 57.6445C61.2812 57.582 61.3125 57.5195 61.3359 57.457C61.3594 57.3867 61.3711 57.3047 61.3711 57.2109ZM77.8125 63.3047C77.7969 63.4219 77.7539 63.5117 77.6836 63.5742C77.6211 63.6367 77.5469 63.6953 77.4609 63.75C77.4219 63.7422 77.3828 63.7383 77.3438 63.7383C77.3125 63.7305 77.2773 63.7266 77.2383 63.7266C76.9961 63.7188 76.7656 63.75 76.5469 63.8203C76.3359 63.8906 76.1172 63.9414 75.8906 63.9727C75.8125 63.9883 75.7383 63.9961 75.668 63.9961C75.6055 63.9883 75.5391 63.9922 75.4688 64.0078C75.2188 64.0469 74.9531 64.0781 74.6719 64.1016C74.3906 64.125 74.1094 64.1562 73.8281 64.1953C73.5469 64.2266 73.2695 64.2695 72.9961 64.3242C72.7305 64.3711 72.4805 64.4414 72.2461 64.5352C72.2227 64.5195 72.1992 64.5039 72.1758 64.4883C72.1523 64.4648 72.125 64.4531 72.0938 64.4531C72.0156 64.4531 71.9414 64.4648 71.8711 64.4883C71.8008 64.5117 71.7305 64.5195 71.6602 64.5117C71.582 64.5586 71.4961 64.5938 71.4023 64.6172C71.3164 64.6328 71.2266 64.6484 71.1328 64.6641C71.0469 64.6719 70.9609 64.6875 70.875 64.7109C70.7891 64.7344 70.707 64.7773 70.6289 64.8398C70.5664 64.8086 70.4883 64.793 70.3945 64.793C70.3086 64.7852 70.25 64.7539 70.2188 64.6992C70.0391 64.7852 69.8477 64.8398 69.6445 64.8633C69.4492 64.8867 69.25 64.8945 69.0469 64.8867C68.9141 64.8789 68.7617 64.8594 68.5898 64.8281C68.418 64.7969 68.2461 64.7539 68.0742 64.6992C67.9023 64.6367 67.7422 64.5664 67.5938 64.4883C67.4453 64.4023 67.332 64.3008 67.2539 64.1836C67.1992 64.1055 67.1602 64.0195 67.1367 63.9258C67.1133 63.832 67.0586 63.7617 66.9727 63.7148C66.9961 63.5352 67.0234 63.3594 67.0547 63.1875C67.0859 63.0156 67.1172 62.8398 67.1484 62.6602C67.3047 62.5273 67.4531 62.3867 67.5938 62.2383C67.7344 62.0898 67.8672 61.9336 67.9922 61.7695C68.1406 61.6992 68.2773 61.6133 68.4023 61.5117C68.5352 61.4102 68.6641 61.3086 68.7891 61.207C68.9219 61.0977 69.0508 60.9922 69.1758 60.8906C69.3086 60.7891 69.4492 60.6992 69.5977 60.6211C69.6211 60.5664 69.6523 60.5234 69.6914 60.4922C69.7383 60.4531 69.7852 60.418 69.832 60.3867C69.8789 60.3477 69.9219 60.3086 69.9609 60.2695C70 60.2227 70.0273 60.168 70.043 60.1055C70.3164 59.9414 70.5547 59.7344 70.7578 59.4844C70.9609 59.2344 71.0938 58.9531 71.1562 58.6406C71.0234 58.5312 70.8711 58.4609 70.6992 58.4297C70.5352 58.3906 70.3633 58.3633 70.1836 58.3477C70.0273 58.3398 69.8633 58.3398 69.6914 58.3477C69.5273 58.3555 69.3594 58.3516 69.1875 58.3359C69.0156 58.3906 68.8359 58.4258 68.6484 58.4414C68.4688 58.457 68.2891 58.4727 68.1094 58.4883C67.9297 58.4961 67.75 58.5195 67.5703 58.5586C67.3984 58.5898 67.2305 58.6523 67.0664 58.7461C67.0352 58.7461 67.0039 58.7422 66.9727 58.7344C66.9492 58.7266 66.9219 58.7227 66.8906 58.7227C66.6406 58.7148 66.4062 58.7656 66.1875 58.875C65.9688 58.9766 65.7539 59.0781 65.543 59.1797C65.5273 59.2109 65.5195 59.2344 65.5195 59.25C65.5195 59.2969 65.5273 59.3438 65.543 59.3906C65.5664 59.4297 65.5781 59.4727 65.5781 59.5195C65.5703 59.5273 65.5664 59.5352 65.5664 59.543C65.5664 59.5508 65.5625 59.5586 65.5547 59.5664C65.5469 59.6055 65.5352 59.6406 65.5195 59.6719C65.5117 59.7031 65.5 59.7383 65.4844 59.7773C65.3984 60.0273 65.3516 60.2734 65.3438 60.5156C65.3359 60.7188 65.3359 60.918 65.3438 61.1133C65.3516 61.3086 65.3516 61.5078 65.3438 61.7109C65.3281 61.9609 65.2891 62.1953 65.2266 62.4141C65.2656 62.6016 65.3008 62.8008 65.332 63.0117C65.3633 63.2148 65.4023 63.418 65.4492 63.6211C65.4961 63.8242 65.5508 64.0234 65.6133 64.2188C65.6836 64.4062 65.7734 64.5859 65.8828 64.7578C65.875 64.7734 65.8789 64.7852 65.8945 64.793C65.9102 64.8008 65.9258 64.8047 65.9414 64.8047H66.0352C66.0742 64.8047 66.0898 64.8203 66.082 64.8516C66.0977 64.875 66.1094 64.8984 66.1172 64.9219C66.125 64.9375 66.1406 64.9531 66.1641 64.9688C66.1797 64.9922 66.1797 65.0234 66.1641 65.0625C66.1562 65.2188 66.1172 65.3633 66.0469 65.4961C65.9766 65.6289 65.9336 65.7734 65.918 65.9297C65.8242 65.9531 65.7383 65.9648 65.6602 65.9648C65.5273 65.957 65.4102 65.918 65.3086 65.8477C65.207 65.7852 65.1133 65.707 65.0273 65.6133C64.9414 65.5195 64.8594 65.4258 64.7812 65.332C64.7031 65.2305 64.6172 65.1445 64.5234 65.0742C64.4688 64.8555 64.4141 64.6133 64.3594 64.3477C64.3125 64.082 64.2305 63.8555 64.1133 63.668C64.1445 63.5977 64.1602 63.5117 64.1602 63.4102C64.168 63.2539 64.1523 63.1016 64.1133 62.9531C64.082 62.7969 64.0742 62.6406 64.0898 62.4844C64.0898 62.3984 64.0977 62.3125 64.1133 62.2266C64.1367 62.1406 64.1523 62.0547 64.1602 61.9688C64.168 61.8359 64.1523 61.707 64.1133 61.582C64.082 61.457 64.0703 61.3281 64.0781 61.1953C64.0859 61.1328 64.0977 61.0742 64.1133 61.0195C64.1367 60.957 64.168 60.9023 64.207 60.8555C64.168 60.7617 64.1562 60.6719 64.1719 60.5859C64.1797 60.4531 64.1953 60.3281 64.2188 60.2109C64.2422 60.0938 64.2578 59.9766 64.2656 59.8594C64.2656 59.7969 64.2617 59.7383 64.2539 59.6836C64.2461 59.6211 64.2344 59.5625 64.2188 59.5078L64.1133 59.4727C64.0664 59.4727 64.0195 59.4844 63.9727 59.5078C63.9336 59.5312 63.8984 59.5586 63.8672 59.5898C63.8359 59.6211 63.8086 59.6484 63.7852 59.6719C63.7617 59.6875 63.7383 59.6953 63.7148 59.6953C63.6992 59.6953 63.6797 59.6953 63.6562 59.6953C63.6406 59.6875 63.625 59.6836 63.6094 59.6836C63.5938 59.6836 63.5625 59.6992 63.5156 59.7305C63.4766 59.7617 63.4258 59.7969 63.3633 59.8359C63.3086 59.8672 63.2539 59.9023 63.1992 59.9414C63.1445 59.9727 63.1016 59.9922 63.0703 60C62.9844 59.9844 62.9141 59.957 62.8594 59.918C62.8125 59.8711 62.7656 59.8281 62.7188 59.7891C62.6797 59.7422 62.6367 59.7031 62.5898 59.6719C62.543 59.6328 62.4844 59.6172 62.4141 59.625C62.3906 59.5781 62.3789 59.5273 62.3789 59.4727C62.3711 59.418 62.3711 59.3633 62.3789 59.3086V59.1211C62.4336 59.0195 62.5078 58.9375 62.6016 58.875C62.6875 58.8047 62.7812 58.7461 62.8828 58.6992L63.1875 58.5586C63.2891 58.5117 63.3828 58.4531 63.4688 58.3828H63.5742C63.7148 58.3906 63.8359 58.3633 63.9375 58.3008C64.0469 58.2383 64.1484 58.168 64.2422 58.0898C64.3359 58.0039 64.4297 57.918 64.5234 57.832C64.625 57.7461 64.7344 57.6797 64.8516 57.6328C64.9375 57.6719 65.0273 57.707 65.1211 57.7383C65.2148 57.7617 65.3125 57.7773 65.4141 57.7852C65.5156 57.7852 65.6211 57.7695 65.7305 57.7383C65.8398 57.707 65.9258 57.6484 65.9883 57.5625C66.0273 57.5781 66.0586 57.5898 66.082 57.5977C66.1133 57.5977 66.1484 57.5977 66.1875 57.5977C66.3047 57.6055 66.4219 57.5898 66.5391 57.5508C66.6562 57.5039 66.7695 57.4492 66.8789 57.3867C67.0352 57.3945 67.1875 57.3867 67.3359 57.3633C67.4922 57.332 67.6445 57.3008 67.793 57.2695C67.9492 57.2383 68.1016 57.2109 68.25 57.1875C68.4062 57.1562 68.5625 57.1445 68.7188 57.1523C68.9766 57.1602 69.2305 57.1367 69.4805 57.082C69.7305 57.0273 69.9844 57.0078 70.2422 57.0234C70.4219 57.0312 70.5977 57.0469 70.7695 57.0703C70.9492 57.0859 71.1289 57.0898 71.3086 57.082C71.4102 57.1289 71.5 57.1719 71.5781 57.2109C71.6641 57.2422 71.7695 57.25 71.8945 57.2344C72.1445 57.4453 72.3711 57.6914 72.5742 57.9727V58.1719C72.5664 58.3516 72.5352 58.5273 72.4805 58.6992C72.4258 58.8711 72.3594 59.043 72.2812 59.2148C72.2109 59.3789 72.1328 59.543 72.0469 59.707C71.9609 59.8633 71.8789 60.0195 71.8008 60.1758C71.293 60.6367 70.7852 61.0938 70.2773 61.5469C69.7695 62 69.2461 62.4375 68.707 62.8594C68.6914 62.9375 68.668 63.0078 68.6367 63.0703C68.6133 63.1328 68.5977 63.1992 68.5898 63.2695C68.5898 63.3086 68.5938 63.3398 68.6016 63.3633C68.6562 63.3789 68.7031 63.4102 68.7422 63.457C68.7891 63.4961 68.8047 63.5508 68.7891 63.6211H68.8945C68.9336 63.6211 68.9531 63.6367 68.9531 63.668L69.1406 63.6797C69.4375 63.6953 69.7344 63.6875 70.0312 63.6562C70.3281 63.625 70.625 63.5898 70.9219 63.5508C71.2266 63.5117 71.5273 63.4766 71.8242 63.4453C72.1211 63.4062 72.418 63.3828 72.7148 63.375C72.7852 63.3516 72.8594 63.332 72.9375 63.3164C73.0156 63.3008 73.0859 63.2695 73.1484 63.2227H73.1836C73.2383 63.2227 73.2773 63.2383 73.3008 63.2695C73.332 63.3008 73.375 63.3203 73.4297 63.3281C73.4688 63.3281 73.5078 63.3203 73.5469 63.3047C73.5938 63.2891 73.6406 63.2773 73.6875 63.2695C73.7969 63.2383 73.9102 63.2188 74.0273 63.2109C74.1523 63.2031 74.2734 63.1914 74.3906 63.1758C74.8438 63.1367 75.293 63.1133 75.7383 63.1055C76.1836 63.0898 76.6289 63.0312 77.0742 62.9297C77.1133 62.9844 77.168 63.0234 77.2383 63.0469C77.3086 63.0625 77.3828 63.082 77.4609 63.1055C77.5391 63.1211 77.6094 63.1406 77.6719 63.1641C77.7422 63.1875 77.7891 63.2344 77.8125 63.3047ZM81.9023 57.8906V57.9375C81.8477 57.9531 81.8203 57.9922 81.8203 58.0547C81.7344 58.0938 81.6445 58.125 81.5508 58.1484C81.457 58.1641 81.3672 58.1914 81.2812 58.2305C81.1953 58.2227 81.1055 58.2188 81.0117 58.2188C80.9258 58.2109 80.8398 58.207 80.7539 58.207C80.5195 58.207 80.2852 58.2148 80.0508 58.2305C79.8164 58.2461 79.582 58.2461 79.3477 58.2305C79.2383 58.293 79.1172 58.3438 78.9844 58.3828C78.8594 58.4141 78.7383 58.4297 78.6211 58.4297C78.5273 58.4297 78.4453 58.418 78.375 58.3945C78.1875 58.4883 77.9805 58.5664 77.7539 58.6289C77.5352 58.6914 77.3125 58.7539 77.0859 58.8164C76.8594 58.8711 76.6406 58.9375 76.4297 59.0156C76.2266 59.0859 76.0469 59.1875 75.8906 59.3203C75.875 59.4297 75.8633 59.5391 75.8555 59.6484C75.8477 59.75 75.8438 59.8516 75.8438 59.9531C75.8438 60.0625 75.8477 60.1641 75.8555 60.2578C75.8711 60.3516 75.8984 60.4453 75.9375 60.5391C75.9766 60.5547 76.0195 60.5664 76.0664 60.5742C76.1211 60.582 76.168 60.5859 76.207 60.5859C76.2461 60.5859 76.2852 60.582 76.3242 60.5742C76.3633 60.5586 76.3906 60.5312 76.4062 60.4922C76.5234 60.4766 76.6406 60.4727 76.7578 60.4805C76.875 60.4805 76.9922 60.4805 77.1094 60.4805C77.2266 60.4805 77.3398 60.4766 77.4492 60.4688C77.5664 60.4609 77.6797 60.4414 77.7891 60.4102C77.9141 60.3789 78.0352 60.3594 78.1523 60.3516C78.2773 60.3438 78.3984 60.3359 78.5156 60.3281C78.6328 60.3203 78.7539 60.3086 78.8789 60.293C79.0039 60.2695 79.1328 60.2266 79.2656 60.1641C79.3672 60.2031 79.4688 60.2227 79.5703 60.2227C79.6797 60.2227 79.7852 60.2305 79.8867 60.2461C79.9414 60.2852 79.9844 60.3281 80.0156 60.375C80.0547 60.4219 80.0742 60.4766 80.0742 60.5391C80.0742 60.6484 80.0352 60.7578 79.957 60.8672C79.8789 60.9766 79.8164 61.0781 79.7695 61.1719H79.6406C79.4531 61.1719 79.2695 61.1992 79.0898 61.2539C78.918 61.3008 78.7422 61.3594 78.5625 61.4297C78.3906 61.4922 78.2148 61.5508 78.0352 61.6055C77.8633 61.6523 77.6836 61.6758 77.4961 61.6758C77.4648 61.6758 77.4453 61.6953 77.4375 61.7344C77.4375 61.7656 77.4297 61.7891 77.4141 61.8047C77.375 61.7969 77.3164 61.793 77.2383 61.793C77.0586 61.793 76.8867 61.8125 76.7227 61.8516C76.5586 61.8906 76.3906 61.9102 76.2188 61.9102C76.1719 61.9102 76.125 61.9102 76.0781 61.9102C76.0312 61.9023 75.9844 61.8945 75.9375 61.8867C75.8984 61.9492 75.8477 61.9922 75.7852 62.0156C75.7227 62.0312 75.6641 62.0625 75.6094 62.1094C75.5859 62.1797 75.5703 62.2656 75.5625 62.3672C75.5625 62.4688 75.5586 62.5742 75.5508 62.6836C75.5508 62.7852 75.543 62.8828 75.5273 62.9766C75.5117 63.0703 75.4805 63.1445 75.4336 63.1992C75.4414 63.2383 75.4727 63.2539 75.5273 63.2461C75.582 63.2305 75.6094 63.2539 75.6094 63.3164C75.6094 63.3867 75.6016 63.4609 75.5859 63.5391C75.5703 63.6172 75.5625 63.6953 75.5625 63.7734C75.5625 63.9219 75.5781 64.0859 75.6094 64.2656C75.6484 64.4375 75.7031 64.5977 75.7734 64.7461C75.8516 64.8945 75.9531 65.0195 76.0781 65.1211C76.2031 65.2148 76.3594 65.2617 76.5469 65.2617C76.6719 65.2617 76.7891 65.2383 76.8984 65.1914C77.0078 65.1445 77.0977 65.0664 77.168 64.957L77.2266 64.9453C77.2578 64.9453 77.2852 64.9492 77.3086 64.957C77.3398 64.9648 77.3711 64.9688 77.4023 64.9688C77.4492 64.9688 77.5078 64.9414 77.5781 64.8867C77.6562 64.8242 77.7383 64.7539 77.8242 64.6758C77.918 64.5977 78.0117 64.5234 78.1055 64.4531C78.1992 64.375 78.2891 64.3203 78.375 64.2891C78.4297 64.1797 78.4805 64.0703 78.5273 63.9609C78.582 63.8516 78.6602 63.7656 78.7617 63.7031V63.3633C78.8398 63.2773 78.9219 63.1992 79.0078 63.1289C79.1016 63.0586 79.1719 62.9688 79.2188 62.8594C79.2578 62.875 79.293 62.8867 79.3242 62.8945C79.3633 62.9023 79.4023 62.9062 79.4414 62.9062C79.4805 62.9062 79.5195 62.9023 79.5586 62.8945C79.6055 62.8867 79.6484 62.875 79.6875 62.8594C79.75 62.9453 79.7969 63.043 79.8281 63.1523C79.8672 63.2539 79.9141 63.3516 79.9688 63.4453C79.8984 63.5859 79.8164 63.7539 79.7227 63.9492C79.6289 64.1445 79.5273 64.3398 79.418 64.5352C79.3086 64.7305 79.1914 64.918 79.0664 65.0977C78.9492 65.2695 78.832 65.4023 78.7148 65.4961C78.6914 65.5195 78.6406 65.5469 78.5625 65.5781C78.4766 65.6406 78.3984 65.6992 78.3281 65.7539C78.2578 65.8164 78.1914 65.8867 78.1289 65.9648C77.9023 66.0352 77.6836 66.1289 77.4727 66.2461C77.2695 66.3633 77.0664 66.4766 76.8633 66.5859C76.7695 66.5625 76.668 66.5508 76.5586 66.5508C76.4648 66.5508 76.3711 66.5547 76.2773 66.5625C76.1836 66.5781 76.082 66.5859 75.9727 66.5859C75.9414 66.5469 75.8945 66.5195 75.832 66.5039C75.7773 66.4961 75.7578 66.457 75.7734 66.3867C75.5078 66.3711 75.293 66.2969 75.1289 66.1641C74.9648 66.0391 74.8242 65.8828 74.707 65.6953C74.5977 65.5078 74.5078 65.3047 74.4375 65.0859C74.3672 64.8672 74.293 64.6562 74.2148 64.4531V64.418C74.2148 64.3789 74.2305 64.3555 74.2617 64.3477C74.293 64.3398 74.3086 64.3164 74.3086 64.2773C74.3086 64.2617 74.3047 64.25 74.2969 64.2422C74.2734 64.1562 74.2539 64.082 74.2383 64.0195C74.2227 63.957 74.2148 63.8828 74.2148 63.7969C74.2148 63.6719 74.2227 63.5508 74.2383 63.4336C74.2539 63.3086 74.2617 63.1836 74.2617 63.0586C74.2617 62.9336 74.2461 62.8242 74.2148 62.7305C74.2461 62.6914 74.2734 62.6406 74.2969 62.5781C74.3125 62.5078 74.3242 62.4375 74.332 62.3672C74.3398 62.2969 74.3438 62.2266 74.3438 62.1562C74.3516 62.0859 74.3633 62.0234 74.3789 61.9688C74.3477 61.8828 74.3203 61.8086 74.2969 61.7461C74.2734 61.6758 74.2617 61.5938 74.2617 61.5V61.418C74.3398 61.2852 74.4062 61.1484 74.4609 61.0078C74.5156 60.8672 74.5742 60.7227 74.6367 60.5742V60.5391C74.6367 60.3125 74.6289 60.0859 74.6133 59.8594C74.5977 59.6328 74.5898 59.4062 74.5898 59.1797V58.957C74.5898 58.8789 74.5938 58.8047 74.6016 58.7344C74.6641 58.7031 74.7109 58.6602 74.7422 58.6055C74.7734 58.5508 74.8203 58.5078 74.8828 58.4766H75.2695L75.3398 58.3594C75.3633 58.3203 75.3789 58.2773 75.3867 58.2305C75.4727 58.207 75.5547 58.1758 75.6328 58.1367C75.7188 58.0898 75.7969 58.043 75.8672 57.9961C75.9766 57.9336 76.0742 57.8789 76.1602 57.832C76.2539 57.7773 76.3438 57.7344 76.4297 57.7031C76.5234 57.6641 76.6211 57.6328 76.7227 57.6094C76.8242 57.5859 76.9414 57.5664 77.0742 57.5508C77.1367 57.5508 77.1758 57.5391 77.1914 57.5156C77.2148 57.4922 77.2461 57.4648 77.2852 57.4336C77.3789 57.4492 77.4727 57.4648 77.5664 57.4805C77.6602 57.4883 77.7539 57.4922 77.8477 57.4922C78.0352 57.4922 78.2109 57.457 78.375 57.3867C78.6094 57.3867 78.8398 57.3828 79.0664 57.375C79.3008 57.3672 79.5352 57.3633 79.7695 57.3633C79.9727 57.3633 80.1758 57.3711 80.3789 57.3867C80.582 57.4023 80.7812 57.4297 80.9766 57.4688C81.0469 57.4453 81.125 57.4336 81.2109 57.4336C81.3047 57.4336 81.3984 57.4453 81.4922 57.4688C81.5938 57.4844 81.6914 57.4844 81.7852 57.4688C81.793 57.5547 81.8125 57.6289 81.8438 57.6914C81.8828 57.7461 81.9023 57.8125 81.9023 57.8906ZM87.7734 57C87.7734 57.1328 87.7656 57.2617 87.75 57.3867C87.7422 57.5039 87.7188 57.6289 87.6797 57.7617C87.6094 57.8164 87.5469 57.8828 87.4922 57.9609L87.3281 58.1836C87.2734 58.2539 87.2148 58.3242 87.1523 58.3945C87.0898 58.457 87.0117 58.5078 86.918 58.5469C86.8398 58.8906 86.7422 59.2227 86.625 59.543C86.5156 59.8555 86.4336 60.1836 86.3789 60.5273C86.2852 60.6992 86.2109 60.8867 86.1562 61.0898C86.1016 61.293 86.043 61.5 85.9805 61.7109C85.9258 61.9141 85.8633 62.1094 85.793 62.2969C85.7227 62.4844 85.625 62.6523 85.5 62.8008C85.4375 62.9883 85.375 63.1914 85.3125 63.4102C85.25 63.6211 85.1445 63.7969 84.9961 63.9375C85.0039 63.9531 85.0078 63.9766 85.0078 64.0078C85.0078 64.1016 84.9844 64.1914 84.9375 64.2773C84.8906 64.3555 84.8672 64.4375 84.8672 64.5234C84.7422 64.6172 84.6211 64.7266 84.5039 64.8516C84.3945 64.9766 84.2812 65.1016 84.1641 65.2266C84.0469 65.3516 83.9219 65.4609 83.7891 65.5547C83.6562 65.6484 83.5117 65.7109 83.3555 65.7422C83.2461 65.6641 83.1445 65.5742 83.0508 65.4727C82.957 65.3789 82.8477 65.3008 82.7227 65.2383C82.6602 64.8867 82.6211 64.543 82.6055 64.207C82.5977 63.8633 82.5703 63.5234 82.5234 63.1875C82.4922 62.9922 82.4414 62.8047 82.3711 62.625C82.3086 62.4453 82.2773 62.2617 82.2773 62.0742C82.2773 62.0352 82.2773 61.9961 82.2773 61.957C82.2852 61.9102 82.293 61.8672 82.3008 61.8281C82.2227 61.7422 82.1719 61.6367 82.1484 61.5117C82.125 61.3789 82.1055 61.2461 82.0898 61.1133C82.0742 60.9727 82.0508 60.8359 82.0195 60.7031C81.9961 60.5703 81.9492 60.457 81.8789 60.3633C81.9102 60.332 81.9258 60.2891 81.9258 60.2344C81.9258 60.1953 81.918 60.1562 81.9023 60.1172C81.8945 60.0781 81.8906 60.0391 81.8906 60C81.8906 59.9688 81.9023 59.9336 81.9258 59.8945C81.8633 59.8164 81.8203 59.7461 81.7969 59.6836C81.7812 59.6133 81.7695 59.5469 81.7617 59.4844C81.7539 59.4141 81.7461 59.3438 81.7383 59.2734C81.7383 59.2031 81.7305 59.1289 81.7148 59.0508C81.6992 58.9961 81.6719 58.957 81.6328 58.9336C81.6016 58.9023 81.5859 58.8789 81.5859 58.8633C81.5859 58.8242 81.6016 58.793 81.6328 58.7695C81.5234 58.6133 81.4336 58.4492 81.3633 58.2773C81.293 58.1055 81.2148 57.9336 81.1289 57.7617C81.1367 57.6758 81.168 57.6094 81.2227 57.5625C81.2773 57.5156 81.3164 57.4531 81.3398 57.375H81.7148C82.0586 58.0469 82.3203 58.7461 82.5 59.4727C82.6875 60.1914 82.8516 60.918 82.9922 61.6523C83.0312 61.8633 83.0664 62.0742 83.0977 62.2852C83.1367 62.4961 83.1797 62.7109 83.2266 62.9297C83.2422 62.9766 83.2656 63.0273 83.2969 63.082C83.3281 63.1367 83.3438 63.1914 83.3438 63.2461C83.3438 63.293 83.332 63.3398 83.3086 63.3867C83.3555 63.418 83.3906 63.4609 83.4141 63.5156C83.4453 63.5703 83.4688 63.6289 83.4844 63.6914C83.5078 63.7461 83.5273 63.8047 83.543 63.8672C83.5586 63.9219 83.582 63.9727 83.6133 64.0195C83.707 64.0117 83.7891 63.9688 83.8594 63.8906C83.9297 63.8125 83.9922 63.7227 84.0469 63.6211C84.1094 63.5117 84.1641 63.4062 84.2109 63.3047C84.2656 63.1953 84.3281 63.1094 84.3984 63.0469C84.4062 62.9609 84.4219 62.8789 84.4453 62.8008C84.4766 62.7148 84.4922 62.6289 84.4922 62.543C84.5703 62.4102 84.6406 62.2852 84.7031 62.168C84.7656 62.0508 84.8047 61.9102 84.8203 61.7461C84.8594 61.7148 84.8828 61.6914 84.8906 61.6758C84.8984 61.6523 84.9336 61.6484 84.9961 61.6641C84.9961 61.4531 85.0273 61.25 85.0898 61.0547C85.1602 60.8516 85.2539 60.6602 85.3711 60.4805C85.3867 60.3008 85.4219 60.1211 85.4766 59.9414C85.5391 59.7539 85.6094 59.5703 85.6875 59.3906C85.7109 59.3359 85.7422 59.2734 85.7812 59.2031C85.8203 59.125 85.8398 59.0547 85.8398 58.9922C85.8398 58.9609 85.832 58.9336 85.8164 58.9102C85.8086 58.8789 85.8047 58.8477 85.8047 58.8164C85.8047 58.7539 85.8281 58.6992 85.875 58.6523C85.9219 58.6055 85.9648 58.5586 86.0039 58.5117C86.0039 58.332 86.0234 58.1523 86.0625 57.9727C86.1016 57.793 86.1797 57.6367 86.2969 57.5039C86.3359 57.2383 86.3867 56.9805 86.4492 56.7305C86.5117 56.4727 86.6016 56.2266 86.7188 55.9922H87.1406C87.1406 55.8438 87.207 55.7695 87.3398 55.7695C87.418 55.7695 87.5039 55.7891 87.5977 55.8281C87.6602 56 87.7031 56.1953 87.7266 56.4141C87.7578 56.625 87.7734 56.8203 87.7734 57ZM95.168 57.8906V57.9375C95.1133 57.9531 95.0859 57.9922 95.0859 58.0547C95 58.0938 94.9102 58.125 94.8164 58.1484C94.7227 58.1641 94.6328 58.1914 94.5469 58.2305C94.4609 58.2227 94.3711 58.2188 94.2773 58.2188C94.1914 58.2109 94.1055 58.207 94.0195 58.207C93.7852 58.207 93.5508 58.2148 93.3164 58.2305C93.082 58.2461 92.8477 58.2461 92.6133 58.2305C92.5039 58.293 92.3828 58.3438 92.25 58.3828C92.125 58.4141 92.0039 58.4297 91.8867 58.4297C91.793 58.4297 91.7109 58.418 91.6406 58.3945C91.4531 58.4883 91.2461 58.5664 91.0195 58.6289C90.8008 58.6914 90.5781 58.7539 90.3516 58.8164C90.125 58.8711 89.9062 58.9375 89.6953 59.0156C89.4922 59.0859 89.3125 59.1875 89.1562 59.3203C89.1406 59.4297 89.1289 59.5391 89.1211 59.6484C89.1133 59.75 89.1094 59.8516 89.1094 59.9531C89.1094 60.0625 89.1133 60.1641 89.1211 60.2578C89.1367 60.3516 89.1641 60.4453 89.2031 60.5391C89.2422 60.5547 89.2852 60.5664 89.332 60.5742C89.3867 60.582 89.4336 60.5859 89.4727 60.5859C89.5117 60.5859 89.5508 60.582 89.5898 60.5742C89.6289 60.5586 89.6562 60.5312 89.6719 60.4922C89.7891 60.4766 89.9062 60.4727 90.0234 60.4805C90.1406 60.4805 90.2578 60.4805 90.375 60.4805C90.4922 60.4805 90.6055 60.4766 90.7148 60.4688C90.832 60.4609 90.9453 60.4414 91.0547 60.4102C91.1797 60.3789 91.3008 60.3594 91.418 60.3516C91.543 60.3438 91.6641 60.3359 91.7812 60.3281C91.8984 60.3203 92.0195 60.3086 92.1445 60.293C92.2695 60.2695 92.3984 60.2266 92.5312 60.1641C92.6328 60.2031 92.7344 60.2227 92.8359 60.2227C92.9453 60.2227 93.0508 60.2305 93.1523 60.2461C93.207 60.2852 93.25 60.3281 93.2812 60.375C93.3203 60.4219 93.3398 60.4766 93.3398 60.5391C93.3398 60.6484 93.3008 60.7578 93.2227 60.8672C93.1445 60.9766 93.082 61.0781 93.0352 61.1719H92.9062C92.7188 61.1719 92.5352 61.1992 92.3555 61.2539C92.1836 61.3008 92.0078 61.3594 91.8281 61.4297C91.6562 61.4922 91.4805 61.5508 91.3008 61.6055C91.1289 61.6523 90.9492 61.6758 90.7617 61.6758C90.7305 61.6758 90.7109 61.6953 90.7031 61.7344C90.7031 61.7656 90.6953 61.7891 90.6797 61.8047C90.6406 61.7969 90.582 61.793 90.5039 61.793C90.3242 61.793 90.1523 61.8125 89.9883 61.8516C89.8242 61.8906 89.6562 61.9102 89.4844 61.9102C89.4375 61.9102 89.3906 61.9102 89.3438 61.9102C89.2969 61.9023 89.25 61.8945 89.2031 61.8867C89.1641 61.9492 89.1133 61.9922 89.0508 62.0156C88.9883 62.0312 88.9297 62.0625 88.875 62.1094C88.8516 62.1797 88.8359 62.2656 88.8281 62.3672C88.8281 62.4688 88.8242 62.5742 88.8164 62.6836C88.8164 62.7852 88.8086 62.8828 88.793 62.9766C88.7773 63.0703 88.7461 63.1445 88.6992 63.1992C88.707 63.2383 88.7383 63.2539 88.793 63.2461C88.8477 63.2305 88.875 63.2539 88.875 63.3164C88.875 63.3867 88.8672 63.4609 88.8516 63.5391C88.8359 63.6172 88.8281 63.6953 88.8281 63.7734C88.8281 63.9219 88.8438 64.0859 88.875 64.2656C88.9141 64.4375 88.9688 64.5977 89.0391 64.7461C89.1172 64.8945 89.2188 65.0195 89.3438 65.1211C89.4688 65.2148 89.625 65.2617 89.8125 65.2617C89.9375 65.2617 90.0547 65.2383 90.1641 65.1914C90.2734 65.1445 90.3633 65.0664 90.4336 64.957L90.4922 64.9453C90.5234 64.9453 90.5508 64.9492 90.5742 64.957C90.6055 64.9648 90.6367 64.9688 90.668 64.9688C90.7148 64.9688 90.7734 64.9414 90.8438 64.8867C90.9219 64.8242 91.0039 64.7539 91.0898 64.6758C91.1836 64.5977 91.2773 64.5234 91.3711 64.4531C91.4648 64.375 91.5547 64.3203 91.6406 64.2891C91.6953 64.1797 91.7461 64.0703 91.793 63.9609C91.8477 63.8516 91.9258 63.7656 92.0273 63.7031V63.3633C92.1055 63.2773 92.1875 63.1992 92.2734 63.1289C92.3672 63.0586 92.4375 62.9688 92.4844 62.8594C92.5234 62.875 92.5586 62.8867 92.5898 62.8945C92.6289 62.9023 92.668 62.9062 92.707 62.9062C92.7461 62.9062 92.7852 62.9023 92.8242 62.8945C92.8711 62.8867 92.9141 62.875 92.9531 62.8594C93.0156 62.9453 93.0625 63.043 93.0938 63.1523C93.1328 63.2539 93.1797 63.3516 93.2344 63.4453C93.1641 63.5859 93.082 63.7539 92.9883 63.9492C92.8945 64.1445 92.793 64.3398 92.6836 64.5352C92.5742 64.7305 92.457 64.918 92.332 65.0977C92.2148 65.2695 92.0977 65.4023 91.9805 65.4961C91.957 65.5195 91.9062 65.5469 91.8281 65.5781C91.7422 65.6406 91.6641 65.6992 91.5938 65.7539C91.5234 65.8164 91.457 65.8867 91.3945 65.9648C91.168 66.0352 90.9492 66.1289 90.7383 66.2461C90.5352 66.3633 90.332 66.4766 90.1289 66.5859C90.0352 66.5625 89.9336 66.5508 89.8242 66.5508C89.7305 66.5508 89.6367 66.5547 89.543 66.5625C89.4492 66.5781 89.3477 66.5859 89.2383 66.5859C89.207 66.5469 89.1602 66.5195 89.0977 66.5039C89.043 66.4961 89.0234 66.457 89.0391 66.3867C88.7734 66.3711 88.5586 66.2969 88.3945 66.1641C88.2305 66.0391 88.0898 65.8828 87.9727 65.6953C87.8633 65.5078 87.7734 65.3047 87.7031 65.0859C87.6328 64.8672 87.5586 64.6562 87.4805 64.4531V64.418C87.4805 64.3789 87.4961 64.3555 87.5273 64.3477C87.5586 64.3398 87.5742 64.3164 87.5742 64.2773C87.5742 64.2617 87.5703 64.25 87.5625 64.2422C87.5391 64.1562 87.5195 64.082 87.5039 64.0195C87.4883 63.957 87.4805 63.8828 87.4805 63.7969C87.4805 63.6719 87.4883 63.5508 87.5039 63.4336C87.5195 63.3086 87.5273 63.1836 87.5273 63.0586C87.5273 62.9336 87.5117 62.8242 87.4805 62.7305C87.5117 62.6914 87.5391 62.6406 87.5625 62.5781C87.5781 62.5078 87.5898 62.4375 87.5977 62.3672C87.6055 62.2969 87.6094 62.2266 87.6094 62.1562C87.6172 62.0859 87.6289 62.0234 87.6445 61.9688C87.6133 61.8828 87.5859 61.8086 87.5625 61.7461C87.5391 61.6758 87.5273 61.5938 87.5273 61.5V61.418C87.6055 61.2852 87.6719 61.1484 87.7266 61.0078C87.7812 60.8672 87.8398 60.7227 87.9023 60.5742V60.5391C87.9023 60.3125 87.8945 60.0859 87.8789 59.8594C87.8633 59.6328 87.8555 59.4062 87.8555 59.1797V58.957C87.8555 58.8789 87.8594 58.8047 87.8672 58.7344C87.9297 58.7031 87.9766 58.6602 88.0078 58.6055C88.0391 58.5508 88.0859 58.5078 88.1484 58.4766H88.5352L88.6055 58.3594C88.6289 58.3203 88.6445 58.2773 88.6523 58.2305C88.7383 58.207 88.8203 58.1758 88.8984 58.1367C88.9844 58.0898 89.0625 58.043 89.1328 57.9961C89.2422 57.9336 89.3398 57.8789 89.4258 57.832C89.5195 57.7773 89.6094 57.7344 89.6953 57.7031C89.7891 57.6641 89.8867 57.6328 89.9883 57.6094C90.0898 57.5859 90.207 57.5664 90.3398 57.5508C90.4023 57.5508 90.4414 57.5391 90.457 57.5156C90.4805 57.4922 90.5117 57.4648 90.5508 57.4336C90.6445 57.4492 90.7383 57.4648 90.832 57.4805C90.9258 57.4883 91.0195 57.4922 91.1133 57.4922C91.3008 57.4922 91.4766 57.457 91.6406 57.3867C91.875 57.3867 92.1055 57.3828 92.332 57.375C92.5664 57.3672 92.8008 57.3633 93.0352 57.3633C93.2383 57.3633 93.4414 57.3711 93.6445 57.3867C93.8477 57.4023 94.0469 57.4297 94.2422 57.4688C94.3125 57.4453 94.3906 57.4336 94.4766 57.4336C94.5703 57.4336 94.6641 57.4453 94.7578 57.4688C94.8594 57.4844 94.957 57.4844 95.0508 57.4688C95.0586 57.5547 95.0781 57.6289 95.1094 57.6914C95.1484 57.7461 95.168 57.8125 95.168 57.8906Z" fill="white"/>
</svg>
