<svg width="1125" height="220" viewBox="0 0 1125 220" fill="none" xmlns="http://www.w3.org/2000/svg">
<path d="M73.7638 190.433L17.65 188.645L7.12129 180.415L85.7862 181.121L83.5601 182.813L73.7638 190.433Z" fill="#232323" stroke="#232323"/>
<path d="M124.234 157.047L21.2346 158.479L1.63168 173.23L145.962 174.525L141.938 171.346L124.234 157.047Z" fill="#232323" stroke="#232323"/>
<path d="M45.2227 197.184L24.002 196.965L25.3273 197.868C38.0738 205.27 38.9412 207 43.3191 211.377C45.6584 213.263 49.4613 216.132 52.5466 217.03C56.563 218.198 66.6681 219.305 72.4747 212.93C71.1489 212.918 72.4747 212.93 71.1489 212.918C59.2165 212.811 52.0805 204.135 45.2227 197.184Z" fill="#232323" stroke="#232323"/>
<path d="M47.5268 150.87L26.7557 150.684L28.0938 149.413C40.9793 142.282 41.8795 140.578 46.3401 136.304C48.5788 133.294 51.6556 131.632 55.2322 130.803C57.004 130.392 69.8362 128.841 75.5203 135.282C74.1945 135.271 75.5203 135.282 74.1945 135.27C62.2621 135.163 54.516 144.083 47.5268 150.87Z" fill="#232323" stroke="#232323"/>
<path d="M31.307 181.579C34.1443 179.238 60.5201 150.631 73.9966 138.175L22.2109 193.65C22.5749 191.656 22.562 191.295 22.2109 190.131L26.2481 186.402L31.307 181.579Z" fill="#232323" stroke="#232323"/>
<path d="M1050.48 28.6841L1106.6 30.3188L1117.15 38.5199L1038.48 38.0289L1040.7 36.3301L1050.48 28.6841Z" fill="#232323" stroke="#232323"/>
<path d="M1000.09 62.2075L1103.09 60.4936L1122.65 45.6896L978.316 44.7888L982.349 47.9563L1000.09 62.2075Z" fill="#232323" stroke="#232323"/>
<path d="M1079 21.8554L1100.22 22.0165L1098.89 21.118C1086.12 13.7507 1085.25 12.0229 1080.86 7.65788C1078.52 5.77761 1074.71 2.9196 1071.62 2.03036C1067.6 0.872725 1057.49 -0.206312 1051.7 6.18468C1053.03 6.19307 1051.7 6.18468 1053.03 6.19295C1064.96 6.26742 1072.12 14.9235 1079 21.8554Z" fill="#232323" stroke="#232323"/>
<path d="M1076.81 68.1755L1097.59 68.3051L1096.25 69.5795C1083.39 76.7455 1082.49 78.4524 1078.04 82.7377C1075.81 85.7546 1072.74 87.4245 1069.16 88.2638C1067.39 88.6796 1054.57 90.2658 1048.86 83.8395C1050.19 83.8477 1048.86 83.8395 1050.19 83.8478C1062.12 83.9223 1069.84 74.982 1076.81 68.1755Z" fill="#232323" stroke="#232323"/>
<path d="M1092.96 37.4223C1090.13 39.7715 1063.83 68.4499 1050.39 80.9432L1102.02 25.3265C1101.66 27.3213 1101.68 27.6827 1102.03 28.8462L1098 32.5861L1092.96 37.4223Z" fill="#232323" stroke="#232323"/>
<path d="M1046.68 190.433L1102.8 188.645L1113.32 180.415L1034.66 181.121L1036.89 182.813L1046.68 190.433Z" fill="#232323" stroke="#232323"/>
<path d="M996.211 157.047L1099.21 158.479L1118.81 173.23L974.483 174.525L978.507 171.346L996.211 157.047Z" fill="#232323" stroke="#232323"/>
<path d="M1075.22 197.184L1096.44 196.965L1095.12 197.868C1082.37 205.27 1081.5 207 1077.13 211.377C1074.79 213.263 1070.98 216.132 1067.9 217.03C1063.88 218.198 1053.78 219.305 1047.97 212.93C1049.3 212.918 1047.97 212.93 1049.3 212.918C1061.23 212.811 1068.36 204.135 1075.22 197.184Z" fill="#232323" stroke="#232323"/>
<path d="M1072.92 150.87L1093.69 150.684L1092.35 149.413C1079.47 142.282 1078.57 140.578 1074.11 136.304C1071.87 133.294 1068.79 131.632 1065.21 130.803C1063.44 130.392 1050.61 128.841 1044.93 135.282C1046.25 135.271 1044.93 135.282 1046.25 135.27C1058.18 135.163 1065.93 144.083 1072.92 150.87Z" fill="#232323" stroke="#232323"/>
<path d="M1089.14 181.579C1086.3 179.238 1059.93 150.631 1046.45 138.175L1098.23 193.65C1097.87 191.656 1097.88 191.295 1098.23 190.131L1094.2 186.402L1089.14 181.579Z" fill="#232323" stroke="#232323"/>
<path d="M77.551 31.3412L21.4423 33.2823L10.9361 41.5409L89.5987 40.6204L87.3681 38.9337L77.551 31.3412Z" fill="#232323" stroke="#232323"/>
<path d="M128.122 64.5887L25.1183 63.4372L5.47512 48.7403L149.801 47.0514L145.786 50.2408L128.122 64.5887Z" fill="#232323" stroke="#232323"/>
<path d="M48.9971 24.6672L27.7772 24.9441L29.0999 24.0384C41.8262 16.6014 42.6889 14.869 47.0548 10.48C49.3889 8.58698 53.184 5.7082 56.2668 4.80211C60.28 3.62254 70.382 2.48833 76.206 8.84761C74.8802 8.86324 76.206 8.84761 74.8802 8.86312C62.9483 9.00275 55.836 17.6978 48.9971 24.6672Z" fill="#232323" stroke="#232323"/>
<path d="M51.4308 70.9752L30.6603 71.2183L32.0018 72.4854C44.9067 79.5811 45.8116 81.283 50.2839 85.544C52.5307 88.5487 55.6121 90.2017 59.191 91.0215C60.9639 91.4276 73.8002 92.9437 79.4667 86.4864C78.1409 86.5018 79.4667 86.4864 78.1409 86.5019C66.2089 86.6416 58.4385 77.7436 51.4308 70.9752Z" fill="#232323" stroke="#232323"/>
<path d="M35.126 40.3101C37.9696 42.6438 64.4235 71.1782 77.9339 83.5979L25.997 28.264C26.3664 30.2568 26.3545 30.6183 26.0066 31.7837L30.0539 35.5015L35.126 40.3101Z" fill="#232323" stroke="#232323"/>
<path d="M234.686 188.464L171.825 186.461L160.031 177.241L248.154 178.032L245.66 179.928L234.686 188.464Z" stroke="#232323" stroke-opacity="0.4" stroke-width="0.5"/>
<path d="M234.686 160.645L171.798 161.52L159.829 170.526L247.952 171.317L245.495 169.376L234.686 160.645Z" stroke="#232323" stroke-opacity="0.4" stroke-width="0.5"/>
<path d="M201.603 194.94L177.83 194.695L179.315 195.706C193.594 203.998 194.566 205.936 199.47 210.839C202.091 212.953 206.351 216.166 209.807 217.172C214.307 218.481 225.627 219.72 232.131 212.579C230.646 212.565 232.131 212.579 230.646 212.565C217.279 212.446 209.285 202.727 201.603 194.94Z" stroke="#232323" stroke-opacity="0.4" stroke-width="0.5"/>
<path d="M202.758 153.575L179.49 153.367L180.989 151.943C195.424 143.955 196.432 142.045 201.429 137.258C203.937 133.886 207.384 132.024 211.39 131.095C213.375 130.635 227.75 128.897 234.118 136.113C232.633 136.1 234.118 136.113 232.633 136.1C219.265 135.98 210.588 145.972 202.758 153.575Z" stroke="#232323" stroke-opacity="0.4" stroke-width="0.5"/>
<path d="M187.135 184.617C190.314 181.994 219.861 149.947 234.958 135.993L176.945 198.139C177.353 195.905 177.339 195.501 176.945 194.196L181.468 190.019L187.135 184.617Z" stroke="#232323" stroke-opacity="0.4" stroke-width="0.5"/>
<path d="M889.554 31.092L952.421 32.9233L964.24 42.1105L876.115 41.5605L878.604 39.6574L889.554 31.092Z" stroke="#232323" stroke-opacity="0.4" stroke-width="0.5"/>
<path d="M889.633 58.9104L952.518 57.8639L964.463 48.8251L876.337 48.2751L878.8 50.2091L889.633 58.9104Z" stroke="#232323" stroke-opacity="0.4" stroke-width="0.5"/>
<path d="M922.616 24.5245L946.389 24.705L944.902 23.6984C930.6 15.4452 929.623 13.5098 924.705 8.61985C922.079 6.51351 917.81 3.31185 914.351 2.31568C909.848 1.01886 898.525 -0.189924 892.039 6.96952C893.525 6.97892 892.039 6.96952 893.525 6.97878C906.892 7.06221 914.912 16.759 922.616 24.5245Z" stroke="#232323" stroke-opacity="0.4" stroke-width="0.5"/>
<path d="M921.576 65.8929L944.845 66.0381L943.35 67.4658C928.937 75.4934 927.934 77.4056 922.95 82.2061C920.452 85.5858 917.01 87.4564 913.006 88.3966C911.022 88.8624 896.652 90.6393 890.265 83.4404C891.75 83.4495 890.265 83.4404 891.75 83.4497C905.117 83.5331 913.768 73.5178 921.576 65.8929Z" stroke="#232323" stroke-opacity="0.4" stroke-width="0.5"/>
<path d="M937.115 34.8089C933.944 37.4405 904.484 69.5672 889.425 83.5627L947.268 21.2587C946.866 23.4934 946.882 23.8982 947.279 25.2016L942.767 29.3912L937.115 34.8089Z" stroke="#232323" stroke-opacity="0.4" stroke-width="0.5"/>
<path d="M336.913 188.464L274.052 186.461L262.257 177.241L350.381 178.032L347.887 179.928L336.913 188.464Z" stroke="#232323" stroke-opacity="0.4" stroke-width="0.5"/>
<path d="M336.913 160.645L274.024 161.52L262.055 170.526L350.179 171.317L347.722 169.376L336.913 160.645Z" stroke="#232323" stroke-opacity="0.4" stroke-width="0.5"/>
<path d="M303.829 194.94L280.057 194.695L281.542 195.706C295.821 203.998 296.792 205.936 301.697 210.839C304.317 212.953 308.578 216.166 312.034 217.172C316.533 218.481 327.853 219.72 334.358 212.579C332.873 212.565 334.358 212.579 332.873 212.565C319.506 212.446 311.512 202.727 303.829 194.94Z" stroke="#232323" stroke-opacity="0.4" stroke-width="0.5"/>
<path d="M304.985 153.575L281.716 153.367L283.215 151.943C297.65 143.955 298.659 142.045 303.656 137.258C306.163 133.886 309.61 132.024 313.617 131.095C315.602 130.635 329.977 128.897 336.344 136.113C334.859 136.1 336.344 136.113 334.859 136.1C321.492 135.98 312.814 145.972 304.985 153.575Z" stroke="#232323" stroke-opacity="0.4" stroke-width="0.5"/>
<path d="M289.362 184.617C292.54 181.994 322.087 149.947 337.184 135.993L279.172 198.139C279.58 195.905 279.565 195.501 279.172 194.196L283.694 190.019L289.362 184.617Z" stroke="#232323" stroke-opacity="0.4" stroke-width="0.5"/>
<path d="M787.328 31.3713L850.194 33.2026L862.014 42.3898L773.889 41.8398L776.377 39.9367L787.328 31.3713Z" stroke="#232323" stroke-opacity="0.4" stroke-width="0.5"/>
<path d="M787.406 59.1897L850.292 58.1432L862.236 49.1044L774.111 48.5544L776.573 50.4884L787.406 59.1897Z" stroke="#232323" stroke-opacity="0.4" stroke-width="0.5"/>
<path d="M820.39 24.8038L844.162 24.9842L842.675 23.9777C828.373 15.7245 827.396 13.7891 822.479 8.89915C819.852 6.7928 815.583 3.59114 812.124 2.59498C807.621 1.29815 796.298 0.089373 789.813 7.24881C791.298 7.25822 789.813 7.24881 791.298 7.25808C804.665 7.3415 812.686 17.0383 820.39 24.8038Z" stroke="#232323" stroke-opacity="0.4" stroke-width="0.5"/>
<path d="M819.35 66.1722L842.619 66.3174L841.124 67.7451C826.711 75.7727 825.708 77.6849 820.724 82.4854C818.225 85.8651 814.783 87.7357 810.779 88.6759C808.796 89.1417 794.425 90.9186 788.038 83.7197C789.524 83.7288 788.038 83.7197 789.524 83.729C802.891 83.8124 811.541 73.7971 819.35 66.1722Z" stroke="#232323" stroke-opacity="0.4" stroke-width="0.5"/>
<path d="M834.888 35.0882C831.717 37.7198 802.258 69.8465 787.199 83.842L845.041 21.538C844.64 23.7727 844.655 24.1775 845.052 25.4809L840.541 29.6705L834.888 35.0882Z" stroke="#232323" stroke-opacity="0.4" stroke-width="0.5"/>
<path d="M439.139 188.464L376.278 186.461L364.484 177.241L452.607 178.032L450.113 179.928L439.139 188.464Z" stroke="#232323" stroke-opacity="0.4" stroke-width="0.5"/>
<path d="M439.139 160.645L376.251 161.52L364.282 170.526L452.405 171.317L449.948 169.376L439.139 160.645Z" stroke="#232323" stroke-opacity="0.4" stroke-width="0.5"/>
<path d="M406.056 194.94L382.284 194.695L383.768 195.706C398.047 203.998 399.019 205.936 403.923 210.839C406.544 212.953 410.804 216.166 414.26 217.172C418.76 218.481 430.08 219.72 436.585 212.579C435.099 212.565 436.585 212.579 435.099 212.565C421.732 212.446 413.738 202.727 406.056 194.94Z" stroke="#232323" stroke-opacity="0.4" stroke-width="0.5"/>
<path d="M407.212 153.575L383.943 153.367L385.442 151.943C399.877 143.955 400.885 142.045 405.882 137.258C408.39 133.886 411.837 132.024 415.843 131.095C417.828 130.635 432.203 128.897 438.571 136.113C437.086 136.1 438.571 136.113 437.086 136.1C423.719 135.98 415.041 145.972 407.212 153.575Z" stroke="#232323" stroke-opacity="0.4" stroke-width="0.5"/>
<path d="M391.588 184.617C394.767 181.994 424.314 149.947 439.411 135.993L381.398 198.139C381.806 195.905 381.792 195.501 381.398 194.196L385.921 190.019L391.588 184.617Z" stroke="#232323" stroke-opacity="0.4" stroke-width="0.5"/>
<path d="M685.109 31.6506L747.975 33.4819L759.795 42.6691L671.67 42.1191L674.158 40.216L685.109 31.6506Z" stroke="#232323" stroke-opacity="0.4" stroke-width="0.5"/>
<path d="M685.187 59.469L748.073 58.4225L760.017 49.3837L671.892 48.8337L674.354 50.7677L685.187 59.469Z" stroke="#232323" stroke-opacity="0.4" stroke-width="0.5"/>
<path d="M718.171 25.0831L741.944 25.2635L740.456 24.257C726.155 16.0038 725.178 14.0684 720.26 9.17844C717.634 7.0721 713.365 3.87044 709.906 2.87428C705.403 1.57745 694.079 0.36867 687.594 7.52811C689.079 7.53751 687.594 7.52811 689.079 7.53738C702.447 7.6208 710.467 17.3176 718.171 25.0831Z" stroke="#232323" stroke-opacity="0.4" stroke-width="0.5"/>
<path d="M717.131 66.4515L740.4 66.5967L738.905 68.0244C724.492 76.052 723.489 77.9641 718.505 82.7647C716.006 86.1444 712.565 88.015 708.561 88.9552C706.577 89.421 692.207 91.1979 685.82 83.999C687.305 84.0081 685.82 83.999 687.305 84.0083C700.672 84.0917 709.322 74.0764 717.131 66.4515Z" stroke="#232323" stroke-opacity="0.4" stroke-width="0.5"/>
<path d="M732.67 35.3675C729.498 37.9991 700.039 70.1258 684.98 84.1213L742.823 21.8173C742.421 24.052 742.436 24.4568 742.833 25.7602L738.322 29.9498L732.67 35.3675Z" stroke="#232323" stroke-opacity="0.4" stroke-width="0.5"/>
<path d="M495.966 205.086L497.368 142.208L506.474 130.326L506.526 218.453L504.606 215.978L495.966 205.086Z" stroke="#232323" stroke-opacity="0.4" stroke-width="0.5"/>
<path d="M523.786 204.82L522.31 141.943L513.19 130.061L513.242 218.188L515.159 215.712L523.786 204.82Z" stroke="#232323" stroke-opacity="0.4" stroke-width="0.5"/>
<path d="M489.173 172.065L489.191 148.292L488.194 149.786C480.039 164.144 478.11 165.134 473.254 170.085C471.166 172.726 467.993 177.016 467.021 180.482C465.755 184.994 464.623 196.325 471.827 202.761C471.826 201.276 471.827 202.761 471.826 201.276C471.818 187.909 481.46 179.822 489.173 172.065Z" stroke="#232323" stroke-opacity="0.4" stroke-width="0.5"/>
<path d="M530.553 172.826L530.54 149.557L531.977 151.042C540.103 165.4 542.022 166.39 546.857 171.341C550.253 173.816 552.147 177.245 553.115 181.243C553.594 183.223 555.469 197.581 548.314 204.017C548.313 202.532 548.314 204.017 548.313 202.532C548.305 189.164 538.231 180.583 530.553 172.826Z" stroke="#232323" stroke-opacity="0.4" stroke-width="0.5"/>
<path d="M499.359 157.5C502.012 160.653 534.339 189.893 548.437 204.855L485.74 147.44C487.977 147.826 488.382 147.808 489.683 147.402L493.903 151.884L499.359 157.5Z" stroke="#232323" stroke-opacity="0.4" stroke-width="0.5"/>
<path d="M628.229 15.1833L626.998 78.0641L617.924 89.9712L617.632 1.84461L619.559 4.31484L628.229 15.1833Z" stroke="#232323" stroke-opacity="0.4" stroke-width="0.5"/>
<path d="M600.408 15.5251L602.056 78.398L611.208 90.2554L610.916 2.12878L609.006 4.60949L600.408 15.5251Z" stroke="#232323" stroke-opacity="0.4" stroke-width="0.5"/>
<path d="M635.106 48.1852L635.153 71.9587L636.145 70.4618C644.261 56.0818 646.187 55.0863 651.03 50.1221C653.111 47.4759 656.272 43.1764 657.235 39.7081C658.489 35.193 659.589 23.8586 652.368 17.442C652.373 18.9273 652.368 17.442 652.373 18.9273C652.417 32.2948 642.798 40.4077 635.106 48.1852Z" stroke="#232323" stroke-opacity="0.4" stroke-width="0.5"/>
<path d="M593.735 47.5376L593.812 70.807L592.37 69.3256C584.205 54.9901 582.283 54.0051 577.435 49.0674C574.032 46.6012 572.129 43.1775 571.15 39.1826C570.665 37.2035 568.751 22.8509 575.889 16.3952C575.894 17.8804 575.889 16.3952 575.894 17.8804C575.938 31.248 586.036 39.8021 593.735 47.5376Z" stroke="#232323" stroke-opacity="0.4" stroke-width="0.5"/>
<path d="M624.963 62.7779C622.301 59.632 589.895 30.4807 575.756 15.5565L638.61 72.8008C636.371 72.4204 635.967 72.4399 634.667 72.8492L630.435 68.3783L624.963 62.7779Z" stroke="#232323" stroke-opacity="0.4" stroke-width="0.5"/>
<path d="M596.622 143.428L598.024 206.305L607.13 218.188L607.182 130.06L605.262 132.536L596.622 143.428Z" stroke="#232323" stroke-opacity="0.4" stroke-width="0.5"/>
<path d="M624.442 143.694L622.966 206.571L613.846 218.453L613.898 130.326L615.815 132.802L624.442 143.694Z" stroke="#232323" stroke-opacity="0.4" stroke-width="0.5"/>
<path d="M589.829 176.448L589.847 200.222L588.851 198.727C580.695 184.37 578.767 183.38 573.91 178.429C571.822 175.788 568.65 171.497 567.677 168.032C566.411 163.52 565.28 152.188 572.483 145.752C572.482 147.238 572.483 145.752 572.482 147.238C572.474 160.605 582.116 168.692 589.829 176.448Z" stroke="#232323" stroke-opacity="0.4" stroke-width="0.5"/>
<path d="M631.209 175.688L631.196 198.957L632.634 197.472C640.759 183.114 642.678 182.124 647.513 177.173C650.91 174.697 652.804 171.268 653.771 167.271C654.25 165.291 656.125 150.933 648.97 144.496C648.969 145.982 648.97 144.496 648.969 145.982C648.962 159.349 638.887 167.931 631.209 175.688Z" stroke="#232323" stroke-opacity="0.4" stroke-width="0.5"/>
<path d="M600.015 191.014C602.669 187.861 634.996 158.621 649.094 143.658L586.396 201.074C588.633 200.688 589.038 200.706 590.339 201.112L594.559 196.629L600.015 191.014Z" stroke="#232323" stroke-opacity="0.4" stroke-width="0.5"/>
<path d="M527.746 77.1167L526.172 14.2436L517.034 2.38623L517.223 90.5131L519.136 88.0324L527.746 77.1167Z" stroke="#232323" stroke-opacity="0.4" stroke-width="0.5"/>
<path d="M499.926 76.9263L501.23 14.0453L510.318 2.13818L510.507 90.265L508.583 87.7948L499.926 76.9263Z" stroke="#232323" stroke-opacity="0.4" stroke-width="0.5"/>
<path d="M534.447 44.0777L534.364 20.3044L535.364 21.7958C543.559 36.1313 545.49 37.1162 550.36 42.0539C552.456 44.6887 555.64 48.9708 556.622 52.4338C557.9 56.942 559.062 68.2703 551.877 74.7262C551.873 73.2409 551.877 74.7262 551.873 73.2409C551.845 59.8733 542.181 51.8131 534.447 44.0777Z" stroke="#232323" stroke-opacity="0.4" stroke-width="0.5"/>
<path d="M493.073 44.9514L493.023 21.682L491.589 23.1712C483.502 37.5511 481.586 38.5465 476.765 43.5106C473.375 45.9954 471.491 49.4294 470.534 53.4296C470.06 55.4113 468.224 69.7741 475.397 76.1908C475.394 74.7055 475.397 76.1908 475.394 74.7055C475.365 61.338 485.416 52.7288 493.073 44.9514Z" stroke="#232323" stroke-opacity="0.4" stroke-width="0.5"/>
<path d="M524.225 29.5402C521.58 32.7006 489.333 62.0283 475.276 77.0295L537.816 19.4429C535.58 19.8354 535.175 19.8182 533.873 19.416L529.665 23.9099L524.225 29.5402Z" stroke="#232323" stroke-opacity="0.4" stroke-width="0.5"/>
<path d="M681.283 188.464L744.143 186.461L755.938 177.241L667.815 178.032L670.308 179.928L681.283 188.464Z" stroke="#232323" stroke-opacity="0.4" stroke-width="0.5"/>
<path d="M681.283 160.645L744.171 161.52L756.14 170.526L668.016 171.317L670.473 169.376L681.283 160.645Z" stroke="#232323" stroke-opacity="0.4" stroke-width="0.5"/>
<path d="M714.366 194.94L738.138 194.695L736.654 195.706C722.375 203.998 721.403 205.936 716.499 210.839C713.878 212.953 709.618 216.166 706.162 217.172C701.662 218.481 690.342 219.72 683.837 212.579C685.323 212.565 683.837 212.579 685.323 212.565C698.69 212.446 706.684 202.727 714.366 194.94Z" stroke="#232323" stroke-opacity="0.4" stroke-width="0.5"/>
<path d="M713.21 153.575L736.479 153.367L734.98 151.943C720.545 143.955 719.537 142.045 714.54 137.258C712.032 133.886 708.585 132.024 704.578 131.095C702.594 130.635 688.219 128.897 681.851 136.113C683.336 136.1 681.851 136.113 683.336 136.1C696.703 135.98 705.381 145.972 713.21 153.575Z" stroke="#232323" stroke-opacity="0.4" stroke-width="0.5"/>
<path d="M728.834 184.617C725.655 181.994 696.108 149.947 681.011 135.993L739.023 198.139C738.616 195.905 738.63 195.501 739.023 194.196L734.501 190.019L728.834 184.617Z" stroke="#232323" stroke-opacity="0.4" stroke-width="0.5"/>
<path d="M442.95 32.3117L380.094 34.4863L368.325 43.7379L456.446 42.7066L453.947 40.8172L442.95 32.3117Z" stroke="#232323" stroke-opacity="0.4" stroke-width="0.5"/>
<path d="M443.028 60.1301L380.137 59.427L368.144 50.4536L456.265 49.4223L453.813 51.3697L443.028 60.1301Z" stroke="#232323" stroke-opacity="0.4" stroke-width="0.5"/>
<path d="M409.853 25.9257L386.081 26.236L387.563 25.2213C401.819 16.8902 402.786 14.9494 407.677 10.0327C410.291 7.91204 414.543 4.68712 417.996 3.67208C422.492 2.35068 433.809 1.08008 440.333 8.204C438.848 8.22152 440.333 8.204 438.848 8.22138C425.481 8.3778 417.514 18.1183 409.853 25.9257Z" stroke="#232323" stroke-opacity="0.4" stroke-width="0.5"/>
<path d="M411.116 67.2866L387.849 67.5588L389.351 68.9783C403.808 76.9271 404.822 78.8338 409.832 83.607C412.349 86.973 415.801 88.8248 419.81 89.7431C421.796 90.1981 436.176 91.8965 442.523 84.6628C441.038 84.6801 442.523 84.6628 441.038 84.6802C427.672 84.8366 418.967 74.8687 411.116 67.2866Z" stroke="#232323" stroke-opacity="0.4" stroke-width="0.5"/>
<path d="M395.409 36.2884C398.594 38.9027 428.229 70.868 443.364 84.7811L385.182 22.7938C385.596 25.0263 385.582 25.4312 385.193 26.7368L389.727 30.9017L395.409 36.2884Z" stroke="#232323" stroke-opacity="0.4" stroke-width="0.5"/>
<path d="M783.525 188.624L846.386 186.604L858.179 177.281L770.056 178.072L772.55 179.99L783.525 188.624Z" stroke="#232323" stroke-opacity="0.4" stroke-width="0.5"/>
<path d="M783.533 160.488L846.421 161.379L858.391 170.489L770.268 171.28L772.724 169.317L783.533 160.488Z" stroke="#232323" stroke-opacity="0.4" stroke-width="0.5"/>
<path d="M816.606 195.178L840.378 194.932L838.893 195.954C824.615 204.339 823.644 206.299 818.74 211.258C816.12 213.396 811.86 216.645 808.404 217.662C803.904 218.985 792.585 220.238 786.079 213.014C787.564 213.001 786.079 213.014 787.564 213.001C800.931 212.881 808.924 203.052 816.606 195.178Z" stroke="#232323" stroke-opacity="0.4" stroke-width="0.5"/>
<path d="M815.447 153.341L838.716 153.133L837.217 151.693C822.781 143.612 821.772 141.68 816.775 136.838C814.267 133.427 810.82 131.544 806.813 130.604C804.828 130.138 790.453 128.379 784.086 135.677C785.571 135.664 784.086 135.677 785.571 135.664C798.938 135.544 807.617 145.65 815.447 153.341Z" stroke="#232323" stroke-opacity="0.4" stroke-width="0.5"/>
<path d="M831.073 184.737C827.895 182.084 798.344 149.669 783.245 135.554L841.265 198.415C840.857 196.156 840.871 195.746 841.264 194.427L836.741 190.201L831.073 184.737Z" stroke="#232323" stroke-opacity="0.4" stroke-width="0.5"/>
<path d="M340.715 32.4318L277.86 34.6228L266.092 43.9784L354.213 42.9472L351.714 41.0358L340.715 32.4318Z" stroke="#232323" stroke-opacity="0.4" stroke-width="0.5"/>
<path d="M340.786 60.5676L277.895 59.8481L265.9 50.7706L354.021 49.7394L351.57 51.7087L340.786 60.5676Z" stroke="#232323" stroke-opacity="0.4" stroke-width="0.5"/>
<path d="M307.614 25.9677L283.842 26.2783L285.324 25.2522C299.579 16.8279 300.545 14.8651 305.436 9.89296C308.05 7.74845 312.301 4.48729 315.754 3.46112C320.25 2.12524 331.566 0.841656 338.092 8.04775C336.606 8.06527 338.092 8.04775 336.606 8.06513C323.24 8.22155 315.274 18.0721 307.614 25.9677Z" stroke="#232323" stroke-opacity="0.4" stroke-width="0.5"/>
<path d="M308.887 67.8008L285.619 68.0731L287.122 69.509C301.579 77.5505 302.593 79.479 307.604 84.3074C310.122 87.7121 313.574 89.5855 317.583 90.5149C319.569 90.9753 333.949 92.695 340.296 85.3796C338.811 85.3969 340.296 85.3796 338.811 85.397C325.444 85.5534 316.738 75.4706 308.887 67.8008Z" stroke="#232323" stroke-opacity="0.4" stroke-width="0.5"/>
<path d="M293.175 36.4483C296.361 39.0929 326 71.427 341.137 85.5009L282.947 22.7984C283.361 25.0564 283.347 25.4659 282.958 26.7863L287.492 30.9993L293.175 36.4483Z" stroke="#232323" stroke-opacity="0.4" stroke-width="0.5"/>
<path d="M885.759 188.464L948.62 186.461L960.415 177.241L872.291 178.032L874.785 179.928L885.759 188.464Z" stroke="#232323" stroke-opacity="0.4" stroke-width="0.5"/>
<path d="M885.759 160.645L948.648 161.52L960.616 170.526L872.493 171.317L874.95 169.376L885.759 160.645Z" stroke="#232323" stroke-opacity="0.4" stroke-width="0.5"/>
<path d="M918.843 194.94L942.615 194.695L941.13 195.706C926.851 203.998 925.879 205.936 920.975 210.839C918.355 212.953 914.094 216.166 910.638 217.172C906.139 218.481 894.819 219.72 888.314 212.579C889.799 212.565 888.314 212.579 889.799 212.565C903.166 212.446 911.16 202.727 918.843 194.94Z" stroke="#232323" stroke-opacity="0.4" stroke-width="0.5"/>
<path d="M917.687 153.575L940.955 153.367L939.457 151.943C925.022 143.955 924.013 142.045 919.016 137.258C916.508 133.886 913.062 132.024 909.055 131.095C907.07 130.635 892.695 128.897 886.328 136.113C887.813 136.1 886.328 136.113 887.813 136.1C901.18 135.98 909.857 145.972 917.687 153.575Z" stroke="#232323" stroke-opacity="0.4" stroke-width="0.5"/>
<path d="M933.31 184.617C930.132 181.994 900.585 149.947 885.488 135.993L943.5 198.139C943.092 195.905 943.107 195.501 943.5 194.196L938.977 190.019L933.31 184.617Z" stroke="#232323" stroke-opacity="0.4" stroke-width="0.5"/>
<path d="M238.481 32.8703L175.626 35.0449L163.856 44.2964L251.977 43.2652L249.478 41.3758L238.481 32.8703Z" stroke="#232323" stroke-opacity="0.4" stroke-width="0.5"/>
<path d="M238.559 60.6887L175.668 59.9856L163.675 51.0121L251.796 49.9809L249.344 51.9283L238.559 60.6887Z" stroke="#232323" stroke-opacity="0.4" stroke-width="0.5"/>
<path d="M205.384 26.4843L181.612 26.7946L183.094 25.7799C197.351 17.4487 198.317 15.508 203.208 10.5913C205.823 8.47064 210.074 5.24571 213.528 4.23067C218.023 2.90928 229.34 1.63868 235.864 8.76259C234.379 8.78011 235.864 8.76259 234.379 8.77997C221.012 8.93639 213.045 18.6769 205.384 26.4843Z" stroke="#232323" stroke-opacity="0.4" stroke-width="0.5"/>
<path d="M206.648 67.8451L183.38 68.1174L184.883 69.5369C199.339 77.4857 200.353 79.3924 205.363 84.1656C207.88 87.5316 211.332 89.3834 215.341 90.3017C217.327 90.7567 231.707 92.4551 238.055 85.2214C236.569 85.2387 238.055 85.2214 236.569 85.2388C223.203 85.3952 214.498 75.4273 206.648 67.8451Z" stroke="#232323" stroke-opacity="0.4" stroke-width="0.5"/>
<path d="M190.94 36.847C194.125 39.4613 223.76 71.4266 238.895 85.3396L180.713 23.3524C181.127 25.5849 181.114 25.9898 180.724 27.2954L185.258 31.4602L190.94 36.847Z" stroke="#232323" stroke-opacity="0.4" stroke-width="0.5"/>
</svg>
