<svg width="618" height="201" viewBox="0 0 618 201" fill="none" xmlns="http://www.w3.org/2000/svg">
<path d="M73.6623 171.718L17.5485 169.93L7.01972 161.7L85.6846 162.406L83.4586 164.099L73.6623 171.718Z" fill="#232323" stroke="#232323"/>
<path d="M124.133 138.332L21.1331 139.765L1.53012 154.515L145.86 155.81L141.836 152.631L124.133 138.332Z" fill="#232323" stroke="#232323"/>
<path d="M45.1211 178.47L23.9005 178.251L25.2257 179.153C37.9722 186.555 38.8397 188.285 43.2176 192.662C45.5568 194.549 49.3598 197.417 52.445 198.315C56.4615 199.483 66.5665 200.59 72.3731 194.215C71.0473 194.203 72.3731 194.215 71.0473 194.203C59.115 194.096 51.979 185.42 45.1211 178.47Z" fill="#232323" stroke="#232323"/>
<path d="M47.4252 132.155L26.6542 131.969L27.9923 130.698C40.8777 123.567 41.778 121.863 46.2386 117.59C48.4772 114.579 51.5541 112.917 55.1307 112.088C56.9025 111.677 69.7346 110.126 75.4187 116.567C74.0929 116.556 75.4187 116.567 74.0929 116.556C62.1606 116.449 54.4144 125.368 47.4252 132.155Z" fill="#232323" stroke="#232323"/>
<path d="M31.2055 162.864C34.0427 160.523 60.4186 131.917 73.895 119.46L22.1094 174.935C22.4734 172.942 22.4604 172.58 22.1094 171.416L26.1465 167.687L31.2055 162.864Z" fill="#232323" stroke="#232323"/>
<path d="M544.166 171.718L600.28 169.93L610.808 161.7L532.144 162.406L534.37 164.099L544.166 171.718Z" fill="#232323" stroke="#232323"/>
<path d="M493.695 138.332L596.695 139.765L616.298 154.515L471.968 155.81L475.992 152.631L493.695 138.332Z" fill="#232323" stroke="#232323"/>
<path d="M572.707 178.47L593.928 178.251L592.602 179.153C579.856 186.555 578.988 188.285 574.611 192.662C572.271 194.549 568.468 197.417 565.383 198.315C561.367 199.483 551.262 200.59 545.455 194.215C546.781 194.203 545.455 194.215 546.781 194.203C558.713 194.096 565.849 185.42 572.707 178.47Z" fill="#232323" stroke="#232323"/>
<path d="M570.403 132.155L591.174 131.969L589.836 130.698C576.95 123.567 576.05 121.863 571.59 117.59C569.351 114.579 566.274 112.917 562.697 112.088C560.926 111.677 548.094 110.126 542.409 116.567C543.735 116.556 542.409 116.567 543.735 116.556C555.668 116.449 563.414 125.368 570.403 132.155Z" fill="#232323" stroke="#232323"/>
<path d="M586.623 162.864C583.785 160.523 557.41 131.917 543.933 119.46L595.719 174.935C595.355 172.942 595.368 172.58 595.719 171.416L591.682 167.687L586.623 162.864Z" fill="#232323" stroke="#232323"/>
<path d="M241.967 169.75L179.107 167.747L167.312 158.527L255.435 159.318L252.942 161.214L241.967 169.75Z" stroke="#232323" stroke-opacity="0.4" stroke-width="0.5"/>
<path d="M241.967 141.931L179.079 142.806L167.11 151.812L255.234 152.603L252.777 150.662L241.967 141.931Z" stroke="#232323" stroke-opacity="0.4" stroke-width="0.5"/>
<path d="M208.884 176.226L185.112 175.981L186.596 176.992C200.875 185.284 201.847 187.222 206.751 192.125C209.372 194.239 213.632 197.452 217.088 198.458C221.588 199.767 232.908 201.007 239.413 193.865C237.927 193.851 239.413 193.865 237.927 193.852C224.56 193.732 216.566 184.013 208.884 176.226Z" stroke="#232323" stroke-opacity="0.4" stroke-width="0.5"/>
<path d="M210.04 134.862L186.771 134.653L188.27 133.229C202.705 125.241 203.713 123.332 208.71 118.545C211.218 115.172 214.665 113.311 218.672 112.381C220.656 111.921 235.031 110.183 241.399 117.4C239.914 117.386 241.399 117.4 239.914 117.386C226.547 117.266 217.869 127.258 210.04 134.862Z" stroke="#232323" stroke-opacity="0.4" stroke-width="0.5"/>
<path d="M194.416 165.903C197.595 163.28 227.142 131.234 242.239 117.279L184.227 179.425C184.634 177.192 184.62 176.787 184.227 175.482L188.749 171.305L194.416 165.903Z" stroke="#232323" stroke-opacity="0.4" stroke-width="0.5"/>
<path d="M296.997 124.714L298.399 187.591L307.505 199.474L307.557 111.347L305.637 113.822L296.997 124.714Z" stroke="#232323" stroke-opacity="0.4" stroke-width="0.5"/>
<path d="M324.817 124.98L323.341 187.857L314.221 199.739L314.273 111.612L316.19 114.088L324.817 124.98Z" stroke="#232323" stroke-opacity="0.4" stroke-width="0.5"/>
<path d="M290.204 157.734L290.222 181.508L289.226 180.014C281.07 165.656 279.142 164.666 274.285 159.715C272.197 157.074 269.025 152.783 268.052 149.318C266.786 144.806 265.655 133.475 272.858 127.038C272.857 128.524 272.858 127.038 272.857 128.524C272.849 141.891 282.491 149.978 290.204 157.734Z" stroke="#232323" stroke-opacity="0.4" stroke-width="0.5"/>
<path d="M331.584 156.974L331.571 180.243L333.009 178.758C341.134 164.4 343.053 163.41 347.888 158.459C351.285 155.983 353.179 152.555 354.146 148.557C354.625 146.577 356.5 132.219 349.345 125.783C349.344 127.268 349.345 125.783 349.344 127.268C349.337 140.636 339.262 149.217 331.584 156.974Z" stroke="#232323" stroke-opacity="0.4" stroke-width="0.5"/>
<path d="M300.39 172.3C303.044 169.147 335.371 139.907 349.469 124.944L286.771 182.36C289.008 181.974 289.413 181.992 290.714 182.398L294.934 177.915L300.39 172.3Z" stroke="#232323" stroke-opacity="0.4" stroke-width="0.5"/>
<path d="M381.658 169.75L444.518 167.747L456.313 158.527L368.19 159.318L370.683 161.214L381.658 169.75Z" stroke="#232323" stroke-opacity="0.4" stroke-width="0.5"/>
<path d="M381.658 141.931L444.546 142.806L456.515 151.812L368.391 152.603L370.848 150.662L381.658 141.931Z" stroke="#232323" stroke-opacity="0.4" stroke-width="0.5"/>
<path d="M414.741 176.226L438.513 175.981L437.029 176.992C422.75 185.284 421.778 187.222 416.874 192.125C414.253 194.239 409.993 197.452 406.537 198.458C402.037 199.767 390.717 201.007 384.212 193.865C385.698 193.851 384.212 193.865 385.698 193.852C399.065 193.732 407.059 184.013 414.741 176.226Z" stroke="#232323" stroke-opacity="0.4" stroke-width="0.5"/>
<path d="M413.585 134.862L436.854 134.653L435.355 133.229C420.92 125.241 419.912 123.332 414.915 118.545C412.407 115.172 408.96 113.311 404.953 112.381C402.969 111.921 388.594 110.183 382.226 117.4C383.711 117.386 382.226 117.4 383.711 117.386C397.078 117.266 405.756 127.258 413.585 134.862Z" stroke="#232323" stroke-opacity="0.4" stroke-width="0.5"/>
<path d="M429.209 165.903C426.03 163.28 396.483 131.234 381.386 117.279L439.398 179.425C438.991 177.192 439.005 176.787 439.398 175.482L434.876 171.305L429.209 165.903Z" stroke="#232323" stroke-opacity="0.4" stroke-width="0.5"/>
<path d="M544.243 29.4282L600.361 31.063L610.912 39.264L532.246 38.7731L534.467 37.0743L544.243 29.4282Z" fill="#232323" stroke="#232323"/>
<path d="M493.857 62.9517L596.852 61.2377L616.415 46.4338L472.082 45.533L476.114 48.7005L493.857 62.9517Z" fill="#232323" stroke="#232323"/>
<path d="M572.763 22.5996L593.984 22.7606L592.656 21.8621C579.89 14.4948 579.017 12.7671 574.628 8.40202C572.283 6.52175 568.472 3.66374 565.385 2.7745C561.365 1.61687 551.257 0.537828 545.468 6.92882C546.794 6.93721 545.468 6.92882 546.794 6.93709C558.726 7.01156 565.886 15.6676 572.763 22.5996Z" fill="#232323" stroke="#232323"/>
<path d="M570.58 68.9196L591.352 69.0492L590.017 70.3237C577.151 77.4897 576.256 79.1966 571.807 83.4819C569.576 86.4988 566.504 88.1686 562.93 89.0079C561.159 89.4237 548.331 91.0099 542.63 84.5837C543.955 84.5918 542.63 84.5837 543.955 84.592C555.888 84.6664 563.61 75.7261 570.58 68.9196Z" fill="#232323" stroke="#232323"/>
<path d="M586.723 38.1664C583.892 40.5156 557.594 69.194 544.152 81.6873L595.786 26.0706C595.427 28.0654 595.441 28.4268 595.796 29.5903L591.769 33.3302L586.723 38.1664Z" fill="#232323" stroke="#232323"/>
<path d="M73.7307 29.4291L17.622 31.3702L7.11576 39.6288L85.7784 38.7082L83.5477 37.0216L73.7307 29.4291Z" fill="#232323" stroke="#232323"/>
<path d="M124.301 62.6766L21.2979 61.5251L1.65481 46.8282L145.981 45.1393L141.966 48.3287L124.301 62.6766Z" fill="#232323" stroke="#232323"/>
<path d="M45.1768 22.7551L23.9568 23.032L25.2796 22.1263C38.0059 14.6893 38.8686 12.9569 43.2345 8.56791C45.5686 6.67487 49.3637 3.79609 52.4465 2.89C56.4597 1.71044 66.5617 0.576216 72.3857 6.9355C71.0599 6.95113 72.3857 6.9355 71.0599 6.95101C59.128 7.09064 52.0157 15.7856 45.1768 22.7551Z" fill="#232323" stroke="#232323"/>
<path d="M47.6105 69.0631L26.84 69.3062L28.1815 70.5733C41.0864 77.669 41.9913 79.3709 46.4635 83.6319C48.7104 86.6366 51.7918 88.2896 55.3706 89.1094C57.1436 89.5155 69.9799 91.0316 75.6464 84.5743C74.3206 84.5897 75.6464 84.5743 74.3206 84.5898C62.3886 84.7295 54.6181 75.8314 47.6105 69.0631Z" fill="#232323" stroke="#232323"/>
<path d="M31.3057 38.398C34.1493 40.7317 60.6032 69.2661 74.1136 81.6857L22.1767 26.3519C22.5461 28.3447 22.5341 28.7062 22.1863 29.8716L26.2336 33.5894L31.3057 38.398Z" fill="#232323" stroke="#232323"/>
<path d="M381.765 31.4807L444.632 33.312L456.451 42.4991L368.326 41.9492L370.815 40.0461L381.765 31.4807Z" stroke="#232323" stroke-opacity="0.4" stroke-width="0.5"/>
<path d="M381.844 59.2991L444.729 58.2526L456.674 49.2137L368.548 48.6638L371.011 50.5977L381.844 59.2991Z" stroke="#232323" stroke-opacity="0.4" stroke-width="0.5"/>
<path d="M414.827 24.9132L438.6 25.0936L437.113 24.0871C422.811 15.8339 421.834 13.8984 416.916 9.00852C414.29 6.90218 410.021 3.70052 406.562 2.70435C402.059 1.40753 390.736 0.198748 384.25 7.35819C385.736 7.36759 384.25 7.35819 385.736 7.36746C399.103 7.45088 407.123 17.1477 414.827 24.9132Z" stroke="#232323" stroke-opacity="0.4" stroke-width="0.5"/>
<path d="M413.787 66.2816L437.056 66.4268L435.561 67.8544C421.148 75.8821 420.145 77.7942 415.161 82.5948C412.663 85.9744 409.221 87.8451 405.217 88.7853C403.233 89.2511 388.863 91.028 382.476 83.8291C383.961 83.8382 382.476 83.8291 383.961 83.8383C397.328 83.9218 405.979 73.9065 413.787 66.2816Z" stroke="#232323" stroke-opacity="0.4" stroke-width="0.5"/>
<path d="M429.326 35.1976C426.155 37.8292 396.695 69.9559 381.636 83.9514L439.479 21.6474C439.077 23.8821 439.093 24.2869 439.49 25.5903L434.978 29.7799L429.326 35.1976Z" stroke="#232323" stroke-opacity="0.4" stroke-width="0.5"/>
<path d="M324.885 76.471L323.654 13.5902L314.581 1.6831L314.288 89.8097L316.215 87.3395L324.885 76.471Z" stroke="#232323" stroke-opacity="0.4" stroke-width="0.5"/>
<path d="M297.064 76.1292L298.712 13.2563L307.865 1.39893L307.572 89.5255L305.662 87.0448L297.064 76.1292Z" stroke="#232323" stroke-opacity="0.4" stroke-width="0.5"/>
<path d="M331.762 43.4691L331.809 19.6956L332.802 21.1925C340.918 35.5725 342.844 36.568 347.686 41.5322C349.767 44.1784 352.928 48.4779 353.891 51.9462C355.145 56.4613 356.245 67.7957 349.024 74.2123C349.029 72.727 349.024 74.2123 349.029 72.727C349.074 59.3595 339.454 51.2466 331.762 43.4691Z" stroke="#232323" stroke-opacity="0.4" stroke-width="0.5"/>
<path d="M290.391 44.1167L290.468 20.8473L289.026 22.3287C280.861 36.6642 278.94 37.6492 274.092 42.5869C270.688 45.0531 268.785 48.4768 267.806 52.4717C267.322 54.4508 265.407 68.8034 272.545 75.2591C272.55 73.7739 272.545 75.2591 272.55 73.7739C272.594 60.4063 282.692 51.8522 290.391 44.1167Z" stroke="#232323" stroke-opacity="0.4" stroke-width="0.5"/>
<path d="M321.62 28.8764C318.958 32.0223 286.551 61.1736 272.412 76.0978L335.266 18.8535C333.028 19.2338 332.623 19.2144 331.324 18.8051L327.091 23.276L321.62 28.8764Z" stroke="#232323" stroke-opacity="0.4" stroke-width="0.5"/>
<path d="M233.098 31.3127L170.243 33.4873L158.473 42.7388L246.594 41.7076L244.096 39.8182L233.098 31.3127Z" stroke="#232323" stroke-opacity="0.4" stroke-width="0.5"/>
<path d="M233.176 59.1311L170.286 58.428L158.292 49.4545L246.413 48.4233L243.962 50.3707L233.176 59.1311Z" stroke="#232323" stroke-opacity="0.4" stroke-width="0.5"/>
<path d="M200.001 24.9267L176.23 25.2369L177.711 24.2223C191.968 15.8911 192.934 13.9504 197.825 9.03367C200.44 6.91302 204.691 3.6881 208.145 2.67306C212.641 1.35166 223.957 0.0810607 230.481 7.20498C228.996 7.22249 230.481 7.20498 228.996 7.22236C215.63 7.37878 207.662 17.1193 200.001 24.9267Z" stroke="#232323" stroke-opacity="0.4" stroke-width="0.5"/>
<path d="M201.265 66.2875L177.997 66.5598L179.5 67.9793C193.956 75.9281 194.97 77.8347 199.98 82.608C202.497 85.974 205.949 87.8258 209.958 88.7441C211.944 89.1991 226.324 90.8975 232.672 83.6638C231.187 83.681 232.672 83.6638 231.187 83.6812C217.82 83.8376 209.115 73.8697 201.265 66.2875Z" stroke="#232323" stroke-opacity="0.4" stroke-width="0.5"/>
<path d="M185.557 35.2894C188.743 37.9037 218.377 69.869 233.512 83.782L175.33 21.7948C175.744 24.0273 175.731 24.4322 175.341 25.7377L179.875 29.9026L185.557 35.2894Z" stroke="#232323" stroke-opacity="0.4" stroke-width="0.5"/>
</svg>
