<svg width="49" height="4" viewBox="0 0 49 4" fill="none" xmlns="http://www.w3.org/2000/svg">
<path d="M37.7585 2.32577C35.5215 2.04801 11.6806 2.34495 0.460938 1.58758L46.9625 1.29492C45.9215 1.97214 45.766 2.13004 45.3952 2.77653L42.0354 2.54851L37.7585 2.32577Z" fill="white"/>
<path d="M37.7585 2.32577C35.5215 2.04801 11.6806 2.34495 0.460938 1.58758L46.9625 1.29492C45.9215 1.97214 45.766 2.13004 45.3952 2.77653L42.0354 2.54851L37.7585 2.32577Z" stroke="white"/>
<path d="M37.7585 2.32577C35.5215 2.04801 11.6806 2.34495 0.460938 1.58758L46.9625 1.29492C45.9215 1.97214 45.766 2.13004 45.3952 2.77653L42.0354 2.54851L37.7585 2.32577Z" stroke="white"/>
</svg>
