<svg width="49" height="4" viewBox="0 0 49 4" fill="none" xmlns="http://www.w3.org/2000/svg">
<path d="M37.7116 2.25937C35.4746 1.9816 11.6337 2.27855 0.414063 1.52118L46.9157 1.22852C45.8746 1.90573 45.7191 2.06364 45.3484 2.71013L41.9885 2.4821L37.7116 2.25937Z" fill="#232323"/>
<path d="M37.7116 2.25937C35.4746 1.9816 11.6337 2.27855 0.414063 1.52118L46.9157 1.22852C45.8746 1.90573 45.7191 2.06364 45.3484 2.71013L41.9885 2.4821L37.7116 2.25937Z" stroke="#232323"/>
<path d="M37.7116 2.25937C35.4746 1.9816 11.6337 2.27855 0.414063 1.52118L46.9157 1.22852C45.8746 1.90573 45.7191 2.06364 45.3484 2.71013L41.9885 2.4821L37.7116 2.25937Z" stroke="#232323"/>
</svg>
