<svg width="219" height="163" viewBox="0 0 219 163" fill="none" xmlns="http://www.w3.org/2000/svg">
<path d="M97.1094 78.8945C97.0208 79.4258 96.8659 80.0234 96.6445 80.6875C96.4674 81.3516 96.2018 81.9714 95.8477 82.5469C95.5378 83.0781 95.1393 83.543 94.6523 83.9414C94.1654 84.2956 93.5898 84.4727 92.9258 84.4727C92.4388 84.4727 91.9518 84.4284 91.4648 84.3398C90.9779 84.207 90.4688 84.1406 89.9375 84.1406C89.7161 84.1406 89.4727 84.2292 89.207 84.4062C88.9857 84.5391 88.7643 84.6055 88.543 84.6055C88.3216 84.6055 88.1224 84.5833 87.9453 84.5391C87.8125 84.4505 87.6354 84.4062 87.4141 84.4062C87.2812 84.4062 87.0378 84.4505 86.6836 84.5391C86.3294 84.6276 85.9531 84.7161 85.5547 84.8047C85.1562 84.8932 84.7799 85.0039 84.4258 85.1367C84.0716 85.2253 83.8281 85.2917 83.6953 85.3359C82.5 85.7344 81.3047 86.0885 80.1094 86.3984C78.9141 86.7083 77.6745 86.9076 76.3906 86.9961C76.125 86.9076 75.7266 86.819 75.1953 86.7305C74.6641 86.5977 74.2656 86.5312 74 86.5312C73.4688 86.5312 73.1146 86.7526 72.9375 87.1953C72.8047 87.638 72.5169 87.9701 72.0742 88.1914C71.543 88.5013 70.8789 88.6784 70.082 88.7227C69.2852 88.7669 68.4883 88.8333 67.6914 88.9219C66.8945 89.0104 66.1419 89.1875 65.4336 89.4531C64.7695 89.6745 64.2826 90.1172 63.9727 90.7812C63.7513 90.737 63.5078 90.7148 63.2422 90.7148C63.0208 90.6706 62.7773 90.6484 62.5117 90.6484C61.0951 90.6484 59.7669 90.9362 58.5273 91.5117C57.2878 92.043 56.026 92.5299 54.7422 92.9727C54.9635 93.3711 55.1185 93.8581 55.207 94.4336C55.2956 95.0091 55.3841 95.5846 55.4727 96.1602C55.5612 96.6914 55.6719 97.2227 55.8047 97.7539C55.9818 98.2409 56.2695 98.6172 56.668 98.8828C56.668 99.1484 56.6016 99.3698 56.4688 99.5469C56.3802 99.724 56.2695 99.8789 56.1367 100.012L55.6719 100.477C55.5391 100.609 55.4505 100.809 55.4062 101.074C55.2734 101.605 55.207 102.159 55.207 102.734C55.207 103.266 54.8971 103.664 54.2773 103.93C54.3216 104.062 54.3438 104.306 54.3438 104.66C54.3438 105.103 54.2773 105.523 54.1445 105.922C54.0117 106.32 53.9674 106.763 54.0117 107.25C53.2591 108.091 52.6172 108.954 52.0859 109.84C51.599 110.725 51.2227 111.677 50.957 112.695C49.319 114.333 47.6367 115.971 45.9102 117.609C44.2279 119.292 42.4792 120.908 40.6641 122.457C38.8932 124.007 37.056 125.467 35.1523 126.84C33.2487 128.257 31.2786 129.496 29.2422 130.559H28.7773C27.7591 130.559 26.9622 130.736 26.3867 131.09C25.8112 131.444 25.0807 131.754 24.1953 132.02C23.5312 131.842 22.7344 131.754 21.8047 131.754C21.2734 131.754 20.7201 131.776 20.1445 131.82C19.6133 131.865 19.0599 131.887 18.4844 131.887C17.7318 131.887 17.0456 131.798 16.4258 131.621C15.8503 131.444 15.2747 131.245 14.6992 131.023C14.168 130.802 13.6146 130.581 13.0391 130.359C12.4635 130.138 11.8438 129.983 11.1797 129.895C8.4349 127.15 6.26562 123.94 4.67188 120.266C3.07812 116.635 2.28125 112.895 2.28125 109.043C2.28125 107.272 2.52474 105.546 3.01172 103.863C3.4987 102.137 3.74219 100.41 3.74219 98.6836C4.53906 97.0898 5.22526 95.4518 5.80078 93.7695C6.42057 92.0872 7.04036 90.4049 7.66016 88.7227C8.27995 87.0404 8.94401 85.4023 9.65234 83.8086C10.4049 82.1706 11.2904 80.6211 12.3086 79.1602C12.5299 78.0091 12.8841 77.013 13.3711 76.1719C13.8581 75.3307 14.3893 74.401 14.9648 73.3828C14.9648 72.4089 15.1641 71.5234 15.5625 70.7266C16.0052 69.8854 16.2708 68.9557 16.3594 67.9375C17.0677 67.2734 17.6432 66.5208 18.0859 65.6797C18.5286 64.8385 18.9492 63.9753 19.3477 63.0898C19.7461 62.2044 20.1888 61.3633 20.6758 60.5664C21.207 59.7253 21.9154 59.0169 22.8008 58.4414C22.8893 58.1315 22.9336 57.7995 22.9336 57.4453C22.9779 57.0469 23.0885 56.737 23.2656 56.5156L24.6602 54.9883C25.1029 54.4128 25.5013 53.8372 25.8555 53.2617C26.2539 52.6419 26.6745 52.0885 27.1172 51.6016C27.3828 51.3359 27.6706 51.1146 27.9805 50.9375C28.2904 50.7604 28.556 50.5612 28.7773 50.3398C28.9987 50.1185 29.0651 49.8307 28.9766 49.4766C28.9323 49.1224 29.0208 48.8346 29.2422 48.6133C29.3307 48.5247 29.4635 48.4362 29.6406 48.3477C29.8177 48.2591 29.9727 48.1706 30.1055 48.082C30.681 47.6836 31.168 47.2852 31.5664 46.8867C31.9648 46.4883 32.5182 46.2005 33.2266 46.0234C33.8464 45.5365 34.3997 45.0495 34.8867 44.5625C35.418 44.0755 35.9492 43.6328 36.4805 43.2344C37.0117 42.8359 37.5872 42.526 38.207 42.3047C38.8268 42.0391 39.6016 41.9062 40.5312 41.9062C40.7083 41.9062 40.8854 41.9284 41.0625 41.9727C41.2396 41.9727 41.4167 41.9727 41.5938 41.9727C43.4089 43.6549 44.5378 45.7135 44.9805 48.1484C44.4935 48.7682 44.0951 49.4323 43.7852 50.1406C43.5195 50.849 43.2096 51.5573 42.8555 52.2656C42.1029 52.5312 41.3945 52.9297 40.7305 53.4609C40.0664 53.9479 39.4023 54.457 38.7383 54.9883C38.1185 55.5195 37.4544 55.9844 36.7461 56.3828C36.082 56.7812 35.3294 56.9805 34.4883 56.9805C34.1341 57.2904 33.5586 57.7995 32.7617 58.5078C32.0091 59.1719 31.2122 59.8802 30.3711 60.6328C29.5742 61.3854 28.8216 62.0938 28.1133 62.7578C27.4492 63.4219 27.0286 63.8867 26.8516 64.1523C26.7188 64.3737 26.6081 64.5729 26.5195 64.75C26.431 64.9271 26.3424 65.1263 26.2539 65.3477L24.5273 68.2695C23.5534 69.9518 22.5573 71.612 21.5391 73.25C20.5208 74.8438 19.6354 76.526 18.8828 78.2969C18.5286 79.0938 18.2409 79.8906 18.0195 80.6875C17.7982 81.4844 17.5768 82.3255 17.3555 83.2109C17.2669 83.4766 17.1562 83.7422 17.0234 84.0078C16.8906 84.2734 16.7799 84.5169 16.6914 84.7383C16.2044 85.668 15.806 86.5312 15.4961 87.3281C15.1862 88.125 15.0091 89.0547 14.9648 90.1172C13.8581 92.5964 12.8177 95.0977 11.8438 97.6211C10.9141 100.1 10.2057 102.668 9.71875 105.324C9.98438 106.21 10.0951 107.117 10.0508 108.047C10.0508 108.932 10.0508 109.818 10.0508 110.703C10.0508 111.81 10.1172 112.717 10.25 113.426C10.4271 114.178 10.6484 114.842 10.9141 115.418C11.224 116.038 11.556 116.658 11.9102 117.277C12.2643 117.941 12.6406 118.716 13.0391 119.602C13.7031 120.133 14.3008 120.686 14.832 121.262C15.3633 121.882 15.8724 122.546 16.3594 123.254C18.0417 124.095 19.7461 124.516 21.4727 124.516C22.7122 124.516 23.974 124.316 25.2578 123.918C26.5417 123.52 27.7812 123.01 28.9766 122.391C30.2161 121.815 31.4115 121.173 32.5625 120.465C33.7135 119.757 34.8203 119.07 35.8828 118.406C37.7422 117.299 39.3581 116.104 40.7305 114.82C42.1029 113.536 43.3424 112.186 44.4492 110.77C45.6003 109.353 46.6628 107.848 47.6367 106.254C48.6107 104.616 49.6289 102.889 50.6914 101.074C50.7357 100.853 50.8242 100.587 50.957 100.277L51.3555 99.2812C51.4883 98.9271 51.599 98.6172 51.6875 98.3516C51.8203 98.0417 51.8867 97.8424 51.8867 97.7539C51.8867 97.3997 51.7982 97.1562 51.6211 97.0234C51.4883 96.8464 51.4219 96.6693 51.4219 96.4922C51.4219 96.138 51.5104 95.8945 51.6875 95.7617C51.8646 95.6289 52.0638 95.4961 52.2852 95.3633C52.5508 95.2305 52.7721 95.0755 52.9492 94.8984C53.1706 94.7214 53.2812 94.3893 53.2812 93.9023C53.1927 93.8581 53.0378 93.8359 52.8164 93.8359C52.5951 93.8359 52.3737 93.8581 52.1523 93.9023C51.931 93.9466 51.7096 93.9688 51.4883 93.9688C50.957 93.9688 50.5143 93.7917 50.1602 93.4375C49.9388 93.526 49.7174 93.681 49.4961 93.9023C49.2747 94.0794 49.0534 94.2786 48.832 94.5C48.6549 94.7214 48.4779 94.9206 48.3008 95.0977C48.1237 95.2747 47.9688 95.3633 47.8359 95.3633C47.6146 95.3633 47.4375 95.319 47.3047 95.2305C47.2161 95.1419 47.0833 95.0977 46.9062 95.0977C46.1536 95.0977 45.4896 95.2747 44.9141 95.6289C44.3385 95.9831 43.7188 96.2708 43.0547 96.4922C42.9219 96.4922 42.7891 96.4922 42.6562 96.4922C42.5234 96.4479 42.3906 96.4258 42.2578 96.4258C41.7708 96.4258 41.2839 96.5143 40.7969 96.6914C40.3542 96.8242 39.9115 96.9792 39.4688 97.1562C39.0703 97.3333 38.6497 97.4883 38.207 97.6211C37.7643 97.7539 37.3216 97.7982 36.8789 97.7539C35.9049 98.1081 34.9974 98.4844 34.1562 98.8828C33.3594 99.2812 32.4297 99.4362 31.3672 99.3477C31.0573 99.4805 30.7253 99.6354 30.3711 99.8125C30.0612 99.9453 29.7513 100.122 29.4414 100.344C29.1758 100.432 28.9766 100.477 28.8438 100.477C28.6224 100.477 28.4453 100.366 28.3125 100.145C27.9583 100.543 27.4935 100.831 26.918 101.008C26.3424 101.141 25.7448 101.273 25.125 101.406C24.5052 101.495 23.9076 101.628 23.332 101.805C22.8008 101.938 22.3802 102.225 22.0703 102.668C21.5833 102.27 21.0078 102.07 20.3438 102.07C19.6797 102.07 19.0378 102.203 18.418 102.469C17.7982 102.69 17.1341 102.801 16.4258 102.801C16.1602 102.801 15.9831 102.757 15.8945 102.668C15.7174 102.181 15.5182 101.694 15.2969 101.207C15.0755 100.72 14.7214 100.366 14.2344 100.145C14.1458 99.6576 14.0573 99.1927 13.9688 98.75C13.9245 98.263 13.9023 97.7982 13.9023 97.3555C13.9023 96.1602 14.2565 95.0755 14.9648 94.1016C15.5846 93.8802 16.2044 93.7031 16.8242 93.5703C17.4883 93.3932 18.1302 93.194 18.75 92.9727C19.237 93.0612 19.724 93.1276 20.2109 93.1719C20.6979 93.2161 21.1849 93.2383 21.6719 93.2383C23.487 93.2383 25.2578 93.0169 26.9844 92.5742C28.7109 92.0872 30.4154 91.5781 32.0977 91.0469C33.6914 90.5599 35.3073 90.1172 36.9453 89.7188C38.5833 89.3203 40.2214 88.8776 41.8594 88.3906C43.4089 87.9922 44.9362 87.5495 46.4414 87.0625C47.9466 86.5312 49.5182 86.1992 51.1562 86.0664C52.2188 85.3138 53.5026 84.8047 55.0078 84.5391C56.5573 84.2734 57.974 83.9857 59.2578 83.6758C61.2943 83.1888 63.3086 82.7018 65.3008 82.2148C67.293 81.6836 69.3294 81.2188 71.4102 80.8203C73.7122 80.3333 75.9479 79.7357 78.1172 79.0273C80.3307 78.319 82.5443 77.5664 84.7578 76.7695H85.4219C86.1745 76.7695 86.9492 76.681 87.7461 76.5039C88.543 76.3268 89.3398 76.2383 90.1367 76.2383C90.3581 76.2383 90.5352 76.2604 90.668 76.3047C90.8451 76.3047 91.0221 76.3047 91.1992 76.3047C91.332 76.3047 91.6641 76.2161 92.1953 76.0391C92.7266 75.8177 93.1029 75.6628 93.3242 75.5742C93.8997 76.194 94.5417 76.7474 95.25 77.2344C95.9583 77.7214 96.5781 78.2747 97.1094 78.8945ZM118.16 104.992C118.027 105.612 117.74 106.121 117.297 106.52C116.898 106.874 116.411 107.161 115.836 107.383C115.26 107.604 114.663 107.759 114.043 107.848C113.467 107.892 112.936 107.914 112.449 107.914C112.228 107.914 112.007 107.914 111.785 107.914C111.608 107.87 111.409 107.848 111.188 107.848C110.966 107.848 110.855 107.958 110.855 108.18C110.855 108.401 110.745 108.556 110.523 108.645C110.302 108.556 110.081 108.49 109.859 108.445C109.638 108.401 109.417 108.379 109.195 108.379C108.885 108.379 108.576 108.401 108.266 108.445C108 108.49 107.734 108.512 107.469 108.512C107.115 108.512 106.849 108.467 106.672 108.379C106.539 108.29 106.406 108.202 106.273 108.113C106.185 107.98 106.074 107.848 105.941 107.715C105.853 107.582 105.698 107.471 105.477 107.383C105.167 107.25 104.901 107.228 104.68 107.316C104.503 107.405 104.215 107.272 103.816 106.918C103.285 106.475 102.82 105.944 102.422 105.324C102.068 104.66 101.714 103.974 101.359 103.266C101.005 102.557 100.629 101.849 100.23 101.141C99.832 100.432 99.3672 99.8125 98.8359 99.2812H98.3047C97.5078 99.2812 96.9544 99.6133 96.6445 100.277C96.4232 100.145 96.2018 99.9896 95.9805 99.8125C95.7591 99.5911 95.5156 99.4141 95.25 99.2812C94.2318 99.5911 93.1693 99.8568 92.0625 100.078C90.9557 100.299 89.849 100.41 88.7422 100.41H87.8125C87.5469 100.41 87.2591 100.366 86.9492 100.277C86.5065 100.454 86.1081 100.676 85.7539 100.941C85.3997 101.163 85.0013 101.273 84.5586 101.273C84.293 101.273 83.9831 101.185 83.6289 101.008C83.3633 101.008 83.2305 101.118 83.2305 101.34C83.2747 101.561 83.1419 101.672 82.832 101.672H82.2344C81.6146 101.672 80.9948 101.694 80.375 101.738C79.7995 101.783 79.2018 101.805 78.582 101.805C77.7409 101.805 76.8776 101.694 75.9922 101.473C75.7708 101.605 75.5273 101.672 75.2617 101.672C75.0846 101.76 74.9518 101.915 74.8633 102.137C74.7747 102.314 74.6862 102.491 74.5977 102.668C74.5091 102.801 74.3763 102.934 74.1992 103.066C74.0664 103.155 73.8672 103.177 73.6016 103.133C73.513 103.664 73.2917 104.085 72.9375 104.395C72.5833 104.704 72.4062 105.169 72.4062 105.789C71.9193 106.055 71.5208 106.387 71.2109 106.785C70.901 107.184 70.5911 107.604 70.2812 108.047C69.9714 108.49 69.6393 108.91 69.2852 109.309C68.9753 109.707 68.5768 110.017 68.0898 110.238C67.8685 110.504 67.8021 110.924 67.8906 111.5C67.4036 111.898 66.806 112.253 66.0977 112.562C65.3893 112.872 64.7253 113.027 64.1055 113.027C62.8216 113.027 61.9362 112.341 61.4492 110.969C61.4492 110.526 61.4935 110.061 61.582 109.574C61.6263 109.043 61.7148 108.556 61.8477 108.113C61.9805 107.626 62.1797 107.206 62.4453 106.852C62.7109 106.453 63.0872 106.165 63.5742 105.988C63.5742 105.59 63.4414 105.324 63.1758 105.191C62.9102 105.014 62.7995 104.727 62.8438 104.328C64.0391 103.753 65.0794 103 65.9648 102.07C66.8503 101.141 67.6471 100.167 68.3555 99.1484C69.1081 98.0859 69.8607 97.0234 70.6133 95.9609C71.3659 94.8984 72.207 93.9466 73.1367 93.1055V91.7109C74.4648 90.2943 75.3281 88.7005 75.7266 86.9297C76.2135 86.8411 76.5234 86.6198 76.6562 86.2656C76.8333 85.9115 76.9219 85.4909 76.9219 85.0039C77.1432 85.0039 77.276 84.9154 77.3203 84.7383C77.4089 84.5169 77.6081 84.4505 77.918 84.5391C78.3164 83.4766 78.7591 82.5026 79.2461 81.6172C79.7331 80.7318 80.2201 79.8464 80.707 78.9609C81.194 78.0312 81.6146 77.0794 81.9688 76.1055C82.3672 75.1315 82.6549 74.0469 82.832 72.8516C83.4518 72.8073 83.7839 72.5195 83.8281 71.9883C83.9167 71.4128 84.0052 70.9036 84.0938 70.4609C84.7578 69.8411 85.2448 69.1107 85.5547 68.2695C85.9089 67.4284 86.2188 66.5651 86.4844 65.6797C86.75 64.75 87.0378 63.8424 87.3477 62.957C87.7018 62.0273 88.1888 61.2083 88.8086 60.5V60.3008C88.8086 60.0794 88.7201 59.9466 88.543 59.9023C88.3659 59.8138 88.2773 59.6589 88.2773 59.4375C88.3216 59.3932 88.3438 59.349 88.3438 59.3047C88.875 59.0833 89.2734 58.7292 89.5391 58.2422C89.8047 57.7109 90.2031 57.3346 90.7344 57.1133C91.6641 57.8659 92.4831 58.3307 93.1914 58.5078C93.8997 58.6406 94.8294 58.7513 95.9805 58.8398C96.556 59.4596 96.8659 60.2122 96.9102 61.0977C96.9987 61.9388 97.1536 62.7799 97.375 63.6211C97.7292 65.0378 98.1055 66.4323 98.5039 67.8047C98.9466 69.1328 99.2786 70.5052 99.5 71.9219C99.6328 72.763 99.8763 73.5599 100.23 74.3125C100.585 75.0651 100.828 75.8398 100.961 76.6367C101.049 77.2565 101.049 77.9648 100.961 78.7617C100.872 79.5143 100.961 80.1784 101.227 80.7539L101.691 81.8164C101.913 82.3034 102.09 82.8125 102.223 83.3438C102.4 83.875 102.555 84.4062 102.688 84.9375C103.042 86.2656 103.352 87.7044 103.617 89.2539C103.927 90.7591 104.392 92.1315 105.012 93.3711C105.233 93.8138 105.565 94.1237 106.008 94.3008C106.495 94.4779 107.026 94.6107 107.602 94.6992C108.177 94.7435 108.73 94.7656 109.262 94.7656C109.837 94.7214 110.324 94.6992 110.723 94.6992H111.387C111.652 94.6992 111.918 94.7435 112.184 94.832C112.361 95.1862 112.449 95.4961 112.449 95.7617C112.449 96.293 112.272 96.7135 111.918 97.0234C111.564 97.3333 111.387 97.6875 111.387 98.0859C111.387 98.3073 111.475 98.5508 111.652 98.8164C111.475 98.7721 111.21 98.75 110.855 98.75C109.837 98.75 108.841 98.9271 107.867 99.2812C108.221 100.034 108.686 100.676 109.262 101.207C109.882 101.694 110.523 102.159 111.188 102.602C111.63 102.247 112.095 102.07 112.582 102.07C113.113 102.07 113.6 102.203 114.043 102.469C114.53 102.69 115.039 102.801 115.57 102.801C115.969 102.801 116.257 102.734 116.434 102.602C116.788 103 117.076 103.421 117.297 103.863C117.518 104.262 117.806 104.638 118.16 104.992ZM97.375 94.3672C97.2865 93.6146 97.1315 93.0833 96.9102 92.7734C96.7331 92.4193 96.5781 91.9987 96.4453 91.5117C96.2682 90.8919 96.1354 90.2279 96.0469 89.5195C96.0026 88.8112 95.9141 88.125 95.7812 87.4609C95.4714 85.9557 95.1172 84.4505 94.7188 82.9453C94.3646 81.4401 93.8997 79.9792 93.3242 78.5625C93.5013 78.2969 93.5898 78.0534 93.5898 77.832V77.6328C93.1914 77.1901 92.9036 76.6589 92.7266 76.0391C92.5495 75.375 92.3724 74.7331 92.1953 74.1133C92.0625 73.4492 91.8633 72.8516 91.5977 72.3203C91.3763 71.7448 91 71.2799 90.4688 70.9258C90.3359 71.1914 90.2695 71.5013 90.2695 71.8555C90.2695 72.1654 90.2917 72.4531 90.3359 72.7188C90.4245 72.9844 90.4688 73.2721 90.4688 73.582C90.026 73.8034 89.694 74.1576 89.4727 74.6445C89.2956 75.0872 88.9857 75.4414 88.543 75.707C88.1888 77.1237 87.6797 78.474 87.0156 79.7578C86.3516 80.9974 85.6432 82.237 84.8906 83.4766C84.1823 84.7161 83.4961 85.9779 82.832 87.2617C82.168 88.5013 81.6367 89.8073 81.2383 91.1797C80.6628 91.5781 80.2643 92.0872 80.043 92.707C79.8659 93.3268 79.7773 93.9466 79.7773 94.5664C80.1758 94.7878 80.6185 94.9206 81.1055 94.9648C81.6367 94.9648 82.1458 94.9648 82.6328 94.9648C83.1198 94.9648 83.5846 95.0091 84.0273 95.0977C84.4701 95.1862 84.8685 95.4076 85.2227 95.7617C85.7982 95.5846 86.418 95.474 87.082 95.4297C87.7904 95.3411 88.3659 95.1419 88.8086 94.832C89.694 95.1419 90.6458 95.2969 91.6641 95.2969C92.1953 95.2969 92.7044 95.2526 93.1914 95.1641C93.7227 95.0755 94.2318 94.9648 94.7188 94.832C95.1172 94.9206 95.4271 95.0755 95.6484 95.2969C95.8698 95.474 96.2018 95.5404 96.6445 95.4961C96.8659 95.319 96.9987 95.1419 97.043 94.9648C97.0872 94.7435 97.1979 94.5443 97.375 94.3672ZM167.434 63.0234C167.434 63.4219 167.345 63.7982 167.168 64.1523L166.703 65.1484C166.57 65.4583 166.438 65.7904 166.305 66.1445C166.172 66.4987 166.128 66.9193 166.172 67.4062C165.552 68.1146 164.932 68.8008 164.312 69.4648C163.693 70.1289 163.139 70.8815 162.652 71.7227C162.165 71.6784 161.789 71.7891 161.523 72.0547C161.302 72.3203 161.125 72.6745 160.992 73.1172C160.062 73.4271 159.243 73.9141 158.535 74.5781C157.827 75.1979 157.207 75.8841 156.676 76.6367C154.329 77.6107 152.138 78.806 150.102 80.2227C148.065 81.6393 146.206 83.2995 144.523 85.2031C145.32 85.2031 146.095 85.2917 146.848 85.4688C147.645 85.6458 148.419 85.8451 149.172 86.0664C149.969 86.2435 150.743 86.4206 151.496 86.5977C152.249 86.7305 153.023 86.7526 153.82 86.6641C154.396 87.1953 155.038 87.638 155.746 87.9922C156.499 88.3464 157.229 88.6784 157.938 88.9883C158.69 89.2982 159.398 89.6523 160.062 90.0508C160.771 90.4492 161.391 90.9362 161.922 91.5117C161.922 91.6003 161.9 91.6888 161.855 91.7773C161.855 91.8216 161.855 91.888 161.855 91.9766C161.855 92.3307 161.944 92.6849 162.121 93.0391C162.298 93.349 162.387 93.681 162.387 94.0352C162.165 94.3893 161.966 94.7656 161.789 95.1641C161.612 95.5625 161.391 95.9167 161.125 96.2266C160.904 96.5365 160.638 96.8021 160.328 97.0234C160.018 97.2448 159.598 97.3776 159.066 97.4219C158.845 98.1745 158.491 98.7721 158.004 99.2148C157.517 99.6133 156.964 99.9896 156.344 100.344C155.768 100.654 155.193 100.986 154.617 101.34C154.042 101.65 153.555 102.07 153.156 102.602C151.828 102.911 150.522 103.354 149.238 103.93C147.999 104.461 146.892 105.236 145.918 106.254C145.254 106.342 144.568 106.453 143.859 106.586C143.195 106.674 142.531 106.719 141.867 106.719C140.938 106.719 140.185 106.542 139.609 106.188C139.034 105.789 138.702 105.081 138.613 104.062C138.746 103.753 138.945 103.487 139.211 103.266L140.074 102.602C140.384 102.38 140.65 102.159 140.871 101.938C141.137 101.672 141.336 101.362 141.469 101.008C141.557 101.008 141.668 101.03 141.801 101.074C141.934 101.074 142.066 101.074 142.199 101.074C142.73 101.074 143.151 100.964 143.461 100.742C143.771 100.521 144.059 100.299 144.324 100.078C144.634 99.8568 144.966 99.6576 145.32 99.4805C145.674 99.3034 146.139 99.237 146.715 99.2812C147.025 98.7057 147.49 98.2852 148.109 98.0195C148.729 97.7096 149.371 97.444 150.035 97.2227C150.699 96.957 151.319 96.6693 151.895 96.3594C152.514 96.0052 152.935 95.4961 153.156 94.832C152.935 94.4779 152.647 94.2122 152.293 94.0352C151.939 93.8138 151.54 93.6367 151.098 93.5039L149.836 93.1055C149.438 92.9727 149.083 92.8177 148.773 92.6406C148.286 92.7734 147.822 92.8398 147.379 92.8398C146.449 92.8398 145.542 92.7513 144.656 92.5742C143.771 92.3971 142.863 92.3086 141.934 92.3086C141.092 92.3086 140.362 92.4193 139.742 92.6406C139.521 92.5964 139.277 92.5299 139.012 92.4414C138.79 92.3529 138.569 92.2643 138.348 92.1758C137.329 92.5742 136.267 92.7734 135.16 92.7734H130.844C130.49 92.7734 130.135 92.8177 129.781 92.9062C129.294 93.7917 129.051 94.7435 129.051 95.7617C129.051 96.5143 129.161 97.2448 129.383 97.9531C129.604 98.6172 129.826 99.3255 130.047 100.078C130.932 100.875 131.751 101.827 132.504 102.934C133.257 103.996 133.633 105.169 133.633 106.453C133.633 106.763 133.611 107.007 133.566 107.184C133.124 106.874 132.548 106.719 131.84 106.719C131.22 106.719 130.622 106.807 130.047 106.984C129.516 107.161 128.94 107.294 128.32 107.383C127.833 107.161 127.324 106.94 126.793 106.719C126.262 106.453 125.753 106.143 125.266 105.789C124.911 105.036 124.557 104.328 124.203 103.664C123.849 102.956 123.406 102.292 122.875 101.672V101.406C122.875 99.8568 122.742 98.3294 122.477 96.8242C122.255 95.319 122.145 93.7917 122.145 92.2422C122.145 91.5339 122.167 90.8255 122.211 90.1172C122.299 89.3646 122.521 88.6784 122.875 88.0586C122.742 86.9961 122.676 85.8893 122.676 84.7383C122.676 82.4362 122.809 80.1341 123.074 77.832C123.34 75.5299 123.473 73.1836 123.473 70.793C123.473 70.306 123.451 69.819 123.406 69.332C123.406 68.8451 123.384 68.3581 123.34 67.8711H123.074C122.499 67.8711 121.945 67.9596 121.414 68.1367C120.883 68.2695 120.352 68.4245 119.82 68.6016C119.289 68.7786 118.736 68.9557 118.16 69.1328C117.585 69.2656 117.009 69.332 116.434 69.332C116.079 69.5091 115.792 69.6862 115.57 69.8633C115.349 70.0404 115.128 70.1953 114.906 70.3281C114.685 70.4609 114.441 70.5716 114.176 70.6602C113.866 70.7487 113.512 70.7708 113.113 70.7266C112.626 71.0365 112.25 71.2799 111.984 71.457C111.674 71.5898 111.254 71.7448 110.723 71.9219C110.457 72.0104 110.236 72.1432 110.059 72.3203L109.527 72.7852C109.35 72.918 109.151 73.0508 108.93 73.1836C108.708 73.3164 108.421 73.3828 108.066 73.3828C107.757 73.3828 107.535 73.3607 107.402 73.3164C107.137 73.0951 106.915 72.8294 106.738 72.5195C106.517 72.2096 106.318 71.9219 106.141 71.6562C105.919 71.3464 105.698 71.0807 105.477 70.8594C105.211 70.5938 104.901 70.3945 104.547 70.2617C104.724 70.0404 104.812 69.8633 104.812 69.7305C104.768 69.5534 104.746 69.3542 104.746 69.1328C104.746 69 104.768 68.9115 104.812 68.8672C105.034 68.0703 105.432 67.4505 106.008 67.0078C106.583 66.5208 107.225 66.1445 107.934 65.8789C108.642 65.569 109.372 65.3034 110.125 65.082C110.833 64.8607 111.497 64.5951 112.117 64.2852C113.844 64.3294 115.415 64.1745 116.832 63.8203C118.249 63.4219 119.71 62.8685 121.215 62.1602C121.48 62.293 121.746 62.3594 122.012 62.3594C122.233 62.3594 122.454 62.3372 122.676 62.293L123.34 62.1602C123.871 61.7174 124.447 61.4297 125.066 61.2969C125.686 61.1641 126.306 61.0534 126.926 60.9648C127.546 60.8763 128.143 60.7878 128.719 60.6992C129.294 60.5664 129.803 60.3229 130.246 59.9688H130.512C131.574 59.9688 132.637 59.7917 133.699 59.4375C134.806 59.0833 135.868 58.9505 136.887 59.0391C137.772 58.5521 138.591 58.2422 139.344 58.1094C140.096 57.9766 140.96 57.9102 141.934 57.9102C142.155 57.9102 142.421 57.8216 142.73 57.6445C143.04 57.4232 143.417 57.3125 143.859 57.3125C143.948 57.3125 144.014 57.3346 144.059 57.3789C144.147 57.3789 144.236 57.3789 144.324 57.3789C144.723 57.3789 144.988 57.2461 145.121 56.9805C145.298 56.7148 145.719 56.582 146.383 56.582C146.693 56.582 146.98 56.6042 147.246 56.6484C147.512 56.6484 147.777 56.6484 148.043 56.6484C148.353 56.6484 148.552 56.5378 148.641 56.3164C148.729 56.0508 148.928 55.9401 149.238 55.9844C149.371 56.1615 149.592 56.25 149.902 56.25C150.212 56.2057 150.456 56.1836 150.633 56.1836C150.943 56.1836 151.12 56.2721 151.164 56.4492C151.872 56.0065 152.647 55.7188 153.488 55.5859C154.374 55.4531 155.215 55.3867 156.012 55.3867C156.322 55.3867 156.632 55.4089 156.941 55.4531C157.251 55.4531 157.583 55.4753 157.938 55.5195C158.336 55.2539 158.801 55.1211 159.332 55.1211C159.642 55.1211 160.129 55.2539 160.793 55.5195C161.501 55.7852 162.232 56.0951 162.984 56.4492C163.737 56.8034 164.423 57.1797 165.043 57.5781C165.663 57.9766 166.039 58.3086 166.172 58.5742C166.26 58.6628 166.305 58.862 166.305 59.1719C166.349 59.4818 166.415 59.7474 166.504 59.9688C166.725 60.5 166.924 61.0091 167.102 61.4961C167.323 61.9388 167.434 62.4479 167.434 63.0234ZM160.062 63.7539C160.062 63.6654 160.04 63.5768 159.996 63.4883C159.996 63.3555 159.996 63.2448 159.996 63.1562C159.775 62.8906 159.465 62.6914 159.066 62.5586C158.712 62.4258 158.314 62.3151 157.871 62.2266C157.473 62.138 157.052 62.0716 156.609 62.0273C156.211 61.9388 155.857 61.8281 155.547 61.6953C154.617 62.0052 153.599 62.1602 152.492 62.1602C151.474 62.1602 150.566 62.0052 149.77 61.6953C149.371 62.0938 148.862 62.4036 148.242 62.625C147.622 62.8464 146.958 63.0234 146.25 63.1562C145.586 63.2448 144.9 63.3112 144.191 63.3555C143.527 63.3555 142.93 63.3555 142.398 63.3555C142.221 63.3555 141.911 63.4883 141.469 63.7539C141.026 64.0195 140.628 64.1523 140.273 64.1523C140.008 64.1523 139.764 64.0417 139.543 63.8203C139.145 64.1302 138.591 64.3958 137.883 64.6172C137.174 64.8385 136.444 65.0378 135.691 65.2148C134.939 65.3477 134.164 65.5026 133.367 65.6797C132.615 65.8568 131.973 66.0339 131.441 66.2109C130.91 67.362 130.622 68.6237 130.578 69.9961C130.534 71.3242 130.512 72.6302 130.512 73.9141C130.512 74.6667 130.467 75.3971 130.379 76.1055C130.29 76.8138 130.246 77.5443 130.246 78.2969C130.246 78.651 130.268 79.0273 130.312 79.4258C130.357 79.7799 130.49 80.1341 130.711 80.4883C130.357 80.7539 130.113 81.1081 129.98 81.5508C129.892 81.9492 129.848 82.3477 129.848 82.7461C129.848 83.2331 129.892 83.6758 129.98 84.0742C130.069 84.4727 130.158 84.849 130.246 85.2031C131.663 85.0703 132.947 84.8047 134.098 84.4062C135.293 84.0078 136.4 83.5208 137.418 82.9453C138.48 82.3698 139.499 81.7057 140.473 80.9531C141.447 80.2005 142.465 79.4036 143.527 78.5625C143.97 78.474 144.324 78.3411 144.59 78.1641C144.9 77.987 145.276 77.8984 145.719 77.8984C145.896 77.2786 146.228 76.8581 146.715 76.6367C147.202 76.3711 147.578 75.9948 147.844 75.5078C148.375 75.375 148.818 75.1979 149.172 74.9766C149.57 74.7109 149.947 74.4674 150.301 74.2461C150.655 73.9805 151.031 73.737 151.43 73.5156C151.872 73.2943 152.359 73.1615 152.891 73.1172C153.643 72.2318 154.418 71.3464 155.215 70.4609C156.056 69.5755 157.03 68.8672 158.137 68.3359C158.314 67.8932 158.513 67.5169 158.734 67.207C158.956 66.8529 159.155 66.5208 159.332 66.2109C159.553 65.8568 159.73 65.5026 159.863 65.1484C159.996 64.75 160.062 64.2852 160.062 63.7539ZM210.332 67.6055V67.8711C210.022 67.9596 209.867 68.181 209.867 68.5352C209.38 68.7565 208.871 68.9336 208.34 69.0664C207.809 69.1549 207.299 69.3099 206.812 69.5312C206.326 69.487 205.816 69.4648 205.285 69.4648C204.798 69.4206 204.311 69.3984 203.824 69.3984C202.496 69.3984 201.168 69.4427 199.84 69.5312C198.512 69.6198 197.184 69.6198 195.855 69.5312C195.236 69.8854 194.549 70.1732 193.797 70.3945C193.089 70.5716 192.402 70.6602 191.738 70.6602C191.207 70.6602 190.742 70.5938 190.344 70.4609C189.281 70.9922 188.108 71.4349 186.824 71.7891C185.585 72.1432 184.323 72.4974 183.039 72.8516C181.755 73.1615 180.516 73.5378 179.32 73.9805C178.169 74.3789 177.151 74.9544 176.266 75.707C176.177 76.3268 176.111 76.9466 176.066 77.5664C176.022 78.1419 176 78.7174 176 79.293C176 79.9128 176.022 80.4883 176.066 81.0195C176.155 81.5508 176.31 82.082 176.531 82.6133C176.753 82.7018 176.996 82.7682 177.262 82.8125C177.572 82.8568 177.837 82.8789 178.059 82.8789C178.28 82.8789 178.501 82.8568 178.723 82.8125C178.944 82.724 179.099 82.569 179.188 82.3477C179.852 82.2591 180.516 82.237 181.18 82.2812C181.844 82.2812 182.508 82.2812 183.172 82.2812C183.836 82.2812 184.478 82.2591 185.098 82.2148C185.762 82.1706 186.404 82.0599 187.023 81.8828C187.732 81.7057 188.418 81.5951 189.082 81.5508C189.79 81.5065 190.477 81.4622 191.141 81.418C191.805 81.3737 192.491 81.3073 193.199 81.2188C193.908 81.0859 194.638 80.8424 195.391 80.4883C195.966 80.7096 196.542 80.8203 197.117 80.8203C197.737 80.8203 198.335 80.8646 198.91 80.9531C199.22 81.1745 199.464 81.418 199.641 81.6836C199.862 81.9492 199.973 82.2591 199.973 82.6133C199.973 83.2331 199.751 83.8529 199.309 84.4727C198.866 85.0924 198.512 85.668 198.246 86.1992H197.516C196.453 86.1992 195.413 86.3542 194.395 86.6641C193.421 86.9297 192.424 87.2617 191.406 87.6602C190.432 88.0143 189.436 88.3464 188.418 88.6562C187.444 88.9219 186.426 89.0547 185.363 89.0547C185.186 89.0547 185.076 89.1654 185.031 89.3867C185.031 89.5638 184.987 89.6966 184.898 89.7852C184.677 89.7409 184.345 89.7188 183.902 89.7188C182.884 89.7188 181.91 89.8294 180.98 90.0508C180.051 90.2721 179.099 90.3828 178.125 90.3828C177.859 90.3828 177.594 90.3828 177.328 90.3828C177.062 90.3385 176.797 90.2943 176.531 90.25C176.31 90.6042 176.022 90.8477 175.668 90.9805C175.314 91.069 174.982 91.2461 174.672 91.5117C174.539 91.9102 174.451 92.3971 174.406 92.9727C174.406 93.5482 174.384 94.1458 174.34 94.7656C174.34 95.3411 174.296 95.8945 174.207 96.4258C174.118 96.957 173.941 97.3776 173.676 97.6875C173.72 97.9089 173.897 97.9974 174.207 97.9531C174.517 97.8646 174.672 97.9974 174.672 98.3516C174.672 98.75 174.628 99.1706 174.539 99.6133C174.451 100.056 174.406 100.499 174.406 100.941C174.406 101.783 174.495 102.712 174.672 103.73C174.893 104.704 175.203 105.612 175.602 106.453C176.044 107.294 176.62 108.003 177.328 108.578C178.036 109.109 178.922 109.375 179.984 109.375C180.693 109.375 181.357 109.242 181.977 108.977C182.596 108.711 183.105 108.268 183.504 107.648L183.836 107.582C184.013 107.582 184.168 107.604 184.301 107.648C184.478 107.693 184.655 107.715 184.832 107.715C185.098 107.715 185.43 107.56 185.828 107.25C186.271 106.896 186.736 106.497 187.223 106.055C187.754 105.612 188.285 105.191 188.816 104.793C189.348 104.35 189.857 104.04 190.344 103.863C190.654 103.243 190.941 102.624 191.207 102.004C191.517 101.384 191.96 100.897 192.535 100.543V98.6172C192.978 98.1302 193.443 97.6875 193.93 97.2891C194.461 96.8906 194.859 96.3815 195.125 95.7617C195.346 95.8503 195.546 95.9167 195.723 95.9609C195.944 96.0052 196.165 96.0273 196.387 96.0273C196.608 96.0273 196.829 96.0052 197.051 95.9609C197.316 95.9167 197.56 95.8503 197.781 95.7617C198.135 96.2487 198.401 96.8021 198.578 97.4219C198.799 97.9974 199.065 98.5508 199.375 99.082C198.977 99.8789 198.512 100.831 197.98 101.938C197.449 103.044 196.874 104.151 196.254 105.258C195.634 106.365 194.97 107.427 194.262 108.445C193.598 109.419 192.934 110.172 192.27 110.703C192.137 110.836 191.849 110.991 191.406 111.168C190.919 111.522 190.477 111.854 190.078 112.164C189.68 112.518 189.303 112.917 188.949 113.359C187.665 113.758 186.426 114.289 185.23 114.953C184.079 115.617 182.928 116.259 181.777 116.879C181.246 116.746 180.671 116.68 180.051 116.68C179.52 116.68 178.988 116.702 178.457 116.746C177.926 116.835 177.35 116.879 176.73 116.879C176.553 116.658 176.288 116.503 175.934 116.414C175.624 116.37 175.513 116.148 175.602 115.75C174.096 115.661 172.879 115.241 171.949 114.488C171.02 113.78 170.223 112.895 169.559 111.832C168.939 110.77 168.43 109.618 168.031 108.379C167.633 107.139 167.212 105.944 166.77 104.793V104.594C166.77 104.372 166.858 104.24 167.035 104.195C167.212 104.151 167.301 104.018 167.301 103.797C167.301 103.708 167.279 103.642 167.234 103.598C167.102 103.111 166.991 102.69 166.902 102.336C166.814 101.982 166.77 101.561 166.77 101.074C166.77 100.366 166.814 99.6797 166.902 99.0156C166.991 98.3073 167.035 97.599 167.035 96.8906C167.035 96.1823 166.947 95.5625 166.77 95.0312C166.947 94.8099 167.102 94.5221 167.234 94.168C167.323 93.7695 167.389 93.3711 167.434 92.9727C167.478 92.5742 167.5 92.1758 167.5 91.7773C167.544 91.3789 167.611 91.0247 167.699 90.7148C167.522 90.2279 167.367 89.8073 167.234 89.4531C167.102 89.0547 167.035 88.5898 167.035 88.0586V87.5938C167.478 86.8411 167.854 86.0664 168.164 85.2695C168.474 84.4727 168.806 83.6536 169.16 82.8125V82.6133C169.16 81.3294 169.116 80.0456 169.027 78.7617C168.939 77.4779 168.895 76.194 168.895 74.9102V73.6484C168.895 73.2057 168.917 72.7852 168.961 72.3867C169.315 72.2096 169.581 71.9661 169.758 71.6562C169.935 71.3464 170.201 71.1029 170.555 70.9258H172.746L173.145 70.2617C173.277 70.0404 173.366 69.7969 173.41 69.5312C173.897 69.3984 174.362 69.2214 174.805 69C175.292 68.7344 175.734 68.4688 176.133 68.2031C176.753 67.849 177.306 67.5391 177.793 67.2734C178.324 66.9635 178.833 66.7201 179.32 66.543C179.852 66.3216 180.405 66.1445 180.98 66.0117C181.556 65.8789 182.22 65.7682 182.973 65.6797C183.327 65.6797 183.548 65.6133 183.637 65.4805C183.77 65.3477 183.947 65.1927 184.168 65.0156C184.699 65.1042 185.23 65.1927 185.762 65.2812C186.293 65.3255 186.824 65.3477 187.355 65.3477C188.418 65.3477 189.414 65.1484 190.344 64.75C191.672 64.75 192.978 64.7279 194.262 64.6836C195.59 64.6393 196.918 64.6172 198.246 64.6172C199.397 64.6172 200.548 64.6615 201.699 64.75C202.85 64.8385 203.979 64.9935 205.086 65.2148C205.484 65.082 205.927 65.0156 206.414 65.0156C206.945 65.0156 207.477 65.082 208.008 65.2148C208.583 65.3034 209.137 65.3034 209.668 65.2148C209.712 65.7018 209.823 66.1224 210 66.4766C210.221 66.7865 210.332 67.1628 210.332 67.6055Z" fill="black"/>
<path d="M94.8789 68.9844C96.3493 70.6064 100.084 75.4512 103.421 76.9236C107.346 78.656 110.327 75.2547 111.797 74.0921C111.801 74.089 114.049 71.7223 115.162 72.7454C117.578 74.9665 118.114 77.5809 120.695 79.8414C128.764 86.9073 146.037 84.4411 157.743 85.7958C161.075 86.1815 172.414 89.3332 175.701 87.7796C180.444 85.5385 178.374 77.8237 176.973 74.8847C169.109 58.3841 136.755 53.4742 112.296 51.0331C91.6257 48.9701 68.4068 47.9205 49.656 52.3991C37.3823 55.3306 26.6785 61.8061 27.9661 70.3802C30.7022 88.6004 75.8199 88.9245 96.2667 88.4338C119.387 87.8789 142.844 85.7876 164.455 82.0708C168.753 81.3316 173.008 80.4951 177.002 79.3902C200.461 72.9011 171.724 80.3656 184.666 74.9749" stroke="black" stroke-width="2" stroke-linecap="round"/>
<path d="M83.6249 53.328C83.5999 53.4927 83.5847 53.6265 83.7821 53.666C83.795 53.6685 84.1444 53.6765 84.0336 53.5795C83.9124 53.4735 83.4877 53.4879 83.4284 53.666C83.3639 53.8594 83.869 53.6641 83.3852 53.7642C82.7427 53.8971 84.197 54.6307 84.234 54.224C84.2637 53.8977 83.7752 53.3857 83.5148 53.7839C83.1773 54.3002 83.9344 54.7308 84.1043 54.2397C84.3073 53.6534 83.6095 52.9209 83.1887 53.5756C82.469 54.695 84.7526 55.4779 85.2086 54.5659C85.6972 53.5887 84.5443 53.1041 83.8685 53.7288C83.6268 53.9524 83.3734 54.4199 83.5227 54.7585C83.6805 55.1161 84.4084 55.0182 84.6624 54.8488C85.3853 54.3669 84.8897 52.8342 83.955 53.2808C82.9692 53.7519 83.4591 55.3214 84.5523 55.1357C85.3239 55.0047 85.0991 53.5006 84.4777 53.2965C83.5322 52.9861 82.5152 53.942 83 54.9117C83.1759 55.2634 84.0836 55.0181 84.1043 54.617C84.1339 54.0445 83.6121 53.4822 83.1297 53.9646" stroke="black" stroke-width="3" stroke-linecap="round"/>
<path d="M98.8988 71.9844C98.7584 72.5326 98.4458 73.2254 98.3831 73.7896C98.3764 73.8495 98.5013 73.8224 98.5616 73.8193C98.858 73.8044 99.166 73.7439 99.4543 73.6904C100.246 73.5433 101.109 73.2742 101.924 73.3631C102.365 73.4112 101.596 73.5854 101.577 73.5912" stroke="black" stroke-width="0.3" stroke-linecap="round"/>
<path d="M102.378 74.5729C100.959 74.5868 99.5412 74.608 98.1226 74.5927C97.9355 74.5907 95.3143 74.6274 94.6907 74.3646C94.3812 74.2341 95.0357 73.7661 95.3057 73.5661C95.8681 73.1495 96.4831 72.4433 97.1158 72.1378C97.3567 72.0216 97.2934 72.6704 97.2349 72.9313C96.8337 74.7197 95.9638 76.3716 95.5834 78.1733C95.4774 78.6754 95.562 79.1472 95.4148 78.4114" stroke="black" stroke-width="0.3" stroke-linecap="round"/>
<path d="M94.0782 76.447C93.6977 77.0577 93.4097 77.7198 93.3988 78.4605C93.3766 79.958 94.4988 80.3188 95.8536 80.1566C97.942 79.9066 100.057 78.8424 101.572 77.4042C102.417 76.6017 104.262 74.2031 102.767 73.0648C102.126 72.5771 100.991 72.7245 100.277 72.8763C99.3484 73.074 98.49 73.4963 97.882 74.2401C97.3493 74.8918 96.8404 76.1268 97.7382 76.6256" stroke="black" stroke-width="0.3" stroke-linecap="round"/>
<path d="M97.735 75.1086C97.9294 75.4125 98.4322 76.3344 98.8459 76.5667C99.3325 76.8399 99.6432 76.0707 99.803 75.798C99.8034 75.7972 100.04 75.2582 100.185 75.4458C100.499 75.8532 100.595 76.3829 100.929 76.7948C101.973 78.0823 103.988 77.1956 105.392 77.2213C105.792 77.2286 107.174 77.6344 107.545 77.2411C108.078 76.6738 107.737 75.1214 107.535 74.5433C106.397 71.2976 102.503 70.9853 99.5749 71.0122C97.1003 71.035 94.3363 71.3231 92.1706 72.6587C90.753 73.5329 89.5655 75.1068 89.8249 76.8543C90.376 80.5676 95.7253 79.6526 98.1416 79.1058C100.874 78.4876 103.627 77.5439 106.141 76.3038C106.641 76.0572 107.135 75.7914 107.594 75.4756C110.293 73.6212 106.981 75.7925 108.447 74.3945" stroke="black" stroke-width="0.3" stroke-linecap="round"/>
<path d="M215.547 56.7821C215.522 56.9468 215.507 57.0806 215.704 57.1201C215.717 57.1226 216.066 57.1306 215.955 57.0336C215.834 56.9276 215.41 56.942 215.35 57.1201C215.286 57.3135 215.791 57.1182 215.307 57.2183C214.665 57.3512 216.119 58.0848 216.156 57.6781C216.186 57.3518 215.697 56.8398 215.437 57.238C215.099 57.7543 215.856 58.1849 216.026 57.6938C216.229 57.1075 215.531 56.375 215.111 57.0297C214.391 58.1492 216.674 58.932 217.13 58.02C217.619 57.0428 216.466 56.5582 215.79 57.1829C215.549 57.4065 215.295 57.874 215.445 58.2126C215.602 58.5702 216.33 58.4723 216.584 58.3029C217.307 57.821 216.812 56.2883 215.877 56.7349C214.891 57.206 215.381 58.7755 216.474 58.5898C217.246 58.4588 217.021 56.9547 216.4 56.7506C215.454 56.4402 214.437 57.3961 214.922 58.3658C215.098 58.7175 216.005 58.4722 216.026 58.0711C216.056 57.4986 215.534 56.9363 215.052 57.4187" stroke="black" stroke-width="3" stroke-linecap="round"/>
<path d="M66.6484 70.5307C66.8384 69.7708 68.3848 59.7515 70.3284 59.3196C71.3782 59.0863 71.2698 65.5495 71.2698 66.2802C71.2698 67.874 71.483 66.1676 71.7262 65.6811C73.7438 61.6459 76.3279 66.5416 77.7739 68.2486C83.7119 75.2581 91.6335 59.0573 99.7967 66.1376C102.803 68.7452 104.454 73.7492 109.125 73.5546C111.259 73.4656 112.431 72.082 113.975 74.011C114.742 74.9701 115.809 76.6742 117.255 76.6925C118.163 76.704 118.896 75.5641 118.739 74.7527C118.234 72.16 115.367 69.7672 113.547 68.4768C107.465 64.1647 99.2743 60.0018 91.638 59.8617C87.3119 59.7823 85.3532 60.9814 82.5379 63.9695C81.4851 65.087 78.1608 68.8354 79.5426 71.1868C80.2325 72.3609 81.6889 73.0524 83.0229 73.3263C88.3239 74.4151 107.141 73.972 110.123 73.9539C124.061 73.8696 136.286 73.5928 150.175 73.9539C154.031 74.0542 157.896 74.1457 161.729 74.5815C162.777 74.7008 165.492 74.8848 164.724 75.6085C163.366 76.8878 161.119 76.6029 159.275 76.8922C155.9 77.422 152.496 77.7756 149.091 78.0618C141.531 78.6973 132.748 78.978 125.129 79.1458C120.016 79.2584 114.895 79.2599 109.781 79.2599" stroke="black" stroke-width="1.3" stroke-linecap="round"/>
</svg>
