<svg width="199" height="174" viewBox="0 0 199 174" fill="none" xmlns="http://www.w3.org/2000/svg">
<path d="M171.067 116.556L51.8822 112.758L29.5194 95.2782L196.602 96.7772L191.874 100.373L171.067 116.556Z" fill="#232323" stroke="#232323"/>
<path d="M171.067 63.8116L51.8301 65.4702L29.1369 82.546L196.22 84.045L191.561 80.3655L171.067 63.8116Z" fill="#232323" stroke="#232323"/>
<path d="M108.327 128.836L63.2551 128.371L66.0699 130.287C93.1433 146.009 94.9857 149.684 104.284 158.981C109.253 162.988 117.33 169.08 123.883 170.987C132.414 173.469 153.877 175.82 166.21 162.279C163.394 162.253 166.21 162.279 163.394 162.254C138.05 162.026 122.893 143.6 108.327 128.836Z" fill="#232323" stroke="#232323"/>
<path d="M110.55 50.4101L66.4323 50.0144L69.2744 47.3152C96.6428 32.1694 98.555 28.5492 108.029 19.4731C112.784 13.0783 119.319 9.54935 126.916 7.78743C130.679 6.91459 157.934 3.61992 170.007 17.3022C167.191 17.2771 170.007 17.3022 167.191 17.2769C141.847 17.0495 125.395 35.9938 110.55 50.4101Z" fill="#232323" stroke="#232323"/>
<path d="M80.9059 109.261C86.9322 104.287 142.954 43.5278 171.578 17.0703L61.5859 134.899C62.3591 130.664 62.3316 129.897 61.5859 127.423L70.1608 119.503L80.9059 109.261Z" fill="#232323" stroke="#232323"/>
<path d="M144.168 111.592L24.9838 107.794L2.62093 90.3143L169.704 91.8133L164.976 95.4086L144.168 111.592Z" stroke="#232323"/>
<path d="M144.168 58.8478L24.9316 60.5064L2.23845 77.5822L169.321 79.0811L164.663 75.4016L144.168 58.8478Z" stroke="#232323"/>
<path d="M81.429 123.872L36.3567 123.407L39.1715 125.323C66.2449 141.046 68.0872 144.72 77.3859 154.017C82.3543 158.024 90.4318 164.117 96.9848 166.023C105.516 168.505 126.979 170.856 139.312 157.315C136.496 157.29 139.312 157.315 136.496 157.29C111.152 157.062 95.9949 138.636 81.429 123.872Z" stroke="#232323"/>
<path d="M83.6513 45.4463L39.5339 45.0505L42.3759 42.3514C69.7444 27.2056 71.6565 23.5853 81.1308 14.5093C85.8856 8.11439 92.4208 4.58548 100.017 2.82356C103.781 1.95072 131.036 -1.34395 143.109 12.3383C140.293 12.3133 143.109 12.3383 140.293 12.313C114.949 12.0857 98.4961 31.0299 83.6513 45.4463Z" stroke="#232323"/>
<path d="M54.0075 104.297C60.0337 99.3236 116.056 38.5639 144.679 12.1064L34.6875 129.935C35.4607 125.7 35.4332 124.933 34.6875 122.46L43.2623 114.539L54.0075 104.297Z" stroke="#232323"/>
</svg>
