<svg width="35" height="36" viewBox="0 0 35 36" fill="none" xmlns="http://www.w3.org/2000/svg">
<path d="M13.0218 18.5239L24.5228 7.3539L27.9121 6.45354L12.07 22.3852L12.2511 21.675L13.0218 18.5239Z" fill="white" stroke="white" stroke-width="0.35"/>
<path d="M11.6189 27.5962L27.1566 11.5747L28.8769 7.3365L6.82229 29.5158L7.70565 29.1554L11.6189 27.5962Z" fill="white" stroke="white" stroke-width="0.35"/>
<path d="M19.8218 9.82525L23.0792 6.55822L22.7376 6.6273C19.6502 7.48529 19.2494 7.3574 17.9037 7.3734C17.2549 7.45062 16.2312 7.60636 15.6229 7.94983C14.8311 8.39697 13.124 9.80043 13.2335 11.6719L13.4367 11.4675C15.2659 9.628 17.6991 9.83599 19.8218 9.82525Z" fill="white" stroke="white" stroke-width="0.8"/>
<path d="M25.4002 15.5964L28.5843 12.3944L28.5787 12.7955C27.7304 15.8826 27.8587 16.2815 27.8458 17.6243C27.974 18.4298 27.765 19.1607 27.3507 19.843C27.1455 20.181 25.4376 22.4123 23.5723 22.3178L23.7755 22.1134C25.6047 20.2739 25.3942 17.7144 25.4002 15.5964Z" fill="white" stroke="white" stroke-width="0.9"/>
<path d="M23.2117 9.21709C23.1449 10.014 23.5874 18.4613 23.4776 22.4493L22.7161 5.96888C22.9709 6.32835 23.029 6.38124 23.2635 6.50352L23.2302 7.6978L23.2117 9.21709Z" fill="white" stroke="white" stroke-width="0.8"/>
</svg>
