<svg width="49" height="52" viewBox="0 0 49 52" fill="none" xmlns="http://www.w3.org/2000/svg">
    <path d="M16.5873 43.236L17.3535 7.66536L22.3344 0.943359L22.3637 50.7982L21.3135 49.3978L16.5873 43.236Z" fill="#232323" stroke="#232323" stroke-width="0.2"/>
    <path d="M31.8032 38.1615L30.9977 6.73644L26.0093 0.797852L26.0352 44.8424L27.0839 43.6052L31.8032 38.1615Z" fill="#232323" stroke="#232323" stroke-width="0.2"/>
    <path d="M12.8755 23.7715L12.8854 10.7676L12.3404 11.5849C7.87949 19.4385 6.82449 19.9801 4.16817 22.6883C3.02585 24.1326 1.29055 26.4796 0.758589 28.3753C0.0660696 30.8432 -0.552816 37.0414 3.38748 40.562L3.387 39.7495C3.3827 32.4375 8.65672 28.0143 12.8755 23.7715Z" fill="#232323" stroke="#232323" stroke-width="0.2"/>
    <path d="M35.5027 24.195L35.4952 11.4668L36.2817 12.2792C40.7265 20.1328 41.7761 20.6745 44.4206 23.3826C46.2785 24.7367 47.3146 26.6122 47.8438 28.7989C48.106 29.8821 49.1316 37.7357 45.2178 41.2563L45.2173 40.4439C45.213 33.1319 39.7025 28.4378 35.5027 24.195Z" fill="#232323" stroke="#232323" stroke-width="0.2"/>
    <path d="M18.4422 15.8062C19.8935 17.531 37.5762 33.5248 45.2877 41.7094L10.9926 10.3034C12.2164 10.5148 12.4378 10.5048 13.1493 10.2828L15.4577 12.7347L18.4422 15.8062Z" fill="#232323"/>
    <path d="M18.4422 15.8062C19.8935 17.531 37.5762 33.5248 45.2877 41.7094L10.9926 10.3034C12.2164 10.5148 12.4378 10.5048 13.1493 10.2828L15.4577 12.7347L18.4422 15.8062Z" stroke="#232323" stroke-width="0.2"/>
    <path d="M18.4422 15.8062C19.8935 17.531 37.5762 33.5248 45.2877 41.7094L10.9926 10.3034C12.2164 10.5148 12.4378 10.5048 13.1493 10.2828L15.4577 12.7347L18.4422 15.8062Z" stroke="#232323" stroke-width="0.2"/>
</svg>
