<svg width="35" height="35" viewBox="0 0 35 35" fill="none" xmlns="http://www.w3.org/2000/svg">
<path d="M13.2952 17.813L24.7962 6.64296L28.1856 5.7426L12.3434 21.6743L12.5245 20.9641L13.2952 17.813Z" fill="#232323" stroke="#232323" stroke-width="0.35"/>
<path d="M11.8923 26.8853L27.43 10.8638L29.1504 6.62557L7.09572 28.8048L7.97909 28.4445L11.8923 26.8853Z" fill="#232323" stroke="#232323" stroke-width="0.35"/>
<path d="M20.0952 9.11431L23.3527 5.84729L23.011 5.91636C19.9237 6.77436 19.5228 6.64646 18.1771 6.66246C17.5284 6.73968 16.5046 6.89543 15.8964 7.2389C15.1045 7.68603 13.3975 9.0895 13.5069 10.9609L13.7102 10.7565C15.5393 8.91706 17.9725 9.12506 20.0952 9.11431Z" fill="#232323" stroke="#232323" stroke-width="0.8"/>
<path d="M25.6737 14.8855L28.8577 11.6834L28.8521 12.0845C28.0038 15.1717 28.1322 15.5706 28.1192 16.9134C28.2474 17.7189 28.0384 18.4498 27.6242 19.132C27.4189 19.47 25.711 21.7013 23.8457 21.6068L24.049 21.4024C25.8781 19.563 25.6676 17.0034 25.6737 14.8855Z" fill="#232323" stroke="#232323" stroke-width="0.9"/>
<path d="M23.4851 8.50616C23.4183 9.30308 23.8608 17.7504 23.751 21.7384L22.9895 5.25794C23.2443 5.61742 23.3025 5.67031 23.5369 5.79258L23.5036 6.98686L23.4851 8.50616Z" fill="#232323" stroke="#232323" stroke-width="0.8"/>
</svg>
