<svg width="87" height="19" viewBox="0 0 87 19" fill="none" xmlns="http://www.w3.org/2000/svg">
<path d="M12.6094 12.8926C12.6094 12.9551 12.5859 12.998 12.5391 13.0215C12.5 13.0449 12.4922 13.0996 12.5156 13.1855C12.4531 13.1934 12.3984 13.2246 12.3516 13.2793C12.3047 13.334 12.25 13.3613 12.1875 13.3613C12.1484 13.3613 12.1172 13.3418 12.0938 13.3027C12.0781 13.3574 12.0469 13.3965 12 13.4199C11.9609 13.4434 11.918 13.4629 11.8711 13.4785C11.8242 13.4941 11.7773 13.5137 11.7305 13.5371C11.6836 13.5605 11.6523 13.5957 11.6367 13.6426H11.5781C11.4844 13.6426 11.4102 13.6816 11.3555 13.7598C11.3086 13.8379 11.25 13.877 11.1797 13.877C11.1562 13.877 11.1406 13.873 11.1328 13.8652C11.0938 13.873 11.0781 13.8965 11.0859 13.9355C11.0938 13.9824 11.082 14.0137 11.0508 14.0293H10.9922C10.7891 14.0293 10.582 14.0723 10.3711 14.1582C10.1602 14.2441 9.94531 14.3418 9.72656 14.4512C9.51562 14.5605 9.29688 14.6621 9.07031 14.7559C8.85156 14.8574 8.62891 14.9238 8.40234 14.9551C8.35547 15.002 8.29688 15.0371 8.22656 15.0605C8.16406 15.0918 8.09375 15.1152 8.01562 15.1309C7.9375 15.1465 7.85938 15.1621 7.78125 15.1777C7.71094 15.2012 7.64844 15.2363 7.59375 15.2832C7.39844 15.2988 7.20312 15.334 7.00781 15.3887C6.8125 15.4434 6.61719 15.4941 6.42188 15.541C6.23438 15.5957 6.03906 15.6387 5.83594 15.6699C5.64062 15.709 5.44141 15.7207 5.23828 15.7051C5.17578 15.752 5.10547 15.7871 5.02734 15.8105C4.95703 15.8418 4.89062 15.8809 4.82812 15.9277C4.50781 15.8809 4.1875 15.8457 3.86719 15.8223C3.55469 15.7988 3.24609 15.7441 2.94141 15.6582C2.94141 15.6348 2.93359 15.6191 2.91797 15.6113C2.90234 15.6035 2.88281 15.5957 2.85938 15.5879C2.84375 15.5879 2.82812 15.5801 2.8125 15.5645C2.79688 15.5566 2.79688 15.5371 2.8125 15.5059C2.74219 15.5293 2.67969 15.541 2.625 15.541C2.54688 15.541 2.46875 15.5215 2.39062 15.4824C2.32031 15.4434 2.24219 15.4004 2.15625 15.3535C2.07812 15.3066 1.99609 15.2598 1.91016 15.2129C1.82422 15.1738 1.73047 15.1543 1.62891 15.1543C1.56641 15.0918 1.50781 15.0293 1.45312 14.9668C1.40625 14.9043 1.37109 14.8262 1.34766 14.7324C1.31641 14.7246 1.28125 14.7246 1.24219 14.7324C1.21094 14.7402 1.18359 14.7441 1.16016 14.7441C1.11328 14.7441 1.08984 14.7285 1.08984 14.6973C0.925781 14.5801 0.808594 14.4551 0.738281 14.3223C0.667969 14.1895 0.589844 14.0371 0.503906 13.8652C0.480469 13.8105 0.449219 13.7637 0.410156 13.7246C0.378906 13.6934 0.355469 13.6543 0.339844 13.6074C0.308594 13.5293 0.289062 13.4473 0.28125 13.3613C0.273438 13.2754 0.265625 13.1934 0.257812 13.1152C0.257812 13.0293 0.246094 12.9473 0.222656 12.8691C0.207031 12.7832 0.171875 12.7051 0.117188 12.6348C0.132812 12.3379 0.164062 12.041 0.210938 11.7441C0.265625 11.4473 0.332031 11.1504 0.410156 10.8535C0.441406 10.7207 0.476562 10.5918 0.515625 10.4668C0.554688 10.3418 0.589844 10.2129 0.621094 10.0801C0.628906 10.0332 0.640625 10.002 0.65625 9.98633C0.679688 9.96289 0.699219 9.94727 0.714844 9.93945L0.761719 9.9043C0.777344 9.88867 0.789062 9.86523 0.796875 9.83398L0.890625 9.43555C0.953125 9.17773 1.03516 8.92773 1.13672 8.68555C1.23828 8.44336 1.375 8.2207 1.54688 8.01758C1.5625 7.82227 1.60547 7.63867 1.67578 7.4668C1.75391 7.28711 1.83984 7.11523 1.93359 6.95117C2.02734 6.7793 2.12109 6.61133 2.21484 6.44727C2.30859 6.2832 2.38281 6.10742 2.4375 5.91992L2.42578 5.89648C2.42578 5.86523 2.44141 5.84961 2.47266 5.84961C2.51172 5.8418 2.53906 5.83789 2.55469 5.83789C2.5625 5.71289 2.58984 5.60742 2.63672 5.52148C2.69141 5.42773 2.74609 5.3418 2.80078 5.26367C2.86328 5.18555 2.91797 5.10352 2.96484 5.01758C3.01953 4.92383 3.05078 4.81445 3.05859 4.68945C3.20703 4.60352 3.33203 4.49805 3.43359 4.37305C3.54297 4.24023 3.64453 4.10742 3.73828 3.97461C3.83984 3.83398 3.94531 3.70117 4.05469 3.57617C4.16406 3.44336 4.29688 3.33789 4.45312 3.25977C4.49219 3.21289 4.50391 3.14648 4.48828 3.06055C4.73047 2.88086 4.98047 2.7207 5.23828 2.58008C5.49609 2.43945 5.73828 2.27539 5.96484 2.08789H6.38672C6.48828 2.00977 6.60156 1.9707 6.72656 1.9707C6.82031 1.9707 6.91016 1.99023 6.99609 2.0293C7.08984 2.06836 7.17578 2.11523 7.25391 2.16992C7.33984 2.2168 7.42578 2.26758 7.51172 2.32227C7.59766 2.36914 7.68359 2.4043 7.76953 2.42773C7.85547 2.54492 7.91406 2.68164 7.94531 2.83789C7.98438 2.98633 8.02344 3.12695 8.0625 3.25977C7.99219 3.4707 7.94922 3.68945 7.93359 3.91602C7.91797 4.13477 7.89062 4.35352 7.85156 4.57227C7.79688 4.63477 7.75 4.70508 7.71094 4.7832C7.67188 4.85352 7.62891 4.92773 7.58203 5.00586C7.54297 5.07617 7.5 5.14648 7.45312 5.2168C7.40625 5.2793 7.34375 5.33008 7.26562 5.36914C7.20312 5.5957 7.10547 5.77539 6.97266 5.9082C6.83984 6.04102 6.71094 6.19727 6.58594 6.37695C6.46875 6.45508 6.34375 6.49414 6.21094 6.49414C6.10156 6.49414 6.00391 6.4707 5.91797 6.42383C5.83203 6.36914 5.75391 6.30273 5.68359 6.22461C5.61328 6.13867 5.55469 6.04883 5.50781 5.95508C5.46875 5.85352 5.4375 5.75586 5.41406 5.66211C5.46875 5.49805 5.55469 5.35742 5.67188 5.24023C5.79688 5.12305 5.92188 5.00586 6.04688 4.88867C6.17188 4.77148 6.28125 4.64648 6.375 4.51367C6.46875 4.38086 6.51562 4.2207 6.51562 4.0332C6.51562 4.01758 6.51172 4.00195 6.50391 3.98633C6.50391 3.9707 6.50391 3.95508 6.50391 3.93945C6.50391 3.9082 6.51562 3.88086 6.53906 3.85742C6.5625 3.83398 6.58594 3.81445 6.60938 3.79883L6.67969 3.74023C6.70312 3.7168 6.71484 3.68945 6.71484 3.6582C6.71484 3.62695 6.69922 3.5957 6.66797 3.56445C6.37109 3.58789 6.14453 3.63867 5.98828 3.7168C5.83984 3.79492 5.72266 3.88086 5.63672 3.97461C5.55078 4.06836 5.47266 4.16211 5.40234 4.25586C5.33984 4.3418 5.24609 4.4043 5.12109 4.44336C5.09766 4.50586 5.0625 4.56055 5.01562 4.60742C4.97656 4.64648 4.93359 4.68945 4.88672 4.73633C4.83984 4.77539 4.79688 4.82227 4.75781 4.87695C4.72656 4.93164 4.70703 4.99805 4.69922 5.07617H4.48828C4.45703 5.14648 4.41016 5.2168 4.34766 5.28711C4.29297 5.34961 4.23438 5.41211 4.17188 5.47461C4.11719 5.53711 4.06641 5.60742 4.01953 5.68555C3.98047 5.75586 3.96875 5.83398 3.98438 5.91992C3.89844 5.95117 3.83203 6.00195 3.78516 6.07227C3.74609 6.14258 3.6875 6.20117 3.60938 6.24805V6.31836C3.60938 6.38086 3.59766 6.43945 3.57422 6.49414C3.55078 6.54883 3.54688 6.60742 3.5625 6.66992C3.46875 6.75586 3.39844 6.86523 3.35156 6.99805C3.3125 7.12305 3.26953 7.24023 3.22266 7.34961C3.11328 7.4043 3.03906 7.47852 3 7.57227C2.96094 7.66602 2.94141 7.77539 2.94141 7.90039C2.82422 8.01758 2.71875 8.1543 2.625 8.31055C2.53125 8.4668 2.44531 8.62695 2.36719 8.79102C2.29688 8.95508 2.23047 9.12305 2.16797 9.29492C2.10547 9.4668 2.03906 9.62695 1.96875 9.77539V10.1152C1.85938 10.2402 1.78125 10.3887 1.73438 10.5605C1.69531 10.7246 1.63281 10.873 1.54688 11.0059C1.53125 11.0918 1.52344 11.1777 1.52344 11.2637C1.53125 11.3496 1.53516 11.4355 1.53516 11.5215C1.53516 11.6152 1.52734 11.7129 1.51172 11.8145C1.49609 11.916 1.46875 12.0098 1.42969 12.0957C1.46094 12.2129 1.48438 12.3535 1.5 12.5176C1.51562 12.6738 1.54297 12.834 1.58203 12.998C1.62109 13.1543 1.67578 13.2988 1.74609 13.4316C1.81641 13.5566 1.91797 13.6426 2.05078 13.6895C2.08203 13.8613 2.15625 13.9902 2.27344 14.0762C2.39844 14.1699 2.53906 14.2441 2.69531 14.2988C2.85156 14.3535 3.01172 14.4004 3.17578 14.4395C3.33984 14.4863 3.48438 14.5449 3.60938 14.6152C3.65625 14.5918 3.71094 14.5801 3.77344 14.5801C3.83594 14.5801 3.89062 14.5879 3.9375 14.6035C3.99219 14.6191 4.05078 14.6348 4.11328 14.6504C4.22266 14.6348 4.35547 14.627 4.51172 14.627C4.67578 14.627 4.83984 14.6191 5.00391 14.6035C5.16797 14.5957 5.32031 14.5762 5.46094 14.5449C5.60156 14.5137 5.71484 14.4551 5.80078 14.3691C5.85547 14.3691 5.89062 14.3848 5.90625 14.416C5.92969 14.4473 5.96875 14.4629 6.02344 14.4629C6.07812 14.4629 6.16016 14.4473 6.26953 14.416C6.37891 14.3926 6.49219 14.3613 6.60938 14.3223C6.72656 14.291 6.83594 14.2559 6.9375 14.2168C7.04688 14.1777 7.125 14.1426 7.17188 14.1113C7.19531 14.1191 7.21875 14.123 7.24219 14.123H7.32422C7.43359 14.123 7.53516 14.1035 7.62891 14.0645C7.72266 14.0254 7.82422 14.0137 7.93359 14.0293C8.29297 13.8496 8.65625 13.6934 9.02344 13.5605C9.39844 13.4355 9.77734 13.3223 10.1602 13.2207C10.207 13.1504 10.2617 13.0996 10.3242 13.0684C10.3945 13.0371 10.4688 13.0137 10.5469 12.998C10.625 12.9746 10.7031 12.959 10.7812 12.9512C10.8594 12.9355 10.9336 12.916 11.0039 12.8926C11.0508 12.8691 11.0898 12.8418 11.1211 12.8105C11.1602 12.7715 11.207 12.7402 11.2617 12.7168C11.3164 12.6934 11.375 12.6777 11.4375 12.6699C11.5078 12.6621 11.5742 12.6543 11.6367 12.6465C11.707 12.6309 11.7695 12.6113 11.8242 12.5879C11.8867 12.5645 11.9375 12.5254 11.9766 12.4707C12.0859 12.5176 12.1953 12.5684 12.3047 12.623C12.4219 12.6777 12.5195 12.7559 12.5977 12.8574L12.6094 12.8926ZM22.9453 7.00977C22.9453 7.45508 22.9141 7.88867 22.8516 8.31055C22.7969 8.72461 22.7148 9.14648 22.6055 9.57617C22.5039 9.6543 22.4414 9.75195 22.418 9.86914C22.3945 9.98633 22.3555 10.0957 22.3008 10.1973C22.2539 10.2832 22.1914 10.377 22.1133 10.4785C22.0352 10.5723 21.9492 10.6738 21.8555 10.7832C21.7617 10.8848 21.668 10.9902 21.5742 11.0996C21.4805 11.209 21.4023 11.3184 21.3398 11.4277C21.1055 11.5059 20.9375 11.6738 20.8359 11.9316C20.7109 11.9785 20.582 12.0332 20.4492 12.0957C20.3164 12.1504 20.2227 12.248 20.168 12.3887C19.8789 12.5371 19.6055 12.709 19.3477 12.9043C19.0977 13.0918 18.8242 13.2559 18.5273 13.3965C18.4883 13.4355 18.4414 13.4668 18.3867 13.4902C18.3398 13.5059 18.2891 13.5254 18.2344 13.5488C18.1875 13.5723 18.1406 13.5996 18.0938 13.6309C18.0547 13.6699 18.0312 13.7168 18.0234 13.7715C17.9922 13.7715 17.9688 13.7637 17.9531 13.748C17.9453 13.7402 17.9219 13.7324 17.8828 13.7246C17.7969 13.7715 17.7578 13.8457 17.7656 13.9473C17.7344 13.9316 17.6914 13.9238 17.6367 13.9238C17.543 13.9238 17.4492 13.9512 17.3555 14.0059C17.2695 14.0684 17.1953 14.1309 17.1328 14.1934C17.0391 14.2402 16.9297 14.2871 16.8047 14.334C16.6875 14.3809 16.6016 14.459 16.5469 14.5684C16.5156 14.5371 16.4688 14.5215 16.4062 14.5215C16.3359 14.5215 16.2617 14.541 16.1836 14.5801C16.1055 14.627 16.0469 14.6777 16.0078 14.7324C15.8984 14.7324 15.793 14.748 15.6914 14.7793C15.5977 14.8184 15.5 14.8535 15.3984 14.8848C15.2969 14.9238 15.1953 14.959 15.0938 14.9902C15 15.0215 14.8984 15.0371 14.7891 15.0371C14.7266 15.0371 14.6797 15.0215 14.6484 14.9902C14.6172 14.959 14.5781 14.9316 14.5312 14.9082C14.4922 14.9395 14.4219 14.9746 14.3203 15.0137C14.2266 15.0527 14.1562 15.0723 14.1094 15.0723C14.0234 15.0723 13.9375 15.0605 13.8516 15.0371C13.7734 15.0137 13.6914 14.9863 13.6055 14.9551L13.3594 14.873C13.2812 14.8496 13.1953 14.834 13.1016 14.8262C13.0312 14.7637 12.9453 14.6973 12.8438 14.627C12.75 14.5645 12.6562 14.5449 12.5625 14.5684C12.5234 14.4512 12.4648 14.3496 12.3867 14.2637C12.3086 14.1777 12.2188 14.0996 12.1172 14.0293C12.0938 14.0137 12.0664 13.998 12.0352 13.9824C12.0117 13.9746 11.9922 13.9629 11.9766 13.9473C11.9375 13.9238 11.9023 13.877 11.8711 13.8066C11.8398 13.7363 11.8047 13.7012 11.7656 13.7012C11.7578 13.7012 11.7461 13.7051 11.7305 13.7129C11.7227 13.7207 11.7148 13.7246 11.707 13.7246C11.6914 13.6543 11.668 13.5879 11.6367 13.5254C11.6055 13.4551 11.5508 13.4121 11.4727 13.3965C11.4102 13.1934 11.3672 12.9902 11.3438 12.7871C11.3203 12.584 11.2891 12.3809 11.25 12.1777C11.2344 12.1152 11.2148 12.041 11.1914 11.9551C11.1758 11.8613 11.168 11.7793 11.168 11.709C11.168 11.5918 11.1836 11.4512 11.2148 11.2871C11.2539 11.123 11.2852 10.9785 11.3086 10.8535C11.4023 10.4004 11.5273 9.96289 11.6836 9.54102C11.8398 9.11133 12.0078 8.68555 12.1875 8.26367C12.375 7.8418 12.5664 7.42383 12.7617 7.00977C12.957 6.5957 13.1406 6.17383 13.3125 5.74414C13.3438 5.74414 13.3633 5.73633 13.3711 5.7207L13.4062 5.66211C13.4219 5.63867 13.4336 5.61914 13.4414 5.60352C13.457 5.58789 13.4844 5.58008 13.5234 5.58008V5.54492C13.5156 5.49805 13.5234 5.45898 13.5469 5.42773C13.5781 5.39648 13.5859 5.3457 13.5703 5.27539C13.6953 5.13477 13.8008 4.97852 13.8867 4.80664C13.9727 4.62695 14.0586 4.45117 14.1445 4.2793C14.2383 4.10742 14.3359 3.93945 14.4375 3.77539C14.5391 3.61133 14.668 3.4707 14.8242 3.35352V3.27148C14.8164 3.23242 14.8164 3.19336 14.8242 3.1543C14.8398 3.10742 14.8672 3.07617 14.9062 3.06055C15.0469 2.91992 15.1641 2.7793 15.2578 2.63867C15.3516 2.49805 15.4453 2.36133 15.5391 2.22852C15.6406 2.08789 15.75 1.95898 15.8672 1.8418C15.9922 1.7168 16.1484 1.60352 16.3359 1.50195C16.4219 1.46289 16.4844 1.4043 16.5234 1.32617C16.5625 1.24805 16.6133 1.19336 16.6758 1.16211C16.707 1.14648 16.7383 1.13867 16.7695 1.13867C16.8086 1.13086 16.8438 1.11914 16.875 1.10352C17.0078 1.06445 17.1406 1.01758 17.2734 0.962891C17.4062 0.900391 17.5469 0.869141 17.6953 0.869141C17.8828 0.869141 18.0234 0.923828 18.1172 1.0332C18.2188 1.13477 18.2969 1.25977 18.3516 1.4082C18.4141 1.55664 18.4648 1.71289 18.5039 1.87695C18.543 2.04102 18.6055 2.18164 18.6914 2.29883C18.9258 2.31445 19.1641 2.3418 19.4062 2.38086C19.6484 2.41211 19.8594 2.50977 20.0391 2.67383C20.0547 2.68164 20.0742 2.68555 20.0977 2.68555C20.1367 2.68555 20.1562 2.66992 20.1562 2.63867C20.1562 2.60742 20.1758 2.5918 20.2148 2.5918H20.25C20.4844 2.73242 20.707 2.88867 20.918 3.06055C21.1367 3.22461 21.3516 3.39648 21.5625 3.57617C21.6016 3.60742 21.6406 3.63867 21.6797 3.66992C21.7266 3.69336 21.7656 3.72461 21.7969 3.76367C21.8359 3.81055 21.8711 3.86523 21.9023 3.92773C21.9414 3.99023 21.9766 4.04492 22.0078 4.0918C22.3984 4.77148 22.6602 5.50195 22.793 6.2832C22.8086 6.36914 22.8203 6.45117 22.8281 6.5293C22.8438 6.60742 22.8516 6.68164 22.8516 6.75195C22.8516 6.82227 22.8672 6.86914 22.8984 6.89258C22.9297 6.9082 22.9453 6.94727 22.9453 7.00977ZM22.043 7.60742C22.043 7.29492 22.0039 6.99414 21.9258 6.70508C21.9648 6.68945 21.9883 6.66602 21.9961 6.63477C22.0117 6.5957 22.0195 6.55664 22.0195 6.51758V6.45898L21.8789 6.20117C21.8711 6.0918 21.8477 5.99023 21.8086 5.89648C21.7773 5.80273 21.7383 5.70898 21.6914 5.61523C21.6445 5.52148 21.5977 5.42773 21.5508 5.33398C21.5117 5.24023 21.4844 5.13867 21.4688 5.0293C21.3438 4.93555 21.2305 4.83008 21.1289 4.71289C21.0352 4.58789 20.9492 4.45898 20.8711 4.32617C20.8164 4.30273 20.7656 4.28711 20.7188 4.2793C20.6719 4.27148 20.6562 4.22852 20.6719 4.15039C20.5312 4.11133 20.4023 4.05664 20.2852 3.98633C20.1758 3.9082 20.0664 3.82227 19.957 3.72852C19.7773 3.68945 19.5977 3.64258 19.418 3.58789C19.2461 3.52539 19.0703 3.49414 18.8906 3.49414C18.7656 3.49414 18.6445 3.51758 18.5273 3.56445C18.5664 3.62695 18.5859 3.69727 18.5859 3.77539C18.5859 3.8457 18.5938 3.91602 18.6094 3.98633C18.8594 4.04883 19.0117 4.20117 19.0664 4.44336C19.0273 4.4668 18.9922 4.49805 18.9609 4.53711C18.9297 4.56836 18.8984 4.59961 18.8672 4.63086C18.8438 4.6543 18.8125 4.67773 18.7734 4.70117C18.7344 4.72461 18.6875 4.73633 18.6328 4.73633C18.5234 4.73633 18.4375 4.7168 18.375 4.67773C18.3203 4.63867 18.2305 4.63086 18.1055 4.6543C17.9727 4.53711 17.8438 4.41602 17.7188 4.29102C17.5938 4.1582 17.4531 4.04102 17.2969 3.93945C17.2734 3.86133 17.2344 3.79102 17.1797 3.72852C17.1328 3.66602 17.082 3.60742 17.0273 3.55273C16.9805 3.49023 16.9336 3.42773 16.8867 3.36523C16.8477 3.29492 16.8281 3.2168 16.8281 3.13086C16.8281 3.07617 16.832 3.03711 16.8398 3.01367C16.793 2.99805 16.7578 2.99023 16.7344 2.99023C16.6719 2.99023 16.6133 3.01367 16.5586 3.06055C16.5039 3.09961 16.4414 3.12695 16.3711 3.14258C16.3086 3.33008 16.2188 3.49414 16.1016 3.63477C15.9844 3.77539 15.8633 3.91211 15.7383 4.04492C15.6133 4.17773 15.4961 4.31836 15.3867 4.4668C15.2852 4.60742 15.2109 4.7832 15.1641 4.99414C14.9141 5.30664 14.6836 5.66211 14.4727 6.06055C14.2617 6.45117 14.1016 6.83398 13.9922 7.20898C13.8125 7.41211 13.6719 7.62695 13.5703 7.85352C13.4688 8.08008 13.4102 8.33008 13.3945 8.60352C13.3555 8.62695 13.3242 8.6582 13.3008 8.69727L13.1836 8.93164C13.168 8.9707 13.1406 9.00195 13.1016 9.02539V9.08398C13.1016 9.14648 13.0898 9.20508 13.0664 9.25977C13.043 9.30664 13.0156 9.35352 12.9844 9.40039C12.9609 9.44727 12.9375 9.49414 12.9141 9.54102C12.8906 9.58008 12.8789 9.62695 12.8789 9.68164C12.8789 9.74414 12.8945 9.80664 12.9258 9.86914C12.8398 9.88477 12.7812 9.93164 12.75 10.0098C12.7266 10.0801 12.6914 10.1426 12.6445 10.1973C12.6133 10.4473 12.582 10.7012 12.5508 10.959C12.5195 11.2168 12.5039 11.4707 12.5039 11.7207C12.5039 12.0098 12.5352 12.3027 12.5977 12.5996C12.668 12.6699 12.7305 12.748 12.7852 12.834C12.8398 12.9199 12.8945 13.002 12.9492 13.0801C13.0117 13.1582 13.0781 13.2285 13.1484 13.291C13.2188 13.3457 13.3125 13.3809 13.4297 13.3965C13.4297 13.4512 13.4414 13.4902 13.4648 13.5137C13.4883 13.5371 13.5078 13.5684 13.5234 13.6074C13.6875 13.6621 13.8594 13.7051 14.0391 13.7363C14.2188 13.7754 14.3984 13.7949 14.5781 13.7949C14.7031 13.7949 14.8281 13.7793 14.9531 13.748C15.0859 13.7168 15.1953 13.6543 15.2812 13.5605C15.6797 13.5449 16.0742 13.4512 16.4648 13.2793C16.8633 13.1074 17.2266 12.9199 17.5547 12.7168H17.8008C17.8867 12.5996 17.9922 12.5059 18.1172 12.4355C18.2422 12.3574 18.3711 12.2871 18.5039 12.2246C18.5273 12.209 18.5586 12.1934 18.5977 12.1777C18.6367 12.1621 18.668 12.1465 18.6914 12.1309C18.7773 12.0684 18.8633 11.998 18.9492 11.9199C19.043 11.8418 19.1367 11.7676 19.2305 11.6973C19.3867 11.5801 19.5469 11.4668 19.7109 11.3574C19.875 11.248 20.0312 11.1309 20.1797 11.0059C20.3359 10.8809 20.4805 10.748 20.6133 10.6074C20.7539 10.459 20.8711 10.2949 20.9648 10.1152C21.0117 10.1152 21.0469 10.1035 21.0703 10.0801C21.1016 10.0488 21.125 10.0176 21.1406 9.98633C21.1641 9.95508 21.1875 9.92773 21.2109 9.9043C21.2422 9.88086 21.2852 9.86914 21.3398 9.86914C21.3398 9.79883 21.3516 9.74023 21.375 9.69336C21.4062 9.63867 21.4375 9.5918 21.4688 9.55273C21.5078 9.50586 21.543 9.46289 21.5742 9.42383C21.6133 9.38477 21.6484 9.33398 21.6797 9.27148V8.94336C21.8047 8.74023 21.8945 8.52539 21.9492 8.29883C22.0117 8.07227 22.043 7.8418 22.043 7.60742ZM36.5039 0.751953C36.5039 0.822266 36.5 0.892578 36.4922 0.962891C36.4922 1.0332 36.4883 1.09961 36.4805 1.16211C36.457 1.20117 36.4102 1.2168 36.3398 1.20898C36.2773 1.20117 36.2266 1.19727 36.1875 1.19727C36.1484 1.19727 36.1133 1.20508 36.082 1.2207C36.0586 1.22852 36.0469 1.25195 36.0469 1.29102C36.0469 1.33789 36.0508 1.36914 36.0586 1.38477C35.9961 1.37695 35.9297 1.36914 35.8594 1.36133C35.7891 1.35352 35.7266 1.33008 35.6719 1.29102C35.5625 1.31445 35.457 1.3457 35.3555 1.38477C35.2617 1.42383 35.168 1.4668 35.0742 1.51367C34.9805 1.56055 34.8828 1.60352 34.7812 1.64258C34.6797 1.68164 34.5742 1.70508 34.4648 1.71289C34.3945 1.79102 34.3047 1.84961 34.1953 1.88867C34.0859 1.92773 33.9727 1.96289 33.8555 1.99414C33.7383 2.02539 33.6289 2.06445 33.5273 2.11133C33.4258 2.15039 33.3438 2.21289 33.2812 2.29883C33.1094 2.31445 32.9453 2.35742 32.7891 2.42773C32.6328 2.49805 32.4766 2.57227 32.3203 2.65039C32.1719 2.72852 32.0195 2.80273 31.8633 2.87305C31.707 2.94336 31.5391 2.99023 31.3594 3.01367C31.3125 3.06055 31.2539 3.09961 31.1836 3.13086C31.1211 3.16211 31.0547 3.19336 30.9844 3.22461C30.9141 3.24805 30.8477 3.27539 30.7852 3.30664C30.7227 3.33789 30.6719 3.38086 30.6328 3.43555H30.6094C30.5781 3.43555 30.5547 3.42773 30.5391 3.41211C30.5234 3.39648 30.5 3.38867 30.4688 3.38867C30.4453 3.38867 30.4297 3.39258 30.4219 3.40039C30.2344 3.48633 30.0469 3.57617 29.8594 3.66992C29.6719 3.76367 29.4766 3.85352 29.2734 3.93945C28.875 4.10352 28.4727 4.26367 28.0664 4.41992C27.6602 4.57617 27.2695 4.76758 26.8945 4.99414C26.8086 5.30664 26.7383 5.62695 26.6836 5.95508C26.6289 6.27539 26.5312 6.58398 26.3906 6.88086V7.43164C26.3125 7.58008 26.2617 7.74414 26.2383 7.92383C26.2148 8.10352 26.2031 8.27539 26.2031 8.43945C26.2031 8.50195 26.2031 8.56055 26.2031 8.61523C26.2109 8.66211 26.2148 8.71289 26.2148 8.76758C26.4414 8.70508 26.6602 8.63477 26.8711 8.55664C27.0898 8.47852 27.3086 8.4082 27.5273 8.3457C27.6367 8.30664 27.7461 8.2793 27.8555 8.26367C27.9727 8.24805 28.0859 8.2207 28.1953 8.18164C28.2812 8.1582 28.3711 8.12695 28.4648 8.08789C28.5586 8.04102 28.6484 7.99805 28.7344 7.95898C28.9688 7.85742 29.207 7.76758 29.4492 7.68945C29.6992 7.61133 29.9531 7.55273 30.2109 7.51367C30.2891 7.45117 30.375 7.39258 30.4688 7.33789C30.5625 7.2832 30.6562 7.25586 30.75 7.25586C30.8203 7.25586 30.8789 7.26758 30.9258 7.29102C31.0586 7.21289 31.2148 7.14258 31.3945 7.08008C31.5742 7.01758 31.7422 6.99414 31.8984 7.00977C31.9375 6.95508 31.9844 6.91992 32.0391 6.9043C32.0938 6.88086 32.1523 6.86914 32.2148 6.86914C32.2461 6.86914 32.2734 6.87305 32.2969 6.88086C32.3281 6.88086 32.3633 6.88086 32.4023 6.88086C32.4805 6.82617 32.5664 6.78711 32.6602 6.76367C32.7539 6.74023 32.8477 6.7207 32.9414 6.70508C33.0352 6.68945 33.125 6.66992 33.2109 6.64648C33.3047 6.61523 33.3867 6.56836 33.457 6.50586C33.5664 6.51367 33.6523 6.54492 33.7148 6.59961C33.7852 6.6543 33.8438 6.7207 33.8906 6.79883C33.9375 6.87695 33.9766 6.95898 34.0078 7.04492C34.0391 7.13086 34.0781 7.21289 34.125 7.29102C34.1094 7.35352 34.0859 7.4043 34.0547 7.44336C34.0234 7.47461 33.9883 7.50586 33.9492 7.53711C33.9102 7.56836 33.875 7.59961 33.8438 7.63086C33.8125 7.66211 33.793 7.70508 33.7852 7.75977C33.5117 7.75977 33.2461 7.79883 32.9883 7.87695C32.7383 7.95508 32.4883 8.04492 32.2383 8.14648C31.9961 8.24805 31.7461 8.3457 31.4883 8.43945C31.2383 8.52539 30.9805 8.58008 30.7148 8.60352C30.6758 8.64258 30.625 8.67383 30.5625 8.69727L30.3867 8.75586C30.332 8.77148 30.2812 8.79492 30.2344 8.82617C30.1875 8.84961 30.1523 8.88867 30.1289 8.94336C30.082 8.91992 30.0312 8.9082 29.9766 8.9082C29.8438 8.9082 29.7148 8.94336 29.5898 9.01367C29.4648 9.08398 29.3242 9.11914 29.168 9.11914C29.1055 9.11914 29.0625 9.11523 29.0391 9.10742C29 9.17773 28.9414 9.22852 28.8633 9.25977C28.793 9.29102 28.7148 9.31836 28.6289 9.3418C28.5508 9.35742 28.4727 9.38086 28.3945 9.41211C28.3242 9.44336 28.2695 9.49805 28.2305 9.57617C28.207 9.56836 28.1797 9.56445 28.1484 9.56445H28.0781C27.9531 9.56445 27.8086 9.58789 27.6445 9.63477C27.4883 9.67383 27.375 9.75195 27.3047 9.86914C27.2422 9.85352 27.1875 9.8457 27.1406 9.8457C27.0312 9.8457 26.9336 9.86914 26.8477 9.91602C26.7617 9.95508 26.6758 10.002 26.5898 10.0566L26.332 10.2207C26.2461 10.2754 26.1523 10.3145 26.0508 10.3379C25.8477 10.627 25.707 10.959 25.6289 11.334C25.5508 11.709 25.4922 12.0996 25.4531 12.5059C25.4219 12.9121 25.3906 13.3145 25.3594 13.7129C25.3281 14.1191 25.2656 14.4902 25.1719 14.8262C25.2188 14.9512 25.2539 15.084 25.2773 15.2246C25.3008 15.3652 25.3203 15.5059 25.3359 15.6465C25.3516 15.7949 25.3672 15.9434 25.3828 16.0918C25.3984 16.2402 25.4258 16.3809 25.4648 16.5137C25.5039 16.6777 25.5781 16.8223 25.6875 16.9473C25.8047 17.0801 25.8867 17.2285 25.9336 17.3926C25.9727 17.4004 26.0117 17.4043 26.0508 17.4043C26.0977 17.4121 26.1445 17.416 26.1914 17.416C26.4727 17.416 26.7188 17.3613 26.9297 17.252C27.1484 17.1426 27.3516 17.0059 27.5391 16.8418C27.7266 16.6855 27.9062 16.5137 28.0781 16.3262C28.2578 16.1465 28.4492 15.9863 28.6523 15.8457H28.875C28.9297 15.7832 28.9766 15.7168 29.0156 15.6465C29.0547 15.5762 29.0977 15.5098 29.1445 15.4473C29.1914 15.3848 29.2461 15.3301 29.3086 15.2832C29.3711 15.2441 29.4492 15.2168 29.543 15.2012C29.5664 15.084 29.6211 14.9941 29.707 14.9316C29.793 14.8691 29.8516 14.7754 29.8828 14.6504C29.8984 14.6582 29.918 14.6621 29.9414 14.6621C30.0039 14.6621 30.0508 14.6465 30.082 14.6152L30.2578 14.4512C30.3203 14.3887 30.3867 14.3262 30.457 14.2637C30.5352 14.209 30.6094 14.1543 30.6797 14.0996C30.9062 13.9355 31.1328 13.7715 31.3594 13.6074C31.5859 13.4512 31.793 13.2676 31.9805 13.0566C31.9883 13.0645 32 13.0684 32.0156 13.0684C32.0781 13.0684 32.1211 13.0488 32.1445 13.0098C32.168 12.9707 32.2227 12.959 32.3086 12.9746C32.3555 12.9043 32.3984 12.834 32.4375 12.7637C32.4766 12.6855 32.5078 12.6035 32.5312 12.5176L32.9062 12.5645C33.0312 12.5801 33.1562 12.5879 33.2812 12.5879C33.3203 12.5879 33.3555 12.5879 33.3867 12.5879C33.4258 12.5801 33.4609 12.5684 33.4922 12.5527C33.5859 12.7012 33.6367 12.8613 33.6445 13.0332C33.6523 13.1973 33.6719 13.3613 33.7031 13.5254C33.6875 13.5254 33.6758 13.5254 33.668 13.5254C33.668 13.5176 33.6602 13.5137 33.6445 13.5137C33.6055 13.5137 33.5664 13.5293 33.5273 13.5605C33.4961 13.584 33.4609 13.6152 33.4219 13.6543L33.3047 13.7715C33.2656 13.8105 33.2305 13.8418 33.1992 13.8652C33.1133 13.9199 33.0234 13.9668 32.9297 14.0059C32.8359 14.0527 32.7461 14.0996 32.6602 14.1465C32.5742 14.1934 32.4922 14.248 32.4141 14.3105C32.3359 14.3809 32.2734 14.4668 32.2266 14.5684C32.0703 14.6309 31.918 14.6973 31.7695 14.7676C31.6289 14.8379 31.4922 14.9121 31.3594 14.9902C31.3203 15.0293 31.2852 15.0684 31.2539 15.1074C31.2227 15.1465 31.1992 15.1895 31.1836 15.2363C30.9727 15.3066 30.7969 15.4121 30.6562 15.5527C30.5234 15.6934 30.3867 15.8457 30.2461 16.0098L30.2344 15.998C30.1797 15.998 30.1445 16.0176 30.1289 16.0566C30.1211 16.0957 30.0781 16.1074 30 16.0918C29.8516 16.2559 29.6953 16.4082 29.5312 16.5488C29.3672 16.6895 29.1992 16.8301 29.0273 16.9707C28.8555 17.1113 28.6836 17.252 28.5117 17.3926C28.3398 17.541 28.1797 17.6973 28.0312 17.8613C27.9297 17.8926 27.832 17.9316 27.7383 17.9785C27.6445 18.0254 27.5742 18.0957 27.5273 18.1895H27.4922C27.4062 18.1895 27.3438 18.209 27.3047 18.248C27.2734 18.2871 27.2344 18.3379 27.1875 18.4004C27.0234 18.4395 26.8555 18.4824 26.6836 18.5293C26.5117 18.5762 26.3359 18.5996 26.1562 18.5996C26.0312 18.5996 25.9102 18.5762 25.793 18.5293C25.6836 18.4824 25.5742 18.4199 25.4648 18.3418C25.3633 18.2715 25.2656 18.1934 25.1719 18.1074C25.0859 18.0215 25.0039 17.9395 24.9258 17.8613C24.8789 17.7051 24.8164 17.541 24.7383 17.3691C24.668 17.2051 24.6328 17.0449 24.6328 16.8887C24.6328 16.8496 24.6367 16.8105 24.6445 16.7715C24.6602 16.7402 24.668 16.709 24.668 16.6777C24.668 16.623 24.6484 16.5996 24.6094 16.6074C24.5781 16.6152 24.5547 16.5957 24.5391 16.5488C24.5234 16.4707 24.5117 16.3809 24.5039 16.2793C24.5039 16.1855 24.4961 16.0957 24.4805 16.0098C24.457 15.8301 24.4258 15.6465 24.3867 15.459C24.3555 15.2715 24.3203 15.0879 24.2812 14.9082C24.3125 14.8926 24.3359 14.8652 24.3516 14.8262C24.375 14.7949 24.3984 14.7637 24.4219 14.7324C24.3984 14.6699 24.375 14.5996 24.3516 14.5215C24.3359 14.4512 24.3281 14.377 24.3281 14.2988C24.3281 14.1426 24.3867 14.0254 24.5039 13.9473C24.5039 13.8926 24.4883 13.8496 24.457 13.8184C24.4336 13.7949 24.4219 13.752 24.4219 13.6895C24.4219 13.6738 24.4258 13.6309 24.4336 13.5605C24.4492 13.4824 24.4648 13.3965 24.4805 13.3027C24.5039 13.209 24.5234 13.1191 24.5391 13.0332C24.5547 12.9473 24.5664 12.8887 24.5742 12.8574C24.6289 12.498 24.6758 12.1465 24.7148 11.8027C24.7539 11.4512 24.8086 11.0996 24.8789 10.748C24.8008 10.6855 24.6992 10.6387 24.5742 10.6074C24.457 10.5684 24.375 10.5176 24.3281 10.4551C24.2891 10.4004 24.2578 10.3301 24.2344 10.2441C24.2109 10.1582 24.1992 10.084 24.1992 10.0215C24.1992 9.79492 24.2891 9.61523 24.4688 9.48242C24.6484 9.3418 24.8398 9.25977 25.043 9.23633C25.1445 8.96289 25.2188 8.68555 25.2656 8.4043C25.3203 8.11523 25.3633 7.82617 25.3945 7.53711L25.4883 6.6582C25.5195 6.36133 25.5664 6.06836 25.6289 5.7793H25.5586C25.4023 5.7793 25.25 5.80273 25.1016 5.84961C24.9531 5.89648 24.8008 5.91992 24.6445 5.91992H24.6211C24.3945 5.74023 24.2812 5.52539 24.2812 5.27539C24.2812 5.12695 24.3125 4.97852 24.375 4.83008C24.5 4.7832 24.6133 4.7207 24.7148 4.64258C24.8164 4.56445 24.918 4.48633 25.0195 4.4082C25.1289 4.32227 25.2383 4.24805 25.3477 4.18555C25.457 4.12305 25.5781 4.08398 25.7109 4.06836C25.7266 3.8418 25.7656 3.61523 25.8281 3.38867C25.8906 3.16211 25.9219 2.93555 25.9219 2.70898C25.9219 2.66211 25.918 2.61523 25.9102 2.56836C25.9102 2.52148 25.9023 2.47461 25.8867 2.42773C25.9414 2.35742 25.9766 2.2832 25.9922 2.20508C26.0156 2.12695 26.0273 2.04492 26.0273 1.95898C26.0273 1.86523 26.0195 1.77539 26.0039 1.68945C25.9961 1.5957 25.9844 1.50586 25.9688 1.41992C26.0391 1.38867 26.0938 1.35742 26.1328 1.32617C26.1719 1.28711 26.207 1.25195 26.2383 1.2207C26.2773 1.18945 26.3242 1.16211 26.3789 1.13867C26.4336 1.11523 26.5117 1.10352 26.6133 1.10352C26.7617 1.10352 26.8867 1.13477 26.9883 1.19727C27.0977 1.25195 27.1914 1.32617 27.2695 1.41992C27.3477 1.51367 27.4141 1.61914 27.4688 1.73633C27.5312 1.85352 27.5898 1.9707 27.6445 2.08789C27.6289 2.17383 27.5938 2.23633 27.5391 2.27539C27.4844 2.31445 27.4375 2.36523 27.3984 2.42773C27.4141 2.55273 27.4297 2.67383 27.4453 2.79102C27.4609 2.90039 27.4609 3.01758 27.4453 3.14258C27.5234 3.18164 27.5977 3.20117 27.668 3.20117C27.7852 3.20117 27.8906 3.16992 27.9844 3.10742C28.0859 3.04492 28.1562 2.95898 28.1953 2.84961H28.2188C28.2422 2.84961 28.2617 2.85742 28.2773 2.87305C28.3008 2.88867 28.3281 2.89648 28.3594 2.89648H28.4062C28.4922 2.81836 28.5859 2.75977 28.6875 2.7207C28.7891 2.67383 28.8945 2.63086 29.0039 2.5918C29.1133 2.55273 29.2188 2.51367 29.3203 2.47461C29.4297 2.42773 29.5312 2.36914 29.625 2.29883C29.6719 2.32227 29.7227 2.33398 29.7773 2.33398C29.8555 2.33398 29.9297 2.31836 30 2.28711C30.0781 2.25586 30.1523 2.22461 30.2227 2.19336C30.293 2.1543 30.3672 2.11914 30.4453 2.08789C30.5312 2.05664 30.6211 2.04102 30.7148 2.04102C30.7305 2.04102 30.75 2.04492 30.7734 2.05273C30.7969 2.05273 30.8164 2.05273 30.832 2.05273C30.8867 2.05273 30.918 2.0332 30.9258 1.99414C30.9336 1.95508 30.9336 1.91992 30.9258 1.88867C31.1758 1.82617 31.3906 1.75586 31.5703 1.67773C31.7578 1.5918 31.9648 1.49414 32.1914 1.38477C32.1914 1.37695 32.1992 1.37305 32.2148 1.37305C32.2383 1.37305 32.2539 1.38477 32.2617 1.4082C32.2695 1.43164 32.2734 1.45117 32.2734 1.4668C32.3203 1.44336 32.3438 1.4043 32.3438 1.34961C32.3516 1.29492 32.3711 1.24805 32.4023 1.20898C32.4336 1.2168 32.4766 1.2207 32.5312 1.2207C32.6016 1.2207 32.6719 1.20508 32.7422 1.17383C32.8203 1.14258 32.8945 1.10742 32.9648 1.06836C33.0352 1.0293 33.1055 0.994141 33.1758 0.962891C33.2461 0.931641 33.3164 0.916016 33.3867 0.916016C33.4492 0.916016 33.5 0.931641 33.5391 0.962891C33.5859 0.939453 33.6328 0.908203 33.6797 0.869141C33.7266 0.822266 33.7773 0.798828 33.832 0.798828C33.8477 0.798828 33.8594 0.802734 33.8672 0.810547C33.8828 0.818359 33.8984 0.826172 33.9141 0.833984C33.9531 0.794922 33.9883 0.763672 34.0195 0.740234C34.0586 0.716797 34.0781 0.677734 34.0781 0.623047C34.3672 0.591797 34.6328 0.529297 34.875 0.435547C35.125 0.333984 35.3633 0.201172 35.5898 0.0371094C35.6758 0.0527344 35.7578 0.0722656 35.8359 0.0957031C35.9219 0.111328 36.0078 0.119141 36.0938 0.119141C36.1406 0.205078 36.1836 0.291016 36.2227 0.376953C36.2617 0.462891 36.3477 0.501953 36.4805 0.494141C36.4883 0.533203 36.4922 0.576172 36.4922 0.623047C36.5 0.669922 36.5039 0.712891 36.5039 0.751953ZM56.9531 8.09961C56.9375 8.19336 56.9102 8.29883 56.8711 8.41602C56.8398 8.5332 56.793 8.64258 56.7305 8.74414C56.6758 8.83789 56.6055 8.91992 56.5195 8.99023C56.4336 9.05273 56.332 9.08398 56.2148 9.08398C56.1289 9.08398 56.043 9.07617 55.957 9.06055C55.8711 9.03711 55.7812 9.02539 55.6875 9.02539C55.6484 9.02539 55.6055 9.04102 55.5586 9.07227C55.5195 9.0957 55.4805 9.10742 55.4414 9.10742C55.4023 9.10742 55.3672 9.10352 55.3359 9.0957C55.3125 9.08008 55.2812 9.07227 55.2422 9.07227C55.2188 9.07227 55.1758 9.08008 55.1133 9.0957C55.0508 9.11133 54.9844 9.12695 54.9141 9.14258C54.8438 9.1582 54.7773 9.17773 54.7148 9.20117C54.6523 9.2168 54.6094 9.22852 54.5859 9.23633C54.375 9.30664 54.1641 9.36914 53.9531 9.42383C53.7422 9.47852 53.5234 9.51367 53.2969 9.5293C53.25 9.51367 53.1797 9.49805 53.0859 9.48242C52.9922 9.45898 52.9219 9.44727 52.875 9.44727C52.7812 9.44727 52.7188 9.48633 52.6875 9.56445C52.6641 9.64258 52.6133 9.70117 52.5352 9.74023C52.4414 9.79492 52.3242 9.82617 52.1836 9.83398C52.043 9.8418 51.9023 9.85352 51.7617 9.86914C51.6211 9.88477 51.4883 9.91602 51.3633 9.96289C51.2461 10.002 51.1602 10.0801 51.1055 10.1973C51.0664 10.1895 51.0234 10.1855 50.9766 10.1855C50.9375 10.1777 50.8945 10.1738 50.8477 10.1738C50.5977 10.1738 50.3633 10.2246 50.1445 10.3262C49.9258 10.4199 49.7031 10.5059 49.4766 10.584C49.5156 10.6543 49.543 10.7402 49.5586 10.8418C49.5742 10.9434 49.5898 11.0449 49.6055 11.1465C49.6211 11.2402 49.6406 11.334 49.6641 11.4277C49.6953 11.5137 49.7461 11.5801 49.8164 11.627C49.8164 11.6738 49.8047 11.7129 49.7812 11.7441C49.7656 11.7754 49.7461 11.8027 49.7227 11.8262L49.6406 11.9082C49.6172 11.9316 49.6016 11.9668 49.5938 12.0137C49.5703 12.1074 49.5586 12.2051 49.5586 12.3066C49.5586 12.4004 49.5039 12.4707 49.3945 12.5176C49.4023 12.541 49.4062 12.584 49.4062 12.6465C49.4062 12.7246 49.3945 12.7988 49.3711 12.8691C49.3477 12.9395 49.3398 13.0176 49.3477 13.1035C49.2148 13.252 49.1016 13.4043 49.0078 13.5605C48.9219 13.7168 48.8555 13.8848 48.8086 14.0645C48.5195 14.3535 48.2227 14.6426 47.918 14.9316C47.6211 15.2285 47.3125 15.5137 46.9922 15.7871C46.6797 16.0605 46.3555 16.3184 46.0195 16.5605C45.6836 16.8105 45.3359 17.0293 44.9766 17.2168H44.8945C44.7148 17.2168 44.5742 17.248 44.4727 17.3105C44.3711 17.373 44.2422 17.4277 44.0859 17.4746C43.9688 17.4434 43.8281 17.4277 43.6641 17.4277C43.5703 17.4277 43.4727 17.4316 43.3711 17.4395C43.2773 17.4473 43.1797 17.4512 43.0781 17.4512C42.9453 17.4512 42.8242 17.4355 42.7148 17.4043C42.6133 17.373 42.5117 17.3379 42.4102 17.2988C42.3164 17.2598 42.2188 17.2207 42.1172 17.1816C42.0156 17.1426 41.9062 17.1152 41.7891 17.0996C41.3047 16.6152 40.9219 16.0488 40.6406 15.4004C40.3594 14.7598 40.2188 14.0996 40.2188 13.4199C40.2188 13.1074 40.2617 12.8027 40.3477 12.5059C40.4336 12.2012 40.4766 11.8965 40.4766 11.5918C40.6172 11.3105 40.7383 11.0215 40.8398 10.7246C40.9492 10.4277 41.0586 10.1309 41.168 9.83398C41.2773 9.53711 41.3945 9.24805 41.5195 8.9668C41.6523 8.67773 41.8086 8.4043 41.9883 8.14648C42.0273 7.94336 42.0898 7.76758 42.1758 7.61914C42.2617 7.4707 42.3555 7.30664 42.457 7.12695C42.457 6.95508 42.4922 6.79883 42.5625 6.6582C42.6406 6.50977 42.6875 6.3457 42.7031 6.16602C42.8281 6.04883 42.9297 5.91602 43.0078 5.76758C43.0859 5.61914 43.1602 5.4668 43.2305 5.31055C43.3008 5.1543 43.3789 5.00586 43.4648 4.86523C43.5586 4.7168 43.6836 4.5918 43.8398 4.49023C43.8555 4.43555 43.8633 4.37695 43.8633 4.31445C43.8711 4.24414 43.8906 4.18945 43.9219 4.15039L44.168 3.88086C44.2461 3.7793 44.3164 3.67773 44.3789 3.57617C44.4492 3.4668 44.5234 3.36914 44.6016 3.2832C44.6484 3.23633 44.6992 3.19727 44.7539 3.16602C44.8086 3.13477 44.8555 3.09961 44.8945 3.06055C44.9336 3.02148 44.9453 2.9707 44.9297 2.9082C44.9219 2.8457 44.9375 2.79492 44.9766 2.75586C44.9922 2.74023 45.0156 2.72461 45.0469 2.70898C45.0781 2.69336 45.1055 2.67773 45.1289 2.66211C45.2305 2.5918 45.3164 2.52148 45.3867 2.45117C45.457 2.38086 45.5547 2.33008 45.6797 2.29883C45.7891 2.21289 45.8867 2.12695 45.9727 2.04102C46.0664 1.95508 46.1602 1.87695 46.2539 1.80664C46.3477 1.73633 46.4492 1.68164 46.5586 1.64258C46.668 1.5957 46.8047 1.57227 46.9688 1.57227C47 1.57227 47.0312 1.57617 47.0625 1.58398C47.0938 1.58398 47.125 1.58398 47.1562 1.58398C47.4766 1.88086 47.6758 2.24414 47.7539 2.67383C47.668 2.7832 47.5977 2.90039 47.543 3.02539C47.4961 3.15039 47.4414 3.27539 47.3789 3.40039C47.2461 3.44727 47.1211 3.51758 47.0039 3.61133C46.8867 3.69727 46.7695 3.78711 46.6523 3.88086C46.543 3.97461 46.4258 4.05664 46.3008 4.12695C46.1836 4.19727 46.0508 4.23242 45.9023 4.23242C45.8398 4.28711 45.7383 4.37695 45.5977 4.50195C45.4648 4.61914 45.3242 4.74414 45.1758 4.87695C45.0352 5.00977 44.9023 5.13477 44.7773 5.25195C44.6602 5.36914 44.5859 5.45117 44.5547 5.49805C44.5312 5.53711 44.5117 5.57227 44.4961 5.60352C44.4805 5.63477 44.4648 5.66992 44.4492 5.70898L44.1445 6.22461C43.9727 6.52148 43.7969 6.81445 43.6172 7.10352C43.4375 7.38477 43.2812 7.68164 43.1484 7.99414C43.0859 8.13477 43.0352 8.27539 42.9961 8.41602C42.957 8.55664 42.918 8.70508 42.8789 8.86133C42.8633 8.9082 42.8438 8.95508 42.8203 9.00195C42.7969 9.04883 42.7773 9.0918 42.7617 9.13086C42.6758 9.29492 42.6055 9.44727 42.5508 9.58789C42.4961 9.72852 42.4648 9.89258 42.457 10.0801C42.2617 10.5176 42.0781 10.959 41.9062 11.4043C41.7422 11.8418 41.6172 12.2949 41.5312 12.7637C41.5781 12.9199 41.5977 13.0801 41.5898 13.2441C41.5898 13.4004 41.5898 13.5566 41.5898 13.7129C41.5898 13.9082 41.6016 14.0684 41.625 14.1934C41.6562 14.3262 41.6953 14.4434 41.7422 14.5449C41.7969 14.6543 41.8555 14.7637 41.918 14.873C41.9805 14.9902 42.0469 15.127 42.1172 15.2832C42.2344 15.377 42.3398 15.4746 42.4336 15.5762C42.5273 15.6855 42.6172 15.8027 42.7031 15.9277C43 16.0762 43.3008 16.1504 43.6055 16.1504C43.8242 16.1504 44.0469 16.1152 44.2734 16.0449C44.5 15.9746 44.7188 15.8848 44.9297 15.7754C45.1484 15.6738 45.3594 15.5605 45.5625 15.4355C45.7656 15.3105 45.9609 15.1895 46.1484 15.0723C46.4766 14.877 46.7617 14.666 47.0039 14.4395C47.2461 14.2129 47.4648 13.9746 47.6602 13.7246C47.8633 13.4746 48.0508 13.209 48.2227 12.9277C48.3945 12.6387 48.5742 12.334 48.7617 12.0137C48.7695 11.9746 48.7852 11.9277 48.8086 11.873L48.8789 11.6973C48.9023 11.6348 48.9219 11.5801 48.9375 11.5332C48.9609 11.4785 48.9727 11.4434 48.9727 11.4277C48.9727 11.3652 48.957 11.3223 48.9258 11.2988C48.9023 11.2676 48.8906 11.2363 48.8906 11.2051C48.8906 11.1426 48.9062 11.0996 48.9375 11.0762C48.9688 11.0527 49.0039 11.0293 49.043 11.0059C49.0898 10.9824 49.1289 10.9551 49.1602 10.9238C49.1992 10.8926 49.2188 10.834 49.2188 10.748C49.2031 10.7402 49.1758 10.7363 49.1367 10.7363C49.0977 10.7363 49.0586 10.7402 49.0195 10.748C48.9805 10.7559 48.9414 10.7598 48.9023 10.7598C48.8086 10.7598 48.7305 10.7285 48.668 10.666C48.6289 10.6816 48.5898 10.709 48.5508 10.748C48.5117 10.7793 48.4727 10.8145 48.4336 10.8535C48.4023 10.8926 48.3711 10.9277 48.3398 10.959C48.3086 10.9902 48.2812 11.0059 48.2578 11.0059C48.2188 11.0059 48.1875 10.998 48.1641 10.9824C48.1484 10.9668 48.125 10.959 48.0938 10.959C47.9609 10.959 47.8438 10.9902 47.7422 11.0527C47.6406 11.1152 47.5312 11.166 47.4141 11.2051C47.3906 11.2051 47.3672 11.2051 47.3438 11.2051C47.3203 11.1973 47.2969 11.1934 47.2734 11.1934C47.1875 11.1934 47.1016 11.209 47.0156 11.2402C46.9375 11.2637 46.8594 11.291 46.7812 11.3223C46.7109 11.3535 46.6367 11.3809 46.5586 11.4043C46.4805 11.4277 46.4023 11.4355 46.3242 11.4277C46.1523 11.4902 45.9922 11.5566 45.8438 11.627C45.7031 11.6973 45.5391 11.7246 45.3516 11.709C45.2969 11.7324 45.2383 11.7598 45.1758 11.791C45.1211 11.8145 45.0664 11.8457 45.0117 11.8848C44.9648 11.9004 44.9297 11.9082 44.9062 11.9082C44.8672 11.9082 44.8359 11.8887 44.8125 11.8496C44.75 11.9199 44.668 11.9707 44.5664 12.002C44.4648 12.0254 44.3594 12.0488 44.25 12.0723C44.1406 12.0879 44.0352 12.1113 43.9336 12.1426C43.8398 12.166 43.7656 12.2168 43.7109 12.2949C43.625 12.2246 43.5234 12.1895 43.4062 12.1895C43.2891 12.1895 43.1758 12.2129 43.0664 12.2598C42.957 12.2988 42.8398 12.3184 42.7148 12.3184C42.668 12.3184 42.6367 12.3105 42.6211 12.2949C42.5898 12.209 42.5547 12.123 42.5156 12.0371C42.4766 11.9512 42.4141 11.8887 42.3281 11.8496C42.3125 11.7637 42.2969 11.6816 42.2812 11.6035C42.2734 11.5176 42.2695 11.4355 42.2695 11.3574C42.2695 11.1465 42.332 10.9551 42.457 10.7832C42.5664 10.7441 42.6758 10.7129 42.7852 10.6895C42.9023 10.6582 43.0156 10.623 43.125 10.584C43.2109 10.5996 43.2969 10.6113 43.3828 10.6191C43.4688 10.627 43.5547 10.6309 43.6406 10.6309C43.9609 10.6309 44.2734 10.5918 44.5781 10.5137C44.8828 10.4277 45.1836 10.3379 45.4805 10.2441C45.7617 10.1582 46.0469 10.0801 46.3359 10.0098C46.625 9.93945 46.9141 9.86133 47.2031 9.77539C47.4766 9.70508 47.7461 9.62695 48.0117 9.54102C48.2773 9.44727 48.5547 9.38867 48.8438 9.36523C49.0312 9.23242 49.2578 9.14258 49.5234 9.0957C49.7969 9.04883 50.0469 8.99805 50.2734 8.94336C50.6328 8.85742 50.9883 8.77148 51.3398 8.68555C51.6914 8.5918 52.0508 8.50977 52.418 8.43945C52.8242 8.35352 53.2188 8.24805 53.6016 8.12305C53.9922 7.99805 54.3828 7.86523 54.7734 7.72461H54.8906C55.0234 7.72461 55.1602 7.70898 55.3008 7.67773C55.4414 7.64648 55.582 7.63086 55.7227 7.63086C55.7617 7.63086 55.793 7.63477 55.8164 7.64258C55.8477 7.64258 55.8789 7.64258 55.9102 7.64258C55.9336 7.64258 55.9922 7.62695 56.0859 7.5957C56.1797 7.55664 56.2461 7.5293 56.2852 7.51367C56.3867 7.62305 56.5 7.7207 56.625 7.80664C56.75 7.89258 56.8594 7.99023 56.9531 8.09961ZM61.3711 16.3496C61.3477 16.4824 61.293 16.5762 61.207 16.6309C61.1289 16.6934 61.0547 16.7793 60.9844 16.8887H60.9375C60.8594 16.8887 60.7812 16.8965 60.7031 16.9121C60.6328 16.9277 60.5586 16.9473 60.4805 16.9707C60.4414 16.9551 60.3945 16.9434 60.3398 16.9355C60.2852 16.9277 60.25 16.9004 60.2344 16.8535C60.1719 16.8848 60.0859 16.9004 59.9766 16.9004C59.7969 16.9004 59.625 16.8496 59.4609 16.748C59.3047 16.6465 59.1406 16.5684 58.9688 16.5137C58.9219 16.4199 58.8633 16.334 58.793 16.2559C58.7305 16.1855 58.6641 16.1152 58.5938 16.0449C58.5312 15.9746 58.4688 15.9004 58.4062 15.8223C58.3438 15.7441 58.293 15.6504 58.2539 15.541C58.2383 15.4941 58.2188 15.4668 58.1953 15.459C58.1719 15.4512 58.1367 15.4512 58.0898 15.459C58.0977 15.373 58.0859 15.2988 58.0547 15.2363C58.0312 15.1738 57.9727 15.1348 57.8789 15.1191C57.8789 15.0176 57.8633 14.9316 57.832 14.8613C57.8008 14.791 57.7617 14.7285 57.7148 14.6738C57.6758 14.627 57.6289 14.5762 57.5742 14.5215C57.5273 14.4668 57.4883 14.4004 57.457 14.3223C57.3867 14.3066 57.3164 14.2949 57.2461 14.2871C57.1836 14.2871 57.1133 14.2871 57.0352 14.2871C56.6602 14.2871 56.2969 14.3574 55.9453 14.498C55.9062 14.5137 55.8633 14.5332 55.8164 14.5566C55.7773 14.5801 55.7383 14.5996 55.6992 14.6152C55.6836 14.6152 55.668 14.6152 55.6523 14.6152C55.6445 14.623 55.6328 14.627 55.6172 14.627C55.5625 14.627 55.5117 14.6152 55.4648 14.5918C55.418 14.5762 55.3672 14.5684 55.3125 14.5684C55.2891 14.5684 55.2617 14.5723 55.2305 14.5801C55.207 14.5957 55.1836 14.6074 55.1602 14.6152C55.043 14.6543 54.9336 14.6777 54.832 14.6855C54.5117 14.748 54.1719 14.7949 53.8125 14.8262C53.4609 14.8574 53.1367 14.9395 52.8398 15.0723C52.7773 15.1035 52.7383 15.1504 52.7227 15.2129C52.707 15.2832 52.7031 15.3496 52.7109 15.4121C52.625 15.4746 52.5586 15.5566 52.5117 15.6582C52.4727 15.7598 52.4336 15.8652 52.3945 15.9746C52.3633 16.0918 52.3281 16.2051 52.2891 16.3145C52.25 16.4238 52.1953 16.5176 52.125 16.5957C52.1484 16.6426 52.1602 16.6934 52.1602 16.748C52.1602 16.8652 52.1211 16.9824 52.043 17.0996C51.9648 17.2168 51.9062 17.3301 51.8672 17.4395C51.8281 17.5488 51.7969 17.6543 51.7734 17.7559C51.75 17.8652 51.7148 17.9629 51.668 18.0488C51.6211 18.1348 51.5586 18.2051 51.4805 18.2598C51.3945 18.3145 51.2773 18.3418 51.1289 18.3418C50.9883 18.3418 50.8672 18.3145 50.7656 18.2598C50.6641 18.2051 50.582 18.1348 50.5195 18.0488C50.457 17.9629 50.4062 17.8613 50.3672 17.7441C50.3281 17.627 50.2969 17.5098 50.2734 17.3926C50.3594 17.2207 50.4414 17.0723 50.5195 16.9473C50.5977 16.8223 50.6562 16.6621 50.6953 16.4668C50.8359 16.3652 50.9414 16.2402 51.0117 16.0918C51.0742 15.9512 51.1094 15.7949 51.1172 15.623C51.2031 15.5684 51.2656 15.4941 51.3047 15.4004C51.3359 15.3145 51.3555 15.2207 51.3633 15.1191C51.1758 15.1035 50.9805 15.0879 50.7773 15.0723C50.5664 15.0566 50.3711 15.0176 50.1914 14.9551C50.1914 14.9395 50.1953 14.9238 50.2031 14.9082C50.2031 14.8926 50.2031 14.877 50.2031 14.8613C50.2031 14.7598 50.1797 14.666 50.1328 14.5801C50.0859 14.502 50.0625 14.416 50.0625 14.3223V14.2285C50.125 14.166 50.1836 14.0996 50.2383 14.0293C50.2852 13.9668 50.3359 13.9082 50.3906 13.8535C50.4453 13.7988 50.5078 13.752 50.5781 13.7129C50.6484 13.6816 50.7383 13.666 50.8477 13.666C50.9961 13.666 51.1406 13.6738 51.2812 13.6895C51.4219 13.7129 51.5664 13.7246 51.7148 13.7246C51.8164 13.7246 51.9219 13.7129 52.0312 13.6895C52.2031 13.3379 52.3555 12.9824 52.4883 12.623C52.6211 12.2559 52.7227 11.8848 52.793 11.5098C52.8477 11.4316 52.8984 11.3418 52.9453 11.2402C52.9922 11.1309 53.0273 11.0176 53.0508 10.9004C53.082 10.7832 53.1016 10.6699 53.1094 10.5605C53.125 10.4434 53.1328 10.3379 53.1328 10.2441C53.2188 10.1426 53.2773 10.0176 53.3086 9.86914C53.3477 9.7207 53.3789 9.56836 53.4023 9.41211C53.4258 9.24805 53.4492 9.08789 53.4727 8.93164C53.5039 8.77539 53.5586 8.63867 53.6367 8.52148V8.41602C53.6445 8.29883 53.6328 8.19336 53.6016 8.09961C53.6406 8.08398 53.6641 8.04883 53.6719 7.99414C53.6797 7.93945 53.6953 7.89258 53.7188 7.85352C53.7266 7.49414 53.7656 7.14258 53.8359 6.79883C53.9062 6.44727 53.9648 6.0957 54.0117 5.74414V5.70898C54.0117 5.66992 53.9961 5.65039 53.9648 5.65039C53.9414 5.64258 53.9297 5.61914 53.9297 5.58008C53.9297 5.50977 53.9375 5.41602 53.9531 5.29883C53.9766 5.18164 53.9922 5.08398 54 5.00586C54.0469 4.58398 54.0703 4.16602 54.0703 3.75195C54.0703 3.40039 54.0586 3.05273 54.0352 2.70898C54.0117 2.36523 53.9883 2.01758 53.9648 1.66602L54.0586 1.52539C54.0898 1.47852 54.1172 1.43164 54.1406 1.38477C54.2188 1.35352 54.2812 1.32227 54.3281 1.29102C54.3828 1.25195 54.4531 1.23242 54.5391 1.23242C54.5625 1.23242 54.582 1.23633 54.5977 1.24414C54.6133 1.24414 54.6289 1.24414 54.6445 1.24414C54.6914 1.27539 54.7266 1.31836 54.75 1.37305C54.7812 1.42773 54.8086 1.47852 54.832 1.52539C54.8633 1.57227 54.9023 1.61133 54.9492 1.64258C54.9961 1.67383 55.0625 1.68164 55.1484 1.66602C55.1875 1.88477 55.2969 1.99805 55.4766 2.00586C55.5156 2.11523 55.5625 2.22461 55.6172 2.33398C55.6797 2.44336 55.7617 2.5293 55.8633 2.5918C55.8555 2.62305 55.8516 2.66602 55.8516 2.7207C55.8516 2.83008 55.875 2.93555 55.9219 3.03711C55.9766 3.13867 56.043 3.23242 56.1211 3.31836V3.3418C56.1211 3.42773 56.0898 3.48633 56.0273 3.51758C56.0977 3.5957 56.1484 3.68945 56.1797 3.79883C56.2109 3.9082 56.2383 4.02148 56.2617 4.13867C56.2852 4.24805 56.3125 4.35352 56.3438 4.45508C56.3828 4.55664 56.4453 4.63477 56.5312 4.68945V4.72461C56.5312 4.76367 56.5156 4.78711 56.4844 4.79492C56.4609 4.80273 56.4492 4.82617 56.4492 4.86523C56.5898 5.12305 56.6875 5.4043 56.7422 5.70898C56.7969 6.01367 56.8672 6.30664 56.9531 6.58789C56.9844 6.61914 57.0195 6.63867 57.0586 6.64648C57.1055 6.6543 57.1406 6.67383 57.1641 6.70508C57.1172 6.73633 57.0938 6.79102 57.0938 6.86914C57.0938 6.94727 57.0742 7.00586 57.0352 7.04492C57.0977 7.09961 57.125 7.18164 57.1172 7.29102C57.1172 7.39258 57.1484 7.4668 57.2109 7.51367V7.56055C57.2109 7.5918 57.2031 7.61914 57.1875 7.64258C57.1719 7.6582 57.1641 7.68164 57.1641 7.71289V7.75977C57.2266 8.0332 57.2734 8.30664 57.3047 8.58008C57.3438 8.85352 57.3828 9.12695 57.4219 9.40039C57.4609 9.67383 57.5039 9.94727 57.5508 10.2207C57.5977 10.4863 57.6641 10.748 57.75 11.0059C57.7578 11.0137 57.7617 11.0254 57.7617 11.041C57.7617 11.0801 57.7461 11.1035 57.7148 11.1113C57.6836 11.1113 57.668 11.1309 57.668 11.1699C57.668 11.209 57.6797 11.2559 57.7031 11.3105C57.7344 11.3574 57.7656 11.3965 57.7969 11.4277C57.7891 11.459 57.7852 11.5059 57.7852 11.5684C57.7852 11.6855 57.8047 11.7988 57.8438 11.9082C57.8906 12.0176 57.9375 12.127 57.9844 12.2363C58.0391 12.3379 58.0859 12.4473 58.125 12.5645C58.1641 12.6816 58.1797 12.8066 58.1719 12.9395C58.2188 13.0098 58.2773 13.0684 58.3477 13.1152C58.4258 13.1621 58.5039 13.2051 58.582 13.2441C58.6602 13.2832 58.7305 13.3301 58.793 13.3848C58.8633 13.4395 58.9102 13.5137 58.9336 13.6074C58.8711 13.6621 58.8281 13.7285 58.8047 13.8066C58.7812 13.8926 58.7383 13.9668 58.6758 14.0293C58.7305 14.1621 58.793 14.2832 58.8633 14.3926C58.9414 14.5098 59.0195 14.623 59.0977 14.7324L59.3438 15.0605C59.4297 15.1699 59.5039 15.2871 59.5664 15.4121C59.6523 15.4121 59.7148 15.4355 59.7539 15.4824C59.793 15.5293 59.8555 15.5488 59.9414 15.541C59.9727 15.6035 59.9844 15.6738 59.9766 15.752C60.1328 15.6973 60.2891 15.6699 60.4453 15.6699C60.5312 15.6699 60.6094 15.6738 60.6797 15.6816C60.7578 15.6895 60.8359 15.6934 60.9141 15.6934C61.0078 15.6934 61.0898 15.6816 61.1602 15.6582C61.1914 15.7051 61.2148 15.7559 61.2305 15.8105C61.2461 15.873 61.2578 15.9355 61.2656 15.998L61.3008 16.1855C61.3164 16.248 61.3398 16.3027 61.3711 16.3496ZM56.9531 13.1035C56.8438 12.5645 56.7305 12.0293 56.6133 11.498C56.5039 10.959 56.4062 10.416 56.3203 9.86914C56.2734 9.58008 56.2383 9.29102 56.2148 9.00195C56.1914 8.71289 56.1602 8.42773 56.1211 8.14648C56.0898 7.85742 56.043 7.57227 55.9805 7.29102C55.9258 7.00977 55.8438 6.73242 55.7344 6.45898V6.43555C55.7344 6.41211 55.7422 6.39258 55.7578 6.37695C55.7734 6.36133 55.7812 6.33398 55.7812 6.29492V6.24805C55.6797 6.17773 55.6094 6.08008 55.5703 5.95508C55.5312 5.82227 55.4961 5.68555 55.4648 5.54492C55.4414 5.39648 55.4062 5.25586 55.3594 5.12305C55.3203 4.98242 55.25 4.86523 55.1484 4.77148C55.1094 5.22461 55.0664 5.67773 55.0195 6.13086C54.9805 6.57617 54.9531 7.02539 54.9375 7.47852C54.8594 7.52539 54.8086 7.60352 54.7852 7.71289C54.7617 7.82227 54.75 7.91992 54.75 8.00586C54.75 8.06836 54.7539 8.13477 54.7617 8.20508C54.7695 8.26758 54.7852 8.33398 54.8086 8.4043C54.668 8.75586 54.5664 9.11914 54.5039 9.49414C54.4414 9.86133 54.3711 10.2285 54.293 10.5957C54.2852 10.6191 54.2695 10.6738 54.2461 10.7598C54.2305 10.8379 54.2109 10.9199 54.1875 11.0059C54.1641 11.0918 54.1445 11.1699 54.1289 11.2402C54.1133 11.3027 54.1055 11.3379 54.1055 11.3457C54.0977 11.4004 54.0938 11.4551 54.0938 11.5098C54.1016 11.5645 54.1055 11.6191 54.1055 11.6738L53.9297 11.8496C53.8984 12.1465 53.8398 12.4355 53.7539 12.7168C53.6758 12.9902 53.5938 13.2715 53.5078 13.5605C53.5625 13.5684 53.6133 13.5723 53.6602 13.5723C53.7148 13.5801 53.7695 13.584 53.8242 13.584C54.0742 13.584 54.3242 13.5684 54.5742 13.5371C54.832 13.498 55.0859 13.4629 55.3359 13.4316C55.4219 13.416 55.5117 13.4043 55.6055 13.3965C55.6992 13.3809 55.7891 13.373 55.875 13.373C55.9141 13.3652 55.9609 13.3652 56.0156 13.373C56.0703 13.373 56.1172 13.3691 56.1562 13.3613C56.2188 13.3457 56.2578 13.3223 56.2734 13.291C56.2969 13.252 56.3398 13.2285 56.4023 13.2207C56.4492 13.2441 56.5039 13.2559 56.5664 13.2559C56.6367 13.2559 56.7031 13.2402 56.7656 13.209C56.8281 13.1777 56.8906 13.1426 56.9531 13.1035ZM73.4883 11.5684C73.4883 11.6699 73.4609 11.7637 73.4062 11.8496C73.3516 11.9277 73.3359 12.0215 73.3594 12.1309C73.3281 12.1855 73.2852 12.2285 73.2305 12.2598C73.1836 12.291 73.168 12.3496 73.1836 12.4355C73.0195 12.5215 72.8672 12.6309 72.7266 12.7637C72.5938 12.8887 72.4492 13.0098 72.293 13.127C72.1992 13.1973 72.1172 13.248 72.0469 13.2793C71.9844 13.3027 71.9062 13.3418 71.8125 13.3965L71.5195 13.584C71.3867 13.6543 71.25 13.7246 71.1094 13.7949C70.9766 13.8652 70.8555 13.9551 70.7461 14.0645C70.582 14.0723 70.4141 14.1152 70.2422 14.1934C70.0703 14.2793 69.9062 14.3535 69.75 14.416C69.6875 14.4395 69.625 14.4551 69.5625 14.4629C69.5 14.4785 69.4375 14.502 69.375 14.5332L69.1875 14.6152C69.0781 14.6699 68.9492 14.7246 68.8008 14.7793C68.6523 14.8418 68.5195 14.873 68.4023 14.873C68.332 14.9043 68.2734 14.959 68.2266 15.0371C67.9688 15.123 67.7031 15.1895 67.4297 15.2363C67.1562 15.2832 66.8906 15.3574 66.6328 15.459C66.5469 15.498 66.457 15.5488 66.3633 15.6113C66.2773 15.6816 66.1836 15.7129 66.082 15.7051C66.0586 15.7441 66.043 15.791 66.0352 15.8457C66.0273 15.9004 66.0156 15.9551 66 16.0098H65.9648C65.9336 16.0098 65.918 15.9941 65.918 15.9629C65.9258 15.9316 65.9141 15.916 65.8828 15.916C65.8594 15.916 65.8438 15.9199 65.8359 15.9277C65.7344 15.9512 65.6367 15.9707 65.543 15.9863C65.457 16.002 65.3594 16.0098 65.25 16.0098C65.1875 16.0098 65.0859 16.002 64.9453 15.9863C64.8125 15.9707 64.7148 15.9512 64.6523 15.9277C64.6055 15.9043 64.5664 15.8613 64.5352 15.7988C64.5039 15.7363 64.4727 15.6699 64.4414 15.5996C64.418 15.5293 64.3945 15.4551 64.3711 15.377C64.3555 15.3066 64.3398 15.248 64.3242 15.2012C64.3477 15.1152 64.3867 15.0449 64.4414 14.9902C64.4961 14.9355 64.5391 14.8652 64.5703 14.7793C64.6406 14.7715 64.7109 14.7598 64.7812 14.7441C64.8516 14.7285 64.9219 14.7246 64.9922 14.7324C65.2344 14.6621 65.4766 14.5918 65.7188 14.5215C65.9688 14.459 66.2148 14.3926 66.457 14.3223C66.6992 14.252 66.9375 14.1738 67.1719 14.0879C67.4062 14.002 67.6328 13.8965 67.8516 13.7715H68.0977C68.2383 13.6934 68.3945 13.627 68.5664 13.5723C68.7383 13.5176 68.8789 13.4277 68.9883 13.3027C69.2461 13.248 69.5156 13.1738 69.7969 13.0801C70.0781 12.9863 70.3125 12.8379 70.5 12.6348C70.6172 12.6191 70.7188 12.5918 70.8047 12.5527C70.8906 12.5059 70.9727 12.459 71.0508 12.4121L71.2852 12.2598C71.3633 12.2051 71.4531 12.1621 71.5547 12.1309C71.6172 12.0684 71.6758 12.002 71.7305 11.9316C71.7852 11.8613 71.8516 11.8027 71.9297 11.7559C71.9062 11.6309 71.8438 11.5371 71.7422 11.4746C71.6406 11.4121 71.5508 11.3379 71.4727 11.252H71.2148C71.0117 11.127 70.793 11.0332 70.5586 10.9707C70.332 10.9004 70.1055 10.8262 69.8789 10.748C69.8633 10.7402 69.8438 10.7363 69.8203 10.7363C69.7656 10.7363 69.7305 10.7559 69.7148 10.7949C69.707 10.834 69.6758 10.8496 69.6211 10.8418C69.5508 10.7949 69.4766 10.7676 69.3984 10.7598C69.3203 10.7441 69.2383 10.7363 69.1523 10.7363C69.043 10.7363 68.9336 10.7441 68.8242 10.7598C68.7227 10.7676 68.6172 10.7715 68.5078 10.7715C68.4531 10.7715 68.3984 10.7676 68.3438 10.7598C68.2891 10.752 68.2344 10.7324 68.1797 10.7012H68.0273C67.8633 10.7012 67.6992 10.709 67.5352 10.7246C67.3789 10.7324 67.2227 10.7363 67.0664 10.7363C66.9805 10.7363 66.8984 10.7363 66.8203 10.7363C66.7422 10.7285 66.6641 10.7168 66.5859 10.7012C66.4219 10.7793 66.2461 10.834 66.0586 10.8652C65.8711 10.8965 65.6758 10.9199 65.4727 10.9355C65.2773 10.9512 65.082 10.9668 64.8867 10.9824C64.6914 10.9902 64.5039 11.0098 64.3242 11.041C64.2773 11.0332 64.2305 11.0293 64.1836 11.0293C64.1445 11.0215 64.1055 11.0176 64.0664 11.0176C64.0273 11.0176 63.9844 11.0215 63.9375 11.0293C63.8984 11.0293 63.8594 11.0332 63.8203 11.041C63.7188 10.9316 63.5938 10.8535 63.4453 10.8066C63.3047 10.752 63.1641 10.7168 63.0234 10.7012C62.9141 10.5684 62.832 10.4355 62.7773 10.3027C62.7305 10.1621 62.6992 10.0059 62.6836 9.83398H62.7305C62.7852 9.83398 62.8086 9.80664 62.8008 9.75195C62.8008 9.69727 62.8203 9.65039 62.8594 9.61133C62.8984 9.56445 62.9492 9.5332 63.0117 9.51758C63.082 9.49414 63.1484 9.4707 63.2109 9.44727C63.2734 9.42383 63.332 9.39648 63.3867 9.36523C63.4492 9.32617 63.4961 9.26758 63.5273 9.18945H63.6797C63.7109 9.18945 63.7422 9.19336 63.7734 9.20117C63.8125 9.20117 63.8438 9.21289 63.8672 9.23633C63.8984 9.20508 63.9375 9.17773 63.9844 9.1543C64.0312 9.13086 64.0742 9.10742 64.1133 9.08398C64.1602 9.06055 64.1992 9.0332 64.2305 9.00195C64.2617 8.9707 64.2812 8.92383 64.2891 8.86133C64.2969 8.88477 64.3164 8.89648 64.3477 8.89648C64.3789 8.89648 64.4062 8.88867 64.4297 8.87305C64.4609 8.85742 64.4961 8.85352 64.5352 8.86133C64.5742 8.75195 64.6406 8.69336 64.7344 8.68555C64.8281 8.67773 64.9141 8.65039 64.9922 8.60352C65.0469 8.57227 65.0977 8.53711 65.1445 8.49805C65.1914 8.45117 65.2422 8.4082 65.2969 8.36914L66 7.83008L67.0781 7.00977C67.4375 6.73633 67.8047 6.48242 68.1797 6.24805C68.1953 6.20117 68.2188 6.16602 68.25 6.14258C68.2812 6.11914 68.3125 6.0957 68.3438 6.07227C68.375 6.04102 68.3984 6.00977 68.4141 5.97852C68.4375 5.94727 68.4453 5.90039 68.4375 5.83789C68.5469 5.81445 68.6289 5.77148 68.6836 5.70898C68.7461 5.64648 68.8008 5.58008 68.8477 5.50977C68.8945 5.43164 68.9414 5.35742 68.9883 5.28711C69.043 5.20898 69.1133 5.15039 69.1992 5.11133C69.1914 5.08789 69.1875 5.05273 69.1875 5.00586C69.1875 4.94336 69.1914 4.88086 69.1992 4.81836C69.2148 4.75586 69.2461 4.70117 69.293 4.6543C69.2227 4.49023 69.1016 4.37305 68.9297 4.30273C68.7578 4.22461 68.5938 4.1582 68.4375 4.10352H68.4023C68.3633 4.10352 68.3398 4.12305 68.332 4.16211C68.332 4.19336 68.3125 4.2168 68.2734 4.23242C68.1484 4.20117 68.0078 4.18555 67.8516 4.18555C67.6953 4.18555 67.5391 4.19727 67.3828 4.2207C67.2344 4.24414 67.082 4.24805 66.9258 4.23242C66.9023 4.26367 66.875 4.29492 66.8438 4.32617C66.8203 4.35742 66.7891 4.38477 66.75 4.4082C66.5859 4.41602 66.4219 4.43945 66.2578 4.47852L65.7656 4.5957L65.4961 4.6543C65.457 4.66992 65.4297 4.69727 65.4141 4.73633C65.3984 4.77539 65.3867 4.81836 65.3789 4.86523C65.332 4.85742 65.3008 4.83789 65.2852 4.80664C65.2773 4.77539 65.25 4.75195 65.2031 4.73633C65.0234 4.8457 64.8281 4.93555 64.6172 5.00586C64.4141 5.07617 64.2305 5.18555 64.0664 5.33398C64.0117 5.27148 63.9336 5.24023 63.832 5.24023C63.7461 5.24023 63.6523 5.26758 63.5508 5.32227C63.4492 5.37695 63.3867 5.44727 63.3633 5.5332C63.2852 5.51758 63.2266 5.50977 63.1875 5.50977C63.1016 5.50977 63.0273 5.5332 62.9648 5.58008C62.9102 5.62695 62.8555 5.68164 62.8008 5.74414C62.7461 5.79883 62.6875 5.85352 62.625 5.9082C62.5625 5.96289 62.4844 5.99414 62.3906 6.00195C62.3906 6.04102 62.3906 6.08398 62.3906 6.13086C62.3984 6.16992 62.4023 6.21289 62.4023 6.25977C62.4023 6.61133 62.3828 6.96289 62.3438 7.31445C62.3047 7.6582 62.2852 8.00586 62.2852 8.35742C62.2852 8.43555 62.2891 8.51367 62.2969 8.5918C62.3047 8.66211 62.3086 8.74023 62.3086 8.82617C62.3086 8.84961 62.2891 8.90039 62.25 8.97852C62.2188 9.05664 62.1953 9.11523 62.1797 9.1543C62.2109 9.24023 62.2227 9.32617 62.2148 9.41211C62.2148 9.49805 62.2344 9.58008 62.2734 9.6582C62.2031 9.7207 62.168 9.80664 62.168 9.91602C62.168 9.96289 62.168 10.0098 62.168 10.0566C62.1758 10.1035 62.1797 10.1504 62.1797 10.1973V10.3379C62.1562 10.4941 62.1406 10.6543 62.1328 10.8184C62.125 10.9746 62.1211 11.1309 62.1211 11.2871C62.1211 11.3574 62.1211 11.4785 62.1211 11.6504C62.1289 11.8145 62.1406 12.002 62.1562 12.2129C62.1719 12.416 62.1953 12.627 62.2266 12.8457C62.2578 13.0645 62.2969 13.2676 62.3438 13.4551C62.3984 13.6348 62.4648 13.7832 62.543 13.9004C62.6211 14.0176 62.7148 14.0762 62.8242 14.0762C62.8477 14.0762 62.875 14.0723 62.9062 14.0645C62.9453 14.0566 62.9648 14.0371 62.9648 14.0059C62.9648 13.9746 62.957 13.9473 62.9414 13.9238C62.9336 13.9004 62.9297 13.873 62.9297 13.8418L62.9414 13.8184C63.0039 13.8496 63.0703 13.8691 63.1406 13.877C63.2188 13.8848 63.2969 13.8926 63.375 13.9004C63.4531 13.9082 63.5273 13.9199 63.5977 13.9355C63.668 13.959 63.7305 14.002 63.7852 14.0645C63.7539 14.127 63.7383 14.1934 63.7383 14.2637C63.7383 14.3574 63.7617 14.4434 63.8086 14.5215C63.8555 14.6074 63.8867 14.6934 63.9023 14.7793C63.7539 14.8262 63.6172 14.877 63.4922 14.9316C63.375 14.9941 63.2578 15.0488 63.1406 15.0957C63.0234 15.1504 62.8984 15.1973 62.7656 15.2363C62.6328 15.2832 62.4805 15.3145 62.3086 15.3301C62.1992 15.2598 62.1055 15.1973 62.0273 15.1426C61.9492 15.0879 61.8438 15.0527 61.7109 15.0371C61.5078 14.7637 61.3398 14.4551 61.207 14.1113C61.0742 13.7754 60.9688 13.4238 60.8906 13.0566C60.8203 12.6895 60.7695 12.3223 60.7383 11.9551C60.7148 11.5801 60.7031 11.2285 60.7031 10.9004C60.7031 10.541 60.7148 10.1855 60.7383 9.83398C60.7695 9.47461 60.8086 9.11523 60.8555 8.75586C60.8711 8.64648 60.8867 8.53711 60.9023 8.42773C60.918 8.31055 60.9336 8.19727 60.9492 8.08789C60.9648 8.04883 60.9766 8.00586 60.9844 7.95898C61 7.9043 61.0078 7.85742 61.0078 7.81836C61.0078 7.68555 61.0039 7.55273 60.9961 7.41992C60.9883 7.28711 60.9844 7.1582 60.9844 7.0332C60.9844 6.83789 60.9961 6.63867 61.0195 6.43555C61.0273 6.39648 61.0391 6.3457 61.0547 6.2832C61.0781 6.2207 61.0898 6.16602 61.0898 6.11914C61.0898 6.05664 61.0742 6.01367 61.043 5.99023C61.0117 5.9668 60.9844 5.92773 60.9609 5.87305C60.9844 5.79492 61.0039 5.7207 61.0195 5.65039C61.0352 5.57227 61.043 5.49414 61.043 5.41602C61.043 5.26758 61.0156 5.13867 60.9609 5.0293C61 4.82617 61.0586 4.62695 61.1367 4.43164C61.2148 4.23633 61.3516 4.08789 61.5469 3.98633C61.7031 3.99414 61.8594 4.00977 62.0156 4.0332C62.1797 4.05664 62.3203 4.12305 62.4375 4.23242C62.4922 4.20117 62.5547 4.18164 62.625 4.17383L62.8477 4.15039C62.9258 4.14258 62.9961 4.13086 63.0586 4.11523C63.1211 4.0918 63.1758 4.04883 63.2227 3.98633C63.3789 3.95508 63.5469 3.91211 63.7266 3.85742C63.9062 3.79492 64.0625 3.72461 64.1953 3.64648H64.4531C64.5078 3.60742 64.5703 3.58008 64.6406 3.56445L64.8633 3.50586C64.9414 3.48242 65.0117 3.45898 65.0742 3.43555C65.1445 3.41211 65.1992 3.37305 65.2383 3.31836H65.2852C65.4648 3.31836 65.6406 3.2793 65.8125 3.20117C65.9844 3.12305 66.1523 3.05273 66.3164 2.99023C66.3555 2.97461 66.4141 2.94727 66.4922 2.9082C66.5781 2.86914 66.6367 2.84961 66.668 2.84961C66.7773 2.83398 66.8867 2.82617 66.9961 2.82617C67.1055 2.81836 67.2148 2.80273 67.3242 2.7793C67.5742 2.74023 67.8203 2.69727 68.0625 2.65039C68.3125 2.5957 68.5625 2.56836 68.8125 2.56836C68.8984 2.56836 68.9766 2.57227 69.0469 2.58008C69.125 2.58008 69.207 2.58398 69.293 2.5918C69.3008 2.62305 69.3203 2.65039 69.3516 2.67383C69.3828 2.68945 69.4102 2.70508 69.4336 2.7207C69.4648 2.73633 69.4922 2.75977 69.5156 2.79102C69.5391 2.81445 69.5469 2.84961 69.5391 2.89648C69.5547 2.91211 69.5703 2.91992 69.5859 2.91992C69.6094 2.91992 69.6289 2.9082 69.6445 2.88477C69.668 2.86133 69.6992 2.84961 69.7383 2.84961H69.7969C69.8984 2.95898 69.9961 3.06445 70.0898 3.16602C70.1914 3.25977 70.3164 3.33789 70.4648 3.40039C70.5273 3.63477 70.6016 3.86523 70.6875 4.0918C70.7734 4.31836 70.8164 4.56055 70.8164 4.81836C70.8164 4.97461 70.793 5.12695 70.7461 5.27539C70.6367 5.33008 70.5586 5.41602 70.5117 5.5332C70.4648 5.65039 70.4219 5.76367 70.3828 5.87305C70.1641 5.98242 69.9805 6.12695 69.832 6.30664C69.6836 6.48633 69.5312 6.66602 69.375 6.8457H69.1875C69.1562 6.8457 69.1328 6.85742 69.1172 6.88086L69.0117 6.99805C68.9414 7.06055 68.8633 7.12305 68.7773 7.18555C68.6992 7.24805 68.6406 7.33008 68.6016 7.43164C68.3594 7.56445 68.125 7.71289 67.8984 7.87695C67.6797 8.04102 67.4688 8.21289 67.2656 8.39258C67.1797 8.46289 67.0938 8.54492 67.0078 8.63867C66.9219 8.72461 66.8359 8.79883 66.75 8.86133C66.7031 8.90039 66.6484 8.93555 66.5859 8.9668C66.5312 8.99023 66.4805 9.02148 66.4336 9.06055C66.332 9.13867 66.2383 9.2207 66.1523 9.30664C66.0664 9.38477 65.9766 9.45898 65.8828 9.5293C66.2344 9.51367 66.5898 9.50586 66.9492 9.50586C67.3086 9.49805 67.6641 9.49023 68.0156 9.48242C68.1953 9.48242 68.3711 9.47852 68.543 9.4707C68.7148 9.45508 68.8906 9.44727 69.0703 9.44727C69.1016 9.44727 69.1289 9.45508 69.1523 9.4707C69.1758 9.47852 69.2031 9.48633 69.2344 9.49414C69.3672 9.51758 69.4844 9.54492 69.5859 9.57617C69.9609 9.64648 70.3359 9.70898 70.7109 9.76367C71.0859 9.81836 71.4531 9.9082 71.8125 10.0332C71.9141 10.0723 71.9883 10.1152 72.0352 10.1621C72.0898 10.209 72.1836 10.2207 72.3164 10.1973C72.4258 10.3066 72.543 10.3926 72.668 10.4551C72.8008 10.5176 72.9336 10.5723 73.0664 10.6191C73.168 10.7754 73.2617 10.9238 73.3477 11.0645C73.4414 11.2051 73.4883 11.373 73.4883 11.5684ZM86.8711 0.751953C86.8711 0.822266 86.8672 0.892578 86.8594 0.962891C86.8594 1.0332 86.8555 1.09961 86.8477 1.16211C86.8242 1.20117 86.7773 1.2168 86.707 1.20898C86.6445 1.20117 86.5938 1.19727 86.5547 1.19727C86.5156 1.19727 86.4805 1.20508 86.4492 1.2207C86.4258 1.22852 86.4141 1.25195 86.4141 1.29102C86.4141 1.33789 86.418 1.36914 86.4258 1.38477C86.3633 1.37695 86.2969 1.36914 86.2266 1.36133C86.1562 1.35352 86.0938 1.33008 86.0391 1.29102C85.9297 1.31445 85.8242 1.3457 85.7227 1.38477C85.6289 1.42383 85.5352 1.4668 85.4414 1.51367C85.3477 1.56055 85.25 1.60352 85.1484 1.64258C85.0469 1.68164 84.9414 1.70508 84.832 1.71289C84.7617 1.79102 84.6719 1.84961 84.5625 1.88867C84.4531 1.92773 84.3398 1.96289 84.2227 1.99414C84.1055 2.02539 83.9961 2.06445 83.8945 2.11133C83.793 2.15039 83.7109 2.21289 83.6484 2.29883C83.4766 2.31445 83.3125 2.35742 83.1562 2.42773C83 2.49805 82.8438 2.57227 82.6875 2.65039C82.5391 2.72852 82.3867 2.80273 82.2305 2.87305C82.0742 2.94336 81.9062 2.99023 81.7266 3.01367C81.6797 3.06055 81.6211 3.09961 81.5508 3.13086C81.4883 3.16211 81.4219 3.19336 81.3516 3.22461C81.2812 3.24805 81.2148 3.27539 81.1523 3.30664C81.0898 3.33789 81.0391 3.38086 81 3.43555H80.9766C80.9453 3.43555 80.9219 3.42773 80.9062 3.41211C80.8906 3.39648 80.8672 3.38867 80.8359 3.38867C80.8125 3.38867 80.7969 3.39258 80.7891 3.40039C80.6016 3.48633 80.4141 3.57617 80.2266 3.66992C80.0391 3.76367 79.8438 3.85352 79.6406 3.93945C79.2422 4.10352 78.8398 4.26367 78.4336 4.41992C78.0273 4.57617 77.6367 4.76758 77.2617 4.99414C77.1758 5.30664 77.1055 5.62695 77.0508 5.95508C76.9961 6.27539 76.8984 6.58398 76.7578 6.88086V7.43164C76.6797 7.58008 76.6289 7.74414 76.6055 7.92383C76.582 8.10352 76.5703 8.27539 76.5703 8.43945C76.5703 8.50195 76.5703 8.56055 76.5703 8.61523C76.5781 8.66211 76.582 8.71289 76.582 8.76758C76.8086 8.70508 77.0273 8.63477 77.2383 8.55664C77.457 8.47852 77.6758 8.4082 77.8945 8.3457C78.0039 8.30664 78.1133 8.2793 78.2227 8.26367C78.3398 8.24805 78.4531 8.2207 78.5625 8.18164C78.6484 8.1582 78.7383 8.12695 78.832 8.08789C78.9258 8.04102 79.0156 7.99805 79.1016 7.95898C79.3359 7.85742 79.5742 7.76758 79.8164 7.68945C80.0664 7.61133 80.3203 7.55273 80.5781 7.51367C80.6562 7.45117 80.7422 7.39258 80.8359 7.33789C80.9297 7.2832 81.0234 7.25586 81.1172 7.25586C81.1875 7.25586 81.2461 7.26758 81.293 7.29102C81.4258 7.21289 81.582 7.14258 81.7617 7.08008C81.9414 7.01758 82.1094 6.99414 82.2656 7.00977C82.3047 6.95508 82.3516 6.91992 82.4062 6.9043C82.4609 6.88086 82.5195 6.86914 82.582 6.86914C82.6133 6.86914 82.6406 6.87305 82.6641 6.88086C82.6953 6.88086 82.7305 6.88086 82.7695 6.88086C82.8477 6.82617 82.9336 6.78711 83.0273 6.76367C83.1211 6.74023 83.2148 6.7207 83.3086 6.70508C83.4023 6.68945 83.4922 6.66992 83.5781 6.64648C83.6719 6.61523 83.7539 6.56836 83.8242 6.50586C83.9336 6.51367 84.0195 6.54492 84.082 6.59961C84.1523 6.6543 84.2109 6.7207 84.2578 6.79883C84.3047 6.87695 84.3438 6.95898 84.375 7.04492C84.4062 7.13086 84.4453 7.21289 84.4922 7.29102C84.4766 7.35352 84.4531 7.4043 84.4219 7.44336C84.3906 7.47461 84.3555 7.50586 84.3164 7.53711C84.2773 7.56836 84.2422 7.59961 84.2109 7.63086C84.1797 7.66211 84.1602 7.70508 84.1523 7.75977C83.8789 7.75977 83.6133 7.79883 83.3555 7.87695C83.1055 7.95508 82.8555 8.04492 82.6055 8.14648C82.3633 8.24805 82.1133 8.3457 81.8555 8.43945C81.6055 8.52539 81.3477 8.58008 81.082 8.60352C81.043 8.64258 80.9922 8.67383 80.9297 8.69727L80.7539 8.75586C80.6992 8.77148 80.6484 8.79492 80.6016 8.82617C80.5547 8.84961 80.5195 8.88867 80.4961 8.94336C80.4492 8.91992 80.3984 8.9082 80.3438 8.9082C80.2109 8.9082 80.082 8.94336 79.957 9.01367C79.832 9.08398 79.6914 9.11914 79.5352 9.11914C79.4727 9.11914 79.4297 9.11523 79.4062 9.10742C79.3672 9.17773 79.3086 9.22852 79.2305 9.25977C79.1602 9.29102 79.082 9.31836 78.9961 9.3418C78.918 9.35742 78.8398 9.38086 78.7617 9.41211C78.6914 9.44336 78.6367 9.49805 78.5977 9.57617C78.5742 9.56836 78.5469 9.56445 78.5156 9.56445H78.4453C78.3203 9.56445 78.1758 9.58789 78.0117 9.63477C77.8555 9.67383 77.7422 9.75195 77.6719 9.86914C77.6094 9.85352 77.5547 9.8457 77.5078 9.8457C77.3984 9.8457 77.3008 9.86914 77.2148 9.91602C77.1289 9.95508 77.043 10.002 76.957 10.0566L76.6992 10.2207C76.6133 10.2754 76.5195 10.3145 76.418 10.3379C76.2148 10.627 76.0742 10.959 75.9961 11.334C75.918 11.709 75.8594 12.0996 75.8203 12.5059C75.7891 12.9121 75.7578 13.3145 75.7266 13.7129C75.6953 14.1191 75.6328 14.4902 75.5391 14.8262C75.5859 14.9512 75.6211 15.084 75.6445 15.2246C75.668 15.3652 75.6875 15.5059 75.7031 15.6465C75.7188 15.7949 75.7344 15.9434 75.75 16.0918C75.7656 16.2402 75.793 16.3809 75.832 16.5137C75.8711 16.6777 75.9453 16.8223 76.0547 16.9473C76.1719 17.0801 76.2539 17.2285 76.3008 17.3926C76.3398 17.4004 76.3789 17.4043 76.418 17.4043C76.4648 17.4121 76.5117 17.416 76.5586 17.416C76.8398 17.416 77.0859 17.3613 77.2969 17.252C77.5156 17.1426 77.7188 17.0059 77.9062 16.8418C78.0938 16.6855 78.2734 16.5137 78.4453 16.3262C78.625 16.1465 78.8164 15.9863 79.0195 15.8457H79.2422C79.2969 15.7832 79.3438 15.7168 79.3828 15.6465C79.4219 15.5762 79.4648 15.5098 79.5117 15.4473C79.5586 15.3848 79.6133 15.3301 79.6758 15.2832C79.7383 15.2441 79.8164 15.2168 79.9102 15.2012C79.9336 15.084 79.9883 14.9941 80.0742 14.9316C80.1602 14.8691 80.2188 14.7754 80.25 14.6504C80.2656 14.6582 80.2852 14.6621 80.3086 14.6621C80.3711 14.6621 80.418 14.6465 80.4492 14.6152L80.625 14.4512C80.6875 14.3887 80.7539 14.3262 80.8242 14.2637C80.9023 14.209 80.9766 14.1543 81.0469 14.0996C81.2734 13.9355 81.5 13.7715 81.7266 13.6074C81.9531 13.4512 82.1602 13.2676 82.3477 13.0566C82.3555 13.0645 82.3672 13.0684 82.3828 13.0684C82.4453 13.0684 82.4883 13.0488 82.5117 13.0098C82.5352 12.9707 82.5898 12.959 82.6758 12.9746C82.7227 12.9043 82.7656 12.834 82.8047 12.7637C82.8438 12.6855 82.875 12.6035 82.8984 12.5176L83.2734 12.5645C83.3984 12.5801 83.5234 12.5879 83.6484 12.5879C83.6875 12.5879 83.7227 12.5879 83.7539 12.5879C83.793 12.5801 83.8281 12.5684 83.8594 12.5527C83.9531 12.7012 84.0039 12.8613 84.0117 13.0332C84.0195 13.1973 84.0391 13.3613 84.0703 13.5254C84.0547 13.5254 84.043 13.5254 84.0352 13.5254C84.0352 13.5176 84.0273 13.5137 84.0117 13.5137C83.9727 13.5137 83.9336 13.5293 83.8945 13.5605C83.8633 13.584 83.8281 13.6152 83.7891 13.6543L83.6719 13.7715C83.6328 13.8105 83.5977 13.8418 83.5664 13.8652C83.4805 13.9199 83.3906 13.9668 83.2969 14.0059C83.2031 14.0527 83.1133 14.0996 83.0273 14.1465C82.9414 14.1934 82.8594 14.248 82.7812 14.3105C82.7031 14.3809 82.6406 14.4668 82.5938 14.5684C82.4375 14.6309 82.2852 14.6973 82.1367 14.7676C81.9961 14.8379 81.8594 14.9121 81.7266 14.9902C81.6875 15.0293 81.6523 15.0684 81.6211 15.1074C81.5898 15.1465 81.5664 15.1895 81.5508 15.2363C81.3398 15.3066 81.1641 15.4121 81.0234 15.5527C80.8906 15.6934 80.7539 15.8457 80.6133 16.0098L80.6016 15.998C80.5469 15.998 80.5117 16.0176 80.4961 16.0566C80.4883 16.0957 80.4453 16.1074 80.3672 16.0918C80.2188 16.2559 80.0625 16.4082 79.8984 16.5488C79.7344 16.6895 79.5664 16.8301 79.3945 16.9707C79.2227 17.1113 79.0508 17.252 78.8789 17.3926C78.707 17.541 78.5469 17.6973 78.3984 17.8613C78.2969 17.8926 78.1992 17.9316 78.1055 17.9785C78.0117 18.0254 77.9414 18.0957 77.8945 18.1895H77.8594C77.7734 18.1895 77.7109 18.209 77.6719 18.248C77.6406 18.2871 77.6016 18.3379 77.5547 18.4004C77.3906 18.4395 77.2227 18.4824 77.0508 18.5293C76.8789 18.5762 76.7031 18.5996 76.5234 18.5996C76.3984 18.5996 76.2773 18.5762 76.1602 18.5293C76.0508 18.4824 75.9414 18.4199 75.832 18.3418C75.7305 18.2715 75.6328 18.1934 75.5391 18.1074C75.4531 18.0215 75.3711 17.9395 75.293 17.8613C75.2461 17.7051 75.1836 17.541 75.1055 17.3691C75.0352 17.2051 75 17.0449 75 16.8887C75 16.8496 75.0039 16.8105 75.0117 16.7715C75.0273 16.7402 75.0352 16.709 75.0352 16.6777C75.0352 16.623 75.0156 16.5996 74.9766 16.6074C74.9453 16.6152 74.9219 16.5957 74.9062 16.5488C74.8906 16.4707 74.8789 16.3809 74.8711 16.2793C74.8711 16.1855 74.8633 16.0957 74.8477 16.0098C74.8242 15.8301 74.793 15.6465 74.7539 15.459C74.7227 15.2715 74.6875 15.0879 74.6484 14.9082C74.6797 14.8926 74.7031 14.8652 74.7188 14.8262C74.7422 14.7949 74.7656 14.7637 74.7891 14.7324C74.7656 14.6699 74.7422 14.5996 74.7188 14.5215C74.7031 14.4512 74.6953 14.377 74.6953 14.2988C74.6953 14.1426 74.7539 14.0254 74.8711 13.9473C74.8711 13.8926 74.8555 13.8496 74.8242 13.8184C74.8008 13.7949 74.7891 13.752 74.7891 13.6895C74.7891 13.6738 74.793 13.6309 74.8008 13.5605C74.8164 13.4824 74.832 13.3965 74.8477 13.3027C74.8711 13.209 74.8906 13.1191 74.9062 13.0332C74.9219 12.9473 74.9336 12.8887 74.9414 12.8574C74.9961 12.498 75.043 12.1465 75.082 11.8027C75.1211 11.4512 75.1758 11.0996 75.2461 10.748C75.168 10.6855 75.0664 10.6387 74.9414 10.6074C74.8242 10.5684 74.7422 10.5176 74.6953 10.4551C74.6562 10.4004 74.625 10.3301 74.6016 10.2441C74.5781 10.1582 74.5664 10.084 74.5664 10.0215C74.5664 9.79492 74.6562 9.61523 74.8359 9.48242C75.0156 9.3418 75.207 9.25977 75.4102 9.23633C75.5117 8.96289 75.5859 8.68555 75.6328 8.4043C75.6875 8.11523 75.7305 7.82617 75.7617 7.53711L75.8555 6.6582C75.8867 6.36133 75.9336 6.06836 75.9961 5.7793H75.9258C75.7695 5.7793 75.6172 5.80273 75.4688 5.84961C75.3203 5.89648 75.168 5.91992 75.0117 5.91992H74.9883C74.7617 5.74023 74.6484 5.52539 74.6484 5.27539C74.6484 5.12695 74.6797 4.97852 74.7422 4.83008C74.8672 4.7832 74.9805 4.7207 75.082 4.64258C75.1836 4.56445 75.2852 4.48633 75.3867 4.4082C75.4961 4.32227 75.6055 4.24805 75.7148 4.18555C75.8242 4.12305 75.9453 4.08398 76.0781 4.06836C76.0938 3.8418 76.1328 3.61523 76.1953 3.38867C76.2578 3.16211 76.2891 2.93555 76.2891 2.70898C76.2891 2.66211 76.2852 2.61523 76.2773 2.56836C76.2773 2.52148 76.2695 2.47461 76.2539 2.42773C76.3086 2.35742 76.3438 2.2832 76.3594 2.20508C76.3828 2.12695 76.3945 2.04492 76.3945 1.95898C76.3945 1.86523 76.3867 1.77539 76.3711 1.68945C76.3633 1.5957 76.3516 1.50586 76.3359 1.41992C76.4062 1.38867 76.4609 1.35742 76.5 1.32617C76.5391 1.28711 76.5742 1.25195 76.6055 1.2207C76.6445 1.18945 76.6914 1.16211 76.7461 1.13867C76.8008 1.11523 76.8789 1.10352 76.9805 1.10352C77.1289 1.10352 77.2539 1.13477 77.3555 1.19727C77.4648 1.25195 77.5586 1.32617 77.6367 1.41992C77.7148 1.51367 77.7812 1.61914 77.8359 1.73633C77.8984 1.85352 77.957 1.9707 78.0117 2.08789C77.9961 2.17383 77.9609 2.23633 77.9062 2.27539C77.8516 2.31445 77.8047 2.36523 77.7656 2.42773C77.7812 2.55273 77.7969 2.67383 77.8125 2.79102C77.8281 2.90039 77.8281 3.01758 77.8125 3.14258C77.8906 3.18164 77.9648 3.20117 78.0352 3.20117C78.1523 3.20117 78.2578 3.16992 78.3516 3.10742C78.4531 3.04492 78.5234 2.95898 78.5625 2.84961H78.5859C78.6094 2.84961 78.6289 2.85742 78.6445 2.87305C78.668 2.88867 78.6953 2.89648 78.7266 2.89648H78.7734C78.8594 2.81836 78.9531 2.75977 79.0547 2.7207C79.1562 2.67383 79.2617 2.63086 79.3711 2.5918C79.4805 2.55273 79.5859 2.51367 79.6875 2.47461C79.7969 2.42773 79.8984 2.36914 79.9922 2.29883C80.0391 2.32227 80.0898 2.33398 80.1445 2.33398C80.2227 2.33398 80.2969 2.31836 80.3672 2.28711C80.4453 2.25586 80.5195 2.22461 80.5898 2.19336C80.6602 2.1543 80.7344 2.11914 80.8125 2.08789C80.8984 2.05664 80.9883 2.04102 81.082 2.04102C81.0977 2.04102 81.1172 2.04492 81.1406 2.05273C81.1641 2.05273 81.1836 2.05273 81.1992 2.05273C81.2539 2.05273 81.2852 2.0332 81.293 1.99414C81.3008 1.95508 81.3008 1.91992 81.293 1.88867C81.543 1.82617 81.7578 1.75586 81.9375 1.67773C82.125 1.5918 82.332 1.49414 82.5586 1.38477C82.5586 1.37695 82.5664 1.37305 82.582 1.37305C82.6055 1.37305 82.6211 1.38477 82.6289 1.4082C82.6367 1.43164 82.6406 1.45117 82.6406 1.4668C82.6875 1.44336 82.7109 1.4043 82.7109 1.34961C82.7188 1.29492 82.7383 1.24805 82.7695 1.20898C82.8008 1.2168 82.8438 1.2207 82.8984 1.2207C82.9688 1.2207 83.0391 1.20508 83.1094 1.17383C83.1875 1.14258 83.2617 1.10742 83.332 1.06836C83.4023 1.0293 83.4727 0.994141 83.543 0.962891C83.6133 0.931641 83.6836 0.916016 83.7539 0.916016C83.8164 0.916016 83.8672 0.931641 83.9062 0.962891C83.9531 0.939453 84 0.908203 84.0469 0.869141C84.0938 0.822266 84.1445 0.798828 84.1992 0.798828C84.2148 0.798828 84.2266 0.802734 84.2344 0.810547C84.25 0.818359 84.2656 0.826172 84.2812 0.833984C84.3203 0.794922 84.3555 0.763672 84.3867 0.740234C84.4258 0.716797 84.4453 0.677734 84.4453 0.623047C84.7344 0.591797 85 0.529297 85.2422 0.435547C85.4922 0.333984 85.7305 0.201172 85.957 0.0371094C86.043 0.0527344 86.125 0.0722656 86.2031 0.0957031C86.2891 0.111328 86.375 0.119141 86.4609 0.119141C86.5078 0.205078 86.5508 0.291016 86.5898 0.376953C86.6289 0.462891 86.7148 0.501953 86.8477 0.494141C86.8555 0.533203 86.8594 0.576172 86.8594 0.623047C86.8672 0.669922 86.8711 0.712891 86.8711 0.751953Z" fill="#232323" fill-opacity="0.12"/>
</svg>
