<svg width="44" height="26" viewBox="0 0 44 26" fill="none" xmlns="http://www.w3.org/2000/svg" >
    <path
        d="M21.8829 17.4898L6.33146 16.9942L3.41351 14.7134L25.2148 14.909L24.5979 15.3781L21.8829 17.4898Z"
        fill="#232323"
    />
    <path
        d="M35.869 8.23788L7.32342 8.63495L1.89062 12.7229L41.8906 13.0818L40.7754 12.2009L35.869 8.23788Z"
        fill="#232323"
    />
    <path
        d="M13.9732 19.3607L8.09202 19.3L8.4593 19.55C11.9919 21.6015 12.2323 22.0809 13.4456 23.294C14.0939 23.8169 15.1479 24.6118 16.0029 24.8606C17.116 25.1845 19.9166 25.4912 21.5258 23.7244L21.1584 23.7211C17.8514 23.6914 15.8738 21.287 13.9732 19.3607Z"
        fill="#232323"
    />
    <path
        d="M14.6089 6.52544L8.85235 6.47379L9.22318 6.12161C12.7943 4.14535 13.0438 3.67297 14.28 2.48871C14.9004 1.65429 15.7531 1.19383 16.7444 0.963929C17.2354 0.850038 20.7917 0.420142 22.367 2.20543L21.9996 2.20214C18.6927 2.17247 16.5459 4.64435 14.6089 6.52544Z"
        fill="#232323"
    />
    <path
        d="M10.1169 15.0362C10.9032 14.3873 18.2131 6.45926 21.948 3.00703L7.59598 18.3816C7.69686 17.829 7.69328 17.7289 7.59598 17.4062L8.71484 16.3727L10.1169 15.0362Z"
        fill="#232323"
    />
    <path
        d="M21.8829 17.4898L6.33146 16.9942L3.41351 14.7134L25.2148 14.909L24.5979 15.3781L21.8829 17.4898Z"
        stroke="#232323"
        stroke-width="0.8"
    />
    <path
        d="M35.869 8.23788L7.32342 8.63495L1.89062 12.7229L41.8906 13.0818L40.7754 12.2009L35.869 8.23788Z"
        stroke="#232323"
        stroke-width="0.8"
    />
    <path
        d="M13.9732 19.3607L8.09202 19.3L8.4593 19.55C11.9919 21.6015 12.2323 22.0809 13.4456 23.294C14.0939 23.8169 15.1479 24.6118 16.0029 24.8606C17.116 25.1845 19.9166 25.4912 21.5258 23.7244L21.1584 23.7211C17.8514 23.6914 15.8738 21.287 13.9732 19.3607Z"
        stroke="#232323"
        stroke-width="0.8"
    />
    <path
        d="M14.6089 6.52544L8.85235 6.47379L9.22318 6.12161C12.7943 4.14535 13.0438 3.67297 14.28 2.48871C14.9004 1.65429 15.7531 1.19383 16.7444 0.963929C17.2354 0.850038 20.7917 0.420142 22.367 2.20543L21.9996 2.20214C18.6927 2.17247 16.5459 4.64435 14.6089 6.52544Z"
        stroke="#232323"
        stroke-width="0.8"
    />
    <path
        d="M10.1169 15.0362C10.9032 14.3873 18.2131 6.45926 21.948 3.00703L7.59598 18.3816C7.69686 17.829 7.69328 17.7289 7.59598 17.4062L8.71484 16.3727L10.1169 15.0362Z"
        stroke="#232323"
        stroke-width="0.8"
    />
</svg>    
