<svg width="148" height="40" viewBox="0 0 148 40" fill="none" xmlns="http://www.w3.org/2000/svg">
<path fill-rule="evenodd" clip-rule="evenodd" d="M17.1439 0.803711C7.84051 0.803711 0.281494 8.36272 0.281494 17.6661C0.281494 26.9695 7.81408 34.5285 17.1439 34.5285C26.4473 34.5285 34.0063 26.9695 34.0063 17.6661C34.0063 8.36272 26.4473 0.830141 17.1439 0.803711ZM17.1439 31.8855C9.29416 31.8855 2.92451 25.5159 2.92451 17.6661C2.92451 9.81638 9.26773 3.44672 17.1439 3.44672C24.9937 3.44672 31.3633 9.81638 31.3369 17.6661C31.3633 25.5159 24.9937 31.8855 17.1439 31.8855Z" fill="#B3C1D5"/>
<path fill-rule="evenodd" clip-rule="evenodd" d="M18.3331 17.6659C18.3331 17.0052 17.8045 16.4766 17.1437 16.4766C16.4829 16.4766 15.9543 17.0052 15.9543 17.6659C15.9543 18.3267 16.4829 18.8553 17.1437 18.8553C17.8045 18.8553 18.3331 18.3267 18.3331 17.6659Z" fill="#B3C1D5"/>
<path fill-rule="evenodd" clip-rule="evenodd" d="M11.4871 13.9401C11.4871 13.9401 14.3151 15.5788 15.7423 16.3982C16.0066 16.081 16.4031 15.8431 16.8524 15.7638V15.7374C16.8524 14.9709 16.641 14.2309 16.2709 13.623L16.2445 13.5966L16.2709 13.5701C16.5881 13.3323 16.8788 13.0151 17.1167 12.6715L17.1431 12.6186L17.1696 12.6715C17.4074 13.0151 17.6982 13.3058 18.0153 13.5701L18.0418 13.5966L18.0153 13.623C17.6453 14.2573 17.4339 14.9974 17.4339 15.7903C17.8832 15.8695 18.2532 16.081 18.5175 16.4246L22.7992 13.9666C24.8607 12.7772 25.5743 10.1342 24.385 8.07266C23.1956 6.01112 20.5526 5.2975 18.4911 6.48686C17.936 6.80402 17.4867 7.2269 17.1431 7.72907C16.7995 7.2269 16.3502 6.80402 15.7952 6.48686C13.7337 5.2975 11.0906 6.01112 9.90129 8.07266C8.71193 10.1342 9.42554 12.7508 11.4871 13.9401Z" fill="#B3C1D5"/>
<path fill-rule="evenodd" clip-rule="evenodd" d="M15.6626 18.8827L15.6362 18.9092C14.9754 19.3056 14.4468 19.8606 14.0768 20.4685L14.0504 20.495L14.0239 20.4685C13.6539 20.31 13.2575 20.2307 12.8346 20.1778H12.7817L12.8081 20.1249C12.9932 19.7549 13.0989 19.3585 13.1517 18.962V18.9356H13.1782C13.9182 18.9356 14.6583 18.7506 15.3454 18.3541C15.1869 17.9312 15.1869 17.4819 15.3454 17.0855L11.0638 14.6275C9.00221 13.4381 6.3592 14.1517 5.16984 16.2133C3.98049 18.2748 4.6941 20.9178 6.75565 22.0808C7.31068 22.3979 7.91857 22.5829 8.50004 22.6358C8.23574 23.1908 8.10358 23.7987 8.10358 24.4331C8.10358 26.8118 10.033 28.7412 12.4117 28.7412C14.7904 28.7412 16.7198 26.8118 16.7198 24.4331V19.5171C16.3233 19.4378 15.9269 19.2263 15.6626 18.8827Z" fill="#B3C1D5"/>
<path fill-rule="evenodd" clip-rule="evenodd" d="M29.0891 16.2123C27.8998 14.1508 25.2568 13.4372 23.2217 14.6265C23.2217 14.6265 20.3936 16.2652 18.9664 17.0845C19.0986 17.481 19.125 17.9303 18.9664 18.3532L18.9928 18.3796C19.68 18.776 20.3936 18.9346 21.1337 18.9346H21.1865V18.961C21.2394 19.3575 21.3715 19.7539 21.5301 20.124L21.5566 20.1768H21.5037C21.0808 20.2033 20.6844 20.309 20.3143 20.4676L20.2879 20.494L20.2615 20.4676C19.8915 19.8332 19.3629 19.2782 18.6757 18.8818C18.3849 19.2253 18.0149 19.4368 17.592 19.5161V24.4585C17.592 26.8372 19.5214 28.7666 21.9002 28.7666C24.2789 28.7666 26.2083 26.8372 26.2083 24.4585C26.2083 23.8242 26.0761 23.2163 25.8118 22.6613C26.4197 22.6084 27.0012 22.4234 27.5562 22.1062C29.5649 20.9169 30.2785 18.2739 29.0891 16.2123Z" fill="#B3C1D5"/>
<path d="M147.497 14.6534C147.312 13.8076 147.021 13.094 146.625 12.4597C146.043 11.561 145.224 10.8739 144.219 10.3981C143.241 9.94881 142.131 9.71094 140.889 9.71094C140.889 9.71094 140.889 9.71094 140.863 9.71094C139.726 9.71094 138.722 9.89595 137.85 10.2924C137.506 10.4245 137.189 10.6096 136.872 10.821V10.0545H133.383V26.8905H136.872V18.6707C136.872 17.4021 136.925 16.5035 137.004 16.0277C137.083 15.5784 137.215 15.2084 137.427 14.8648C137.744 14.3098 138.167 13.9133 138.696 13.6226C139.251 13.3319 139.911 13.1733 140.651 13.1733C141.92 13.1733 142.819 13.4904 143.347 14.0983C143.902 14.7591 144.193 15.922 144.193 17.5078V26.8641H147.708V18.0893C147.735 16.5828 147.655 15.4727 147.497 14.6534Z" fill="#B3C1D5"/>
<path d="M123.71 9.63281C121.12 9.63281 119.005 10.4786 117.367 12.1701C115.728 13.8352 114.882 15.976 114.882 18.4869C114.882 20.9185 115.728 23.0065 117.419 24.7508C119.084 26.4688 121.172 27.341 123.604 27.341C123.604 27.341 123.604 27.341 123.63 27.341C125.454 27.341 127.093 26.8388 128.52 25.8345C129.974 24.7773 130.899 23.6143 131.639 21.87L132.088 20.7599H128.176L127.965 21.2092C127.516 22.1343 127.04 22.5571 126.247 23.0857C125.454 23.6143 124.582 23.8522 123.578 23.8522H123.551C122.15 23.8522 120.987 23.4293 120.062 22.5307C119.296 21.8171 118.82 20.9449 118.609 19.8613L132.273 19.8348V18.9098C132.273 16.1875 131.48 13.9409 129.894 12.223C128.282 10.505 126.194 9.63281 123.71 9.63281ZM128.256 16.5839L118.714 16.6104C118.979 15.6589 119.454 14.866 120.142 14.2581C121.014 13.4652 122.098 13.0687 123.366 13.0687H123.393C124.793 13.0687 125.877 13.4123 126.723 14.1524C127.41 14.7338 127.912 15.5267 128.256 16.5839Z" fill="#B3C1D5"/>
<path d="M110.153 11.3762C109.73 11.059 109.281 10.7683 108.778 10.5304C107.695 10.0282 106.479 9.76394 105.184 9.76394H105.157C102.699 9.76394 100.638 10.6361 98.9993 12.3012C97.3606 13.9663 96.5413 16.0807 96.5413 18.5123C96.5413 20.9703 97.387 23.0847 99.0257 24.7762C100.664 26.4678 102.726 27.34 105.131 27.34C105.131 27.34 105.131 27.34 105.157 27.34C106.426 27.34 107.615 27.0757 108.726 26.5471C109.228 26.3092 109.703 26.0185 110.153 25.7013V26.9435H113.694V5.13867H110.153V11.3762ZM108.699 14.7592C109.73 15.8429 110.206 17.1115 110.206 18.6709C110.206 20.0981 109.703 21.2875 108.699 22.3711C107.695 23.4283 106.558 23.9569 105.263 23.9569C103.836 23.9569 102.673 23.4547 101.669 22.3975C100.664 21.3403 100.162 20.0453 100.162 18.4595C100.162 16.9794 100.664 15.7372 101.669 14.7064C102.673 13.6756 103.836 13.1734 105.237 13.1734C105.237 13.1734 105.237 13.1734 105.263 13.1734C106.558 13.1734 107.695 13.6756 108.699 14.7592Z" fill="#B3C1D5"/>
<path d="M91.7817 11.4035C91.3588 11.0864 90.9095 10.7956 90.4073 10.5578C89.3237 10.0556 88.1079 9.79129 86.7864 9.79129C84.3284 9.79129 82.2668 10.6635 80.6282 12.3286C78.9895 13.9937 78.1702 16.1081 78.1702 18.5397C78.1702 20.9977 79.0159 23.1121 80.6546 24.8036C82.2933 26.4951 84.3548 27.3673 86.76 27.3673H86.7864C88.0286 27.3673 89.2444 27.103 90.3545 26.5744C90.8566 26.3365 91.3324 26.0458 91.7817 25.7286V26.9709H95.3233V5.16602H91.7817V11.4035ZM90.328 14.7866C91.3588 15.8702 91.8345 17.1389 91.8345 18.6982C91.8345 20.1255 91.3324 21.3148 90.328 22.3985C89.3237 23.4557 88.1872 23.9843 86.8921 23.9843C86.8921 23.9843 86.8921 23.9843 86.8657 23.9843C85.4384 23.9843 84.2755 23.4821 83.2712 22.4249C82.2668 21.3677 81.7647 20.0726 81.7647 18.4868C81.7647 17.0067 82.2668 15.7645 83.2712 14.7337C84.2755 13.7029 85.4385 13.2008 86.8392 13.2008C88.1872 13.2008 89.3237 13.7294 90.328 14.7866Z" fill="#B3C1D5"/>
<path d="M73.4118 18.4591C73.4118 20.0449 73.3325 20.7849 73.2796 21.1285C73.2003 21.5778 73.0682 21.9743 72.8832 22.265C72.5396 22.8201 72.1167 23.2429 71.5617 23.5337C71.0066 23.8244 70.3723 23.983 69.6323 23.983C68.3372 23.983 67.4386 23.6658 66.9364 23.0051C66.54 22.5293 66.0906 21.4457 66.0906 19.0934V10.2129H62.5754V18.9613C62.5754 21.9214 63.104 24.0358 64.2141 25.3838C65.3242 26.7581 67.1214 27.4453 69.553 27.4453H69.5794C70.7423 27.4453 71.7203 27.2603 72.5396 26.8903C72.8303 26.7581 73.1211 26.5996 73.4118 26.4146V27.0489H76.9534V10.2129H73.4118V18.4591Z" fill="#B3C1D5"/>
<path d="M60.3851 9.94922C59.4865 9.97565 58.72 10.1871 58.0328 10.5571C57.9007 10.6364 57.7685 10.7157 57.6364 10.795V10.1871H54.2004V27.0495H57.7685V17.0589C57.7685 15.8696 57.9799 14.9974 58.3764 14.5216C58.7728 14.0723 59.46 13.7816 60.4644 13.7023L61.178 13.6494L61.1516 9.97565L60.3851 9.94922Z" fill="#B3C1D5"/>
<path d="M50.1287 15.261C50.4723 14.9439 50.7366 14.5738 50.9745 14.151C51.3974 13.3845 51.6088 12.4594 51.6088 11.4022C51.6088 9.31425 50.9745 7.75488 49.7059 6.75053C48.4901 5.77262 46.6928 5.29688 44.2084 5.29688H44.182H39.636V27.1017H44.8956C47.5122 27.1017 49.468 26.5467 50.7631 25.4631C52.0846 24.353 52.7453 22.6086 52.7453 20.3356C52.7453 18.9877 52.4282 17.8248 51.7938 16.8997C51.3445 16.2125 50.7895 15.6839 50.1287 15.261ZM43.0983 13.9924V8.78565H44.0234H44.0498C45.8999 8.78565 46.7721 9.12924 47.195 9.41997C47.7236 9.79 47.9879 10.3979 47.9879 11.2965C47.9879 12.248 47.7236 12.9087 47.1421 13.3052C46.6928 13.6224 45.7149 13.966 43.4684 13.9924H43.0983ZM48.1993 18.3005C48.8072 18.7762 49.098 19.5163 49.098 20.5471C49.098 21.5778 48.8072 22.3179 48.2258 22.7936C47.5914 23.2958 46.5342 23.5601 45.0806 23.5601H43.0983V17.534H45.107C46.5078 17.534 47.565 17.7719 48.1993 18.3005Z" fill="#B3C1D5"/>
<path d="M67.5735 38.8382H71.7494V37.966H68.4721V35.2966H71.7494V34.398H68.4721V31.7814H71.7494V30.9092H67.5735V38.8382Z" fill="#B3C1D5"/>
<path d="M80.7091 38.0173C80.5506 37.9644 80.392 37.9116 80.2598 37.8323C80.6563 37.4358 80.9734 37.013 81.1585 36.5636C81.3699 36.0879 81.4756 35.5329 81.4756 34.9514C81.4756 33.7356 81.0792 32.7313 80.3127 31.9384C79.5462 31.1455 78.5683 30.749 77.4054 30.749C76.8768 30.749 76.3482 30.8547 75.8989 31.0398C75.4231 31.2248 75.0002 31.5155 74.6038 31.9119C74.2073 32.3084 73.8902 32.7577 73.6787 33.2599C73.4673 33.7621 73.3616 34.2907 73.3616 34.8457C73.3616 36.0086 73.758 37.013 74.5245 37.8059C75.291 38.5988 76.2689 39.0216 77.4054 39.0216C77.8018 39.0216 78.1718 38.9688 78.5419 38.8631C78.8855 38.7573 79.2291 38.5988 79.5462 38.4138C79.7841 38.5723 80.0484 38.7045 80.3127 38.8102C80.6034 38.9159 80.8677 38.9688 81.132 38.9688C81.1849 38.9688 81.2906 38.9688 81.4492 38.9424C81.4756 38.9424 81.502 38.9424 81.5285 38.9424H81.5813V38.1495H81.4228C81.132 38.0966 80.9206 38.0702 80.7091 38.0173ZM75.3438 36.2993C75.5553 36.2465 75.7667 36.2201 75.9517 36.2201C76.4539 36.2201 76.9032 36.3258 77.2997 36.5372C77.6961 36.7487 78.1983 37.1715 78.8326 37.8059C78.5947 37.9116 78.3833 37.9909 78.1718 38.0437C77.934 38.0966 77.6961 38.123 77.4582 38.123C76.8768 38.123 76.3482 37.9644 75.8724 37.6737C75.3967 37.383 75.0267 36.9865 74.7359 36.4844C74.9474 36.4051 75.1588 36.3258 75.3438 36.2993ZM80.577 34.8193C80.577 35.295 80.4977 35.7443 80.3127 36.1672C80.1277 36.5901 79.8898 36.9601 79.5726 37.2773C78.8855 36.5372 78.304 36.0615 77.7754 35.7707C77.2468 35.48 76.6653 35.3479 76.0574 35.3479C75.7667 35.3479 75.476 35.3743 75.1852 35.4536C74.9474 35.5064 74.6831 35.5857 74.4188 35.7179C74.3923 35.5593 74.3659 35.4272 74.3395 35.295C74.3131 35.1364 74.313 34.9514 74.313 34.7928C74.313 33.9471 74.6302 33.207 75.2381 32.5727C75.846 31.9384 76.586 31.6212 77.4318 31.6212C78.304 31.6212 79.044 31.9384 79.6519 32.5727C80.2598 33.1806 80.577 33.9471 80.577 34.8193Z" fill="#B3C1D5"/>
<path d="M87.2115 35.7448C87.2115 36.5642 87.0794 37.1985 86.7887 37.5685C86.5244 37.965 86.1015 38.15 85.52 38.15C85.2029 38.15 84.8857 38.0707 84.6478 37.9121C84.3835 37.7535 84.1985 37.5421 84.0664 37.2514C83.9871 37.1192 83.9606 36.9342 83.9078 36.7756C83.8814 36.5906 83.8549 36.2999 83.8549 35.9299V30.9346H82.9563V35.9563C82.9563 37.0135 83.1677 37.78 83.5906 38.2821C84.0135 38.7843 84.6743 39.0222 85.5729 39.0222C86.4186 39.0222 87.053 38.7579 87.4494 38.2557C87.8723 37.7535 88.0573 36.9606 88.0573 35.9563V30.9346H87.1851V35.7448H87.2115Z" fill="#B3C1D5"/>
<path d="M90.8852 30.9072H89.9866V38.8363H90.8852V30.9072Z" fill="#B3C1D5"/>
<path d="M97.2276 32.0437C97.0426 31.7001 96.7783 31.4358 96.4083 31.2244C96.2233 31.1187 95.9854 31.0394 95.6682 30.9865C95.3775 30.9337 94.9811 30.9072 94.5053 30.9072H92.7874V38.8363H93.686V35.5589H94.6375C95.0868 35.5589 95.4568 35.5325 95.7475 35.4532C96.0383 35.4003 96.3026 35.2946 96.514 35.136C96.8047 34.9246 97.069 34.6603 97.2276 34.3167C97.3862 33.9731 97.4919 33.6031 97.4919 33.2066C97.5183 32.7838 97.4126 32.3873 97.2276 32.0437ZM96.5669 33.2331C96.5669 33.7088 96.4347 34.0788 96.144 34.2903C95.8532 34.5281 95.4039 34.6339 94.796 34.6339H93.7388V31.7794H94.7432C95.4039 31.7794 95.8797 31.8851 96.1704 32.123C96.4083 32.3609 96.5669 32.7309 96.5669 33.2331Z" fill="#B3C1D5"/>
<path d="M100.478 30.9072L97.4388 38.757L97.4124 38.8363H98.3638L99.2889 36.3783H102.672L103.597 38.8363H104.548L101.483 30.9072H100.478ZM102.355 35.5589H99.5796L100.954 31.8851L102.355 35.5589Z" fill="#B3C1D5"/>
<path d="M109.624 37.594L106.954 30.9072H105.712V38.8363H106.584V32.2023L109.227 38.8363H109.994L112.637 32.2023V38.8363H113.509V30.9072H112.267L109.624 37.594Z" fill="#B3C1D5"/>
<path d="M115.44 38.8363H119.616V37.9641H116.338V35.2946H119.616V34.396H116.338V31.7794H119.616V30.9072H115.44V38.8363Z" fill="#B3C1D5"/>
<path d="M126.829 37.6205L122.653 30.9337L122.627 30.9072H121.622V38.8363H122.495L122.415 32.0966L126.591 38.8098V38.8363H127.622V30.9072H126.75L126.829 37.6205Z" fill="#B3C1D5"/>
<path d="M128.998 31.7794H130.558V38.8363H131.456V31.7794H133.016V30.9072H128.998V31.7794Z" fill="#B3C1D5"/>
<path d="M140.469 31.9119C140.072 31.5419 139.649 31.2248 139.174 31.0398C138.698 30.8547 138.169 30.749 137.641 30.749C137.112 30.749 136.584 30.8547 136.134 31.0398C135.658 31.2248 135.236 31.5155 134.839 31.9119C134.443 32.3084 134.126 32.7577 133.914 33.2599C133.703 33.7621 133.597 34.2907 133.597 34.8457C133.597 36.0086 133.993 37.013 134.76 37.8059C135.526 38.5988 136.504 39.0216 137.641 39.0216C138.222 39.0216 138.777 38.9159 139.306 38.6781C139.808 38.4402 140.284 38.123 140.68 37.6737C141.024 37.3037 141.288 36.8544 141.473 36.3786C141.658 35.9029 141.737 35.4007 141.737 34.8193C141.737 34.2378 141.632 33.7356 141.42 33.2335C141.182 32.7577 140.865 32.3084 140.469 31.9119ZM140.759 34.8193C140.759 35.7443 140.469 36.5372 139.861 37.1715C139.253 37.8059 138.513 38.123 137.667 38.123C136.769 38.123 136.029 37.8059 135.421 37.1715C134.813 36.5372 134.522 35.7443 134.522 34.8193C134.522 34.3435 134.628 33.8942 134.839 33.4449C135.051 32.9956 135.341 32.6256 135.711 32.3084C136.002 32.0705 136.293 31.8855 136.61 31.7798C136.927 31.6476 137.271 31.5948 137.641 31.5948C138.513 31.5948 139.253 31.9119 139.861 32.5463C140.442 33.1806 140.759 33.9471 140.759 34.8193Z" fill="#B3C1D5"/>
<path d="M147.102 35.1629C146.864 34.8457 146.494 34.5814 145.966 34.3964C145.834 34.3435 145.649 34.2907 145.358 34.1849C144.908 34.0528 144.591 33.8942 144.433 33.7885C144.274 33.6828 144.168 33.5506 144.089 33.4185C144.01 33.2863 143.983 33.1013 143.983 32.9163C143.983 32.5463 144.089 32.2291 144.327 31.9912C144.565 31.7534 144.856 31.6212 145.226 31.6212C145.569 31.6212 145.834 31.7269 146.045 31.9384C146.256 32.1498 146.362 32.467 146.415 32.8899V32.9427H147.261V32.8634C147.208 32.2027 147.023 31.6741 146.679 31.3041C146.336 30.934 145.834 30.749 145.226 30.749C144.591 30.749 144.063 30.9605 143.666 31.3569C143.27 31.7534 143.058 32.282 143.058 32.9427C143.058 33.4449 143.191 33.8413 143.455 34.1585C143.719 34.4757 144.142 34.7135 144.723 34.925L144.908 34.9778C145.966 35.3214 146.521 35.85 146.521 36.5108C146.521 36.9865 146.389 37.3566 146.124 37.6209C145.86 37.8852 145.516 38.0173 145.093 38.0173C144.697 38.0173 144.353 37.8852 144.116 37.6209C143.851 37.3301 143.746 36.9865 143.719 36.5108V36.4579H142.847V36.5108C142.847 37.2508 143.058 37.8323 143.481 38.2816C143.904 38.7309 144.433 38.9688 145.067 38.9688C145.754 38.9688 146.336 38.7309 146.759 38.2552C147.181 37.7794 147.393 37.1451 147.393 36.3786C147.446 35.9029 147.34 35.48 147.102 35.1629Z" fill="#B3C1D5"/>
</svg>
