<svg width="206" height="29" viewBox="0 0 206 29" fill="none" xmlns="http://www.w3.org/2000/svg">
<path d="M33.0139 24.2558L26.7162 20.615C26.6178 20.5412 26.4948 20.492 26.3964 20.4428C26.3718 20.4182 26.3472 20.4182 26.3226 20.3936C22.4112 17.9336 19.9757 13.6777 19.8773 9.02828C19.8773 8.90528 19.8773 8.80688 19.8773 8.68388H19.8527V1.47601C19.8527 0.664206 19.1885 0 18.3767 0H16.1627C15.3509 0 14.6867 0.664206 14.6867 1.47601L14.7113 8.75768C14.7113 8.85608 14.7113 8.92988 14.7113 9.02828C14.5883 13.8007 11.9807 18.1796 7.82323 20.5658L1.52558 24.2066C0.812172 24.6248 0.56617 25.5104 0.984373 26.2238L2.09138 28.1426C2.50959 28.8561 3.39519 29.1021 4.1086 28.6839L10.4063 25.043C14.6621 22.6076 19.9019 22.6322 24.1332 25.0676L30.4308 28.7085C31.1442 29.1267 32.0298 28.8807 32.448 28.1672L33.5551 26.2484C33.6289 26.1008 33.7027 25.9532 33.7273 25.8056V25.781C33.8503 25.1906 33.5797 24.5756 33.0139 24.2558Z" fill="#B3C1D5"/>
<path d="M52.6449 18.3274L52.6203 18.3028C52.2513 17.8108 51.5379 17.7124 51.0459 18.0814C50.0373 18.8932 48.7827 19.3606 47.4789 19.3606C45.9537 19.3606 44.7975 18.8686 43.9857 17.86C43.1739 16.8759 42.7311 15.6213 42.7557 14.3175C42.7311 13.0875 43.1493 11.8821 43.9365 10.9227C44.7237 9.98789 45.9045 9.52048 47.4789 9.52048C48.2415 9.52048 49.0041 9.69268 49.6929 10.0125C49.9635 10.1355 50.2341 10.2585 50.4801 10.3815C51.1689 10.7997 52.0791 10.5783 52.4973 9.88949L52.8909 9.27448C53.3091 8.58567 53.1123 7.67547 52.4235 7.23266C51.8823 6.88826 51.3165 6.59306 50.7015 6.37166C49.5945 5.97805 48.4383 5.78125 47.2821 5.78125C44.7237 5.78125 42.608 6.59306 40.9844 8.24127C39.3362 9.88949 38.5244 11.9313 38.5244 14.3913C38.5244 16.9251 39.3362 19.0162 40.9352 20.6398C42.5343 22.2634 44.6499 23.0998 47.3067 23.0998C49.4961 23.149 51.6117 22.411 53.2845 21.0088C53.7273 20.6398 53.8258 19.9756 53.5059 19.5082L52.6449 18.3274Z" fill="#B3C1D5"/>
<path d="M66.4216 16.9741C66.2248 16.6297 66.028 16.2853 65.782 15.9655V15.9163C66.5938 15.4981 67.2334 14.8338 67.627 14.022C68.0698 13.1856 68.2912 12.2754 68.2912 11.3406C68.3158 10.2582 68.0452 9.2004 67.4794 8.29019C66.9382 7.45378 66.151 6.81418 65.2161 6.46977C64.5273 6.19917 63.4449 6.07617 61.9689 6.07617H57.2457C56.6307 6.07617 56.1387 6.56818 56.1387 7.18318V21.6973C56.1387 22.3123 56.6307 22.8043 57.2457 22.8043H59.1153C59.7303 22.8043 60.2223 22.3123 60.2223 21.6973V17.1709H62.1411L64.7979 22.2139C64.9948 22.5829 65.3638 22.8043 65.782 22.8043H67.7746C67.9714 22.8043 68.1436 22.7551 68.3158 22.6567C68.857 22.3615 69.0538 21.6727 68.7586 21.1315L66.4216 16.9741ZM63.5679 13.1364C63.1251 13.5054 62.5839 13.7022 61.9935 13.6776H60.2223V9.594H61.5999C62.1165 9.5694 62.6577 9.6678 63.1497 9.84C63.8139 10.1106 64.1337 10.701 64.1337 11.6112C64.1583 12.177 63.9615 12.7182 63.5679 13.1364Z" fill="#B3C1D5"/>
<path d="M86.7158 6.10059H84.0836C83.6162 6.10059 83.198 6.39579 83.0258 6.83859L80.861 13.1608C80.615 13.8743 80.3198 14.8091 80.0246 15.9161H79.9754L79.139 13.1608L76.9741 6.83859C76.8265 6.39579 76.3837 6.10059 75.9163 6.10059H73.2841C72.7183 6.10059 72.2263 6.54339 72.1771 7.10919L70.9717 21.6233C70.9717 21.6479 70.9717 21.6971 70.9717 21.7217C70.9717 22.3367 71.4883 22.8287 72.1033 22.8287H73.9729C74.5633 22.8287 75.0553 22.3613 75.0799 21.7955L75.5227 15.3011C75.5965 14.3663 75.5965 13.4315 75.5227 12.4966H75.5719L76.5067 15.3011L77.9827 19.4093C78.1303 19.8521 78.5732 20.1473 79.0406 20.1473H80.984C81.4514 20.1473 81.8696 19.8521 82.0418 19.4093L83.5178 15.3011C83.7638 14.5877 84.0836 13.6529 84.4526 12.4966H84.5018L84.4772 12.9148C84.4526 13.1854 84.4526 13.5791 84.4526 14.0465C84.4526 14.5139 84.4772 14.9321 84.5018 15.3011L84.9446 21.7955C84.9938 22.3859 85.4612 22.8287 86.0516 22.8287H87.8966C87.9212 22.8287 87.9458 22.8287 87.995 22.8287C88.61 22.7795 89.0774 22.2383 89.0282 21.6233L87.8474 7.10919C87.7736 6.54339 87.2816 6.10059 86.7158 6.10059Z" fill="#B3C1D5"/>
<path d="M100.344 3.14844H99.2125C98.5975 3.14844 98.1055 3.64044 98.1055 4.25545V24.649C98.1055 25.264 98.5975 25.7806 99.2125 25.7806H100.344C100.959 25.7806 101.451 25.2886 101.451 24.6736V4.25545C101.476 3.64044 100.959 3.14844 100.344 3.14844Z" fill="#B3C1D5"/>
<path d="M121.009 14.0711V14.0219C121.624 13.6529 122.116 13.1362 122.436 12.5212C122.781 11.8816 122.953 11.1928 122.953 10.4794C122.953 9.07721 122.436 7.9948 121.403 7.2322C120.37 6.46959 118.992 6.10059 117.27 6.10059H112.227C111.612 6.10059 111.12 6.59259 111.12 7.2076V21.7217C111.12 22.3367 111.612 22.8287 112.227 22.8287H117.27C119.115 22.8287 120.616 22.4351 121.821 21.6233C123.027 20.8115 123.617 19.5569 123.617 17.8595C123.617 17.0477 123.396 16.2359 122.977 15.5471C122.535 14.8337 121.821 14.2925 121.009 14.0711ZM117.246 9.59382C117.664 9.56922 118.082 9.71682 118.402 9.98742C118.672 10.258 118.795 10.627 118.795 11.0206C118.82 11.4142 118.672 11.8078 118.426 12.1276C118.156 12.4474 117.738 12.595 117.319 12.5704H115.204V9.59382H117.246ZM118.968 18.8189C118.623 19.1633 118.156 19.3355 117.664 19.3109H115.204V15.8423H117.688C118.18 15.8177 118.648 15.9899 118.992 16.3343C119.287 16.6787 119.46 17.1215 119.435 17.5643C119.46 18.0317 119.287 18.4745 118.968 18.8189Z" fill="#B3C1D5"/>
<path d="M132.523 10.7249C131.982 10.8479 131.49 11.0939 131.071 11.4137C130.383 11.9549 129.866 12.6929 129.62 13.554H129.571L129.62 12.8159V11.9057C129.62 11.2907 129.128 10.7987 128.513 10.7987H126.865C126.25 10.7987 125.758 11.2907 125.758 11.9057V21.7212C125.758 22.3362 126.25 22.8528 126.865 22.8528H128.685C129.3 22.8528 129.792 22.3608 129.792 21.7458V18.1542C129.817 16.998 130.087 16.1124 130.653 15.4728C131.219 14.8332 132.031 14.5134 133.138 14.5134C133.581 14.5134 133.95 14.1444 133.95 13.7016V11.8073C133.95 11.7089 133.95 11.6351 133.925 11.5367C133.728 10.9463 133.113 10.5773 132.523 10.7249Z" fill="#B3C1D5"/>
<path d="M146.372 10.7744H144.576C143.961 10.7744 143.469 11.2664 143.469 11.8814V16.1127C143.493 16.9491 143.272 17.7855 142.805 18.4989C142.386 19.1139 141.673 19.4829 140.91 19.4583C140.049 19.4583 139.631 18.9171 139.631 17.8593V11.8814C139.631 11.2664 139.139 10.7744 138.524 10.7744H136.704C136.089 10.7744 135.597 11.2664 135.597 11.8814V18.5727C135.597 20.1717 135.966 21.3279 136.728 22.0413C137.491 22.7547 138.549 23.0991 139.853 23.0991C140.64 23.0991 141.402 22.9023 142.091 22.5333C142.731 22.1889 143.272 21.6723 143.616 21.0081H143.666L143.616 21.7461C143.616 22.3365 144.084 22.8039 144.674 22.8039H146.396C147.011 22.8039 147.503 22.3119 147.503 21.6969V11.8814C147.503 11.2664 146.987 10.7744 146.372 10.7744Z" fill="#B3C1D5"/>
<path d="M161.205 6.10059H159.36C158.77 6.10059 158.278 6.59259 158.253 7.183V10.9222C158.253 11.119 158.253 11.3158 158.278 11.4634H158.228C157.589 10.8238 156.556 10.504 155.08 10.504C153.554 10.4548 152.103 11.0944 151.119 12.226C150.086 13.3822 149.594 14.9075 149.594 16.7771C149.594 18.6467 150.086 20.1965 151.07 21.3527C152.054 22.5089 153.382 23.0993 155.006 23.0993C156.556 23.0993 157.736 22.5089 158.499 21.3527H158.548L158.524 21.7955C158.524 21.8201 158.524 21.8447 158.524 21.8693C158.548 22.4105 158.991 22.8533 159.532 22.8533H161.205C161.82 22.8533 162.312 22.3613 162.312 21.7463V7.2076C162.312 6.59259 161.82 6.10059 161.205 6.10059ZM157.712 19.0157C157.318 19.4831 156.728 19.7537 156.113 19.7537C155.424 19.7783 154.76 19.4831 154.317 18.9419C153.85 18.3269 153.628 17.5643 153.653 16.7771C153.653 15.8915 153.874 15.1781 154.342 14.6615C154.76 14.1695 155.375 13.8989 156.039 13.8989C156.728 13.8743 157.392 14.1941 157.786 14.7599C158.204 15.3503 158.425 16.0637 158.401 16.7771C158.376 17.7857 158.155 18.5237 157.712 19.0157Z" fill="#B3C1D5"/>
<path d="M176.039 6.10059H174.194C173.604 6.10059 173.112 6.59259 173.087 7.183V10.9222C173.087 11.0944 173.087 11.2912 173.112 11.4634H173.062C172.423 10.8238 171.365 10.504 169.914 10.504C168.388 10.4548 166.937 11.0944 165.953 12.226C164.92 13.3822 164.428 14.9075 164.428 16.7771C164.428 18.6467 164.92 20.1965 165.904 21.3527C166.888 22.5089 168.216 23.0993 169.84 23.0993C171.39 23.0993 172.57 22.5089 173.333 21.3527H173.382L173.358 21.7955C173.358 21.8201 173.358 21.8447 173.358 21.8693C173.358 22.4105 173.825 22.8533 174.366 22.8533H176.039C176.654 22.8533 177.146 22.3613 177.146 21.7463V7.2076C177.146 6.59259 176.654 6.10059 176.039 6.10059ZM172.521 19.0157C172.128 19.4831 171.537 19.7537 170.922 19.7537C170.233 19.7783 169.569 19.4831 169.126 18.9419C168.659 18.3269 168.438 17.5643 168.462 16.7771C168.462 15.8915 168.684 15.1781 169.151 14.6615C169.569 14.1695 170.184 13.8989 170.848 13.8989C171.537 13.8743 172.201 14.1941 172.595 14.7599C173.013 15.3503 173.235 16.0637 173.21 16.7771C173.21 17.7857 172.989 18.5237 172.521 19.0157Z" fill="#B3C1D5"/>
<path d="M185.437 10.4795C183.543 10.4795 182.017 11.0699 180.886 12.2753C179.754 13.4807 179.164 14.9813 179.164 16.7771C179.139 18.45 179.779 20.049 180.935 21.2298C182.116 22.4844 183.739 23.0994 185.781 23.0994C186.741 23.0994 187.675 22.9272 188.586 22.632C189.102 22.4598 189.619 22.2384 190.086 21.9432C190.603 21.648 190.775 20.9838 190.48 20.4672L189.988 19.5324C189.693 18.9912 189.028 18.7944 188.487 19.065C187.774 19.4586 186.962 19.68 186.126 19.7046C185.486 19.7292 184.846 19.5324 184.305 19.1634C183.789 18.7698 183.42 18.204 183.321 17.5644H189.889C190.48 17.5644 190.972 17.097 190.996 16.5065C190.996 16.4327 190.996 16.3835 190.996 16.3097C190.996 14.5877 190.504 13.1855 189.52 12.1031C188.536 11.0207 187.183 10.4795 185.437 10.4795ZM183.42 15.2519C183.69 14.0465 184.33 13.4561 185.363 13.4561C185.83 13.4315 186.273 13.6283 186.568 13.9727C186.888 14.3417 187.036 14.7845 187.011 15.2519H183.42Z" fill="#B3C1D5"/>
<path d="M200.86 10.4805C199.113 10.4805 197.834 11.1693 197.022 12.5715H196.973L197.022 11.8581C197.022 11.0217 196.358 10.7511 195.792 10.7511H194.267C193.652 10.7511 193.16 11.2431 193.16 11.8581V21.6736C193.16 22.2886 193.677 22.7806 194.292 22.7806H196.112C196.727 22.7806 197.219 22.264 197.219 21.6736V17.3685C197.195 16.5567 197.416 15.7449 197.883 15.0807C198.351 14.4657 199.064 14.1213 199.851 14.1705C200.737 14.1705 201.18 14.7117 201.18 15.7695V21.7228C201.18 22.3378 201.672 22.8298 202.287 22.8298H204.107C204.722 22.8298 205.214 22.3378 205.214 21.7228V15.0069C205.19 12.0057 203.738 10.4805 200.86 10.4805Z" fill="#B3C1D5"/>
</svg>
