<svg width="201" height="32" viewBox="0 0 201 32" fill="none" xmlns="http://www.w3.org/2000/svg">
<path fill-rule="evenodd" clip-rule="evenodd" d="M49.9169 15.4989H54.5455C57.0124 15.4989 58.7587 15.1159 59.7844 14.3499C60.8166 13.5838 61.3294 12.3115 61.3294 10.5457C61.3294 8.97471 60.901 7.78672 60.0441 6.97525C59.1872 6.16378 57.9277 5.7548 56.2594 5.7548H49.9169V15.4989ZM46.3335 18.3942V3.00879H56.2334C59.0573 3.00879 61.232 3.67095 62.7511 4.98877C64.2702 6.3066 65.0297 8.18271 65.0297 10.6106C65.0297 12.0518 64.7311 13.3437 64.1404 14.4927C63.5496 15.6482 62.7122 16.5506 61.6346 17.2127C60.9724 17.6282 60.1349 17.9333 59.1417 18.1216C58.1485 18.3098 56.8696 18.4007 55.3181 18.4007H46.3335V18.3942ZM67.7108 18.3942V5.78726H81.2331V8.01393H70.8074V10.7664H76.8837V12.9347H70.8074V16.0377H81.3889V18.3942H67.7108ZM83.0703 18.3942V5.78726H85.1801L95.8785 14.1551V5.78726H98.6635V18.3942H96.5342L85.8682 9.89653V18.3942H83.0703ZM109.044 8.04639V18.3942H105.973V8.04639H99.8839V5.78726H115.14V8.04639H109.044ZM112.264 18.3942L119.749 5.78726H122.702L130.298 18.3942H126.851L125.26 15.6287H116.925L115.334 18.3942H112.264ZM118.23 13.3307H124.007L121.073 8.07885L118.23 13.3307ZM130.681 18.3942V5.78726H133.777V16.0377H143.664V18.3942H130.681Z" fill="#B3C1D5"/>
<path fill-rule="evenodd" clip-rule="evenodd" d="M149.078 3.00879V15.4989H159.276V3.00879H162.847V14.7589C162.847 16.1611 162.581 17.1219 162.061 17.6347C161.535 18.1475 160.529 18.3942 159.03 18.3942H149.312C147.825 18.3942 146.819 18.1411 146.286 17.6347C145.754 17.1283 145.494 16.1676 145.494 14.7589V3.00879H149.078ZM167.936 18.3942V3.00879H170.384L181.218 12.0778C181.588 12.3764 181.913 12.662 182.192 12.9347C182.478 13.2008 182.731 13.4735 182.965 13.7526C182.906 12.8892 182.874 12.279 182.848 11.922C182.828 11.5649 182.815 11.2858 182.815 11.091V3.00879H186.029V18.3942H183.581L172.279 8.89031C172.007 8.64363 171.766 8.4294 171.565 8.23465C171.364 8.0399 171.169 7.84514 171 7.63741C171.046 8.1113 171.085 8.55923 171.111 8.9812C171.137 9.40316 171.15 9.7667 171.15 10.0783V18.3877H167.936V18.3942ZM191.112 18.3942V3.00879H194.695V18.3942H191.112Z" fill="#B3C1D5"/>
<path fill-rule="evenodd" clip-rule="evenodd" d="M47.3976 24.4515V26.1653C47.3976 26.2302 47.4042 26.3016 47.4301 26.386H46.6187C46.6381 26.3211 46.6446 26.2432 46.6446 26.1653V22.1014C46.6446 22.0235 46.6316 21.9521 46.6187 21.8807H48.0598C48.4104 21.8807 48.709 21.9521 48.9492 22.095C49.3257 22.3092 49.5074 22.6597 49.5074 23.1271C49.5074 23.6465 49.2802 24.023 48.8258 24.2502C48.5597 24.3801 48.2416 24.4515 47.8716 24.4515H47.3976ZM47.3976 24.1009H47.8002C48.0209 24.1009 48.1961 24.062 48.3324 23.9841C48.4623 23.9062 48.5597 23.7893 48.6376 23.64C48.709 23.4907 48.7479 23.3219 48.7479 23.1336C48.7479 22.848 48.67 22.6208 48.5142 22.4585C48.3584 22.2962 48.1377 22.2118 47.8651 22.2118H47.4041V24.1009H47.3976ZM52.3768 26.386H50.0917C50.1112 26.3211 50.1177 26.2497 50.1177 26.1783V22.1079C50.1177 22.03 50.1047 21.9586 50.0917 21.8937H50.9032C50.8837 21.9586 50.8772 22.03 50.8772 22.1079V26.029H52.1496C52.247 26.029 52.3249 26.016 52.3768 25.9965V26.386ZM53.5518 24.9708L53.1169 26.1977C53.0974 26.2497 53.0909 26.3146 53.0909 26.386H52.6625C52.7014 26.3211 52.7338 26.2562 52.7533 26.1977L54.227 22.0495C54.2464 21.9911 54.2594 21.9392 54.2594 21.8872H54.9151C54.9151 21.9327 54.9281 21.9781 54.9475 22.0365L56.4666 26.1977C56.4861 26.2497 56.525 26.3146 56.577 26.386H55.7006C55.7006 26.3276 55.6876 26.2627 55.6617 26.1977L55.2332 24.9708H53.5518ZM53.6687 24.6462H55.1034L54.3763 22.6143L53.6687 24.6462ZM57.3949 22.7182V26.1718C57.3949 26.2497 57.4079 26.3211 57.4274 26.3925H57.0249C57.0444 26.3276 57.0574 26.2562 57.0574 26.1718V22.1079C57.0574 22.0235 57.0444 21.9521 57.0249 21.8937H57.739C57.752 21.9392 57.7715 21.9846 57.8169 22.0495L60.2773 25.4836V22.1079C60.2773 22.03 60.2643 21.9586 60.2448 21.8937H60.6473C60.6278 21.9456 60.6214 22.0106 60.6149 22.1079V26.1912C60.6149 26.2821 60.6278 26.347 60.6473 26.3925H59.9916C59.9787 26.3535 59.9462 26.3016 59.8878 26.2237L57.3949 22.7182ZM63.6075 21.8223C64.2697 21.8223 64.7955 22.0041 65.185 22.3676C65.6135 22.7766 65.8212 23.3608 65.8212 24.1334C65.8212 24.8929 65.6135 25.4772 65.211 25.8796C64.828 26.2627 64.2827 26.4509 63.5945 26.4509C62.8675 26.4509 62.3222 26.2432 61.9522 25.8342C61.5756 25.4187 61.3874 24.8345 61.3874 24.0879C61.3874 23.614 61.4782 23.205 61.6535 22.8545C62.0106 22.1793 62.6597 21.8288 63.6075 21.8223ZM63.614 22.1664C63.1142 22.1664 62.7506 22.3546 62.5169 22.7247C62.3027 23.0687 62.1988 23.5231 62.1988 24.0944C62.1988 25.4252 62.6727 26.0939 63.6205 26.0939C64.0944 26.0939 64.4515 25.9056 64.6982 25.5356C64.815 25.3603 64.8994 25.1591 64.9513 24.9383C65.0033 24.7176 65.0292 24.4515 65.0292 24.1399C65.0227 22.8415 64.5553 22.1858 63.614 22.1664ZM66.2821 26.1069L66.4314 25.5745C66.5483 25.6784 66.6522 25.7563 66.7301 25.8147C66.9638 25.977 67.2234 26.0614 67.4961 26.0614C67.7752 26.0614 67.9895 25.9835 68.1453 25.8147C68.2881 25.6654 68.3595 25.4901 68.3595 25.2824C68.3595 25.0357 68.2556 24.8345 68.0544 24.6852C67.9635 24.6138 67.7363 24.4904 67.3727 24.3216C66.9962 24.1463 66.7301 23.9646 66.5743 23.7893C66.3925 23.5816 66.3016 23.3414 66.3016 23.0687C66.3016 22.822 66.373 22.6013 66.5093 22.4001C66.7755 22.0171 67.204 21.8223 67.7947 21.8223C68.1323 21.8223 68.4829 21.9002 68.8464 22.0625L68.7036 22.5429C68.3595 22.3027 68.0414 22.1858 67.7493 22.1858C67.5156 22.1858 67.3338 22.2572 67.191 22.4001C67.0742 22.5234 67.0092 22.6792 67.0092 22.8545C67.0092 23.0363 67.0677 23.1856 67.191 23.3024C67.3143 23.4193 67.561 23.5621 67.944 23.7374C68.3595 23.9256 68.6386 24.1139 68.7879 24.2957C68.9697 24.5229 69.0671 24.789 69.0671 25.0876C69.0671 25.3408 68.9957 25.581 68.8658 25.8017C68.5997 26.2432 68.1453 26.4639 67.5156 26.4639C67.2884 26.4639 67.0806 26.4379 66.8989 26.386C66.7236 26.3211 66.5158 26.2302 66.2821 26.1069ZM73.5919 21.8223C74.254 21.8223 74.7863 22.0041 75.1693 22.3676C75.5978 22.7766 75.8055 23.3608 75.8055 24.1334C75.8055 24.8929 75.6043 25.4772 75.1953 25.8796C74.8123 26.2627 74.267 26.4509 73.5724 26.4509C72.8518 26.4509 72.3 26.2432 71.93 25.8342C71.5534 25.4187 71.3652 24.8345 71.3652 24.0879C71.3652 23.614 71.4561 23.205 71.6313 22.8545C71.9949 22.1793 72.6441 21.8288 73.5919 21.8223ZM73.5984 22.1664C73.105 22.1664 72.7349 22.3546 72.5012 22.7247C72.2935 23.0687 72.1832 23.5231 72.1832 24.0944C72.1832 25.4252 72.657 26.0939 73.6113 26.0939C74.0852 26.0939 74.4423 25.9056 74.689 25.5356C74.8058 25.3603 74.8902 25.1591 74.9422 24.9383C74.9941 24.7176 75.02 24.4515 75.02 24.1399C75.0136 22.8415 74.5397 22.1858 73.5984 22.1664ZM76.5586 21.8872H77.9478C78.4607 21.8872 78.8956 21.9911 79.2591 22.1988C79.5902 22.3871 79.8369 22.6468 79.9992 22.9778C80.168 23.3154 80.2524 23.6854 80.2524 24.0944C80.2524 24.7176 80.0836 25.2305 79.7525 25.6395C79.3435 26.1328 78.8112 26.386 78.1491 26.386H76.5651C76.5846 26.3211 76.591 26.2497 76.591 26.1653V22.095C76.591 22.0171 76.5781 21.9456 76.5586 21.8872ZM77.3441 25.9965H77.9543C78.3568 25.9965 78.6749 25.8796 78.9151 25.6395C79.0774 25.4772 79.2007 25.2824 79.2786 25.0617C79.389 24.7566 79.4409 24.432 79.4409 24.0879C79.4409 23.3868 79.2202 22.874 78.7723 22.5494C78.5061 22.3546 78.188 22.2573 77.8309 22.2573H77.3376V25.9965H77.3441ZM83.0114 21.8223C83.6735 21.8223 84.2059 22.0041 84.5889 22.3676C85.0173 22.7766 85.2251 23.3608 85.2251 24.1334C85.2251 24.8929 85.0238 25.4772 84.6148 25.8796C84.2318 26.2627 83.6865 26.4509 82.9919 26.4509C82.2713 26.4509 81.7195 26.2432 81.3495 25.8342C80.973 25.4187 80.7782 24.8345 80.7782 24.0879C80.7782 23.614 80.8691 23.205 81.0509 22.8545C81.4144 22.1793 82.0636 21.8288 83.0114 21.8223ZM83.0114 22.1664C82.5115 22.1664 82.148 22.3546 81.9143 22.7247C81.7001 23.0687 81.5962 23.5231 81.5962 24.0944C81.5962 25.4252 82.0701 26.0939 83.0243 26.0939C83.4982 26.0939 83.8618 25.9056 84.102 25.5356C84.2188 25.3603 84.3032 25.1591 84.3552 24.9383C84.4071 24.7176 84.4331 24.4515 84.4331 24.1399C84.4266 22.8415 83.9592 22.1858 83.0114 22.1664ZM86.3352 22.7182V26.1718C86.3352 26.2497 86.3481 26.3211 86.3676 26.3925H85.9651C85.9846 26.3276 85.9976 26.2562 85.9976 26.1718V22.1079C85.9976 22.0235 85.9846 21.9521 85.9651 21.8937H86.6857C86.6922 21.9392 86.7182 21.9846 86.7636 22.0495L89.2175 25.4836V22.1079C89.2175 22.03 89.2045 21.9586 89.185 21.8937H89.5875C89.5681 21.9456 89.5615 22.0106 89.555 22.1079V26.1912C89.555 26.2821 89.5681 26.347 89.5875 26.3925H88.9319C88.9189 26.3535 88.8864 26.3016 88.828 26.2237L86.3352 22.7182ZM89.9186 21.8872H93.1839V22.2962C93.0736 22.2767 92.9827 22.2637 92.9048 22.2637H91.9375V26.1653C91.9375 26.2432 91.9505 26.3146 91.9635 26.386H91.152C91.1715 26.3211 91.178 26.2497 91.178 26.1653V22.2637H90.2042C90.1068 22.2637 90.016 22.2767 89.9121 22.2962V21.8872H89.9186ZM95.4171 21.8223C96.0793 21.8223 96.6116 22.0041 96.9946 22.3676C97.4231 22.7766 97.6308 23.3608 97.6308 24.1334C97.6308 24.8929 97.4295 25.4772 97.0205 25.8796C96.6375 26.2627 96.0922 26.4509 95.4041 26.4509C94.677 26.4509 94.1317 26.2432 93.7617 25.8342C93.3852 25.4187 93.1969 24.8345 93.1969 24.0879C93.1969 23.614 93.2878 23.205 93.4631 22.8545C93.8266 22.1793 94.4758 21.8288 95.4171 21.8223ZM95.4236 22.1664C94.9237 22.1664 94.5602 22.3546 94.3265 22.7247C94.1188 23.0687 94.0084 23.5231 94.0084 24.0944C94.0084 25.4252 94.4823 26.0939 95.4366 26.0939C95.9105 26.0939 96.2675 25.9056 96.5142 25.5356C96.6311 25.3603 96.7155 25.1591 96.7674 24.9383C96.8193 24.7176 96.8453 24.4515 96.8453 24.1399C96.8388 22.8415 96.3649 22.1858 95.4236 22.1664ZM100.675 26.386H98.3903C98.4098 26.3211 98.4163 26.2497 98.4163 26.1783V22.1079C98.4163 22.03 98.4033 21.9586 98.3903 21.8937H99.2018C99.1823 21.9586 99.1758 22.03 99.1758 22.1079V26.029H100.448C100.546 26.029 100.617 26.016 100.675 25.9965V26.386ZM102.986 21.8223C103.649 21.8223 104.181 22.0041 104.564 22.3676C104.992 22.7766 105.2 23.3608 105.2 24.1334C105.2 24.8929 104.999 25.4772 104.59 25.8796C104.207 26.2627 103.662 26.4509 102.967 26.4509C102.246 26.4509 101.695 26.2432 101.325 25.8342C100.948 25.4187 100.76 24.8345 100.76 24.0879C100.76 23.614 100.851 23.205 101.026 22.8545C101.396 22.1793 102.045 21.8288 102.986 21.8223ZM102.993 22.1664C102.493 22.1664 102.13 22.3546 101.896 22.7247C101.682 23.0687 101.578 23.5231 101.578 24.0944C101.578 25.4252 102.052 26.0939 102.999 26.0939C103.473 26.0939 103.837 25.9056 104.077 25.5356C104.194 25.3603 104.278 25.1591 104.33 24.9383C104.382 24.7176 104.408 24.4515 104.408 24.1399C104.408 22.8415 103.934 22.1858 102.993 22.1664ZM102.603 21.6276L103.064 20.5889H103.655L102.948 21.6276H102.603ZM109.316 22.0625V22.6208C108.9 22.3416 108.492 22.1988 108.089 22.1988C107.648 22.1988 107.297 22.3481 107.024 22.6468C106.856 22.835 106.739 23.0363 106.68 23.2635C106.602 23.5296 106.563 23.8347 106.563 24.1593C106.563 24.8345 106.713 25.3343 107.018 25.6654C107.271 25.9446 107.609 26.0809 108.024 26.0809C108.271 26.0809 108.498 26.016 108.719 25.8926V24.1399C108.719 24.0555 108.706 23.9841 108.693 23.9191H109.478C109.465 23.9905 109.452 24.062 109.452 24.1399V25.8667C109.452 25.9705 109.472 26.0549 109.498 26.1328C109.095 26.2691 108.803 26.3535 108.615 26.3925C108.433 26.425 108.206 26.4509 107.946 26.4509C107.479 26.4509 107.096 26.3665 106.797 26.1977C106.44 25.9965 106.174 25.7044 105.999 25.3149C105.843 24.9773 105.765 24.5878 105.765 24.1463C105.765 23.3608 106.012 22.7571 106.492 22.3287C106.888 21.9846 107.407 21.8093 108.057 21.8093C108.446 21.8223 108.868 21.9002 109.316 22.0625ZM110.368 21.8872H111.179C111.166 21.9392 111.153 22.0106 111.153 22.1014V26.1718C111.153 26.2627 111.166 26.3341 111.179 26.3925H110.368C110.387 26.3276 110.394 26.2562 110.394 26.1718V22.1014C110.394 22.0235 110.387 21.9521 110.368 21.8872ZM115.327 22.0171V22.6273C115.126 22.465 114.951 22.3481 114.795 22.2897C114.639 22.2248 114.457 22.1923 114.256 22.1923C113.763 22.1923 113.393 22.3806 113.133 22.7506C112.886 23.1077 112.763 23.5621 112.763 24.1204C112.763 24.7176 112.906 25.1915 113.185 25.5421C113.458 25.8926 113.821 26.0679 114.282 26.0679C114.483 26.0679 114.665 26.029 114.814 25.964C114.97 25.8926 115.139 25.7628 115.327 25.5875V26.1783C115.113 26.2821 114.918 26.347 114.75 26.386C114.581 26.4249 114.379 26.4444 114.152 26.4444C113.458 26.4444 112.925 26.2497 112.555 25.8667C112.159 25.4512 111.958 24.8604 111.958 24.0944C111.958 23.6075 112.042 23.205 112.205 22.8934C112.581 22.1729 113.263 21.8093 114.263 21.8093C114.639 21.8223 114.996 21.8872 115.327 22.0171ZM117.846 21.8223C118.508 21.8223 119.041 22.0041 119.424 22.3676C119.852 22.7766 120.06 23.3608 120.06 24.1334C120.06 24.8929 119.859 25.4772 119.45 25.8796C119.067 26.2627 118.521 26.4509 117.833 26.4509C117.106 26.4509 116.561 26.2432 116.191 25.8342C115.814 25.4187 115.626 24.8345 115.626 24.0879C115.626 23.614 115.717 23.205 115.892 22.8545C116.256 22.1793 116.905 21.8288 117.846 21.8223ZM117.853 22.1664C117.353 22.1664 116.989 22.3546 116.755 22.7247C116.541 23.0687 116.437 23.5231 116.437 24.0944C116.437 25.4252 116.918 26.0939 117.866 26.0939C118.339 26.0939 118.697 25.9056 118.943 25.5356C119.06 25.3603 119.144 25.1591 119.196 24.9383C119.248 24.7176 119.274 24.4515 119.274 24.1399C119.268 22.8415 118.794 22.1858 117.853 22.1664ZM120.527 26.1069L120.676 25.5745C120.8 25.6784 120.897 25.7563 120.975 25.8147C121.215 25.977 121.468 26.0614 121.741 26.0614C122.02 26.0614 122.235 25.9835 122.397 25.8147C122.54 25.6654 122.605 25.4901 122.605 25.2824C122.605 25.0357 122.501 24.8345 122.299 24.6852C122.209 24.6138 121.981 24.4904 121.618 24.3216C121.241 24.1463 120.982 23.9646 120.826 23.7893C120.644 23.5816 120.553 23.3414 120.553 23.0687C120.553 22.822 120.618 22.6013 120.761 22.4001C121.027 22.0171 121.455 21.8223 122.053 21.8223C122.39 21.8223 122.741 21.9002 123.098 22.0625L122.955 22.5429C122.611 22.3027 122.293 22.1858 122.001 22.1858C121.774 22.1858 121.585 22.2572 121.443 22.4001C121.326 22.5234 121.261 22.6792 121.261 22.8545C121.261 23.0363 121.319 23.1856 121.443 23.3024C121.566 23.4193 121.813 23.5621 122.196 23.7374C122.611 23.9256 122.89 24.1139 123.039 24.2957C123.228 24.5229 123.319 24.789 123.319 25.0876C123.319 25.3408 123.254 25.581 123.117 25.8017C122.851 26.2432 122.397 26.4639 121.774 26.4639C121.546 26.4639 121.339 26.4379 121.157 26.386C120.969 26.3211 120.761 26.2302 120.527 26.1069Z" fill="#B3C1D5"/>
<path fill-rule="evenodd" clip-rule="evenodd" d="M13.3608 19.2258C16.0874 23.004 21.93 21.6861 28.5126 19.1544C31.4014 18.0443 33.0049 16.5641 35.9067 18.4792C36.8935 19.1284 37.6984 20.0892 38.2892 21.4265C33.7774 23.335 29.2721 25.2501 24.7603 27.1587C18.5153 28.087 14.9903 25.0424 13.3608 19.2258Z" fill="#B3C1D5"/>
<path fill-rule="evenodd" clip-rule="evenodd" d="M6.69446 2.48926C13.7185 2.51522 20.5024 2.5347 27.5265 2.56067C29.831 3.74866 31.1359 6.31939 31.6227 9.23418C26.5202 8.30586 22.2746 8.81871 18.029 9.2212C14.8611 9.51982 13.4458 10.1171 10.7193 8.37727C8.32386 6.84522 6.83728 4.94314 6.69446 2.48926Z" fill="#B3C1D5"/>
<path fill-rule="evenodd" clip-rule="evenodd" d="M0.533447 8.35788C4.59728 8.00732 6.81745 9.40954 8.60268 11.0844C11.8031 14.0771 11.0111 14.4601 12.0952 18.5434C13.6273 24.3276 16.1721 29.0081 23.9297 28.0214C19.4179 29.1769 16.6719 32.663 10.4009 31.488C1.31243 29.0406 3.82476 16.0701 0.533447 8.35788Z" fill="#B3C1D5"/>
<path fill-rule="evenodd" clip-rule="evenodd" d="M28.6681 2.55469C30.2066 2.60662 31.8296 2.56118 33.4331 2.75593C37.3346 3.22983 37.8669 6.29393 38.4836 10.2539C38.8796 12.8052 39.2367 15.5836 40.1325 17.8882C37.5553 18.07 35.5948 17.0183 34.264 14.7137C32.3944 10.6629 33.6667 5.47597 28.6681 2.55469Z" fill="#B3C1D5"/>
<path fill-rule="evenodd" clip-rule="evenodd" d="M197.383 3.77482V1.54166H198.331C198.571 1.54166 198.74 1.56113 198.851 1.60008C198.961 1.63903 199.045 1.71044 199.11 1.81431C199.175 1.91818 199.208 2.03503 199.208 2.16487C199.208 2.33365 199.156 2.46998 199.058 2.58034C198.961 2.6907 198.812 2.75561 198.617 2.78807C198.714 2.8465 198.792 2.90492 198.864 2.97633C198.929 3.04774 199.013 3.1646 199.123 3.33987L199.396 3.77482H198.857L198.533 3.28794C198.416 3.11266 198.338 3.0023 198.292 2.96335C198.253 2.91791 198.208 2.88545 198.156 2.87247C198.111 2.85299 198.033 2.8465 197.929 2.8465H197.838V3.78131H197.383V3.77482ZM198.273 0.632812C198.831 0.632812 199.337 0.860024 199.707 1.22356C200.078 1.5871 200.298 2.09346 200.298 2.65175C200.298 3.21004 200.071 3.72288 199.707 4.08642C199.344 4.45645 198.838 4.67717 198.273 4.67717C197.715 4.67717 197.208 4.44996 196.845 4.08642C196.475 3.72288 196.254 3.21653 196.254 2.65175C196.254 2.09346 196.481 1.5871 196.845 1.22356C197.208 0.860024 197.715 0.632812 198.273 0.632812ZM199.448 1.48972C199.149 1.1911 198.734 1.00284 198.279 1.00284C197.825 1.00284 197.409 1.1911 197.104 1.48972C196.806 1.78834 196.617 2.20382 196.617 2.65824C196.617 3.11915 196.806 3.52813 197.104 3.82675C197.403 4.13187 197.818 4.31363 198.279 4.31363C198.74 4.31363 199.149 4.13187 199.448 3.82675C199.746 3.52813 199.935 3.11266 199.935 2.65824C199.935 2.20382 199.746 1.78834 199.448 1.48972ZM197.831 2.48296H198.169C198.383 2.48296 198.519 2.47647 198.571 2.45699C198.623 2.43752 198.662 2.40506 198.695 2.35962C198.721 2.31417 198.74 2.25575 198.74 2.19083C198.74 2.11293 198.721 2.05451 198.682 2.00906C198.643 1.96362 198.584 1.93116 198.513 1.91818C198.474 1.91169 198.364 1.91169 198.182 1.91169H197.831V2.48296Z" fill="#B3C1D5"/>
</svg>
