<svg width="95" height="58" viewBox="0 0 95 58" fill="none" xmlns="http://www.w3.org/2000/svg">
<path fill-rule="evenodd" clip-rule="evenodd" d="M14.3901 21.9209C22.1715 21.9209 28.4647 28.2142 28.4647 35.9955C28.4647 43.7768 22.1715 50.0701 14.3901 50.0701C6.60881 50.0701 0.315552 43.7768 0.315552 35.9955C0.315552 28.2142 6.60881 21.9209 14.3901 21.9209Z" fill="#B3C1D5"/>
<path fill-rule="evenodd" clip-rule="evenodd" d="M46.6323 21.9219C54.4136 21.9219 60.7069 28.2151 60.7069 35.9965C60.7069 43.7778 54.4136 50.071 46.6323 50.071C38.851 50.071 32.5577 43.7778 32.5577 35.9965C32.5577 28.2151 38.851 21.9219 46.6323 21.9219Z" fill="#B3C1D5"/>
<path fill-rule="evenodd" clip-rule="evenodd" d="M86.0959 6.3291C83.1508 6.3291 80.7637 8.7162 80.7637 11.6613C80.7637 14.6064 83.1508 16.9935 86.0959 16.9935C89.041 16.9935 91.4281 14.6064 91.4281 11.6613C91.4281 8.7162 89.041 6.3291 86.0959 6.3291Z" fill="#B3C1D5"/>
<path fill-rule="evenodd" clip-rule="evenodd" d="M74.1613 21.4258C71.2162 21.4258 68.8291 23.8129 68.8291 26.758C68.8291 29.7031 71.2162 32.0902 74.1613 32.0902C77.1064 32.0902 79.4936 29.7031 79.4936 26.758C79.4936 23.8129 77.1064 21.4258 74.1613 21.4258Z" fill="#B3C1D5"/>
<path fill-rule="evenodd" clip-rule="evenodd" d="M24.0001 0.00390625H28.6813V50.04H24.0001V0.00390625Z" fill="#B3C1D5"/>
<path fill-rule="evenodd" clip-rule="evenodd" d="M64.7686 21.9844H69.0157V50.0405H64.7686V21.9844Z" fill="#B3C1D5"/>
<path fill-rule="evenodd" clip-rule="evenodd" d="M83.9268 21.9844H88.1429V50.0405H83.9268V21.9844Z" fill="#B3C1D5"/>
<path d="M6.51634 57.1712H5.24529L5.05928 57.7602H3.91223L5.27629 54.133H6.48534L7.84939 57.7602H6.67135L6.51634 57.1712ZM6.29933 56.3961L5.89631 55.0941L5.4933 56.3961H6.29933ZM14.7317 54.133H15.8477V56.8612H17.5838V57.7602H14.7007L14.7317 54.133ZM24.6521 54.133H25.7681V57.7602H24.6521V54.133ZM33.0534 54.133H34.5415L35.0995 56.3341L35.6576 54.133H37.1146V57.7602H36.1846V55.0011L35.4715 57.7602H34.6345L33.9215 55.0011V57.7602H32.9914L33.0534 54.133ZM44.3379 54.133H47.345V54.9081H45.454V55.4971H47.19V56.2411H45.454V56.9542H47.376V57.7602H44.3069L44.3379 54.133ZM54.5063 54.133H55.5604L56.9244 56.1481V54.133H57.9785V57.7602H56.9244L55.5604 55.7761V57.7602H54.5063V54.133ZM64.9848 54.133H68.3949V55.0321H67.2479V57.7602H66.1318V55.0321H64.9848V54.133ZM75.0602 55.9621C75.0602 55.3731 75.2152 54.9081 75.5562 54.5671C75.8972 54.226 76.3312 54.071 76.9203 54.071C77.5093 54.071 77.9743 54.226 78.3153 54.5671C78.6563 54.8771 78.8113 55.3421 78.8113 55.9311C78.8113 56.3651 78.7493 56.7061 78.5943 56.9852C78.4393 57.2642 78.2533 57.4812 77.9743 57.6052C77.6953 57.7602 77.3543 57.8222 76.9513 57.8222C76.5483 57.8222 76.2072 57.7602 75.9282 57.6362C75.6492 57.5122 75.4322 57.2952 75.2772 57.0162C75.1532 56.7372 75.0602 56.3651 75.0602 55.9621ZM76.2072 55.9621C76.2072 56.3341 76.2692 56.5821 76.4242 56.7371C76.5483 56.8922 76.7343 56.9852 76.9823 56.9852C77.2303 56.9852 77.4163 56.8922 77.5403 56.7371C77.6643 56.5821 77.7263 56.3031 77.7263 55.9001C77.7263 55.5591 77.6643 55.3111 77.5093 55.1561C77.3853 55.0011 77.1993 54.9081 76.9513 54.9081C76.7343 54.9081 76.5483 55.0011 76.3933 55.1561C76.2692 55.3111 76.2072 55.5901 76.2072 55.9621ZM85.7246 56.5511L86.7787 56.4891C86.8097 56.6751 86.8407 56.7991 86.9337 56.8922C87.0577 57.0472 87.2127 57.1092 87.4297 57.1092C87.5847 57.1092 87.7087 57.0782 87.8017 56.9852C87.8947 56.9232 87.9257 56.8301 87.9257 56.7371C87.9257 56.6441 87.8947 56.5511 87.8017 56.4891C87.7087 56.4271 87.5227 56.3341 87.2127 56.2721C86.7167 56.1481 86.3757 56.0241 86.1587 55.8381C85.9417 55.6521 85.8486 55.4351 85.8486 55.1251C85.8486 54.9391 85.9107 54.7531 86.0037 54.5981C86.0967 54.4431 86.2827 54.288 86.4997 54.195C86.7167 54.102 87.0267 54.04 87.3987 54.04C87.8637 54.04 88.2047 54.133 88.4528 54.288C88.7008 54.4741 88.8558 54.7221 88.8868 55.1251L87.8327 55.1871C87.8017 55.0321 87.7397 54.9081 87.6467 54.8461C87.5537 54.7841 87.4297 54.7221 87.2747 54.7221C87.1507 54.7221 87.0577 54.7531 86.9647 54.8151C86.9027 54.8771 86.8717 54.9391 86.8717 55.0321C86.8717 55.0941 86.9027 55.1561 86.9647 55.1871C87.0267 55.2491 87.1507 55.2801 87.3367 55.3111C87.8327 55.4041 88.1737 55.5281 88.3907 55.6211C88.6078 55.7141 88.7628 55.8691 88.8558 56.0241C88.9488 56.1791 89.0108 56.3651 89.0108 56.5511C89.0108 56.7682 88.9488 56.9852 88.8248 57.2024C88.7008 57.3882 88.5148 57.5432 88.2977 57.6362C88.0807 57.7292 87.7707 57.7912 87.4297 57.7912C86.8097 57.7912 86.3757 57.6672 86.1587 57.4502C85.9107 57.2332 85.7556 56.9232 85.7246 56.5511Z" fill="#B3C1D5"/>
<path d="M91.4291 46.7222V47.5902H91.8012C92.0182 47.5902 92.1732 47.5592 92.2972 47.4972C92.3902 47.4352 92.4522 47.3112 92.4522 47.1872C92.4522 47.0322 92.3902 46.9392 92.2972 46.8462C92.2042 46.7842 92.0182 46.7532 91.8012 46.7532L91.4291 46.7222ZM90.8401 46.3502H91.8942C92.2662 46.3502 92.5762 46.4122 92.7622 46.5362C92.9482 46.6602 93.0412 46.8462 93.0412 47.0942C93.0412 47.2802 92.9792 47.4662 92.8862 47.5902C92.7932 47.7142 92.6382 47.8073 92.4212 47.8383L93.0412 49.0783H92.3902L91.8322 47.9313H91.3981V49.0783H90.8091L90.8401 46.3502ZM91.8322 45.6992C91.5531 45.6992 91.2741 45.7612 91.0571 45.8542C90.8091 45.9472 90.5921 46.1022 90.4061 46.2882C90.2201 46.5052 90.0651 46.7222 89.9411 46.9702C89.8171 47.2182 89.7861 47.4972 89.7861 47.7762C89.7861 48.0553 89.8481 48.3033 89.9411 48.5513C90.0341 48.7993 90.1891 49.0163 90.3751 49.2333C90.5611 49.4193 90.8091 49.5743 91.0571 49.6983C91.3051 49.7913 91.5531 49.8533 91.8322 49.8533C92.1112 49.8533 92.3902 49.7913 92.6382 49.6983C92.8862 49.6053 93.1342 49.4503 93.3202 49.2333C93.5062 49.0473 93.6612 48.8303 93.7852 48.5823C93.8782 48.3343 93.9402 48.0863 93.9402 47.8073C93.9402 47.5282 93.8782 47.2492 93.7852 47.0012C93.6922 46.7532 93.5372 46.5362 93.3512 46.3192C93.1342 46.1022 92.9172 45.9782 92.6692 45.8542C92.3592 45.7612 92.1112 45.6992 91.8322 45.6992ZM91.8322 45.3271C92.1732 45.3271 92.4832 45.3892 92.7932 45.5132C93.1032 45.6372 93.3512 45.8232 93.5992 46.0712C93.8162 46.2882 94.0022 46.5672 94.1263 46.8462C94.2503 47.1252 94.3123 47.4352 94.3123 47.7762C94.3123 48.1173 94.2503 48.4273 94.1263 48.7063C94.0022 48.9853 93.8162 49.2643 93.5992 49.4813C93.3512 49.6983 93.1032 49.8843 92.7932 50.0083C92.4832 50.1323 92.2042 50.1943 91.8632 50.1943C91.5531 50.1943 91.2431 50.1323 90.9331 50.0083C90.6231 49.8843 90.3751 49.6983 90.1271 49.4503C89.9101 49.2023 89.7241 48.9543 89.6001 48.6753C89.4761 48.3963 89.4141 48.0863 89.4141 47.7452C89.4141 47.4352 89.4761 47.1252 89.6001 46.8152C89.7241 46.5052 89.9101 46.2572 90.1581 46.0092C90.3751 45.7922 90.6541 45.6062 90.9331 45.4822C91.1811 45.3892 91.4911 45.3271 91.8322 45.3271Z" fill="#B3C1D5"/>
</svg>
