<svg width="185" height="36" viewBox="0 0 185 36" fill="none" xmlns="http://www.w3.org/2000/svg">
<path d="M106.164 26.1009V13.4352H103.286V21.975L95.7054 13.4352H92.8268V26.1009H95.7054V17.4652L103.286 26.1009H106.164ZM166.518 18.9045C167.094 18.9045 168.149 18.7126 168.149 17.4652C168.149 16.6016 167.574 16.0259 166.518 16.0259H161.145V18.9045H166.518ZM171.412 26.1009H167.861L164.407 21.4952H160.953V26.1009H158.074V13.4352H166.326C169.205 13.4352 170.836 14.9705 170.836 17.4652C170.836 19.0005 169.972 20.7276 167.765 21.2074L171.412 26.1009ZM120.461 10.2688C126.026 10.2688 129.385 13.2433 129.385 18.3288C129.385 21.975 127.082 26.1009 120.461 26.1009H113.457V10.2688H120.461ZM116.335 12.8595V23.4143H120.461C122.668 23.4143 126.506 22.7426 126.506 18.0409C126.506 14.6826 124.299 12.7636 120.461 12.7636L116.335 12.8595ZM175.73 23.5102V21.1114H182.446V18.4247H175.73V16.0259H184.461V13.4352H172.851V26.1009H184.461V23.5102H175.73ZM147.424 23.5102V21.1114H154.14V18.4247H147.424V16.0259H156.155V13.4352H144.449V26.1009H156.059V23.5102H147.424ZM133.894 23.5102V21.1114H140.611V18.4247H133.894V16.0259H142.626V13.4352H130.92V26.1009H142.53V23.5102H133.894ZM87.4535 13.4352V18.5207H79.8733V13.4352H76.9947V26.1009H79.8733V21.1114H87.4535V26.1009H90.332V13.4352H87.4535ZM67.7833 23.7981C66.0561 23.7981 63.1776 23.2224 63.1776 19.6721C63.1776 17.0814 64.8088 15.6421 67.7833 15.6421C70.6618 15.6421 72.389 17.0814 72.389 19.6721C72.293 23.2224 69.4145 23.7981 67.7833 23.7981ZM60.2031 19.864C60.2031 22.8385 62.1221 26.3888 67.6873 26.3888C73.2526 26.3888 75.1716 22.8385 75.1716 19.864C75.1716 15.6421 72.389 13.1474 67.6873 13.1474C62.9857 13.1474 60.2031 15.6421 60.2031 19.864ZM47.4414 23.0304C47.4414 23.0304 49.0726 23.6062 50.9916 23.6062C53.0066 23.6062 54.1581 23.3183 54.9257 22.6466C55.5014 22.0709 55.6933 21.1114 55.6933 19.6721V10.1729H58.5719V20.0559C58.5719 24.4697 56.4609 26.2928 51.4714 26.2928C49.0726 26.2928 47.4414 25.909 47.4414 25.909" fill="#B3C1D5"/>
<path d="M35.2124 4.64887C30.4137 2.24953 24.8477 0.90918 18.9952 0.90918C13.1426 0.90918 7.57658 2.25465 2.68582 4.64887C0.956664 8.77736 0 13.3816 0 18.1803C0 22.979 0.96178 27.486 2.68582 31.7117C7.58169 34.1111 13.1426 35.4514 18.9952 35.4514C24.8477 35.4514 30.4137 34.1059 35.3045 31.7117C37.0337 27.4911 37.9903 22.979 37.9903 18.1803C37.8982 13.3816 36.9416 8.87456 35.2124 4.64887ZM34.0972 30.6476C29.4929 32.8526 24.3105 34.0036 18.9389 34.0036C13.5672 34.0036 8.37977 32.7554 3.7755 30.6476C2.24074 26.8107 1.37616 22.5902 1.37616 18.1752C1.37616 13.7602 2.24074 9.53962 3.7755 5.70273C8.37977 3.58989 13.5621 2.34673 18.9338 2.34673C24.4026 2.34673 29.585 3.595 34.092 5.70273C35.6268 9.53962 36.4914 13.7602 36.4914 18.1752C36.4914 22.5902 35.6319 26.8056 34.0972 30.6476Z" fill="#B3C1D5"/>
<path d="M33.2313 6.37322C28.8163 4.35758 23.9255 3.30371 18.9324 3.30371C13.9394 3.30371 9.04862 4.35758 4.63364 6.37322C3.19609 10.2101 2.42871 14.1442 2.42871 18.1755C2.42871 22.304 3.19609 26.233 4.63364 29.9778C9.04862 31.9934 13.9394 33.0473 18.9324 33.0473C23.9255 33.0473 28.9135 31.9934 33.3233 29.8806C32.4588 28.1514 30.924 26.6166 30.8268 26.5246C30.6324 26.5246 26.6983 25.2763 25.358 24.6061C24.3041 24.028 23.153 22.6877 23.0558 22.4933C22.002 22.4933 20.943 22.4933 19.7919 22.5905C18.4464 22.7849 16.9117 22.9742 15.4741 22.7849C14.6096 22.6877 13.8422 22.4012 12.9776 22.1147C11.6321 21.6338 10.389 21.2501 8.84911 21.2501C9.13559 21.6338 10.3839 24.0331 12.2051 24.6061C12.2051 24.6061 12.7832 24.7033 12.9725 24.8926L13.8371 26.3302L13.7399 26.4274C13.6427 26.4274 9.61137 24.4117 6.92554 21.0557L6.82834 20.3855C8.4603 19.8074 10.1843 19.7154 11.8163 19.521H12.2972C12.4916 17.5053 13.0646 15.7813 13.8319 14.2414C13.9291 14.047 13.6375 13.9549 13.4483 14.1442C12.7781 13.9498 11.1461 13.6633 11.1461 13.6633L10.9517 12.9931C12.5837 12.415 14.5993 11.8421 15.9397 11.5556C16.1341 11.2691 16.2262 10.9775 16.2262 10.7882C16.2262 10.5938 16.129 10.4045 16.0318 10.3073C15.3616 9.53993 12.8651 9.82642 10.1792 10.8854V10.691C10.5629 10.3073 11.2331 9.82642 11.9084 9.53993C11.714 8.77256 10.6601 8.38887 10.6601 8.38887L10.7573 8.29167C11.6219 8.38887 12.3893 8.77256 12.6758 9.25345C13.4431 9.05904 13.7296 8.96696 14.3077 8.96696C14.2105 7.71869 13.0595 6.85411 13.0595 6.85411L13.1567 6.75691C14.3077 7.1406 15.0751 7.90798 15.3616 8.86976C15.8425 8.86976 16.0318 8.86976 16.5127 9.06416C16.6099 8.68047 16.7071 8.29678 16.7071 8.01029C16.7071 6.76203 15.9397 5.89745 15.9397 5.89745L16.1341 5.80025C17.4796 6.56762 17.8632 7.81589 17.8632 8.86976C17.8632 9.92362 17.5768 10.7882 17.4795 11.0747C17.4795 11.0747 19.1115 10.7882 20.2626 10.5938L20.3598 10.691C20.2626 10.7882 19.7817 11.4584 18.3441 12.2258L17.1931 12.1286C17.0959 12.415 16.4257 14.5279 16.4257 16.0626C16.4257 16.6407 16.6201 17.1165 16.9066 17.4081C17.4847 17.9862 18.4413 17.9862 19.1115 17.9862C23.6237 17.7918 25.6342 18.4671 25.9258 18.5643C25.9258 18.4671 26.023 18.2778 26.023 17.8941C26.023 17.2239 25.7365 16.0729 24.6776 14.8246H24.7748C24.872 14.8246 27.5578 16.2622 27.8443 18.5643L26.7034 19.035C27.7573 20.186 28.141 21.5315 28.4326 22.5854C28.627 23.3527 28.8163 24.1201 29.2 24.4066C29.6809 24.7903 31.6965 25.8442 31.6965 25.8442C31.6965 25.8442 32.1774 26.6115 33.6149 29.0109C34.8632 25.4605 35.4362 21.9101 35.4362 18.1704C35.4362 14.1442 34.6688 10.1129 33.2313 6.37322Z" fill="#B3C1D5"/>
</svg>
