<svg width="226" height="30" viewBox="0 0 226 30" fill="none" xmlns="http://www.w3.org/2000/svg">
<path d="M210.998 27.5699C204.179 27.5699 198.609 22.0474 198.609 15.1804C198.609 8.36141 204.131 2.79096 210.998 2.79096C217.817 2.79096 223.388 8.31339 223.388 15.1804C223.388 21.9994 217.865 27.5699 210.998 27.5699ZM210.998 0.870117C203.123 0.870117 196.688 7.25692 196.688 15.1804C196.688 23.1039 203.075 29.4907 210.998 29.4907C218.874 29.4907 225.309 23.1039 225.309 15.1804C225.309 7.25692 218.922 0.870117 210.998 0.870117Z" fill="#B3C1D5"/>
<path d="M200.963 13.9798C200.05 15.5645 200.578 17.6294 202.211 18.5418C202.98 18.974 203.796 19.0701 204.612 18.878C204.084 19.4542 203.748 20.2706 203.748 21.135C203.748 22.9598 205.237 24.4965 207.061 24.4965C208.886 24.4965 210.423 23.0078 210.423 21.183V17.1492C210.135 17.0532 209.895 16.9091 209.654 16.717C208.934 17.0532 208.358 17.5814 208.022 18.3017L206.197 18.0136L206.869 16.2848C207.638 16.3329 208.406 16.1408 209.078 15.6606C209.03 15.3724 209.03 15.0843 209.078 14.7962L205.573 12.7793C203.94 11.8189 201.875 12.3951 200.963 13.9798Z" fill="#B3C1D5"/>
<path d="M214.985 24.4486C216.81 24.4486 218.298 22.9599 218.298 21.0871C218.298 20.2227 217.962 19.4544 217.434 18.8301C218.202 19.0222 219.067 18.9261 219.835 18.4939C221.42 17.5815 221.996 15.5166 221.084 13.9319C220.171 12.3472 218.106 11.771 216.522 12.6834L213.016 14.7003C213.064 14.9884 213.064 15.2765 213.016 15.5647C213.64 16.0449 214.409 16.237 215.225 16.1889L215.897 17.9177L214.072 18.2058C213.736 17.4855 213.16 16.9573 212.44 16.6211C212.2 16.8132 211.96 16.9573 211.671 17.0533V21.0871C211.623 22.9599 213.112 24.4486 214.985 24.4486Z" fill="#B3C1D5"/>
<path d="M217.05 7.11181C216.137 5.52711 214.073 4.99888 212.488 5.91128C211.719 6.34347 211.239 7.01576 210.999 7.7841C210.759 7.01576 210.231 6.34347 209.511 5.91128C207.926 4.99888 205.861 5.52711 204.949 7.11181C204.036 8.6965 204.564 10.7614 206.149 11.6738L209.655 13.6907C209.847 13.4986 210.135 13.3545 210.423 13.2585C210.519 12.4902 210.327 11.6738 209.847 11.0495L210.999 9.6089L212.152 11.0495C211.719 11.6738 211.527 12.4902 211.575 13.2585C211.864 13.3545 212.104 13.4986 212.344 13.6907L215.849 11.6738C217.434 10.7134 218.01 8.6965 217.05 7.11181Z" fill="#B3C1D5"/>
<path d="M210.997 16.3805C210.325 16.3805 209.797 15.8523 209.797 15.18C209.797 14.5077 210.325 13.9795 210.997 13.9795C211.669 13.9795 212.198 14.5077 212.198 15.18C212.198 15.8523 211.669 16.3805 210.997 16.3805Z" fill="#B3C1D5"/>
<path d="M40.618 10.4267C40.3299 10.4267 40.0418 10.6668 39.9938 10.9549L38.6492 19.4546C38.6492 19.5987 38.6492 19.6947 38.7452 19.7908C38.8413 19.8868 38.9373 19.9348 39.0814 19.9348H49.7901C50.0782 19.9348 50.3663 19.6947 50.4144 19.4066L51.7589 10.9069C51.7589 10.7628 51.7589 10.6668 51.6629 10.5707C51.5669 10.4747 51.4708 10.4267 51.3268 10.4267H40.618ZM37.8328 22.672C37.1605 22.672 36.5363 22.3839 36.1521 21.9037C35.7199 21.4235 35.5758 20.7512 35.6719 20.0789L37.2085 10.2346C37.4487 8.84196 38.7452 7.68945 40.1378 7.68945H52.4793C53.1516 7.68945 53.7758 7.97758 54.16 8.45779C54.5922 8.938 54.7363 9.6103 54.6402 10.2826L53.1035 20.1269C52.8634 21.5195 51.5669 22.672 50.1742 22.672H37.8328Z" fill="#B3C1D5"/>
<path d="M27.4132 22.672L29.286 10.9069C29.286 10.7628 29.286 10.6668 29.19 10.5707C29.094 10.4747 28.9979 10.4267 28.8538 10.4267H19.3937C19.1056 10.4267 18.8174 10.6668 18.7694 10.9549L16.9446 22.672H14.0633L15.9362 10.9069C15.9362 10.7628 15.9362 10.6668 15.8401 10.5707C15.7441 10.4747 15.648 10.4267 15.504 10.4267H5.94778C5.65965 10.4267 5.37152 10.6668 5.3235 10.9549L3.4987 22.672H0.617432L2.5863 10.2346C2.8264 8.84196 4.12297 7.68945 5.51559 7.68945H30.0544C30.7267 7.68945 31.3509 7.97758 31.7351 8.45779C32.1673 8.938 32.3114 9.6103 32.2153 10.2826L30.2465 22.672H27.4132Z" fill="#B3C1D5"/>
<path d="M128.162 22.672L130.035 10.9069C130.035 10.7628 130.035 10.6668 129.939 10.5707C129.842 10.4747 129.746 10.4267 129.602 10.4267H120.094C119.806 10.4267 119.518 10.6668 119.47 10.9549L117.645 22.672H114.764L116.637 10.9069C116.637 10.7628 116.637 10.6668 116.541 10.5707C116.445 10.4747 116.349 10.4267 116.204 10.4267H106.696C106.408 10.4267 106.12 10.6668 106.072 10.9549L104.247 22.672H101.366L103.335 10.2346C103.575 8.84196 104.872 7.68945 106.264 7.68945H130.803C131.475 7.68945 132.099 7.97758 132.484 8.45779C132.916 8.938 133.06 9.6103 132.964 10.2826L130.995 22.672H128.162Z" fill="#B3C1D5"/>
<path d="M94.4499 14.1243C94.738 14.1243 95.0262 13.8842 95.0742 13.596L95.5064 10.9549C95.5064 10.8108 95.5064 10.7148 95.4103 10.6187C95.3143 10.5227 95.2183 10.4747 95.0742 10.4747H84.3655C84.0774 10.4747 83.7892 10.7148 83.7412 11.0029L83.261 14.1243H94.4499ZM81.5803 22.672C80.908 22.672 80.2837 22.3839 79.8995 21.9037C79.4673 21.4235 79.3233 20.7512 79.4193 20.0789L80.956 10.2346C81.1961 8.84196 82.4927 7.68945 83.8853 7.68945H96.2267C96.899 7.68945 97.5233 7.97758 97.9074 8.45779C98.3396 8.938 98.4837 9.6103 98.3876 10.2826L97.7634 14.2683C97.5233 15.661 96.2267 16.8135 94.8341 16.8135H82.7328L82.3006 19.4546C82.3006 19.5987 82.3006 19.6947 82.3966 19.7908C82.4927 19.8868 82.5887 19.9348 82.7328 19.9348H96.2747L95.8425 22.672H81.5803Z" fill="#B3C1D5"/>
<path d="M172.965 22.672L174.79 10.9069C174.79 10.7628 174.79 10.6668 174.694 10.5707C174.598 10.4747 174.502 10.4267 174.358 10.4267H163.649C163.361 10.4267 163.073 10.6668 163.025 10.9549L161.152 22.672H158.271L160.239 10.2346C160.479 8.84196 161.776 7.68945 163.169 7.68945H175.51C176.182 7.68945 176.807 7.97758 177.239 8.45779C177.671 8.938 177.815 9.6103 177.719 10.2826L175.798 22.672H172.965Z" fill="#B3C1D5"/>
<path d="M183.339 22.6718C182.666 22.6718 182.042 22.3837 181.658 21.9035C181.226 21.4233 181.082 20.751 181.178 20.0787L183.819 3.60742H186.7L186.028 7.68922H190.11L189.822 9.61006C189.774 10.0423 189.341 10.4264 188.861 10.4264H185.596L184.155 19.4544C184.155 19.5985 184.155 19.6945 184.251 19.7905C184.347 19.8866 184.443 19.9346 184.587 19.9346H189.053L188.621 22.6718H183.339Z" fill="#B3C1D5"/>
<path d="M74.1366 10.5696C74.1366 10.5696 74.0405 11.482 73.4643 11.9142L63.812 19.4535C63.3318 19.8376 62.8996 19.9817 62.5154 19.9817H61.411C61.2669 19.9817 61.1709 19.9337 61.0748 19.8376C60.9788 19.7416 60.9788 19.5975 60.9788 19.5015L62.8516 7.73633H59.9703L58.0015 20.1258C57.9054 20.7981 58.0495 21.4704 58.4817 21.9506C58.9139 22.4308 59.4901 22.7189 60.1624 22.7189H62.2753C63.1877 22.7189 63.86 22.6709 64.8685 21.9026L75.9614 13.2588C76.6337 12.7785 76.7777 11.6741 76.7777 11.6741L77.402 7.73633H74.5207L74.1366 10.5696Z" fill="#B3C1D5"/>
<path d="M151.404 14.1243C151.692 14.1243 151.98 13.8842 152.028 13.596L152.46 10.9549C152.46 10.8108 152.46 10.7148 152.364 10.6187C152.268 10.5227 152.172 10.4747 152.028 10.4747H141.32C141.031 10.4747 140.743 10.7148 140.695 11.0029L140.215 14.1243H151.404ZM138.582 22.672C137.91 22.672 137.286 22.3839 136.854 21.9037C136.421 21.4235 136.277 20.7512 136.373 20.0789L137.91 10.2346C138.15 8.84196 139.447 7.68945 140.839 7.68945H153.181C153.853 7.68945 154.477 7.97758 154.862 8.45779C155.294 8.938 155.438 9.6103 155.342 10.2826L154.717 14.2683C154.477 15.661 153.181 16.8135 151.788 16.8135H139.687L139.255 19.4546C139.255 19.5987 139.255 19.6947 139.351 19.7908C139.447 19.8868 139.543 19.9348 139.687 19.9348H153.229L152.797 22.672H138.582Z" fill="#B3C1D5"/>
</svg>
