<svg width="146" height="43" viewBox="0 0 146 43" fill="none" xmlns="http://www.w3.org/2000/svg">
<path d="M142.084 23.3097C143.09 23.3097 143.592 22.3837 143.592 20.9455C143.592 19.5073 143.09 18.5865 142.084 18.5865V16.5947C144.12 16.5947 146 18.1829 146 20.9455C146 23.7081 144.12 25.3014 142.084 25.3014V23.3097ZM142.084 23.3097V25.3014C140.033 25.3014 138.148 23.7132 138.148 20.9455C138.148 18.1778 140.033 16.5947 142.084 16.5947V18.5865C141.079 18.5865 140.606 19.5073 140.606 20.9455C140.606 22.3837 141.089 23.3097 142.084 23.3097Z" fill="#B3C1D5"/>
<path d="M44.9941 6.88006C46.5574 4.90384 47.9649 3.19147 49.0155 2.03264C49.2692 1.74965 49.5449 1.48839 49.8399 1.25146C49.0496 0.598684 48.0633 0.249327 47.0501 0.263355H44.9941V6.88006ZM44.9941 32.1311V16.1765C46.668 12.2086 48.7441 7.84746 51.177 2.84484C51.4431 3.30131 51.6541 3.78948 51.8053 4.29855L58.4355 24.159C59.5766 27.9821 56.0479 28.784 56.0479 28.784L44.9941 32.1311ZM19.9059 27.3975C18.5839 21.1895 10.6115 11.9913 9.89772 11.3291C9.18392 10.6669 8.94767 9.16666 11.5063 10.491C22.0623 15.9437 29.2706 25.8921 29.9492 25.8714C30.7736 25.8455 39.0325 14.4124 44.9941 6.88006V0.263355H3.49873C3.49873 0.263355 -0.0953627 0.0667697 0.759176 3.98298L8.16351 38.8823C8.16351 38.8823 8.99794 42.8037 12.5267 41.9863L20.6599 39.5135L20.6951 39.0841C21.1977 32.4777 20.6398 30.6308 19.9461 27.3716L19.9059 27.3975ZM44.9941 16.1765V32.1311L40.1283 33.6107C40.5706 28.1683 42.2496 22.7156 44.9941 16.1765Z" fill="#B3C1D5"/>
<path d="M51.1965 2.84533C44.7472 16.1046 40.8264 24.8682 40.1377 33.6112L29.5364 36.8342V25.577C29.7475 25.7736 29.8883 25.877 29.9587 25.877C30.9992 25.8408 43.8977 7.60999 49.0601 2.03313C49.3134 1.75154 49.5873 1.49038 49.8795 1.25195C50.3972 1.70993 50.8431 2.24738 51.2015 2.84533H51.1965ZM29.5465 20.2226C31.418 20.1716 33.1963 19.3706 34.5025 17.9903C35.8087 16.6099 36.5396 14.7593 36.5396 12.8325C36.5396 10.9057 35.8087 9.055 34.5025 7.67464C33.1963 6.29428 31.418 5.49332 29.5465 5.44236V20.2226ZM29.5465 36.8342L20.6442 39.5398L20.6743 39.1104C21.177 32.5041 20.614 30.6572 19.9254 27.4032C18.6033 21.1952 10.631 11.9918 9.91218 11.3296C9.19336 10.6674 8.96716 9.17232 11.5207 10.4915C20.9759 15.3752 27.757 23.8801 29.5465 25.577V36.8342ZM29.5465 5.44236C27.6749 5.49332 25.8967 6.29428 24.5905 7.67464C23.2843 9.055 22.5533 10.9057 22.5533 12.8325C22.5533 14.7593 23.2843 16.6099 24.5905 17.9903C25.8967 19.3706 27.6749 20.1716 29.5465 20.2226V5.44236Z" fill="white"/>
<path d="M63.201 14.1846H65.6541L68.4238 19.6062L69.4794 22.017H69.5447C69.4291 20.8633 69.2381 19.3269 69.2381 18.0387V14.1846H71.5102V25.1003H69.0572L66.2925 19.658L65.2519 17.2834H65.1816C65.2972 18.4888 65.4932 19.9425 65.4932 21.2358V25.1003H63.201V14.1846Z" fill="#B3C1D5"/>
<path d="M76.8021 23.3097C77.7773 23.3097 78.285 22.3837 78.285 20.9455C78.285 19.5073 77.7823 18.5865 76.8021 18.5865V16.5947C78.8128 16.5947 80.7229 18.1829 80.7229 20.9455C80.7229 23.7081 78.8329 25.3014 76.8021 25.3014V23.3097ZM76.8021 23.3097V25.3014C74.7512 25.3014 72.8662 23.7132 72.8662 20.9455C72.8662 18.1778 74.7512 16.5947 76.8021 16.5947V18.5865C75.7968 18.5865 75.3243 19.5073 75.3243 20.9455C75.3243 22.3837 75.8068 23.3097 76.8021 23.3097Z" fill="#B3C1D5"/>
<path d="M80.8887 16.7969H83.2965L84.337 20.7183C84.5431 21.5305 84.7592 22.4048 84.9704 23.2739H85.0357C85.2317 22.4048 85.4429 21.5305 85.654 20.7183L86.7096 16.7969H89.0018L86.3678 25.1001H83.6031L80.8887 16.7969Z" fill="#B3C1D5"/>
<path d="M93.1088 23.3097C94.0789 23.3097 94.5866 22.3837 94.5866 20.9455C94.5866 19.5073 94.0839 18.5865 93.1088 18.5865V16.5947C95.1194 16.5947 97.0246 18.1829 97.0246 20.9455C97.0246 23.7081 95.1395 25.3014 93.1088 25.3014V23.3097ZM93.1088 23.3097V25.3014C91.0629 25.3014 89.1729 23.7132 89.1729 20.9455C89.1729 18.1778 91.0629 16.5947 93.1088 16.5947V18.5865C92.1034 18.5865 91.6309 19.5073 91.6309 20.9455C91.6309 22.3837 92.1135 23.3097 93.1037 23.3097H93.1088Z" fill="#B3C1D5"/>
<path d="M103.346 16.264H100.415V14.1895H108.649V16.264H105.733V25.1H103.346V16.264Z" fill="#B3C1D5"/>
<path d="M113.116 20.0928C113.116 19.1409 112.729 18.4735 111.774 18.4735H111.663V16.5956H111.718C114.015 16.5956 115.152 18.3235 115.152 20.5791C115.156 20.9265 115.124 21.2734 115.056 21.6137H111.663V20.0876L113.116 20.0928ZM111.663 25.2661V23.3261C111.88 23.381 112.103 23.4087 112.327 23.4089C112.945 23.3986 113.547 23.2046 114.061 22.8502L114.86 24.3401C114.016 24.9327 113.022 25.2582 112 25.2765L111.663 25.2661ZM111.663 18.458C110.964 18.5046 110.361 19.0219 110.21 20.0721H111.663V21.5982H110.225C110.262 22.0038 110.42 22.3877 110.678 22.6971C110.935 23.0066 111.279 23.2263 111.663 23.3261V25.2661C109.522 25.1161 107.913 23.5382 107.913 20.9257C107.913 18.3131 109.753 16.6111 111.663 16.5801V18.458Z" fill="#B3C1D5"/>
<path d="M116.328 16.7965H118.283L118.444 17.8726H118.51C119.173 17.1845 119.887 16.5948 120.948 16.5948C121.414 16.5575 121.879 16.6718 122.279 16.9215C122.678 17.1712 122.992 17.5437 123.174 17.9864C123.888 17.2311 124.637 16.5948 125.713 16.5948C127.452 16.5948 128.226 17.8726 128.226 19.9419V25.1153H125.834V20.2782C125.834 19.0728 125.527 18.7262 124.828 18.7262C124.284 18.7999 123.789 19.0872 123.446 19.5281V25.136H121.058V20.2989C121.058 19.0935 120.747 18.7469 120.053 18.7469C119.513 18.8202 119.022 19.108 118.686 19.5488V25.1567H116.293L116.328 16.7965Z" fill="#B3C1D5"/>
<path d="M133.564 23.2838C134.343 23.2269 134.957 22.482 134.957 20.8472C134.957 19.3625 134.519 18.6123 133.564 18.6071V16.6878C133.791 16.6283 134.024 16.597 134.258 16.5947C136.208 16.5947 137.41 18.2554 137.41 20.8162C137.41 23.6615 135.751 25.2963 134.012 25.2963C133.862 25.2956 133.712 25.2817 133.564 25.2549V23.2838ZM133.459 23.2838H133.564V25.2549C133.006 25.1298 132.495 24.8425 132.091 24.4271L132.177 25.7515V28.1778H129.784V16.7965H131.735L131.9 17.619H131.956C132.41 17.1842 132.958 16.8652 133.554 16.6878V18.6071C133.285 18.6215 133.021 18.696 132.783 18.8256C132.544 18.9551 132.336 19.1365 132.172 19.3573V22.7562C132.519 23.1001 132.982 23.2913 133.464 23.289L133.459 23.2838Z" fill="#B3C1D5"/>
<path d="M107.349 31.7738V31.3185C107.524 31.3245 107.697 31.2835 107.852 31.1995C108 31.1177 108.128 31.0007 108.224 30.8581C108.331 30.7002 108.412 30.5255 108.465 30.3408C108.524 30.113 108.552 29.8781 108.55 29.6424C108.552 29.4101 108.523 29.1787 108.465 28.9543C108.413 28.7692 108.332 28.5943 108.224 28.437C108.125 28.3014 107.998 28.1901 107.852 28.1111C107.697 28.0271 107.524 27.9861 107.349 27.9921V27.5368C107.585 27.535 107.818 27.5862 108.033 27.6869C108.242 27.7808 108.427 27.9223 108.576 28.1007C108.733 28.2963 108.852 28.5211 108.927 28.7629C109.011 29.048 109.052 29.3446 109.048 29.6424C109.052 29.9436 109.011 30.2436 108.927 30.5322C108.852 30.7787 108.733 31.0086 108.576 31.2099C108.426 31.3896 108.241 31.5342 108.033 31.6341C107.819 31.7373 107.585 31.7886 107.349 31.7841V31.7738ZM107.349 27.5265V27.9817C107.174 27.9771 107.001 28.018 106.846 28.1007C106.699 28.1797 106.57 28.2909 106.469 28.4266C106.361 28.5831 106.281 28.7583 106.233 28.944C106.172 29.1678 106.143 29.3996 106.148 29.632C106.143 29.8678 106.172 30.1031 106.233 30.3304C106.282 30.5157 106.362 30.6907 106.469 30.8478C106.567 30.9907 106.696 31.1078 106.846 31.1892C107.001 31.2719 107.174 31.3128 107.349 31.3082V31.7634C107.112 31.7652 106.877 31.714 106.66 31.6134C106.454 31.5135 106.27 31.3688 106.123 31.1892C105.963 30.9892 105.844 30.7589 105.771 30.5115C105.682 30.2238 105.64 29.9233 105.645 29.6217C105.64 29.3217 105.682 29.023 105.771 28.737C105.844 28.4943 105.963 28.2691 106.123 28.0749C106.269 27.897 106.453 27.7556 106.66 27.661C106.877 27.562 107.112 27.5126 107.349 27.5161V27.5265ZM103.705 30.4494V30.0304H104.308L104.122 29.4096C104.052 29.1768 103.986 28.9491 103.921 28.7215C103.855 28.4939 103.79 28.2663 103.725 28.0283V27.6041H104.021L105.369 31.7014H104.811L104.429 30.4494H103.705ZM103.705 27.1178V26.7453L103.74 26.7712L103.901 26.885C103.951 26.9162 104.008 26.934 104.067 26.9367C104.097 26.9349 104.126 26.9261 104.152 26.9108C104.178 26.8956 104.201 26.8743 104.217 26.8488C104.268 26.7793 104.299 26.6971 104.308 26.6108H104.589C104.576 26.7833 104.519 26.9493 104.424 27.0919C104.386 27.1521 104.333 27.2014 104.272 27.2349C104.21 27.2684 104.141 27.2851 104.072 27.2833C103.997 27.2845 103.923 27.2686 103.855 27.2368C103.802 27.2017 103.751 27.1619 103.705 27.1178ZM103.705 26.7194V27.1178H103.675L103.514 27.004C103.466 26.9721 103.41 26.9542 103.353 26.9522C103.323 26.9534 103.293 26.9614 103.266 26.9757C103.239 26.99 103.215 27.0103 103.197 27.035C103.147 27.1068 103.116 27.1905 103.106 27.2782H102.83C102.843 27.1062 102.898 26.9405 102.991 26.797C103.029 26.7372 103.081 26.6882 103.143 26.6547C103.204 26.6213 103.273 26.6044 103.343 26.6056C103.419 26.6037 103.495 26.6196 103.564 26.6522L103.705 26.7401V26.7194ZM103.705 27.6041V28.0283C103.644 28.2663 103.579 28.4939 103.514 28.7215C103.448 28.9491 103.383 29.1768 103.313 29.4096L103.117 30.0304H103.715V30.4494H102.991L102.609 31.7014H102.106L103.453 27.6041H103.705ZM100.664 32.9533V32.6326C100.687 32.6146 100.706 32.5912 100.719 32.5643C100.732 32.5373 100.739 32.5075 100.739 32.4774C100.74 32.4448 100.734 32.4124 100.721 32.3827C100.708 32.353 100.688 32.327 100.664 32.3066V31.7893H100.694C100.929 31.7927 101.161 31.7395 101.372 31.6341C101.566 31.5229 101.737 31.3734 101.875 31.1944L101.588 30.8788C101.472 31.0132 101.334 31.1268 101.181 31.2151C101.026 31.2961 100.853 31.3369 100.679 31.334H100.638V31.6962H100.9L100.744 32.0273C100.838 32.0596 100.925 32.1105 101 32.1773C101.037 32.216 101.066 32.2622 101.084 32.3131C101.102 32.3639 101.11 32.4181 101.106 32.4722C101.108 32.558 101.081 32.642 101.03 32.7102C100.979 32.7784 100.914 32.8348 100.839 32.8757C100.776 32.9121 100.708 32.9416 100.638 32.9636L100.664 32.9533ZM100.664 27.9921V27.5316H100.724C100.944 27.5278 101.162 27.5812 101.357 27.6869C101.528 27.7736 101.682 27.893 101.81 28.0386L101.523 28.3697C101.424 28.2549 101.304 28.1602 101.171 28.0904C101.034 28.0204 100.882 27.9849 100.729 27.9869L100.664 27.9921ZM100.664 27.5316V27.9921C100.506 27.9942 100.352 28.0331 100.211 28.1059C100.055 28.1816 99.9185 28.2952 99.814 28.437C99.6977 28.5913 99.6107 28.7668 99.5576 28.9543C99.495 29.1779 99.4645 29.4097 99.4672 29.6424C99.4652 29.8781 99.4939 30.113 99.5526 30.3408C99.6042 30.5279 99.6894 30.7034 99.804 30.8581C99.9057 30.9998 100.038 31.1149 100.191 31.1944C100.338 31.2688 100.5 31.3094 100.664 31.3134V31.6755H100.603L100.357 32.1618C100.456 32.1865 100.551 32.2266 100.638 32.2808H100.664V31.7634C100.433 31.7639 100.206 31.7145 99.995 31.6186C99.7846 31.5246 99.5973 31.3831 99.4471 31.2047C99.282 31.0102 99.1572 30.7831 99.0801 30.5373C98.986 30.2491 98.9401 29.9465 98.9444 29.6424C98.94 29.34 98.9859 29.039 99.0801 28.7526C99.1569 28.5056 99.2837 28.2781 99.4521 28.0852C99.6077 27.9048 99.7999 27.7618 100.015 27.6662C100.22 27.5738 100.44 27.5229 100.664 27.5161V27.5316ZM100.664 32.6326V32.9533H100.578C100.471 32.9819 100.362 33.0027 100.251 33.0154L100.201 32.7567C100.336 32.7447 100.469 32.7098 100.593 32.6533L100.664 32.6119V32.6326ZM97.0041 30.4546V30.0355H97.6023L97.4163 29.4147C97.3459 29.1819 97.2806 28.9543 97.2152 28.7267C97.1499 28.4991 97.0845 28.2714 97.0192 28.0335V27.6093H97.3157L98.6629 31.7065H98.1301L97.743 30.4546H97.0041ZM97.0041 27.6093V28.0335C96.9387 28.2714 96.8784 28.4991 96.8131 28.7267C96.7477 28.9543 96.6824 29.1819 96.612 29.4147L96.416 30.0355H97.0141V30.4546H96.2652L95.8831 31.7065H95.3805L96.7276 27.6093H97.0041ZM76.2187 31.779V31.3237C76.3934 31.3297 76.5667 31.2887 76.7213 31.2047C76.8699 31.1229 76.9974 31.0059 77.0933 30.8633C77.2003 30.7054 77.2818 30.5306 77.3346 30.3459C77.3916 30.1179 77.4186 29.883 77.415 29.6475C77.4183 29.4155 77.3913 29.1841 77.3346 28.9595C77.2829 28.7743 77.2014 28.5995 77.0933 28.4422C76.9942 28.3066 76.8672 28.1953 76.7213 28.1162C76.5667 28.0323 76.3934 27.9913 76.2187 27.9973V27.542C76.4545 27.5402 76.6878 27.5914 76.9023 27.692C77.1114 27.7859 77.297 27.9275 77.4452 28.1059C77.6025 28.3015 77.722 28.5262 77.7971 28.7681C77.8807 29.0532 77.9214 29.3498 77.9177 29.6475C77.9217 29.9487 77.881 30.2488 77.7971 30.5373C77.7219 30.7839 77.6026 31.0138 77.4452 31.2151C77.2958 31.3948 77.1106 31.5394 76.9023 31.6393C76.6886 31.7424 76.4547 31.7938 76.2187 31.7893V31.779ZM78.732 27.6093H79.3302L80.0993 29.8079L80.3858 30.6408H80.411L80.6874 29.8079L81.4565 27.6093H82.0497V31.7065H81.5721V29.451C81.5721 29.2647 81.5721 29.063 81.5721 28.8457C81.5721 28.6284 81.6023 28.4215 81.6174 28.2404H81.5922L81.2755 29.1509L80.5115 31.2927H80.2199L79.4559 29.1509L79.1392 28.2404H79.1744C79.1744 28.4215 79.1995 28.6232 79.2146 28.8457C79.2297 29.0681 79.2146 29.2647 79.2146 29.451V31.7065H78.7521V27.6093H78.732ZM83.0952 27.6093H83.5979V30.0252C83.5933 30.2331 83.6187 30.4406 83.6733 30.6408C83.709 30.7885 83.7759 30.9263 83.8693 31.0443C83.9467 31.1402 84.0473 31.2134 84.1609 31.2565C84.2761 31.303 84.399 31.3259 84.5228 31.3237C84.6498 31.3257 84.776 31.3029 84.8948 31.2565C85.0113 31.2134 85.1151 31.1404 85.1964 31.0443C85.29 30.9257 85.3585 30.7883 85.3974 30.6408C85.4477 30.4398 85.4714 30.2327 85.4678 30.0252V27.6093H85.9705V30.0097C85.9758 30.2915 85.9385 30.5725 85.8599 30.8426C85.7979 31.0452 85.6952 31.232 85.5583 31.391C85.4345 31.5286 85.2789 31.6319 85.1059 31.691C84.922 31.7499 84.7305 31.7795 84.5379 31.779C84.3453 31.7799 84.1537 31.7503 83.9699 31.691C83.796 31.6307 83.639 31.5277 83.5124 31.391C83.3756 31.232 83.2728 31.0452 83.2108 30.8426C83.1341 30.5722 83.0985 30.2913 83.1053 30.0097V27.6093H83.0952ZM86.9959 27.6093H87.4986L88.9413 30.1959L89.3736 31.0443C89.3736 30.8374 89.3736 30.6201 89.3283 30.3977C89.2831 30.1752 89.3283 29.9579 89.3283 29.7407V27.6248H89.8058V31.722H89.3032L87.8655 29.1354L87.4332 28.2921H87.4081C87.4081 28.4991 87.4333 28.7112 87.4483 28.9284C87.4634 29.1457 87.4483 29.3578 87.4483 29.5751V31.7169H86.9708V27.6196L86.9959 27.6093ZM90.8916 27.6093H91.3943V31.7065H90.8916V27.6093ZM92.2287 29.6786C92.2253 29.3767 92.2694 29.0762 92.3594 28.7888C92.44 28.5424 92.5683 28.3154 92.7364 28.1214C92.8921 27.9411 93.0842 27.798 93.2994 27.7024C93.5228 27.6016 93.7643 27.5505 94.0082 27.5523C94.2286 27.5485 94.4464 27.6019 94.6415 27.7075C94.8115 27.7961 94.9647 27.9153 95.0939 28.0593L94.8074 28.3904C94.708 28.2756 94.5887 28.1809 94.4555 28.1111C94.3181 28.0411 94.1665 28.0056 94.0132 28.0076C93.8391 28.0083 93.6674 28.049 93.5105 28.1266C93.3541 28.2023 93.2179 28.3159 93.1134 28.4577C92.9971 28.612 92.9101 28.7875 92.8571 28.975C92.7944 29.1986 92.7639 29.4304 92.7666 29.6631C92.7646 29.8988 92.7933 30.1336 92.852 30.3615C92.9036 30.5486 92.9888 30.7241 93.1034 30.8788C93.2051 31.0205 93.3377 31.1356 93.4904 31.2151C93.6468 31.2941 93.8189 31.3348 93.9931 31.334C94.1676 31.3369 94.3401 31.2961 94.4958 31.2151C94.6485 31.1268 94.7861 31.0132 94.9029 30.8788L95.1894 31.1944C95.0441 31.3761 94.8646 31.5257 94.6616 31.6341C94.4503 31.7395 94.2179 31.7927 93.983 31.7893C93.7428 31.7922 93.5047 31.7429 93.2843 31.6445C93.0739 31.5504 92.8867 31.409 92.7364 31.2306C92.5716 31.0351 92.4452 30.8084 92.3644 30.5632C92.2763 30.2685 92.2355 29.961 92.2438 29.6527L92.2287 29.6786ZM64.6171 27.661C64.9841 27.7058 65.3249 27.8794 65.5822 28.1524C65.9338 28.5678 66.1141 29.1079 66.0849 29.6579C66.0878 29.9526 66.0454 30.2459 65.9592 30.527C65.8875 30.7683 65.7657 30.9907 65.6023 31.1789C65.4398 31.3579 65.2406 31.4975 65.0192 31.5875C64.896 31.6366 64.7679 31.6713 64.6372 31.691V31.2409C64.8633 31.1829 65.0657 31.0525 65.2152 30.8685C65.4662 30.5198 65.589 30.0909 65.5621 29.6579C65.5903 29.2295 65.4671 28.8051 65.2152 28.4629C65.0628 28.2865 64.8608 28.1635 64.6372 28.1111V27.661H64.6171ZM76.2036 27.5523V28.0076C76.0288 28.0016 75.8556 28.0426 75.7009 28.1266C75.5536 28.2056 75.4249 28.3168 75.3239 28.4525C75.2156 28.6089 75.1356 28.7842 75.0877 28.9698C75.0268 29.1937 74.998 29.4255 75.0022 29.6579C74.9977 29.8937 75.0265 30.129 75.0877 30.3563C75.1367 30.5415 75.2166 30.7166 75.3239 30.8736C75.4215 31.0166 75.5507 31.1336 75.7009 31.2151C75.8556 31.299 76.0288 31.3401 76.2036 31.334V31.7893C75.9661 31.7917 75.7311 31.7405 75.5149 31.6393C75.3081 31.5393 75.1246 31.3946 74.9771 31.2151C74.8178 31.015 74.6983 30.7848 74.6252 30.5373C74.537 30.2497 74.4946 29.9492 74.4995 29.6475C74.4946 29.3476 74.537 29.0488 74.6252 28.7629C74.6983 28.5202 74.8179 28.295 74.9771 28.1007C75.1239 27.9229 75.3077 27.7814 75.5149 27.6869C75.7315 27.5874 75.9665 27.538 76.2036 27.542V27.5523ZM66.8992 27.6299H69.1964V28.0645H67.4119V29.332H68.9199V29.7769H67.4119V31.2616H69.2567V31.7065H66.8992V27.6093V27.6299ZM71.0613 29.6993C71.0569 29.3969 71.1028 29.0959 71.197 28.8095C71.2778 28.5643 71.4041 28.3376 71.569 28.1421C71.7264 27.9615 71.9203 27.8185 72.137 27.7231C72.3588 27.6229 72.5985 27.5718 72.8407 27.573C73.0613 27.5678 73.2795 27.6213 73.4741 27.7282C73.6452 27.815 73.7987 27.9344 73.9265 28.08L73.645 28.4111C73.5446 28.2975 73.4255 28.2029 73.2931 28.1318C73.1538 28.0623 73.0006 28.0269 72.8458 28.0283C72.6718 28.0295 72.5001 28.0701 72.3431 28.1473C72.1875 28.2244 72.0516 28.3377 71.946 28.4784C71.8297 28.6327 71.7427 28.8082 71.6896 28.9957C71.6269 29.2193 71.5965 29.4511 71.5991 29.6838C71.5961 29.9198 71.6266 30.1551 71.6896 30.3822C71.7396 30.5689 71.8232 30.7444 71.9359 30.8995C72.0395 31.0414 72.1737 31.1565 72.328 31.2358C72.4844 31.3147 72.6565 31.3555 72.8307 31.3547C73.0052 31.3585 73.1779 31.3176 73.3334 31.2358C73.4888 31.1494 73.6283 31.0356 73.7455 30.8995L74.0321 31.2151C73.8861 31.3982 73.7046 31.548 73.4992 31.6548C73.2884 31.7617 73.0556 31.8149 72.8206 31.81C72.582 31.8135 72.3454 31.7641 72.1269 31.6651C71.9151 31.5712 71.7262 31.4298 71.574 31.2513C71.4109 31.0554 71.2862 30.8287 71.2071 30.5839C71.1106 30.2839 71.0663 29.9686 71.0764 29.6527L71.0613 29.6993ZM63.1844 27.6299H64.1898C64.3361 27.6292 64.4823 27.6396 64.6271 27.661V28.1111C64.4729 28.0697 64.3139 28.0505 64.1546 28.0542H63.7072V31.303H64.1546C64.3141 31.3051 64.4732 31.2842 64.6271 31.2409V31.691C64.4911 31.7166 64.3531 31.7287 64.2149 31.7272H63.2096L63.1844 27.6299Z" fill="#B3C1D5"/>
<path d="M71.2989 11.655V11.2256C71.525 11.1676 71.7274 11.0371 71.877 10.8531C72.1279 10.5045 72.2508 10.0756 72.2238 9.64258C72.2525 9.21416 72.1293 8.78957 71.877 8.44754C71.7246 8.27117 71.5225 8.14819 71.2989 8.09575V7.60428C71.6659 7.64913 72.0067 7.82268 72.264 8.09575C72.6156 8.5111 72.7959 9.05116 72.7667 9.60118C72.7721 9.89607 72.7296 10.1898 72.641 10.4703C72.5713 10.7125 72.4493 10.9353 72.2841 11.1221C72.0256 11.3979 71.6868 11.5795 71.319 11.6395L71.2989 11.655ZM73.581 7.59394H75.8782V8.0285H74.0937V9.31665H75.6018V9.76157H74.0937V11.2256H75.9385V11.6705H73.581V7.59394ZM64.533 9.52876C64.7368 9.5257 64.9349 9.45894 65.101 9.33735C65.1837 9.26461 65.2487 9.17286 65.2906 9.06951C65.3325 8.96616 65.3502 8.85411 65.3423 8.74242C65.3536 8.63416 65.3373 8.52473 65.295 8.42493C65.2527 8.32513 65.1858 8.23842 65.101 8.17335C64.928 8.07097 64.7325 8.01577 64.533 8.01298V7.60428C64.7021 7.6022 64.8709 7.6213 65.0356 7.66118C65.1943 7.6957 65.3447 7.76254 65.478 7.85777C65.5995 7.95187 65.6977 8.07418 65.7645 8.21473C65.8366 8.37696 65.8727 8.55369 65.8701 8.73206C65.8849 9.01015 65.7969 9.28371 65.6237 9.49772C65.4539 9.69659 65.2267 9.83436 64.9753 9.8909L65.9806 11.6809H65.4026L64.543 10.1289V9.52358L64.533 9.52876ZM71.2989 7.60428V8.05436C71.1447 8.01294 70.9857 7.9938 70.8264 7.99746H70.379V11.2463H70.8264C70.9859 11.2484 71.145 11.2275 71.2989 11.1842V11.6343C71.1626 11.6573 71.0248 11.6694 70.8867 11.6705H69.8814V7.60428H70.8867C71.033 7.60359 71.1792 7.61396 71.324 7.63532L71.2989 7.60428ZM66.6995 7.57324H68.9916V8.0078H67.2072V9.29596H68.7152V9.74087H67.2072V11.2256H69.052V11.6705H66.6995V7.57324ZM63.7136 9.51324H64.5279V10.1185L64.4274 9.94262H63.7136V11.6757H63.2109V7.60428H64.538V8.02332H63.7237L63.7136 9.51324Z" fill="#B3C1D5"/>
</svg>
