<svg width="105" height="32" viewBox="0 0 105 32" fill="none" xmlns="http://www.w3.org/2000/svg">
<path d="M9.24557 0.447266C9.37463 0.490285 9.54671 0.490284 9.71879 0.533304C10.4931 0.576324 11.2675 0.662366 12.0419 0.791425C12.5581 0.877465 13.0743 0.963503 13.5906 1.09256C14.0208 1.22162 14.451 1.3937 14.8381 1.52276C15.0963 1.6088 15.3544 1.69484 15.6125 1.8239C15.7416 1.86692 15.8706 1.99598 15.9997 2.039C16.0857 2.08202 16.1718 2.12504 16.2578 2.12504C16.3438 2.16806 16.4729 2.21108 16.5589 2.2541C16.9461 2.4692 17.3333 2.77033 17.6344 3.07147C17.8065 3.24355 17.9786 3.37261 18.1507 3.54469C18.3658 3.80281 18.6239 4.06093 18.796 4.36207C18.968 4.62019 19.1401 4.87831 19.3122 5.13643C19.6564 5.69568 19.9575 6.29796 20.1296 6.94326C20.2156 7.37345 20.3447 7.80365 20.4737 8.19083C20.5598 8.53499 20.6028 8.87915 20.6458 9.22331C20.7319 10.1267 20.7319 11.0301 20.6888 11.9766C20.6888 12.4498 20.6028 12.88 20.5598 13.3532C20.4737 13.9985 20.3447 14.6438 20.1296 15.2891C20.0866 15.5902 20.0005 15.8914 19.8284 16.1495C19.8284 16.1495 19.8284 16.1495 19.8284 16.1925C19.7854 16.6227 19.4413 16.9669 19.3122 17.3971C19.3122 17.4401 19.2692 17.4831 19.2262 17.5261C19.0111 17.8703 18.796 18.1714 18.5809 18.4726C18.4948 18.6016 18.3658 18.7307 18.2367 18.8167L17.7635 19.333C17.7205 19.376 17.6775 19.419 17.6344 19.462L17.3763 19.7201C17.3333 19.7632 17.3333 19.7632 17.3333 19.8062C16.9891 20.0643 16.645 20.3224 16.3008 20.5805C15.9567 20.8387 15.6985 20.9247 15.3974 21.0968C15.2253 21.1828 15.0532 21.2689 14.8812 21.3119L13.9347 21.656C13.7627 21.7421 13.5476 21.7851 13.3755 21.8711C13.2034 21.9572 13.0313 21.9572 12.8592 22.0002C12.6872 22.0432 12.386 22.0862 12.1709 22.1292C11.7407 22.1723 11.3535 22.2583 10.9233 22.3013C9.67577 22.4304 8.42819 22.3443 7.18062 22.3874H7.1376V30.9913H0.426514C0.426514 20.7956 0.426514 10.643 0.426514 0.447266H9.24557ZM7.1376 6.5991C7.1376 9.69652 7.1376 12.794 7.1376 15.8914H8.94444C9.07349 15.8914 9.20255 15.8484 9.37463 15.8484C9.76181 15.8484 10.149 15.8053 10.5362 15.6763H10.5792C10.7943 15.6333 11.0094 15.5902 11.2245 15.5042C11.6547 15.2891 12.0419 15.074 12.429 14.8159C12.6441 14.6868 12.8592 14.5147 13.0313 14.2996C13.3325 13.8694 13.5476 13.3962 13.8057 12.966C13.8057 12.923 13.8487 12.923 13.8487 12.88C13.8917 12.7079 13.8917 12.5789 13.9347 12.4068C13.9778 12.1487 14.0208 11.8905 14.0638 11.6324C14.1068 11.2452 14.0638 10.8581 14.0208 10.5139C13.9777 10.2558 13.9778 9.99766 13.9347 9.78256C13.8487 9.48142 13.7196 9.18028 13.5476 8.92217C13.5045 8.79311 13.4185 8.66405 13.3325 8.53499C13.1604 8.31989 12.9453 8.10479 12.7302 7.84667C12.429 7.58855 12.0849 7.33043 11.7407 7.15835C11.6977 7.15835 11.6977 7.11534 11.6547 7.11534C11.2675 6.98628 10.9233 6.85721 10.5362 6.77118C10.192 6.68514 9.84785 6.64212 9.50369 6.64212C8.81537 6.64212 8.12706 6.64212 7.39572 6.64212L7.1376 6.5991Z" fill="#B3C1D5"/>
<path d="M29.6388 0.447266C29.6388 0.490285 29.6388 0.576326 29.6388 0.619346C29.6388 4.62019 29.6388 8.57801 29.6388 12.5788V12.7939C29.6818 12.7079 29.7248 12.7079 29.7678 12.6219C30.3271 11.9766 30.9294 11.3313 31.4886 10.686C31.6177 10.5569 31.7468 10.4709 31.8758 10.3848C32.349 10.0407 32.8653 9.73954 33.4245 9.52444C33.7257 9.4384 33.9838 9.35236 34.2849 9.30934L34.8012 9.18029L34.8872 9.13727C35.3604 9.13727 35.8767 9.05123 36.3929 9.09425C37.1242 9.13727 37.8556 9.30934 38.5869 9.52444C38.6729 9.56746 38.759 9.61049 38.845 9.6535L39.7054 10.1697L39.7915 10.2128C40.2647 10.643 40.6949 11.1592 40.996 11.6754C41.1681 12.0626 41.3402 12.4498 41.4262 12.88C41.5983 13.4823 41.6843 14.1276 41.8134 14.7729C41.8134 14.8589 41.8134 14.9019 41.8134 14.988V30.9913H35.7906V30.7762C35.7906 26.9475 35.7906 23.1187 35.7906 19.2899C35.7906 18.6446 35.7476 18.0424 35.5755 17.4401C35.5325 17.268 35.4895 17.0959 35.4465 16.9239C35.3174 16.5367 35.0593 16.1495 34.7581 15.8484C34.6721 15.7623 34.543 15.7193 34.457 15.6763C34.0268 15.3751 33.5106 15.2461 32.9943 15.2461C32.4781 15.2031 31.9619 15.2891 31.4886 15.5042C31.2305 15.6333 30.9724 15.8484 30.7143 16.0204C30.5852 16.1495 30.4562 16.2786 30.3271 16.4076C30.2841 16.4937 30.198 16.5797 30.198 16.6657C29.8969 17.268 29.6818 17.8703 29.5958 18.5156C29.5958 18.6016 29.5958 18.7307 29.5958 18.8167C29.5958 22.8176 29.5958 26.7754 29.5958 30.7762V30.9913H23.573V30.8193C23.573 20.7526 23.573 10.686 23.573 0.619346C23.573 0.576326 23.573 0.533305 23.573 0.490285L29.6388 0.447266Z" fill="#B3C1D5"/>
<path d="M62.7204 0.447266C62.7204 0.533305 62.7204 0.619345 62.7204 0.662365C62.7204 10.686 62.7204 20.7096 62.7204 30.7332V30.9483H56.6976V30.7332C56.6976 20.7096 56.6976 10.643 56.6976 0.619345C56.6976 0.576326 56.6976 0.490285 56.6976 0.447266H62.7204Z" fill="#B3C1D5"/>
<path d="M52.1798 0.447266C52.1798 0.490285 52.1798 0.576326 52.1798 0.619346V5.86776H46.157V5.69568C46.157 4.01791 46.157 2.29712 46.157 0.619346C46.157 0.576326 46.157 0.490285 46.157 0.447266H52.1798Z" fill="#B3C1D5"/>
<path d="M93.3923 31.3354H92.704C92.2738 31.3354 91.8006 31.2923 91.3704 31.1633C91.0692 31.0772 90.7251 31.0772 90.4239 30.9482C90.0798 30.9052 89.7356 30.7761 89.4775 30.604C89.4345 30.561 89.3484 30.561 89.2624 30.561L88.7892 30.3459C88.7462 30.3029 88.7032 30.3029 88.7032 30.3029C88.4881 30.2599 88.2729 30.1308 88.1009 30.0017C87.7997 29.7866 87.4986 29.6146 87.1975 29.3995C86.4661 28.9263 85.8208 28.367 85.2616 27.7217C84.8314 27.2915 84.4442 26.7753 84.1431 26.259C83.8419 25.7858 83.5838 25.2696 83.3687 24.7964C83.2396 24.4522 83.1106 24.108 82.9815 23.7639C82.9385 23.6348 82.8525 23.5058 82.8094 23.3767C82.7234 22.9035 82.6374 22.3872 82.5513 21.914C82.4223 21.2257 82.3792 20.5374 82.4223 19.8491C82.4223 19.4189 82.5083 18.9887 82.5513 18.5585C82.5943 18.1713 82.6804 17.8271 82.7664 17.44C82.7664 17.3969 82.7664 17.3109 82.7664 17.2679C82.8094 17.0958 82.8525 16.9237 82.9385 16.7517C82.9815 16.6226 83.0245 16.4935 83.0676 16.3645C83.1536 16.0203 83.2827 15.7192 83.4547 15.375C83.7559 14.7297 84.1 14.1705 84.4872 13.5682C84.6163 13.3961 84.7453 13.224 84.8744 13.095C85.1325 12.8369 85.3046 12.4927 85.6487 12.2776C85.7348 12.2346 85.7778 12.1055 85.8638 12.0195C86.0789 11.8474 86.251 11.6323 86.5091 11.4602C86.9824 11.073 87.4986 10.7289 88.0148 10.3847C88.2299 10.2557 88.445 10.1266 88.6601 10.0406C89.0043 9.86848 89.3054 9.73943 89.6496 9.61037C89.7786 9.56735 89.9507 9.52433 90.0798 9.48131C90.639 9.35225 91.1983 9.22319 91.8006 9.09413C92.5319 9.00809 93.2632 8.96507 93.9946 9.00809C94.3818 9.00809 94.7259 9.05111 95.1131 9.09413C95.1991 9.09413 95.3282 9.18017 95.4142 9.18017C95.8875 9.22319 96.4037 9.35225 96.8339 9.52432C97.006 9.56734 97.135 9.65338 97.3071 9.73942C97.3501 9.73942 97.3501 9.78244 97.3931 9.78244C97.8233 9.9115 98.2105 10.0836 98.5977 10.2987C98.8988 10.4277 99.2 10.6428 99.4581 10.8579C99.8453 11.1161 100.189 11.4172 100.534 11.7183C100.749 11.8904 100.921 12.0625 101.093 12.2346C101.437 12.5787 101.781 12.9659 102.125 13.3531C102.211 13.4821 102.297 13.6112 102.34 13.7403C102.599 14.1274 102.814 14.4716 103.072 14.8588C103.115 14.9018 103.115 14.9448 103.158 14.9878C103.201 15.2029 103.287 15.418 103.459 15.5901C103.502 15.6762 103.545 15.7622 103.588 15.8482C103.674 16.0203 103.717 16.1924 103.803 16.3645C103.889 16.5366 103.932 16.7517 103.975 16.9668C104.061 17.3969 104.19 17.8702 104.233 18.3004C104.362 19.2038 104.405 20.1502 104.405 21.0536C104.405 21.2257 104.362 21.3978 104.319 21.5699C104.276 21.828 104.276 22.0861 104.19 22.3442C104.104 22.8174 103.975 23.2907 103.889 23.7639C103.846 23.8929 103.803 24.065 103.717 24.1941C103.717 24.2371 103.674 24.2801 103.674 24.2801C103.545 24.5813 103.459 24.9254 103.33 25.2266C103.33 25.2696 103.33 25.2696 103.287 25.2696C102.9 25.8718 102.556 26.4311 102.168 26.9904C102.039 27.2055 101.867 27.3775 101.695 27.5496C101.351 27.9368 100.964 28.281 100.577 28.6251C100.146 29.0983 99.6302 29.4425 99.0709 29.7436C98.9849 29.7867 98.8988 29.8727 98.8128 29.9157C98.4256 30.1738 98.0384 30.3459 97.6082 30.518C97.092 30.7331 96.5758 30.9482 96.0165 31.0772C95.7154 31.1633 95.4142 31.2063 95.1131 31.2493C94.5538 31.2923 93.9946 31.3354 93.3923 31.3354C93.3923 31.3784 93.3923 31.3784 93.3923 31.3354ZM88.7032 20.2363C88.6601 20.8385 88.7462 21.4408 88.9613 22.0431C89.0473 22.2582 89.1333 22.4733 89.2624 22.6884C89.3054 22.8174 89.3915 22.9465 89.4775 23.0325C89.6066 23.2046 89.7356 23.3767 89.8647 23.5058C89.9077 23.5918 89.9937 23.6778 90.0798 23.7209C90.2949 23.8929 90.467 24.108 90.7251 24.2801C90.9402 24.4522 91.1983 24.6243 91.4564 24.7533C91.9727 24.9684 92.4889 25.1405 93.0481 25.1835C93.4783 25.2266 93.9516 25.2265 94.3818 25.1405C95.1561 25.0114 95.8875 24.6243 96.4467 24.065C96.5758 23.936 96.7048 23.8499 96.8339 23.7209C97.092 23.4197 97.3071 23.0756 97.5222 22.7744C97.7373 22.4733 97.8664 22.1291 97.9524 21.7419C97.9954 21.5268 98.0384 21.3548 98.0815 21.1397C98.1245 20.8816 98.1675 20.6234 98.2105 20.3653C98.2105 20.1072 98.1675 19.8921 98.1675 19.634C98.1675 19.4189 98.1245 19.1608 98.0815 18.9457C97.9524 18.3434 97.6943 17.7841 97.3071 17.2679C97.049 16.9667 96.8339 16.6226 96.5328 16.3645C96.2746 16.1064 95.9735 15.8913 95.6724 15.6762C94.984 15.246 94.2097 15.246 93.4353 15.1599C93.1772 15.1169 92.8761 15.1599 92.6179 15.246C92.1017 15.375 91.5855 15.5901 91.1123 15.8913C90.9402 15.9773 90.8111 16.1064 90.6821 16.2354C90.2519 16.5366 89.9077 16.9668 89.6066 17.3969C89.5205 17.526 89.4775 17.612 89.4345 17.7411C89.3484 17.9562 89.2194 18.1283 89.1334 18.3434C88.9613 18.8166 88.8752 19.2898 88.8752 19.8061C88.7462 19.9781 88.7462 20.1072 88.7032 20.2363Z" fill="#B3C1D5"/>
<path d="M80.7451 9.52471V15.5475L80.616 15.5045C80.444 15.4184 80.2289 15.3754 80.0138 15.3754C79.8417 15.3754 79.7126 15.3324 79.5405 15.2894C79.4115 15.2463 79.2394 15.2463 79.1103 15.2463C78.7662 15.2033 78.4651 15.1603 78.1209 15.2033C77.5186 15.2033 76.9163 15.2894 76.3571 15.4614C76.228 15.5045 76.0559 15.5475 75.8839 15.5905C75.2816 15.7626 74.7223 16.0637 74.2061 16.4939C73.991 16.666 73.7759 16.8811 73.6038 17.1392C73.4317 17.3543 73.3027 17.6124 73.1306 17.8705C73.0876 17.9136 73.0876 17.9996 73.0876 18.0426C73.0015 18.2147 72.9585 18.3868 72.8725 18.5158C72.8725 18.5589 72.8295 18.6019 72.8295 18.6449C72.7864 18.817 72.7864 18.946 72.7434 19.1181C72.7004 19.2902 72.7004 19.4623 72.7004 19.6344C72.7004 19.8925 72.7004 20.1076 72.7004 20.3657C72.7004 20.8819 72.7864 21.3982 72.9585 21.8714C73.1736 22.4737 73.4748 22.9899 73.8619 23.5061C74.034 23.7212 74.2061 23.8933 74.4212 24.0224C74.4642 24.0654 74.5072 24.0654 74.5933 24.1084C75.2816 24.6247 76.099 24.9688 76.9594 25.1409C77.0884 25.1839 77.2175 25.1839 77.3896 25.1839C77.7767 25.2269 78.1209 25.2269 78.5081 25.2269C78.9383 25.2269 79.3685 25.1409 79.7556 25.0979C80.0568 25.0549 80.3579 25.0549 80.7021 25.0118V30.9916C80.487 31.0346 80.2719 31.0346 80.0568 31.0776L79.3254 31.2067C79.1103 31.2497 78.9383 31.2927 78.7232 31.2927C78.0779 31.3357 77.3896 31.3788 76.7443 31.3788C76.3141 31.3788 75.8839 31.3358 75.4537 31.2497C75.1095 31.2067 74.7653 31.0776 74.4212 31.0346C73.948 30.9486 73.5178 30.8195 73.0876 30.6474C72.5713 30.4753 72.0551 30.2172 71.5819 29.9161C71.4528 29.8301 71.2807 29.787 71.1517 29.701C70.4634 29.2278 69.8181 28.6685 69.2588 28.0662C68.7426 27.507 68.2694 26.8617 67.8822 26.1734L67.495 25.4851C67.495 25.4851 67.495 25.442 67.452 25.442C67.2799 24.9688 67.1508 24.5386 67.0218 24.0654C66.8927 23.5922 66.7637 23.162 66.6776 22.6888C66.5916 22.3876 66.5486 22.1295 66.5486 21.8284C66.5055 21.054 66.4625 20.2797 66.4625 19.5053C66.4625 18.903 66.5486 18.3007 66.6346 17.7415C66.7206 17.1392 66.9357 16.5369 67.0648 15.9777C67.0648 15.9347 67.1078 15.8486 67.1508 15.8056L67.3229 15.3754C67.3659 15.2033 67.452 15.0743 67.538 14.9022C67.8392 14.3859 68.1403 13.9127 68.4414 13.3965C68.5705 13.2244 68.6565 13.0954 68.8286 12.9663C69.0007 12.7942 69.1728 12.5791 69.3449 12.407C69.5169 12.235 69.732 12.0629 69.9041 11.8908C70.5064 11.4176 71.1087 10.9874 71.797 10.5572C71.883 10.5142 71.9691 10.4711 72.0551 10.4281L72.7434 10.127C72.9155 10.0409 73.1306 9.99793 73.3027 9.91189C73.4748 9.82585 73.6899 9.73981 73.8619 9.69679C74.12 9.61075 74.4212 9.56773 74.6793 9.48169C74.7223 9.48169 74.7653 9.48169 74.8084 9.48169C75.2386 9.39565 75.7118 9.30961 76.142 9.26659C77.0024 9.18055 77.8628 9.18055 78.7662 9.22357C79.0673 9.22357 79.3685 9.26659 79.6696 9.35263L80.3149 9.43867C80.444 9.43867 80.53 9.48169 80.6591 9.52471" fill="#B3C1D5"/>
<path d="M52.1803 30.9914H46.2006C46.2006 23.807 46.2006 16.6658 46.2006 9.48145H52.1803V30.9914Z" fill="#B3C1D5"/>
</svg>
