<svg width="90" height="30" viewBox="0 0 90 30" fill="none" xmlns="http://www.w3.org/2000/svg">
<path d="M16.975 0.355469C16.7384 0.355469 16.5491 0.520579 16.4545 0.795763L11.3916 18.0773C11.3443 18.1874 11.2496 18.2424 11.155 18.2424C11.1077 18.2424 11.0604 18.1874 11.013 18.0773L5.99748 0.795763C5.95016 0.520579 5.71357 0.355469 5.47699 0.355469H0.556053C0.224836 0.355469 -0.0117467 0.685689 0.03557 1.07095C0.03557 1.12598 0.0355693 1.18102 0.082886 1.29109L7.98478 29.0847C8.03209 29.3598 8.26868 29.525 8.50526 29.525H13.8521C14.0886 29.525 14.2779 29.3598 14.3725 29.0847L22.4637 0.850798C22.511 0.685688 22.4637 0.465541 22.2744 0.410505H22.1798L16.975 0.355469Z" fill="#B3C1D5"/>
<path d="M89.3235 0.300781H83.8821C83.5508 0.300781 83.3143 0.575966 83.2669 0.961223V16.8118C83.2669 16.9219 83.1723 17.032 83.0777 17.032C83.0304 17.032 82.983 16.9769 82.9357 16.9769L74.2768 4.26343C72.5734 1.78677 69.9709 0.355819 67.2739 0.355819H65.9963C65.6651 0.355819 65.4285 0.631004 65.4285 1.01626L65.3812 20.004C65.3812 20.114 65.2866 20.1691 65.2393 20.1691C65.192 20.1691 65.0973 20.114 65.0973 20.059L58.9461 0.796113C58.8515 0.520929 58.6149 0.355819 58.3783 0.355819H52.3218C52.0852 0.355819 51.8486 0.520929 51.754 0.796113L45.035 21.6551C44.9404 21.9302 44.7038 22.0953 44.4672 22.0953H30.7454C30.6508 22.0953 30.6034 22.0403 30.6034 21.9302C30.6034 21.8752 30.6034 21.8202 30.6508 21.7651L42.196 10.7578C44.1833 8.88652 45.3663 6.02461 45.3663 3.05262V0.961223C45.3663 0.575966 45.0824 0.300781 44.7985 0.300781H25.162C24.9254 0.300781 24.7362 0.465892 24.6415 0.686039L22.6069 7.07031C22.5596 7.23542 22.6542 7.45556 22.7962 7.5106C22.8435 7.5106 22.8908 7.5106 22.8908 7.5106L35.9975 7.56564C36.0922 7.56564 36.1395 7.62067 36.1395 7.73075C36.1395 7.78578 36.1395 7.84082 36.0922 7.89586L24.3103 19.1234C22.2757 21.0496 21.1401 23.8565 21.0928 26.8835V28.6998C21.0928 29.085 21.3767 29.3602 21.6606 29.3602H48.8677C49.1043 29.3602 49.3409 29.1951 49.4355 28.9199L55.1135 11.6384C55.1608 11.5283 55.3028 11.4182 55.3974 11.4732C55.4447 11.4732 55.492 11.5283 55.5393 11.6384L61.2174 28.9199C61.312 29.1951 61.5486 29.3602 61.7852 29.3602H71.3904C71.8163 29.3602 72.1002 28.9749 72.1475 28.5346V12.1337C72.1475 12.0236 72.2421 11.9686 72.2895 11.9686C72.3368 11.9686 72.3841 11.9686 72.3841 12.0236L81.327 25.5627C83.0304 28.0393 85.6328 29.5253 88.3771 29.5253H89.3235C89.6547 29.5253 89.8913 29.2501 89.8913 28.8649V1.01626C89.9386 0.631004 89.6547 0.300781 89.3235 0.300781Z" fill="#B3C1D5"/>
</svg>
