<svg width="136" height="42" viewBox="0 0 136 42" fill="none" xmlns="http://www.w3.org/2000/svg">
<path d="M16.2198 37.499C1.42075 28.8237 3.9723 7.39062 3.9723 7.39062C3.9723 7.39062 -9.29578 29.8443 16.2198 37.499Z" fill="#B3C1D5"/>
<path d="M14.6906 0.246094C14.6906 0.246094 11.1184 0.756405 9.07713 1.77703C9.07713 1.77703 3.97403 23.2101 17.7524 35.4576C17.7524 35.4576 6.01527 22.6998 14.6906 0.246094Z" fill="#B3C1D5"/>
<path d="M17.752 0.246094C17.752 0.246094 23.8757 0.246094 26.4273 2.79765C26.4273 2.79765 12.1386 28.3132 29.9994 41.5813C29.9994 41.5813 7.03545 34.9472 17.752 0.246094Z" fill="#B3C1D5"/>
<path d="M53.0621 8.18643L50.0819 21.0054C49.8778 21.9444 49.6737 22.9038 49.4695 23.8428C49.245 24.8634 49.0409 25.9248 48.7959 26.9863C48.2652 24.8226 47.7549 22.863 47.265 20.985L43.7132 8.18643H41.672L37.9978 20.985C37.4058 23.1896 36.9363 25.0879 36.4872 26.925L35.6912 23.3529C35.5074 22.5772 35.3441 21.7811 35.1604 21.0054L32.3027 8.18643H30.0981L35.385 29.9869H37.4262L41.6516 15.0246C41.8149 14.3306 41.9986 13.6774 42.1619 13.0446C42.3252 12.4526 42.4885 11.8198 42.6518 11.1871C42.7947 11.779 42.9376 12.3506 43.0805 12.9017C43.2642 13.5957 43.4275 14.2693 43.6112 15.0246L47.7753 29.9665H49.8574L55.1238 8.16602L53.0621 8.18643Z" fill="#B3C1D5"/>
<path d="M57.6372 30.0074H59.6376V19.74H69.2111V17.9437H59.6376V10.0032H72.2933V8.18652H57.6372V30.0074Z" fill="#B3C1D5"/>
<path d="M75.9472 8.18652H73.9468V30.0074H88.2967V28.1907H75.9472V8.18652Z" fill="#B3C1D5"/>
<path d="M98.7884 7.9209C92.6443 7.9209 88.521 12.3912 88.521 19.0253C88.521 25.7614 92.6443 30.2929 98.7884 30.2929C104.933 30.2929 109.035 25.7614 109.035 19.0253C109.015 12.3708 104.912 7.9209 98.7884 7.9209ZM106.953 19.0253C106.953 24.7203 103.892 28.1088 98.7884 28.1088C93.7262 28.1088 90.5826 24.6183 90.5826 19.0049C90.5826 13.3914 93.6445 10.0642 98.7884 10.0642C103.932 10.0642 106.933 13.4323 106.953 19.0253Z" fill="#B3C1D5"/>
<path d="M133.876 8.43154L130.875 21.2506C130.671 22.1895 130.467 23.1489 130.263 24.0879C130.038 25.1085 129.814 26.17 129.589 27.2314C129.059 25.0881 128.548 23.1081 128.058 21.2301L124.507 8.43154H122.465L118.791 21.2301C118.199 23.4347 117.73 25.333 117.281 27.1702C117.015 25.9658 116.75 24.7615 116.485 23.5776L115.974 21.2301L113.117 8.41113H110.932L116.199 30.2116H118.24L122.465 15.2493C122.629 14.5553 122.812 13.9021 122.976 13.2693C123.139 12.6773 123.302 12.065 123.466 11.4118C123.609 12.0037 123.751 12.5753 123.894 13.1468C124.058 13.8408 124.241 14.5144 124.425 15.2697L128.589 30.232H130.671L135.938 8.43154H133.876Z" fill="#B3C1D5"/>
<path d="M30.1194 34.5801H30.6297L31.5278 38.6422C31.6911 39.377 31.8544 40.1323 32.0177 40.8875H32.0586C32.2423 40.1323 32.426 39.3974 32.6097 38.6422L33.7732 34.5801H34.2835L35.4062 38.6422C35.6103 39.377 35.794 40.1323 35.9777 40.8875H36.0186C36.2023 40.1323 36.3248 39.3974 36.5085 38.6422L37.4474 34.5801H37.8965L36.2635 41.4182H35.7532L34.4468 36.6621C34.3243 36.1314 34.2019 35.6619 34.059 35.1108H34.0182C33.8957 35.6619 33.7528 36.111 33.6303 36.6621L32.3035 41.4182H31.7932L30.1194 34.5801Z" fill="#B3C1D5"/>
<path d="M39.8762 38.9477C39.8762 37.3147 40.9377 36.3145 42.0399 36.3145C43.2034 36.3145 43.9383 37.1514 43.9383 38.6211C43.9383 38.7435 43.9383 38.866 43.9179 38.9885H40.3049C40.3049 40.2541 41.0601 41.1726 42.1828 41.1726C42.6727 41.1726 43.1422 41.0297 43.53 40.7644L43.7138 41.0501C43.2647 41.3767 42.7136 41.5605 42.142 41.54C40.8968 41.54 39.8762 40.5602 39.8762 38.9477ZM43.53 38.6211C43.53 37.3351 42.9381 36.6819 42.0399 36.6819C41.1826 36.6819 40.4274 37.3963 40.3253 38.6211H43.53Z" fill="#B3C1D5"/>
<path d="M45.7756 40.1724C45.7756 39.0701 46.1839 38.274 49.0008 38.6006C49.0008 37.825 48.7967 36.6819 47.8169 36.6819C47.429 36.6819 47.0412 36.7839 46.6942 36.9677L46.4492 36.6819C46.8779 36.4369 47.3678 36.3145 47.8577 36.3145C49.0212 36.3145 49.4295 37.1718 49.4295 38.2128V41.4176H49.062L49.0212 40.7644H48.9804C48.4701 41.1726 47.8577 41.54 47.2045 41.54C46.4288 41.54 45.7756 41.1114 45.7756 40.1724ZM49.0008 40.3561V38.9477C46.388 38.7027 46.2043 39.3559 46.2043 40.1724C46.2043 40.9073 46.6942 41.1726 47.2862 41.1726C47.8781 41.1726 48.368 40.8868 49.0008 40.3561Z" fill="#B3C1D5"/>
<path d="M52.228 41.5407V33.9473H52.6567V41.5407H52.228Z" fill="#B3C1D5"/>
<path d="M54.7784 40.0506V36.8254H54.0027V36.4784L54.7988 36.4376L54.86 34.7842H55.2274V36.4376H56.6767V36.8254H55.2274V40.0914C55.2274 40.7242 55.3907 41.1733 56.0848 41.1733C56.3093 41.1733 56.5134 41.112 56.7175 41.01L56.8604 41.3162C56.6155 41.459 56.3297 41.5407 56.0439 41.5407C55.0641 41.5407 54.7784 40.9487 54.7784 40.0506Z" fill="#B3C1D5"/>
<path d="M58.9016 33.9473H59.3915V36.1314L59.3711 37.2337C59.9835 36.7234 60.5754 36.3151 61.3715 36.3151C62.5554 36.3151 63.1066 36.9275 63.1066 38.2135V41.4182H62.6167V38.2747C62.6167 37.2133 62.2288 36.7029 61.2899 36.7029C60.5958 36.7029 60.0855 37.0295 59.3915 37.6623V41.4182H58.9016V33.9473Z" fill="#B3C1D5"/>
<path d="M69.0454 34.5801H72.7401V34.9679H69.4741V37.7236H72.2502V38.1114H69.4945V41.4182H69.0454V34.5801Z" fill="#B3C1D5"/>
<path d="M76.9446 38.9477C76.9446 37.2943 77.9856 36.3145 79.1695 36.3145C80.3535 36.3145 81.3945 37.2738 81.3945 38.9477C81.3945 40.6215 80.3535 41.5605 79.1695 41.5605C77.9856 41.5605 76.9446 40.5807 76.9446 38.9477ZM80.9658 38.9477C80.9658 37.6209 80.1902 36.7023 79.1899 36.7023C78.1897 36.7023 77.4141 37.6209 77.4141 38.9477C77.4141 40.2745 78.1897 41.1726 79.1899 41.1726C80.1902 41.1726 80.9658 40.2745 80.9658 38.9477Z" fill="#B3C1D5"/>
<path d="M83.2122 36.4374H83.6612L84.5798 39.683C84.7023 40.1321 84.8247 40.5607 84.9268 41.0098H84.988C85.1105 40.5607 85.233 40.1321 85.3555 39.683L86.274 36.417H86.8252L87.7233 39.683C87.8458 40.1321 87.9682 40.5607 88.0907 41.0098H88.1316C88.254 40.5607 88.3765 40.1321 88.499 39.683L89.3971 36.417H89.8258L88.3765 41.3976H87.805L86.9272 38.2745C86.7843 37.805 86.6823 37.356 86.5598 36.8457H86.519C86.3965 37.3356 86.274 37.805 86.1107 38.2949L85.2534 41.3976H84.7227L83.2122 36.4374Z" fill="#B3C1D5"/>
<path d="M96.6455 34.5801H97.0741L99.5032 41.4182H99.0337L98.2172 39.0504H95.5024L94.6859 41.4182H94.2368L96.6455 34.5801ZM95.6453 38.6626H98.0948L97.6457 37.3562C97.3599 36.5397 97.1354 35.8252 96.87 34.9883H96.8292C96.5842 35.8252 96.3597 36.5397 96.0739 37.3562L95.6453 38.6626Z" fill="#B3C1D5"/>
<path d="M101.156 38.9483C101.156 37.3357 102.176 36.3151 103.36 36.3151C103.952 36.3151 104.361 36.5396 104.871 36.9275L104.85 36.0089V33.9473H105.279V41.4182H104.912L104.871 40.765H104.83C104.422 41.2345 103.83 41.5203 103.197 41.5407C101.972 41.5407 101.156 40.6221 101.156 38.9483ZM104.85 40.3364V37.3561C104.32 36.8867 103.871 36.7029 103.381 36.7029C102.381 36.7029 101.605 37.6827 101.605 38.9483C101.605 40.2751 102.197 41.1733 103.258 41.1733C103.83 41.1529 104.32 40.8671 104.85 40.3364Z" fill="#B3C1D5"/>
<path d="M107.279 36.4365H107.748L108.871 39.58C109.034 40.0495 109.218 40.5598 109.381 41.0089H109.422C109.585 40.5598 109.769 40.0495 109.932 39.58L111.055 36.4365H111.504L109.667 41.4172H109.177L107.279 36.4365Z" fill="#B3C1D5"/>
<path d="M113.036 34.8045C113.015 34.6004 113.179 34.4167 113.383 34.3963C113.587 34.3758 113.771 34.5391 113.791 34.7433C113.791 34.7637 113.791 34.7841 113.791 34.8045C113.811 35.0086 113.648 35.1923 113.444 35.2128C113.24 35.2332 113.056 35.0699 113.036 34.8657C113.036 34.8453 113.036 34.8249 113.036 34.8045ZM113.199 36.4375H113.628V41.4181H113.199V36.4375Z" fill="#B3C1D5"/>
<path d="M115.751 41.5613L115.812 41.1735C116.567 41.1735 116.751 41.1735 117.486 41.1735C118.282 41.1735 118.69 40.704 118.69 40.1733C118.69 39.5405 118.037 39.2547 117.466 39.0506C116.69 38.7852 115.914 38.4791 115.914 37.6217C115.914 36.9073 116.465 36.2949 117.506 36.2949C118.017 36.2949 118.527 36.4786 118.915 36.8052L118.67 37.0706C118.323 36.8052 117.915 36.6623 117.486 36.6623C116.69 36.6623 116.343 37.1114 116.343 37.5809C116.343 38.1525 116.874 38.377 117.486 38.6015C118.282 38.9077 119.119 39.1527 119.119 40.112C119.119 40.8673 118.507 41.5205 117.445 41.5205C116.69 41.5409 116.69 41.5409 115.751 41.5613Z" fill="#B3C1D5"/>
<path d="M121.363 38.9477C121.363 37.2943 122.404 36.3145 123.588 36.3145C124.772 36.3145 125.813 37.2738 125.813 38.9477C125.813 40.6215 124.772 41.5605 123.588 41.5605C122.404 41.5605 121.363 40.5807 121.363 38.9477ZM125.384 38.9477C125.384 37.6209 124.608 36.7023 123.608 36.7023C122.608 36.7023 121.832 37.6209 121.832 38.9477C121.832 40.2745 122.608 41.1726 123.608 41.1726C124.608 41.1726 125.384 40.2745 125.384 38.9477Z" fill="#B3C1D5"/>
<path d="M128.141 36.4369H128.508L128.549 37.3759H128.57C128.896 36.7635 129.386 36.3145 129.978 36.3145C130.141 36.3145 130.305 36.3349 130.468 36.4165L130.346 36.7839C130.203 36.7431 130.06 36.7227 129.917 36.7227C129.468 36.7227 128.937 37.0697 128.549 38.0087V41.4176H128.121L128.141 36.4369Z" fill="#B3C1D5"/>
<path d="M74.2737 41.5407V33.9473H74.7023V41.5407H74.2737Z" fill="#B3C1D5"/>
<path d="M132.081 41.5613L132.142 41.1735C132.897 41.1735 133.081 41.1735 133.816 41.1735C134.612 41.1735 135.02 40.704 135.02 40.1733C135.02 39.5405 134.367 39.2547 133.795 39.0506C133.02 38.7852 132.244 38.4791 132.244 37.6217C132.244 36.9073 132.795 36.2949 133.836 36.2949C134.347 36.2949 134.857 36.4786 135.245 36.8052L135 37.0706C134.653 36.8052 134.245 36.6623 133.816 36.6623C133.02 36.6623 132.673 37.1114 132.673 37.5809C132.673 38.1525 133.203 38.377 133.816 38.6015C134.612 38.9077 135.449 39.1527 135.449 40.112C135.449 40.8673 134.836 41.5205 133.775 41.5205C133.02 41.5409 133.02 41.5409 132.081 41.5613Z" fill="#B3C1D5"/>
</svg>
