<svg width="45" height="45" viewBox="0 0 45 45" fill="none" xmlns="http://www.w3.org/2000/svg">
<path d="M32.9137 16.4526L32.835 18.8518L32.0514 18.8154L32.0514 18.8151H32.0398C31.8755 18.8151 31.7139 18.8128 31.5556 18.8106C31.1775 18.8052 30.8186 18.8002 30.489 18.8271C30.0091 18.8664 29.5576 18.9743 29.1236 19.2562C28.2549 19.8204 27.8594 20.8718 27.8594 21.8662V25.8662V26.1162H28.1094H32.5838L32.0841 28.6162H28.1094H27.8594V28.8662V44.6162H24.3594V28.8662V28.6162H24.1094H21.3594V26.1162H24.1094H24.3594V25.8662V21.8662C24.3594 20.0709 24.8143 18.6118 25.5858 17.6474C26.3513 16.6906 27.4282 16.1162 29.1094 16.1162C30.1428 16.1162 30.9955 16.158 31.6629 16.2292C32.2164 16.2882 32.6314 16.3663 32.9137 16.4526Z" stroke="#232323" stroke-width="0.5"/>
<rect x="1.20156" y="1.21621" width="43.3" height="43.3" rx="6.65" stroke="#232323" stroke-width="0.7"/>
</svg>
