<svg width="45" height="45" viewBox="0 0 45 45" fill="none" xmlns="http://www.w3.org/2000/svg">
<path d="M7.84375 17.249C7.84375 17.249 7.84375 17.249 7.84375 17.2491V36.249C7.8438 36.6632 8.17957 36.999 8.59378 36.999H14.5938C15.0079 36.999 15.3437 36.6632 15.3438 36.249V30.3838V17.2491C15.3438 17.249 15.3438 17.249 15.3438 17.249C15.3437 16.8348 15.0079 16.4991 14.5938 16.499L7.84375 17.249ZM7.84375 17.249C7.84381 16.8348 8.17956 16.4991 8.59375 16.499M7.84375 17.249L8.59375 16.499M8.59375 16.499C8.59376 16.499 8.59377 16.499 8.59378 16.499M8.59375 16.499H8.59378M8.59378 16.499H14.5937H8.59378Z" stroke="#232323" stroke-width="0.5"/>
<path d="M14.8438 11.8077C14.8438 13.4925 13.3981 14.8811 11.5859 14.8811C9.7738 14.8811 8.32812 13.4925 8.32812 11.8077C8.32812 10.1229 9.7738 8.73438 11.5859 8.73438C13.3981 8.73438 14.8438 10.1229 14.8438 11.8077Z" stroke="#232323" stroke-width="0.5"/>
<rect x="0.94375" y="1.21621" width="43.3" height="43.3" rx="6.65" stroke="#232323" stroke-width="0.7"/>
</svg>
